<svg width="390" height="844" viewBox="0 0 390 844" fill="none" xmlns="http://www.w3.org/2000/svg">
<rect width="390" height="844" fill="white"/>
<path d="M32.5165 23.1565C31.6653 23.1565 30.9047 23.3377 30.2347 23.7001C29.5702 24.0571 29.0485 24.5513 28.6696 25.1829C28.2962 25.8089 28.1095 26.5256 28.1095 27.3328V27.3493C28.1095 28.0962 28.2742 28.7661 28.6037 29.3592C28.9387 29.9523 29.3972 30.4191 29.9794 30.7596C30.5615 31.1001 31.2314 31.2703 31.9893 31.2703C32.5384 31.2703 33.0162 31.1879 33.4226 31.0232C33.8345 30.8584 34.1804 30.6415 34.4605 30.3724C34.7406 30.1033 34.952 29.8123 35.0948 29.4993H35.3831V27.3081H34.8889V27.3246C34.8889 27.7694 34.7845 28.1676 34.5758 28.519C34.3672 28.8705 34.0843 29.1451 33.7274 29.3428C33.3704 29.5405 32.9668 29.6393 32.5165 29.6393C32.0662 29.6393 31.6653 29.5377 31.3138 29.3345C30.9624 29.1313 30.685 28.854 30.4818 28.5025C30.2786 28.1456 30.1771 27.7365 30.1771 27.2752V27.2587C30.1771 26.8139 30.2841 26.413 30.4983 26.056C30.7125 25.6936 30.9981 25.408 31.355 25.1993C31.712 24.9907 32.1046 24.8863 32.533 24.8863C32.9778 24.8863 33.3759 24.9934 33.7274 25.2076C34.0843 25.4218 34.3672 25.7128 34.5758 26.0807C34.7845 26.4487 34.8889 26.8578 34.8889 27.3081L35.2595 29.2933C35.2595 29.3702 35.2595 29.4498 35.2595 29.5322C35.2595 29.6091 35.2568 29.6887 35.2513 29.7711C35.2238 30.5289 35.1085 31.2209 34.9053 31.8469C34.7076 32.4675 34.4083 32.9645 34.0075 33.3379C33.6121 33.7058 33.1013 33.8898 32.4753 33.8898C32.1293 33.8898 31.8163 33.8349 31.5362 33.7251C31.2616 33.6097 31.0255 33.4477 30.8278 33.2391C30.6356 33.0304 30.4873 32.7887 30.383 32.5142L30.35 32.4318H28.266L28.2824 32.5224C28.4142 33.1265 28.6696 33.6647 29.0485 34.1369C29.4329 34.6037 29.9162 34.9717 30.4983 35.2408C31.0859 35.5043 31.7449 35.6361 32.4753 35.6361C33.4693 35.6361 34.3232 35.3835 35.0371 34.8783C35.7565 34.3676 36.3084 33.6372 36.6929 32.6872C37.0773 31.7371 37.2695 30.5948 37.2695 29.2604V29.2439C37.2695 28.1676 37.1432 27.2477 36.8905 26.4844C36.6379 25.7156 36.2892 25.0868 35.8444 24.598C35.4051 24.1038 34.8998 23.7413 34.3287 23.5107C33.7576 23.2745 33.1535 23.1565 32.5165 23.1565ZM41.0093 33.7415C41.3882 33.7415 41.7012 33.618 41.9483 33.3709C42.1954 33.1182 42.319 32.8107 42.319 32.4483C42.319 32.0803 42.1954 31.7728 41.9483 31.5257C41.7012 31.2731 41.3882 31.1468 41.0093 31.1468C40.6358 31.1468 40.3228 31.2731 40.0702 31.5257C39.8231 31.7728 39.6995 32.0803 39.6995 32.4483C39.6995 32.8107 39.8231 33.1182 40.0702 33.3709C40.3228 33.618 40.6358 33.7415 41.0093 33.7415ZM41.0093 27.6294C41.3882 27.6294 41.7012 27.5058 41.9483 27.2587C42.1954 27.0061 42.319 26.6986 42.319 26.3361C42.319 25.9682 42.1954 25.6606 41.9483 25.4135C41.7012 25.1609 41.3882 25.0346 41.0093 25.0346C40.6358 25.0346 40.3228 25.1609 40.0702 25.4135C39.8231 25.6606 39.6995 25.9682 39.6995 26.3361C39.6995 26.6986 39.8231 27.0061 40.0702 27.2587C40.3228 27.5058 40.6358 27.6294 41.0093 27.6294ZM50.5152 35.3396H52.5416V33.0578H54.1479V31.3033H52.5416V23.453H49.5515C49.222 23.9418 48.8925 24.4442 48.563 24.9605C48.239 25.4712 47.9122 25.9901 47.5827 26.5173C47.2587 27.039 46.932 27.569 46.6025 28.1071C46.2785 28.6398 45.9572 29.1753 45.6387 29.7134C45.3257 30.2516 45.0126 30.7871 44.6996 31.3197V33.0578H50.5152V35.3396ZM46.6766 31.3527V31.2291C46.9072 30.8227 47.1461 30.4136 47.3933 30.0018C47.6404 29.5844 47.8902 29.1698 48.1429 28.7579C48.3955 28.3405 48.6508 27.9259 48.9089 27.5141C49.167 27.1022 49.4224 26.6986 49.675 26.3032C49.9331 25.9078 50.183 25.5233 50.4246 25.1499H50.5482V31.3527H46.6766ZM59.0657 35.3396H61.1827V23.453H59.0657L55.9602 25.6359V27.6294L58.9174 25.5453H59.0657V35.3396Z" fill="black"/>
<rect opacity="0.35" x="351.592" y="23.5" width="24" height="12" rx="3.8" stroke="black"/>
<path opacity="0.4" d="M377.092 27.7811V31.8566C377.896 31.5114 378.42 30.7085 378.42 29.8189C378.42 28.9293 377.896 28.1263 377.092 27.7811Z" fill="black"/>
<rect x="353.092" y="25" width="21" height="9" rx="2.5" fill="black"/>
<path fill-rule="evenodd" clip-rule="evenodd" d="M335.362 26.104C337.849 26.1041 340.241 27.0262 342.044 28.6797C342.179 28.8074 342.396 28.8058 342.53 28.6761L343.828 27.4126C343.895 27.3469 343.933 27.2578 343.932 27.1651C343.932 27.0724 343.893 26.9838 343.825 26.9188C339.094 22.5441 331.63 22.5441 326.899 26.9188C326.83 26.9837 326.791 27.0724 326.791 27.165C326.79 27.2577 326.828 27.3468 326.896 27.4126L328.193 28.6761C328.327 28.8059 328.544 28.8076 328.68 28.6797C330.482 27.0261 332.875 26.104 335.362 26.104ZM335.359 30.3243C336.716 30.3242 338.025 30.836 339.031 31.7601C339.167 31.8913 339.382 31.8884 339.514 31.7537L340.801 30.4344C340.869 30.3652 340.907 30.2713 340.906 30.1738C340.905 30.0762 340.865 29.9831 340.796 29.9153C337.732 27.0245 332.988 27.0245 329.924 29.9153C329.855 29.9831 329.815 30.0762 329.814 30.1738C329.813 30.2714 329.851 30.3653 329.919 30.4344L331.206 31.7537C331.339 31.8884 331.553 31.8913 331.689 31.7601C332.694 30.8366 334.002 30.3249 335.359 30.3243ZM337.883 33.1179C337.885 33.2232 337.848 33.3248 337.781 33.3986L335.604 35.8533C335.54 35.9255 335.453 35.9661 335.363 35.9661C335.272 35.9661 335.185 35.9255 335.121 35.8533L332.944 33.3986C332.877 33.3247 332.84 33.2231 332.842 33.1178C332.844 33.0124 332.884 32.9127 332.954 32.842C334.345 31.5282 336.38 31.5282 337.771 32.842C337.841 32.9127 337.881 33.0125 337.883 33.1179Z" fill="black"/>
<path fill-rule="evenodd" clip-rule="evenodd" d="M319.292 24.6821C319.292 24.049 318.814 23.5358 318.225 23.5358H317.158C316.569 23.5358 316.092 24.049 316.092 24.6821V34.616C316.092 35.2491 316.569 35.7622 317.158 35.7622H318.225C318.814 35.7622 319.292 35.2491 319.292 34.616V24.6821ZM311.857 25.9811H312.924C313.513 25.9811 313.991 26.5066 313.991 27.1548V34.5885C313.991 35.2367 313.513 35.7622 312.924 35.7622H311.857C311.268 35.7622 310.791 35.2367 310.791 34.5885V27.1548C310.791 26.5066 311.268 25.9811 311.857 25.9811ZM307.526 28.6302H306.459C305.87 28.6302 305.392 29.1623 305.392 29.8188V34.5736C305.392 35.23 305.87 35.7622 306.459 35.7622H307.526C308.115 35.7622 308.592 35.23 308.592 34.5736V29.8188C308.592 29.1623 308.115 28.6302 307.526 28.6302ZM302.225 31.0755H301.158C300.569 31.0755 300.092 31.6 300.092 32.2471V34.5905C300.092 35.2377 300.569 35.7622 301.158 35.7622H302.225C302.814 35.7622 303.292 35.2377 303.292 34.5905V32.2471C303.292 31.6 302.814 31.0755 302.225 31.0755Z" fill="black"/>
<path d="M40 88L32 80L40 72" stroke="#707070" stroke-width="2" stroke-linecap="round" stroke-linejoin="round"/>
<path d="M162.09 69.5732V77.2459H165.076V78.9551H162.09V88.8004H160.047V69.5732H162.09ZM147.102 83.6727C151.933 81.2645 154.547 77.7852 154.98 73.2956H148.067V71.6091H157.054C157.038 77.1623 154.585 82.1305 148.241 85.2528L147.102 83.6727ZM182.069 69.5884V81.2417H180.14V76.2127H177.891V80.6112H175.992V69.9454H177.891V74.5262H180.14V69.5884H182.069ZM166.481 79.616V71.2597H174.009V79.616H166.481ZM168.395 78.0511H172.102V72.8474H168.395V78.0511ZM169.109 85.2148C169.094 82.9965 171.609 81.6671 175.642 81.6747C179.646 81.6671 182.176 82.9965 182.176 85.2148C182.176 87.4634 179.646 88.7928 175.642 88.7928C171.609 88.7928 169.094 87.4634 169.109 85.2148ZM171.138 85.2148C171.122 86.4986 172.832 87.2051 175.642 87.2051C178.423 87.2051 180.132 86.4986 180.14 85.2148C180.132 83.9765 178.423 83.27 175.642 83.2548C172.832 83.27 171.122 83.9765 171.138 85.2148ZM200.286 69.5732V80.8011H198.25V75.9544H194.634V74.268H198.25V69.5732H200.286ZM184.249 79.0767C187.212 78.0587 189.058 75.4986 189.058 72.855V72.3992H184.88V70.7279H195.272V72.3992H191.124V72.8626C191.124 75.2631 192.864 77.6561 195.766 78.6588L194.725 80.2693C192.552 79.5173 190.957 77.9751 190.122 76.0684C189.278 78.1802 187.599 79.8743 185.305 80.672L184.249 79.0767ZM187.577 88.5801V81.6899H200.286V88.5801H187.577ZM189.62 86.924H198.288V83.3156H189.62V86.924ZM223.715 69.5884V83.6878H221.671V69.5884H223.715ZM207.853 79.3501C210.869 78.2334 212.654 75.4682 212.654 72.5587V70.6595H214.743V72.5587C214.728 75.3695 216.521 77.9599 219.483 78.9855L218.435 80.6112C216.217 79.7983 214.576 78.1651 213.717 76.076C212.867 78.3094 211.203 80.0946 208.947 80.953L207.853 79.3501ZM211.119 88.4282V82.366H213.171V86.7569H224.277V88.4282H211.119ZM233.066 73.683C233.066 75.9468 234.92 78.0587 237.86 78.8791L236.887 80.4669C234.654 79.8363 232.975 78.4537 232.094 76.6837C231.258 78.6664 229.579 80.239 227.285 80.9682L226.313 79.3881C229.237 78.4537 231.038 76.1595 231.038 73.683V73.4323H226.852V71.8066H231.038V69.4896H233.096V71.8066H237.244V73.4323H233.066V73.683ZM229.412 85.2224C229.397 82.9586 231.873 81.6747 235.915 81.6747C239.941 81.6747 242.418 82.9586 242.425 85.2224C242.418 87.4862 239.941 88.7928 235.915 88.7928C231.873 88.7928 229.397 87.4862 229.412 85.2224ZM231.433 85.2224C231.418 86.4682 233.096 87.2051 235.915 87.2051C238.748 87.2051 240.397 86.4682 240.404 85.2224C240.397 83.9689 238.748 83.2624 235.915 83.2548C233.096 83.2624 231.418 83.9689 231.433 85.2224ZM236.652 76.6305V74.9668H240.328V69.5732H242.364V81.2341H240.328V76.6305H236.652Z" fill="black"/>
<path d="M29.7058 165.32C29.6941 167.95 31.232 170.644 33.4392 171.724L32.4706 172.987C30.8446 172.147 29.5884 170.48 28.9368 168.496C28.2735 170.609 26.9703 172.388 25.2797 173.268L24.2994 172C26.5829 170.897 28.1267 168.05 28.1385 165.32V162.772H29.7058V165.32ZM34.5604 176.409V161.534H36.1395V167.469H38.5228V168.813H36.1395V176.409H34.5604ZM42.8433 162.209C44.8039 162.197 46.3243 163.336 46.653 165.009H49.5588V161.534H51.132V169.517H49.5588V166.295H46.6589C46.3537 168.003 44.8274 169.153 42.8433 169.153C40.5715 169.153 38.9396 167.721 38.9514 165.672C38.9396 163.641 40.5715 162.197 42.8433 162.209ZM40.4483 165.672C40.4483 166.94 41.4403 167.827 42.8433 167.827C44.2228 167.827 45.209 166.94 45.209 165.672C45.209 164.387 44.2228 163.524 42.8433 163.536C41.4403 163.524 40.4483 164.387 40.4483 165.672ZM41.4345 176.221V170.239H42.9959V171.971H49.5588V170.239H51.132V176.221H41.4345ZM42.9959 174.935H49.5588V173.21H42.9959V174.935ZM58.0999 165.925C58.0882 168.267 59.6379 170.891 61.892 171.953L60.9998 173.198C59.3268 172.394 58.006 170.715 57.3309 168.772C56.65 170.891 55.2588 172.728 53.5681 173.568L52.6348 172.323C54.8889 171.243 56.5267 168.437 56.5385 165.925V164.334H53.1866V163.031H61.3285V164.334H58.0999V165.925ZM62.9252 176.409V161.534H64.5043V167.433H66.8876V168.766H64.5043V176.409H62.9252ZM84.317 168.519V169.823H70.7393V168.519H84.317ZM72.3419 173.685C72.3419 171.959 74.279 170.985 77.5018 170.985C80.7069 170.985 82.6323 171.959 82.644 173.685C82.6323 175.417 80.7069 176.385 77.5018 176.385C74.279 176.385 72.3419 175.417 72.3419 173.685ZM72.4299 167.228V162.068H82.644V163.354H73.9914V165.954H82.7321V167.228H72.4299ZM73.9444 173.685C73.9327 174.642 75.23 175.158 77.5018 175.158C79.75 175.158 81.0591 174.642 81.0708 173.685C81.0591 172.74 79.75 172.212 77.5018 172.2C75.23 172.212 73.9327 172.74 73.9444 173.685ZM98.5112 169.652V170.938H84.8982V169.652H90.9328V168.243H86.6475V164.457H95.2239V163.131H86.6065V161.88H96.7971V165.625H88.209V167.005H97.1023V168.243H92.4825V169.652H98.5112ZM86.4245 173.239V171.971H96.8792V176.291H95.2943V173.239H86.4245ZM111.502 161.546V172.54H109.929V166.94H106.677V170.063H99.8085V162.526H101.388V165.05H105.115V162.526H106.677V165.655H109.929V161.546H111.502ZM101.388 168.795H105.115V166.271H101.388V168.795ZM101.787 176.104V171.46H103.378V174.812H111.836V176.104H101.787ZM126.171 163.624V164.909H113.926V163.624H119.28V161.751H120.83V163.624H126.171ZM113.286 174.742V173.45H119.28V171.496C116.668 171.325 115.083 170.292 115.094 168.637C115.083 166.852 116.985 165.796 120.049 165.801C123.084 165.796 125.009 166.852 125.009 168.637C125.009 170.292 123.413 171.319 120.83 171.496V173.45H126.899V174.742H113.286ZM116.697 168.637C116.691 169.676 117.936 170.245 120.049 170.251C122.145 170.245 123.395 169.676 123.401 168.637C123.395 167.609 122.145 167.046 120.049 167.046C117.936 167.046 116.691 167.609 116.697 168.637Z" fill="black"/>
<rect x="24" y="187" width="342" height="68" rx="12" fill="#F1F1F1"/>
<path d="M40.9807 225.113V223.663L47.3481 213.856H49.5028V223.566H51.4917V225.113H49.5028V228H47.8315V225.113H40.9807ZM42.8729 223.566H47.8315V216.08H47.6657L42.8729 223.456V223.566ZM53.8064 228L53.7926 226.715L58.6131 221.633C60.2843 219.851 61.0854 218.898 61.0993 217.599C61.0854 216.135 59.87 215.196 58.2816 215.196C56.5965 215.196 55.533 216.26 55.533 217.848H53.8617C53.8479 215.348 55.7816 213.663 58.3368 213.663C60.9059 213.663 62.7291 215.39 62.7429 217.599C62.7291 219.174 61.997 220.403 59.4832 222.986L56.2512 226.329V226.439H62.9915V228H53.8064ZM70.4342 228.193C67.6165 228.193 65.6 226.688 65.5033 224.45H67.285C67.3817 225.79 68.7215 226.633 70.4066 226.633C72.2712 226.633 73.6248 225.624 73.6248 224.146C73.6248 222.613 72.3955 221.522 70.1856 221.522H69.0392V219.975H70.1856C71.9121 219.975 73.1138 219.008 73.1138 217.544C73.1138 216.135 72.0779 215.196 70.4618 215.196C68.9563 215.196 67.5751 216.025 67.506 217.406H65.8071C65.89 215.169 67.9757 213.663 70.4895 213.663C73.1828 213.663 74.8265 215.431 74.8127 217.461C74.8265 219.064 73.8873 220.238 72.4094 220.652V220.762C74.2464 221.039 75.3652 222.351 75.3513 224.16C75.3652 226.481 73.2519 228.193 70.4342 228.193ZM83.9934 220.155V221.702H77.7918V220.155H83.9934ZM91.2784 228.193C88.295 228.193 86.2369 226.55 86.2508 224.243C86.2369 222.42 87.5077 220.914 89.1237 220.652V220.583C87.7148 220.251 86.7894 218.953 86.7894 217.42C86.7894 215.251 88.6817 213.663 91.2784 213.663C93.8474 213.663 95.7397 215.251 95.7535 217.42C95.7397 218.953 94.8005 220.251 93.4193 220.583V220.652C95.0215 220.914 96.2922 222.42 96.306 224.243C96.2922 226.55 94.2204 228.193 91.2784 228.193ZM88.0049 224.146C87.9773 225.638 89.2342 226.646 91.2784 226.646C93.295 226.646 94.5519 225.638 94.5519 224.146C94.5519 222.586 93.1706 221.439 91.2784 221.439C89.3723 221.439 87.9773 222.586 88.0049 224.146ZM88.5021 217.544C88.5021 218.981 89.6485 219.948 91.2784 219.948C92.8806 219.948 94.0408 218.981 94.0408 217.544C94.0408 216.135 92.922 215.182 91.2784 215.182C89.5933 215.182 88.5021 216.135 88.5021 217.544ZM103.587 228.193C101.142 228.166 98.4349 226.715 98.4349 221.467C98.4349 216.467 100.493 213.663 103.808 213.663C106.294 213.663 108.034 215.196 108.393 217.406H106.653C106.335 216.163 105.382 215.224 103.808 215.224C101.487 215.224 100.092 217.213 100.092 220.624H100.272C101.087 219.436 102.385 218.746 103.905 218.746C106.418 218.746 108.518 220.693 108.518 223.428C108.518 226.094 106.57 228.221 103.587 228.193ZM100.341 223.47C100.341 225.127 101.695 226.646 103.587 226.646C105.424 226.646 106.805 225.21 106.819 223.442C106.805 221.715 105.479 220.293 103.642 220.293C101.777 220.293 100.355 221.798 100.341 223.47ZM117.04 220.155V221.702H110.839V220.155H117.04ZM124.215 228.193C121.079 228.193 119.27 225.555 119.27 220.928C119.27 216.343 121.107 213.663 124.215 213.663C127.322 213.663 129.16 216.343 129.16 220.928C129.16 225.555 127.35 228.193 124.215 228.193ZM120.983 220.928C120.983 224.588 122.171 226.633 124.215 226.633C126.259 226.633 127.447 224.588 127.447 220.928C127.447 217.268 126.245 215.196 124.215 215.196C122.184 215.196 120.983 217.268 120.983 220.928ZM136.502 213.856V228H134.734V215.693H134.651L131.212 217.972V216.204L134.734 213.856H136.502ZM145.188 228.193C142.744 228.166 140.036 226.715 140.036 221.467C140.036 216.467 142.094 213.663 145.409 213.663C147.896 213.663 149.636 215.196 149.995 217.406H148.255C147.937 216.163 146.984 215.224 145.409 215.224C143.089 215.224 141.694 217.213 141.694 220.624H141.873C142.688 219.436 143.987 218.746 145.506 218.746C148.02 218.746 150.119 220.693 150.119 223.428C150.119 226.094 148.172 228.221 145.188 228.193ZM141.943 223.47C141.943 225.127 143.296 226.646 145.188 226.646C147.025 226.646 148.407 225.21 148.42 223.442C148.407 221.715 147.081 220.293 145.244 220.293C143.379 220.293 141.956 221.798 141.943 223.47ZM152.537 228L152.523 226.715L157.344 221.633C159.015 219.851 159.816 218.898 159.83 217.599C159.816 216.135 158.6 215.196 157.012 215.196C155.327 215.196 154.263 216.26 154.263 217.848H152.592C152.578 215.348 154.512 213.663 157.067 213.663C159.636 213.663 161.46 215.39 161.473 217.599C161.46 219.174 160.728 220.403 158.214 222.986L154.982 226.329V226.439H161.722V228H152.537ZM169.165 228.193C166.347 228.193 164.33 226.688 164.234 224.45H166.016C166.112 225.79 167.452 226.633 169.137 226.633C171.002 226.633 172.355 225.624 172.355 224.146C172.355 222.613 171.126 221.522 168.916 221.522H167.77V219.975H168.916C170.643 219.975 171.844 219.008 171.844 217.544C171.844 216.135 170.808 215.196 169.192 215.196C167.687 215.196 166.306 216.025 166.237 217.406H164.538C164.62 215.169 166.706 213.663 169.22 213.663C171.913 213.663 173.557 215.431 173.543 217.461C173.557 219.064 172.618 220.238 171.14 220.652V220.762C172.977 221.039 174.096 222.351 174.082 224.16C174.096 226.481 171.982 228.193 169.165 228.193Z" fill="#707070"/>
<path d="M29.6706 291.917C29.6706 293.866 31.0442 295.68 33.2631 296.408L32.4237 297.646C30.7918 297.071 29.5708 295.915 28.9192 294.447C28.2794 296.114 27.0173 297.423 25.2856 298.063L24.4344 296.813C26.7531 295.985 28.0974 293.995 28.1091 291.782V290.309H29.6706V291.917ZM26.442 301.615C26.442 299.883 28.3439 298.862 31.4316 298.862C34.4959 298.862 36.3743 299.883 36.3743 301.615C36.3743 303.382 34.4959 304.385 31.4316 304.385C28.3439 304.385 26.442 303.382 26.442 301.615ZM28.0211 301.615C28.0093 302.601 29.2831 303.135 31.4316 303.147C33.5742 303.135 34.8305 302.601 34.8305 301.615C34.8305 300.67 33.5742 300.112 31.4316 300.112C29.2831 300.112 28.0093 300.67 28.0211 301.615ZM34.6602 298.509V289.534H36.2393V293.279H38.3936V294.594H36.2393V298.509H34.6602ZM51.6192 291.624V292.909H39.374V291.624H44.7276V289.751H46.2773V291.624H51.6192ZM38.7342 302.742V301.45H44.7276V299.496C42.1154 299.325 40.5304 298.292 40.5422 296.637C40.5304 294.852 42.4324 293.796 45.4966 293.801C48.5315 293.796 50.4569 294.852 50.4569 296.637C50.4569 298.292 48.8602 299.319 46.2773 299.496V301.45H52.3471V302.742H38.7342ZM42.1447 296.637C42.1389 297.676 43.3833 298.245 45.4966 298.251C47.5923 298.245 48.8426 297.676 48.8485 296.637C48.8426 295.609 47.5923 295.046 45.4966 295.046C43.3833 295.046 42.1389 295.609 42.1447 296.637ZM65.3144 289.534V298.316H63.7411V296.114H60.4949V297.329H53.5858V290.655H60.4949V291.876H63.7411V289.534H65.3144ZM55.1472 296.056H58.9511V291.917H55.1472V296.056ZM55.3057 301.574C55.294 299.771 57.2077 298.727 60.3306 298.727C63.4476 298.727 65.3554 299.771 65.3613 301.574C65.3554 303.37 63.4476 304.385 60.3306 304.385C57.2077 304.385 55.294 303.37 55.3057 301.574ZM56.8672 301.574C56.8554 302.571 58.1527 303.158 60.3306 303.158C62.5025 303.158 63.794 302.571 63.7998 301.574C63.794 300.529 62.5025 299.959 60.3306 299.948C58.1527 299.959 56.8554 300.529 56.8672 301.574ZM60.4949 294.823H63.7411V293.144H60.4949V294.823Z" fill="black"/>
<rect x="24" y="315" width="342" height="68" rx="12" fill="#F1F1F1"/>
<path d="M55.5387 340.227V357.588H54.0746V348.472H51.5331V356.677H50.1105V340.613H51.5331V347.202H54.0746V340.227H55.5387ZM41.3398 353.293V342.354H47.8453V343.61H42.8729V351.981C45.2693 351.974 46.9199 351.877 48.8398 351.483L48.9779 352.768C46.8923 353.21 45.1243 353.279 42.4586 353.293H41.3398ZM71.7189 341.359V342.878C71.7189 344.522 71.7189 346.318 71.2216 348.818H73.8183V350.088H66.636V357.616H65.1028V350.088H57.9896V348.818H69.6608C70.1995 346.325 70.1995 344.494 70.1995 342.878V342.63H59.9785V341.359H71.7189ZM89.5841 340.227V357.588H88.051V340.227H89.5841ZM75.62 353.03C78.2029 351.856 80.178 348.928 80.178 345.876V344.494H76.0896V343.251H80.1642V340.544H81.6836V343.251H85.7167V344.494H81.6836V345.876C81.6836 348.79 83.714 351.608 86.3245 352.713L85.4681 353.914C83.4653 353.023 81.7664 351.138 80.9584 348.845C80.1711 351.276 78.493 353.272 76.4902 354.218L75.62 353.03ZM101.773 341.552C101.759 346.069 99.3555 349.467 93.651 351.304L93.0571 350.047C96.0475 349.115 97.9812 347.754 99.0723 346.083L93.1952 346.539L92.9328 345.268L99.6524 344.964C99.9287 344.287 100.094 343.576 100.157 342.823H93.803V341.552H101.773ZM95.6814 357.312V351.953H97.2146V356.055H107.436V357.312H95.6814ZM105.364 352.851V340.24H106.897V352.851H105.364Z" fill="#707070"/>
<path d="M37.2901 417.534V432.409H35.7638V424.695H33.9323V431.693H32.4589V417.933H33.9323V423.41H35.7638V417.534H37.2901ZM24.4931 428.153C27.8097 426.275 29.1951 423.744 29.4358 420.715H25.1271V419.43H30.9738C30.962 423.339 29.6647 426.856 25.4088 429.262L24.4931 428.153ZM42.8433 418.209C44.8039 418.197 46.3243 419.336 46.653 421.009H49.5588V417.534H51.132V425.517H49.5588V422.295H46.6589C46.3537 424.003 44.8274 425.153 42.8433 425.153C40.5715 425.153 38.9396 423.721 38.9514 421.672C38.9396 419.641 40.5715 418.197 42.8433 418.209ZM40.4483 421.672C40.4483 422.94 41.4403 423.827 42.8433 423.827C44.2228 423.827 45.209 422.94 45.209 421.672C45.209 420.387 44.2228 419.524 42.8433 419.536C41.4403 419.524 40.4483 420.387 40.4483 421.672ZM41.4345 432.221V426.239H42.9959V427.971H49.5588V426.239H51.132V432.221H41.4345ZM42.9959 430.935H49.5588V429.21H42.9959V430.935ZM57.1313 418.045C59.3679 418.05 61.0174 419.424 61.0291 421.379C61.0174 423.328 59.3679 424.69 57.1313 424.69C54.8655 424.69 53.2159 423.328 53.2159 421.379C53.2159 419.424 54.8655 418.05 57.1313 418.045ZM54.7539 421.379C54.7422 422.6 55.7577 423.41 57.1313 423.41C58.4932 423.41 59.5029 422.6 59.5029 421.379C59.5029 420.164 58.4932 419.348 57.1313 419.354C55.7577 419.348 54.7422 420.164 54.7539 421.379ZM55.4701 427.044V425.793H65.2556V429.532H57.0492V430.959H65.7429V432.221H55.517V428.358H63.6883V427.044H55.4701ZM63.6766 425.106V417.534H65.2556V425.106H63.6766ZM72.2823 421.925C72.2706 424.267 73.8203 426.891 76.0744 427.953L75.1822 429.198C73.5092 428.394 72.1884 426.715 71.5133 424.772C70.8324 426.891 69.4411 428.728 67.7505 429.568L66.8172 428.323C69.0713 427.243 70.7091 424.437 70.7208 421.925V420.334H67.369V419.031H75.5109V420.334H72.2823V421.925ZM77.1076 432.409V417.534H78.6867V423.433H81.0699V424.766H78.6867V432.409H77.1076Z" fill="black"/>
<rect x="24" y="443" width="89" height="68" rx="12" fill="#F1F1F1"/>
<path d="M45.326 484L45.3122 482.715L50.1326 477.633C51.8039 475.851 52.605 474.898 52.6188 473.599C52.605 472.135 51.3895 471.196 49.8011 471.196C48.116 471.196 47.0525 472.26 47.0525 473.848H45.3812C45.3674 471.348 47.3011 469.663 49.8564 469.663C52.4254 469.663 54.2486 471.39 54.2624 473.599C54.2486 475.174 53.5166 476.403 51.0028 478.986L47.7707 482.329V482.439H54.5111V484H45.326ZM61.6913 484.193C58.556 484.193 56.7466 481.555 56.7466 476.928C56.7466 472.343 58.5836 469.663 61.6913 469.663C64.7991 469.663 66.6361 472.343 66.6361 476.928C66.6361 481.555 64.8267 484.193 61.6913 484.193ZM58.4593 476.928C58.4593 480.588 59.6471 482.633 61.6913 482.633C63.7355 482.633 64.9234 480.588 64.9234 476.928C64.9234 473.268 63.7217 471.196 61.6913 471.196C59.6609 471.196 58.4593 473.268 58.4593 476.928ZM68.9783 484L68.9645 482.715L73.7849 477.633C75.4562 475.851 76.2573 474.898 76.2711 473.599C76.2573 472.135 75.0418 471.196 73.4534 471.196C71.7684 471.196 70.7048 472.26 70.7048 473.848H69.0336C69.0197 471.348 70.9534 469.663 73.5087 469.663C76.0778 469.663 77.901 471.39 77.9148 473.599C77.901 475.174 77.1689 476.403 74.6551 478.986L71.4231 482.329V482.439H78.1634V484H68.9783ZM85.6061 484.193C82.7884 484.193 80.7718 482.688 80.6752 480.45H82.4569C82.5536 481.79 83.8934 482.633 85.5785 482.633C87.4431 482.633 88.7967 481.624 88.7967 480.146C88.7967 478.613 87.5674 477.522 85.3575 477.522H84.2111V475.975H85.3575C87.084 475.975 88.2857 475.008 88.2857 473.544C88.2857 472.135 87.2497 471.196 85.6337 471.196C84.1282 471.196 82.747 472.025 82.6779 473.406H80.979C81.0619 471.169 83.1475 469.663 85.6613 469.663C88.3547 469.663 89.9984 471.431 89.9845 473.461C89.9984 475.064 89.0591 476.238 87.5812 476.652V476.762C89.4182 477.039 90.537 478.351 90.5232 480.16C90.537 482.481 88.4238 484.193 85.6061 484.193Z" fill="#707070"/>
<path d="M138.097 468.24V481.099H136.564V475.077H131.55V473.834H136.564V471.762H131.55V470.519H136.564V468.24H138.097ZM124.74 478.503V469.497H126.273V477.204C128.663 477.198 130.97 477.066 133.622 476.569L133.787 477.854C130.956 478.378 128.594 478.489 126.052 478.503H124.74ZM126.909 485.202V479.994H128.456V483.931H138.566V485.202H126.909Z" fill="#707070"/>
<rect x="157" y="443" width="72" height="68" rx="12" fill="#F1F1F1"/>
<path d="M190.326 469.856V484H188.558V471.693H188.475L185.036 473.972V472.204L188.558 469.856H190.326ZM199.095 469.856V484H197.328V471.693H197.245L193.805 473.972V472.204L197.328 469.856H199.095Z" fill="#707070"/>
<path d="M252.014 468.24V478.475H250.467V477.508H246.959V476.5H250.467V468.24H252.014ZM237.635 474.787C241.006 474.801 245.301 474.76 249.058 474.345L249.155 475.354C247.456 475.588 245.688 475.733 243.961 475.823V478.53H242.456V475.878C240.812 475.934 239.238 475.941 237.829 475.934L237.635 474.787ZM238.989 471.182C238.989 469.58 240.688 468.572 243.312 468.572C245.895 468.572 247.608 469.58 247.622 471.182C247.608 472.812 245.895 473.779 243.312 473.779C240.688 473.779 238.989 472.812 238.989 471.182ZM240.301 480.202V479.097H252.014V482.688H241.876V484.249H252.594V485.395H240.37V481.624H250.494V480.202H240.301ZM240.439 471.182C240.425 472.108 241.558 472.729 243.312 472.729C245.039 472.729 246.171 472.108 246.171 471.182C246.171 470.257 245.039 469.635 243.312 469.635C241.558 469.635 240.425 470.257 240.439 471.182Z" fill="#707070"/>
<rect x="271" y="443" width="72" height="68" rx="12" fill="#F1F1F1"/>
<path d="M300.953 484.193C297.818 484.193 296.008 481.555 296.008 476.928C296.008 472.343 297.845 469.663 300.953 469.663C304.061 469.663 305.898 472.343 305.898 476.928C305.898 481.555 304.088 484.193 300.953 484.193ZM297.721 476.928C297.721 480.588 298.909 482.633 300.953 482.633C302.997 482.633 304.185 480.588 304.185 476.928C304.185 473.268 302.983 471.196 300.953 471.196C298.923 471.196 297.721 473.268 297.721 476.928ZM312.95 469.663C315.381 469.691 318.088 471.155 318.088 476.362C318.088 481.39 316.03 484.193 312.715 484.193C310.229 484.193 308.475 482.674 308.116 480.423H309.856C310.174 481.693 311.141 482.633 312.715 482.633C315.022 482.633 316.431 480.644 316.444 477.204H316.251C315.436 478.378 314.138 479.083 312.632 479.083C310.105 479.083 308.005 477.135 308.005 474.401C308.005 471.776 309.939 469.635 312.95 469.663ZM309.718 474.387C309.718 476.141 311.044 477.536 312.895 477.536C314.732 477.536 316.168 476.017 316.168 474.359C316.168 472.729 314.815 471.21 312.95 471.21C311.099 471.21 309.704 472.646 309.718 474.387Z" fill="#707070"/>
<path d="M353.622 468.862C356.218 468.876 358.11 470.45 358.124 472.715C358.11 474.981 356.218 476.541 353.622 476.541C350.997 476.541 349.105 474.981 349.105 472.715C349.105 470.45 350.997 468.876 353.622 468.862ZM350.61 472.715C350.597 474.235 351.881 475.285 353.622 475.285C355.348 475.285 356.633 474.235 356.633 472.715C356.633 471.21 355.348 470.146 353.622 470.16C351.881 470.146 350.597 471.21 350.61 472.715ZM351.743 479.221V477.978H363.041V482.163H353.29V484.11H363.663V485.354H351.798V481.003H361.522V479.221H351.743ZM361.508 477.135V468.227H363.041V477.135H361.508Z" fill="#707070"/>
<rect x="24" y="720" width="342" height="72" rx="12" fill="#31A9FF"/>
<path d="M174.841 755.492V757.444H157.118V755.492H174.841ZM159.177 762.329C159.177 760.065 161.722 758.789 165.938 758.789C170.139 758.789 172.661 760.065 172.669 762.329C172.661 764.608 170.139 765.892 165.938 765.884C161.722 765.892 159.177 764.608 159.177 762.329ZM159.299 753.972V747.105H172.692V749.042H161.669V752.05H172.798V753.972H159.299ZM161.608 762.329C161.593 763.468 163.12 764.046 165.938 764.046C168.726 764.046 170.268 763.468 170.283 762.329C170.268 761.227 168.726 760.627 165.938 760.619C163.12 760.627 161.593 761.227 161.608 762.329ZM193.863 756.996V758.925H176.109V756.996H183.805V755.378H178.358V750.235H189.282V748.784H178.312V746.915H191.667V751.974H180.728V753.524H192.047V755.378H186.167V756.996H193.863ZM178.092 762.048V760.148H191.774V765.785H189.373V762.048H178.092ZM210.354 746.497V754.231H213.347V756.198H210.354V765.899H207.992V746.497H210.354ZM195.039 751.397V749.468H199.628V746.771H202.013V749.468H206.495V751.397H195.039ZM195.936 757.224C195.921 754.542 198.002 752.651 200.836 752.651C203.631 752.651 205.705 754.542 205.72 757.224C205.705 759.905 203.631 761.789 200.836 761.789C198.002 761.789 195.921 759.905 195.936 757.224ZM198.222 757.224C198.207 758.819 199.316 759.829 200.836 759.814C202.332 759.829 203.419 758.819 203.434 757.224C203.419 755.651 202.332 754.61 200.836 754.61C199.316 754.61 198.207 755.651 198.222 757.224ZM230.371 746.497V765.899H227.963V746.497H230.371ZM214.289 760.559C219.371 758.143 221.726 754.869 222.151 750.448H215.276V748.556H224.582C224.574 754.337 222.333 759.244 215.542 762.473L214.289 760.559Z" fill="white"/>
</svg>
