<svg width="398" height="852" viewBox="0 0 398 852" fill="none" xmlns="http://www.w3.org/2000/svg">
<g clip-path="url(#clip0_59_313)" filter="url(#filter0_d_59_313)">
<rect width="390" height="844" transform="translate(4)" fill="white"/>
<path d="M36.5165 23.1565C35.6653 23.1565 34.9047 23.3377 34.2348 23.7001C33.5703 24.0571 33.0486 24.5513 32.6697 25.1829C32.2962 25.8089 32.1095 26.5256 32.1095 27.3328V27.3493C32.1095 28.0962 32.2743 28.7661 32.6038 29.3592C32.9387 29.9523 33.3973 30.4191 33.9794 30.7596C34.5615 31.1001 35.2315 31.2703 35.9893 31.2703C36.5385 31.2703 37.0163 31.1879 37.4226 31.0232C37.8345 30.8584 38.1805 30.6415 38.4606 30.3724C38.7406 30.1033 38.9521 29.8123 39.0948 29.4993H39.3831V27.3081H38.8889V27.3246C38.8889 27.7694 38.7846 28.1676 38.5759 28.519C38.3672 28.8705 38.0844 29.1451 37.7274 29.3428C37.3705 29.5405 36.9668 29.6393 36.5165 29.6393C36.0662 29.6393 35.6653 29.5377 35.3139 29.3345C34.9624 29.1313 34.6851 28.854 34.4819 28.5025C34.2787 28.1456 34.1771 27.7365 34.1771 27.2752V27.2587C34.1771 26.8139 34.2842 26.413 34.4984 26.056C34.7125 25.6936 34.9981 25.408 35.3551 25.1993C35.712 24.9907 36.1047 24.8863 36.533 24.8863C36.9778 24.8863 37.376 24.9934 37.7274 25.2076C38.0844 25.4218 38.3672 25.7128 38.5759 26.0807C38.7846 26.4487 38.8889 26.8578 38.8889 27.3081L39.2596 29.2933C39.2596 29.3702 39.2596 29.4498 39.2596 29.5322C39.2596 29.6091 39.2568 29.6887 39.2513 29.7711C39.2239 30.5289 39.1086 31.2209 38.9054 31.8469C38.7077 32.4675 38.4084 32.9645 38.0075 33.3379C37.6121 33.7058 37.1014 33.8898 36.4753 33.8898C36.1294 33.8898 35.8163 33.8349 35.5363 33.7251C35.2617 33.6097 35.0256 33.4477 34.8279 33.2391C34.6356 33.0304 34.4874 32.7887 34.383 32.5142L34.3501 32.4318H32.266L32.2825 32.5224C32.4143 33.1265 32.6697 33.6647 33.0486 34.1369C33.433 34.6037 33.9162 34.9717 34.4984 35.2408C35.086 35.5043 35.745 35.6361 36.4753 35.6361C37.4693 35.6361 38.3233 35.3835 39.0372 34.8783C39.7566 34.3676 40.3085 33.6372 40.6929 32.6872C41.0773 31.7371 41.2695 30.5948 41.2695 29.2604V29.2439C41.2695 28.1676 41.1432 27.2477 40.8906 26.4844C40.638 25.7156 40.2893 25.0868 39.8444 24.598C39.4051 24.1038 38.8999 23.7413 38.3288 23.5107C37.7576 23.2745 37.1536 23.1565 36.5165 23.1565ZM45.0093 33.7415C45.3882 33.7415 45.7012 33.618 45.9484 33.3709C46.1955 33.1182 46.3191 32.8107 46.3191 32.4483C46.3191 32.0803 46.1955 31.7728 45.9484 31.5257C45.7012 31.2731 45.3882 31.1468 45.0093 31.1468C44.6359 31.1468 44.3229 31.2731 44.0702 31.5257C43.8231 31.7728 43.6996 32.0803 43.6996 32.4483C43.6996 32.8107 43.8231 33.1182 44.0702 33.3709C44.3229 33.618 44.6359 33.7415 45.0093 33.7415ZM45.0093 27.6294C45.3882 27.6294 45.7012 27.5058 45.9484 27.2587C46.1955 27.0061 46.3191 26.6986 46.3191 26.3361C46.3191 25.9682 46.1955 25.6606 45.9484 25.4135C45.7012 25.1609 45.3882 25.0346 45.0093 25.0346C44.6359 25.0346 44.3229 25.1609 44.0702 25.4135C43.8231 25.6606 43.6996 25.9682 43.6996 26.3361C43.6996 26.6986 43.8231 27.0061 44.0702 27.2587C44.3229 27.5058 44.6359 27.6294 45.0093 27.6294ZM54.5153 35.3396H56.5417V33.0578H58.148V31.3033H56.5417V23.453H53.5515C53.222 23.9418 52.8925 24.4442 52.563 24.9605C52.239 25.4712 51.9123 25.9901 51.5828 26.5173C51.2588 27.039 50.932 27.569 50.6025 28.1071C50.2785 28.6398 49.9572 29.1753 49.6387 29.7134C49.3257 30.2516 49.0127 30.7871 48.6997 31.3197V33.0578H54.5153V35.3396ZM50.6766 31.3527V31.2291C50.9073 30.8227 51.1462 30.4136 51.3933 30.0018C51.6404 29.5844 51.8903 29.1698 52.1429 28.7579C52.3955 28.3405 52.6509 27.9259 52.909 27.5141C53.1671 27.1022 53.4225 26.6986 53.6751 26.3032C53.9332 25.9078 54.183 25.5233 54.4247 25.1499H54.5482V31.3527H50.6766ZM63.0657 35.3396H65.1827V23.453H63.0657L59.9602 25.6359V27.6294L62.9174 25.5453H63.0657V35.3396Z" fill="black"/>
<rect opacity="0.35" x="355.592" y="23.5" width="24" height="12" rx="3.8" stroke="black"/>
<path opacity="0.4" d="M381.092 27.7811V31.8566C381.896 31.5114 382.42 30.7085 382.42 29.8189C382.42 28.9293 381.896 28.1263 381.092 27.7811Z" fill="black"/>
<rect x="357.092" y="25" width="21" height="9" rx="2.5" fill="black"/>
<path fill-rule="evenodd" clip-rule="evenodd" d="M339.362 26.104C341.849 26.1041 344.241 27.0262 346.044 28.6797C346.179 28.8074 346.396 28.8058 346.53 28.6761L347.828 27.4126C347.895 27.3469 347.933 27.2578 347.932 27.1651C347.932 27.0724 347.893 26.9838 347.825 26.9188C343.094 22.5441 335.63 22.5441 330.899 26.9188C330.83 26.9837 330.791 27.0724 330.791 27.165C330.79 27.2577 330.828 27.3468 330.895 27.4126L332.193 28.6761C332.327 28.8059 332.544 28.8076 332.68 28.6797C334.482 27.0261 336.875 26.104 339.362 26.104ZM339.359 30.3243C340.716 30.3242 342.025 30.836 343.031 31.7601C343.167 31.8913 343.381 31.8884 343.514 31.7537L344.801 30.4344C344.869 30.3652 344.907 30.2713 344.906 30.1738C344.905 30.0762 344.865 29.9831 344.796 29.9153C341.732 27.0245 336.988 27.0245 333.924 29.9153C333.855 29.9831 333.815 30.0762 333.814 30.1738C333.813 30.2714 333.851 30.3653 333.919 30.4344L335.206 31.7537C335.339 31.8884 335.553 31.8913 335.689 31.7601C336.694 30.8366 338.002 30.3249 339.359 30.3243ZM341.883 33.1179C341.885 33.2232 341.848 33.3248 341.781 33.3986L339.604 35.8533C339.54 35.9255 339.453 35.9661 339.362 35.9661C339.272 35.9661 339.185 35.9255 339.121 35.8533L336.944 33.3986C336.877 33.3247 336.84 33.2231 336.842 33.1178C336.844 33.0124 336.884 32.9127 336.954 32.842C338.345 31.5282 340.38 31.5282 341.771 32.842C341.84 32.9127 341.881 33.0125 341.883 33.1179Z" fill="black"/>
<path fill-rule="evenodd" clip-rule="evenodd" d="M323.292 24.6821C323.292 24.049 322.814 23.5358 322.225 23.5358H321.158C320.569 23.5358 320.092 24.049 320.092 24.6821V34.616C320.092 35.2491 320.569 35.7622 321.158 35.7622H322.225C322.814 35.7622 323.292 35.2491 323.292 34.616V24.6821ZM315.857 25.9811H316.924C317.513 25.9811 317.991 26.5066 317.991 27.1548V34.5885C317.991 35.2367 317.513 35.7622 316.924 35.7622H315.857C315.268 35.7622 314.791 35.2367 314.791 34.5885V27.1548C314.791 26.5066 315.268 25.9811 315.857 25.9811ZM311.526 28.6302H310.459C309.87 28.6302 309.392 29.1623 309.392 29.8188V34.5736C309.392 35.23 309.87 35.7622 310.459 35.7622H311.526C312.115 35.7622 312.592 35.23 312.592 34.5736V29.8188C312.592 29.1623 312.115 28.6302 311.526 28.6302ZM306.225 31.0755H305.158C304.569 31.0755 304.092 31.6 304.092 32.2471V34.5905C304.092 35.2377 304.569 35.7622 305.158 35.7622H306.225C306.814 35.7622 307.292 35.2377 307.292 34.5905V32.2471C307.292 31.6 306.814 31.0755 306.225 31.0755Z" fill="black"/>
<path d="M44 88L36 80L44 72" stroke="#707070" stroke-width="2" stroke-linecap="round" stroke-linejoin="round"/>
<path d="M180.395 79.0007V80.6264H172.616V82.3888C176.187 82.5635 178.238 83.6727 178.253 85.5794C178.238 87.6609 175.791 88.7928 171.598 88.7928C167.397 88.7928 164.921 87.6609 164.921 85.5794C164.921 83.6651 167.01 82.5559 170.603 82.3888V80.6264H162.847V79.0007H180.395ZM163.774 76.547C167.541 76.2279 170.17 74.8757 170.459 73.0373H164.609V71.404H170.603V69.5656H172.608V71.404H178.633V73.0373H172.753C173.026 74.8757 175.655 76.2279 179.438 76.547L178.823 78.1119C175.488 77.808 172.791 76.6989 171.606 74.8985C170.413 76.6989 167.716 77.808 164.404 78.1119L163.774 76.547ZM166.995 85.5794C166.979 86.6809 168.635 87.2583 171.598 87.2431C174.538 87.2583 176.202 86.6809 176.217 85.5794C176.202 84.4779 174.538 83.893 171.598 83.893C168.635 83.893 166.979 84.4779 166.995 85.5794ZM197.465 69.5884V83.6878H195.429V76.4634H191.737V74.7997H195.429V69.5884H197.465ZM181.428 79.6692C184.391 78.674 186.237 76.1367 186.237 73.4855V72.7258H182.059V71.0622H192.451V72.7258H188.303V73.4855C188.303 75.886 190.043 78.2942 192.945 79.2666L191.904 80.8923C189.731 80.1402 188.143 78.5905 187.308 76.6913C186.457 78.8108 184.778 80.5124 182.484 81.3329L181.428 79.6692ZM184.968 88.4282V82.4344H187.004V86.7569H197.974V88.4282H184.968ZM214.99 69.5732V77.375H218.074V79.0691H214.99V88.8232H212.969V69.5732H214.99ZM199.888 74.2528V72.5891H204.636V69.8239H206.672V72.5891H211.29V74.2528H199.888ZM200.875 80.1554C200.868 77.5269 202.888 75.6733 205.669 75.6733C208.419 75.6733 210.44 77.5269 210.447 80.1554C210.44 82.7914 208.419 84.6222 205.669 84.6298C202.888 84.6222 200.868 82.7914 200.875 80.1554ZM202.828 80.1554C202.812 81.8191 204.02 82.9358 205.669 82.9282C207.295 82.9358 208.487 81.8191 208.502 80.1554C208.487 78.4993 207.295 77.3598 205.669 77.3598C204.02 77.3598 202.812 78.4993 202.828 80.1554ZM234.566 69.5732V88.8232H232.515V69.5732H234.566ZM218.75 83.6651C223.87 81.2341 226.362 77.7624 226.765 73.2728H219.684V71.6471H228.846C228.831 77.2762 226.438 82.1609 219.829 85.3135L218.75 83.6651Z" fill="black"/>
<path d="M41.1119 214.819V216.075H35.1008V217.437C37.8598 217.572 39.4448 218.429 39.4565 219.902C39.4448 221.511 37.5546 222.385 34.3142 222.385C31.068 222.385 29.1544 221.511 29.1544 219.902C29.1544 218.423 30.7686 217.566 33.5452 217.437V216.075H27.5518V214.819H41.1119ZM28.268 212.923C31.1796 212.676 33.2106 211.631 33.4337 210.211H28.9137V208.949H33.5452V207.528H35.095V208.949H39.75V210.211H35.2065C35.4178 211.631 37.4489 212.676 40.3722 212.923L39.8968 214.132C37.3198 213.897 35.2358 213.04 34.3201 211.649C33.3985 213.04 31.3146 213.897 28.7552 214.132L28.268 212.923ZM30.7569 219.902C30.7452 220.753 32.0249 221.2 34.3142 221.188C36.586 221.2 37.8715 220.753 37.8833 219.902C37.8715 219.051 36.586 218.599 34.3142 218.599C32.0249 218.599 30.7452 219.051 30.7569 219.902ZM54.132 207.546V218.441H52.5588V212.858H49.7059V211.573H52.5588V207.546H54.132ZM41.74 215.335C44.0294 214.566 45.4559 212.606 45.4559 210.557V209.97H42.2273V208.684H50.2577V209.97H47.0525V210.557C47.0525 212.412 48.3968 214.273 50.6392 215.024L49.835 216.28C48.1561 215.699 46.9293 214.502 46.2836 213.034C45.6261 214.672 44.3288 215.987 42.556 216.621L41.74 215.335ZM44.4755 222.104V217.472H46.0488V220.812H54.5253V222.104H44.4755ZM67.8036 208.291V209.418C67.8036 210.58 67.8036 211.913 67.4162 213.721H69.5295V215.007H55.9166V213.721H65.8313C66.2187 211.978 66.2363 210.704 66.2363 209.571H57.6189V208.291H67.8036ZM57.5719 222.221V216.897H67.8213V222.221H57.5719ZM59.1158 220.941H66.2598V218.135H59.1158V220.941ZM73.6328 208.455C75.5993 208.455 77.0492 209.923 77.0492 212.013C77.0492 214.108 75.5993 215.535 73.6328 215.535C71.6428 215.535 70.2163 214.108 70.2281 212.013C70.2163 209.923 71.6428 208.455 73.6328 208.455ZM71.6428 212.013C71.6311 213.316 72.4764 214.22 73.6328 214.208C74.7716 214.22 75.611 213.316 75.6169 212.013C75.611 210.698 74.7716 209.811 73.6328 209.811C72.4764 209.811 71.6311 210.698 71.6428 212.013ZM72.6642 218.446V217.179H82.7726V222.409H81.217V218.446H72.6642ZM78.0824 216.31V207.821H79.5617V211.302H81.2816V207.546H82.7726V216.41H81.2816V212.582H79.5617V216.31H78.0824Z" fill="black"/>
<rect x="27" y="233" width="342" height="68" rx="12" fill="#FFD700"/>
<path d="M63.0718 273.398V275.528H43.7044V273.398H52.0497V269.271H45.8343V258.307H48.4448V261.771H58.2569V258.307H60.8508V269.271H54.6354V273.398H63.0718ZM48.4448 267.174H58.2569V263.859H48.4448V267.174ZM82.5626 256.923V267.688H80.0847V263.354H77.8057V267.646H75.3775V257.312H77.8057V261.265H80.0847V256.923H82.5626ZM65.3582 266.793V258.083H67.9687V264.671C69.9659 264.655 71.8472 264.53 74.0019 264.099L74.2588 266.213C71.5737 266.718 69.3112 266.801 66.7588 266.793H65.3582ZM68.2173 270.58V268.508H82.5626V274.061H70.8775V275.76H83.3168V277.823H68.2505V272.122H79.9604V270.58H68.2173ZM108.105 267.572V269.66H101.848V273.506H110.252V275.61H90.8841V273.506H99.2294V269.66H93.246V258.464H107.914V260.569H95.8896V262.981H107.434V265.036H95.8896V267.572H108.105ZM128.624 257.925V259.84C128.624 261.895 128.624 264.091 128.052 267.116H130.952V269.229H111.626V267.116H125.408C125.632 266.022 125.773 265.036 125.864 264.124L113.773 264.622L113.474 262.492L125.988 262.185C126.021 261.423 126.021 260.71 126.021 260.022H114.021V257.925H128.624ZM113.947 277.674V270.97H116.549V275.561H128.988V277.674H113.947ZM152.059 259.914V262.086H149.084V264.381H152.059V266.544H149.084V269.71H146.465V256.923H149.084V259.914H152.059ZM133.156 260.271V258.199H142.852V264.307H135.791V266.528C139.38 266.519 141.857 266.378 144.75 265.89L145.015 267.978C141.866 268.558 139.106 268.674 134.929 268.666H133.197V262.343H140.299V260.271H133.156ZM134.979 274.127C134.979 271.624 137.722 270.133 142.156 270.124C146.531 270.133 149.275 271.624 149.275 274.127C149.275 276.605 146.531 278.047 142.156 278.039C137.722 278.047 134.979 276.605 134.979 274.127ZM137.548 274.127C137.531 275.387 139.205 276.083 142.156 276.066C145.089 276.083 146.714 275.387 146.714 274.127C146.714 272.851 145.089 272.155 142.156 272.155C139.205 272.155 137.531 272.851 137.548 274.127Z" fill="#D0D0D0"/>
<path d="M349.801 257.171V272.901H348.301V270.58H343.95V269.453H348.301V257.171H349.801ZM332.787 266.867C336.649 266.859 341.854 266.826 346.304 266.254L346.42 267.365C344.506 267.663 342.483 267.845 340.503 267.961V272.105H339.019V268.028C336.856 268.11 334.785 268.119 333.003 268.119L332.787 266.867ZM334.494 261.622C334.494 259.45 336.541 258.05 339.599 258.05C342.633 258.05 344.688 259.45 344.696 261.622C344.688 263.818 342.633 265.185 339.599 265.185C336.541 265.185 334.494 263.818 334.494 261.622ZM335.87 277.334V271.343H337.354V276.083H350.323V277.334H335.87ZM335.903 261.622C335.887 263.072 337.403 264.05 339.599 264.05C341.746 264.05 343.262 263.072 343.279 261.622C343.262 260.18 341.746 259.177 339.599 259.185C337.403 259.177 335.887 260.18 335.903 261.622Z" fill="#707070"/>
<path d="M39.6951 355.469V356.256H37.5145V363.14H36.5874V350.217H37.5145V355.469H39.6951ZM28.1447 359.814V351.506H29.0563V359.032H29.1443C31.0919 359.032 33.0445 358.887 35.2303 358.431L35.3546 359.234C33.1015 359.68 31.1281 359.819 29.1443 359.814H28.1447ZM44.3257 351.19C46.3509 351.19 47.7649 352.397 47.7753 354.179C47.7649 355.961 46.3509 357.167 44.3257 357.167C42.2901 357.167 40.8554 355.961 40.8657 354.179C40.8554 352.397 42.2901 351.19 44.3257 351.19ZM40.1613 359.431C42.5698 359.441 45.8951 359.426 48.7801 358.985L48.863 359.68C45.8692 360.239 42.6527 360.244 40.3012 360.244L40.1613 359.431ZM41.7722 354.179C41.7618 355.443 42.834 356.354 44.3257 356.354C45.7967 356.354 46.8637 355.443 46.8688 354.179C46.8637 352.91 45.7967 352.009 44.3257 352.003C42.834 352.009 41.7618 352.91 41.7722 354.179ZM49.6762 363.16V350.217H50.6033V363.16H49.6762ZM67.5586 356.655V357.416H62.1149V358.861C64.6373 358.939 66.0928 359.68 66.098 360.98C66.0928 362.357 64.4612 363.103 61.6643 363.103C58.8673 363.103 57.2202 362.357 57.2202 360.98C57.2202 359.68 58.6912 358.939 61.2137 358.861V357.416H55.7803V356.655H67.5586ZM56.5365 355.147C58.7793 354.914 61.1101 353.91 61.1722 352.278H57.0234V351.517H61.2137V350.16H62.1253V351.517H66.3362V352.278H62.1667C62.2185 353.91 64.5493 354.914 66.8076 355.147L66.5175 355.878C64.4716 355.64 62.4309 354.847 61.6695 353.443C60.9081 354.847 58.857 355.64 56.8317 355.878L56.5365 355.147ZM58.1629 360.98C58.1525 361.865 59.4837 362.378 61.6643 362.373C63.8345 362.378 65.1657 361.865 65.176 360.98C65.1657 360.099 63.8345 359.576 61.6643 359.571C59.4837 359.576 58.1525 360.099 58.1629 360.98ZM78.9485 350.232V359.721H78.0214V354.645H75.1778V353.873H78.0214V350.232H78.9485ZM68.3822 357.23C70.2261 356.572 71.7386 354.857 71.7386 352.936V352.117H68.7085V351.34H75.6543V352.117H72.6605V352.936C72.6605 354.65 74.0797 356.282 75.9185 356.924L75.4264 357.67C73.9658 357.131 72.7693 356.002 72.2203 354.609C71.6712 356.168 70.4022 357.401 68.8743 357.991L68.3822 357.23ZM70.7389 362.834V358.856H71.6609V362.052H79.3318V362.834H70.7389ZM93.9356 350.217V355.572H96.1162V356.359H93.9356V363.14H93.0085V350.217H93.9356ZM84.1411 359.876C87.5803 358.172 89.4605 355.531 89.6832 352.413H84.7108V351.625H90.6259C90.6155 355.22 88.8337 358.55 84.659 360.602L84.1411 359.876ZM106.926 353.956V354.728H98.157V350.491H99.0686V353.956H106.926ZM96.5047 357.152V356.37H108.288V357.152H96.5047ZM97.9446 360.752C97.9446 359.255 99.6124 358.416 102.389 358.416C105.155 358.416 106.817 359.255 106.822 360.752C106.817 362.238 105.155 363.077 102.389 363.077C99.6124 363.077 97.9446 362.238 97.9446 360.752ZM98.8873 360.752C98.8769 361.731 100.229 362.337 102.389 362.337C104.538 362.337 105.89 361.731 105.9 360.752C105.89 359.757 104.538 359.172 102.389 359.162C100.229 359.172 98.8769 359.757 98.8873 360.752ZM122.643 357.043V357.815H118.546V360.679H124.037V361.461H112.201V360.679H117.624V357.815H113.776V351.335H122.488V352.112H114.708V354.127H122.219V354.894H114.708V357.043H122.643ZM134.95 350.936V352.009C134.95 353.231 134.95 354.65 134.577 356.644H136.535V357.421H124.715V356.644H133.64C133.826 355.728 133.925 354.925 133.976 354.21L126.067 354.583L125.938 353.785L134.018 353.511C134.038 352.967 134.038 352.47 134.038 352.009V351.719H126.238V350.936H134.95ZM126.259 362.834V358.83H127.181V362.052H135.25V362.834H126.259ZM149.308 352.335V353.133H147.293V355.054H149.308V355.852H147.293V358.064H146.366V350.232H147.293V352.335H149.308ZM137.804 351.817V351.04H143.636V354.407H138.747V356.427H138.824C141.114 356.432 142.839 356.349 144.967 356.002L145.055 356.789C142.906 357.136 141.155 357.224 138.824 357.214H137.84V353.661H142.73V351.817H137.804ZM138.928 360.798C138.928 359.338 140.529 358.488 143.17 358.483C145.796 358.488 147.397 359.338 147.402 360.798C147.397 362.264 145.796 363.108 143.17 363.108C140.529 363.108 138.928 362.264 138.928 360.798ZM139.829 360.798C139.819 361.772 141.119 362.373 143.17 362.363C145.216 362.373 146.506 361.772 146.506 360.798C146.506 359.835 145.216 359.229 143.17 359.229C141.119 359.229 139.819 359.835 139.829 360.798ZM151.017 361.845C150.587 361.845 150.225 361.492 150.235 361.062C150.225 360.633 150.587 360.28 151.017 360.28C151.447 360.28 151.799 360.633 151.799 361.062C151.799 361.492 151.447 361.845 151.017 361.845ZM150.24 355.303C150.23 354.873 150.592 354.521 151.022 354.521C151.452 354.521 151.804 354.873 151.804 355.303C151.804 355.733 151.452 356.085 151.022 356.085C150.592 356.085 150.23 355.733 150.24 355.303ZM160.13 362.145C158.116 362.145 156.608 360.923 156.541 359.229H158.11C158.188 360.135 159.053 360.793 160.13 360.793C161.415 360.793 162.337 359.866 162.337 358.602C162.337 357.312 161.384 356.375 160.058 356.365C159.198 356.359 158.551 356.644 158.183 357.297H156.665L157.359 351.392H163.368V352.775H158.696L158.333 355.738H158.437C158.882 355.324 159.623 355.033 160.431 355.033C162.43 355.033 163.906 356.51 163.901 358.566C163.906 360.648 162.332 362.145 160.13 362.145ZM168.855 362.171C166.405 362.171 164.96 360.177 164.965 356.701C164.965 353.247 166.42 351.247 168.855 351.247C171.294 351.247 172.75 353.252 172.75 356.701C172.75 360.177 171.31 362.171 168.855 362.171ZM166.571 356.701C166.565 359.348 167.425 360.783 168.855 360.783C170.29 360.783 171.144 359.348 171.144 356.701C171.144 354.06 170.279 352.62 168.855 352.62C167.436 352.62 166.571 354.06 166.571 356.701ZM177.663 362.171C175.213 362.171 173.768 360.177 173.773 356.701C173.773 353.247 175.228 351.247 177.663 351.247C180.102 351.247 181.558 353.252 181.558 356.701C181.558 360.177 180.118 362.171 177.663 362.171ZM175.378 356.701C175.373 359.348 176.233 360.783 177.663 360.783C179.097 360.783 179.952 359.348 179.952 356.701C179.952 354.06 179.087 352.62 177.663 352.62C176.243 352.62 175.378 354.06 175.378 356.701ZM184.293 360.974L183.117 365.025H181.874L182.656 360.974H184.293ZM189.243 362.171C186.793 362.171 185.348 360.177 185.353 356.701C185.353 353.247 186.809 351.247 189.243 351.247C191.683 351.247 193.138 353.252 193.138 356.701C193.138 360.177 191.698 362.171 189.243 362.171ZM186.959 356.701C186.954 359.348 187.814 360.783 189.243 360.783C190.678 360.783 191.532 359.348 191.532 356.701C191.532 354.06 190.667 352.62 189.243 352.62C187.824 352.62 186.959 354.06 186.959 356.701ZM198.051 362.171C195.601 362.171 194.156 360.177 194.161 356.701C194.161 353.247 195.617 351.247 198.051 351.247C200.491 351.247 201.946 353.252 201.946 356.701C201.946 360.177 200.506 362.171 198.051 362.171ZM195.767 356.701C195.762 359.348 196.621 360.783 198.051 360.783C199.486 360.783 200.34 359.348 200.34 356.701C200.34 354.06 199.475 352.62 198.051 352.62C196.632 352.62 195.767 354.06 195.767 356.701ZM206.859 362.171C204.409 362.171 202.964 360.177 202.969 356.701C202.969 353.247 204.424 351.247 206.859 351.247C209.298 351.247 210.754 353.252 210.754 356.701C210.754 360.177 209.314 362.171 206.859 362.171ZM204.575 356.701C204.569 359.348 205.429 360.783 206.859 360.783C208.293 360.783 209.148 359.348 209.148 356.701C209.148 354.06 208.283 352.62 206.859 352.62C205.44 352.62 204.575 354.06 204.575 356.701ZM216.237 362H214.528L218.34 351.392H220.21L224.022 362H222.308L221.339 359.198H217.206L216.237 362ZM217.672 357.846H220.873L219.314 353.329H219.231L217.672 357.846ZM233.482 351.392V362H232L226.624 354.251H226.526V362H224.915V351.392H226.412L231.788 359.156H231.887V351.392H233.482ZM238.632 362H235.188V351.392H238.735C241.864 351.392 243.729 353.381 243.729 356.681C243.729 359.996 241.864 362 238.632 362ZM236.798 360.591H238.544C240.952 360.591 242.138 359.193 242.138 356.681C242.138 354.184 240.952 352.801 238.637 352.801H236.798V360.591Z" fill="#31A9FF"/>
<path d="M39.3481 382.655V383.416H33.9044V384.861C36.4268 384.939 37.8823 385.68 37.8874 386.98C37.8823 388.357 36.2507 389.103 33.4537 389.103C30.6568 389.103 29.0097 388.357 29.0097 386.98C29.0097 385.68 30.4807 384.939 33.0031 384.861V383.416H27.5698V382.655H39.3481ZM28.326 381.147C30.5687 380.914 32.8995 379.91 32.9617 378.278H28.8128V377.517H33.0031V376.16H33.9147V377.517H38.1257V378.278H33.9561C34.0079 379.91 36.3387 380.914 38.597 381.147L38.307 381.878C36.261 381.64 34.2203 380.847 33.4589 379.443C32.6975 380.847 30.6464 381.64 28.6212 381.878L28.326 381.147ZM29.9523 386.98C29.942 387.865 31.2731 388.378 33.4537 388.373C35.624 388.378 36.9551 387.865 36.9655 386.98C36.9551 386.099 35.624 385.576 33.4537 385.571C31.2731 385.576 29.942 386.099 29.9523 386.98ZM50.738 376.232V385.721H49.8108V380.645H46.9673V379.873H49.8108V376.232H50.738ZM40.1717 383.23C42.0156 382.572 43.528 380.857 43.528 378.936V378.117H40.498V377.34H47.4438V378.117H44.45V378.936C44.45 380.65 45.8692 382.282 47.7079 382.924L47.2159 383.67C45.7552 383.131 44.5588 382.002 44.0097 380.609C43.4607 382.168 42.1917 383.401 40.6637 383.991L40.1717 383.23ZM42.5284 388.834V384.856H43.4503V388.052H51.1213V388.834H42.5284ZM66.849 377.739V378.521H56.4174V377.739H61.2033V376.128H62.1149V377.739H66.849ZM55.7803 385.374V384.592H67.6156V385.374H62.1149V389.16H61.2033V385.374H55.7803ZM57.5206 381.479C57.5103 380.112 59.0641 379.345 61.6591 379.34C64.2437 379.345 65.7976 380.112 65.8027 381.479C65.7976 382.836 64.2437 383.603 61.6591 383.608C59.0641 383.603 57.5103 382.836 57.5206 381.479ZM58.4788 381.479C58.4685 382.349 59.6753 382.888 61.6591 382.883C63.6377 382.888 64.8393 382.349 64.8497 381.479C64.8393 380.604 63.6377 380.065 61.6591 380.065C59.6753 380.065 58.4685 380.604 58.4788 381.479ZM81.919 383.043V383.815H77.8219V386.679H83.3123V387.461H71.477V386.679H76.9V383.815H73.0516V377.335H81.7636V378.112H73.9839V380.127H81.4942V380.894H73.9839V383.043H81.919ZM94.2257 376.936V378.009C94.2257 379.231 94.2257 380.65 93.8527 382.644H95.8106V383.421H83.9908V382.644H92.9152C93.1017 381.728 93.2001 380.925 93.2519 380.21L85.3427 380.583L85.2132 379.785L93.2933 379.511C93.314 378.967 93.314 378.47 93.314 378.009V377.719H85.5136V376.936H94.2257ZM85.5344 388.834V384.83H86.4563V388.052H94.5261V388.834H85.5344ZM108.583 378.335V379.133H106.569V381.054H108.583V381.852H106.569V384.064H105.641V376.232H106.569V378.335H108.583ZM97.0796 377.817V377.04H102.912V380.407H98.0223V382.427H98.1C100.389 382.432 102.114 382.349 104.243 382.002L104.331 382.789C102.182 383.136 100.431 383.224 98.1 383.214H97.1159V379.661H102.005V377.817H97.0796ZM98.2036 386.798C98.2036 385.338 99.8041 384.488 102.446 384.483C105.072 384.488 106.672 385.338 106.677 386.798C106.672 388.264 105.072 389.108 102.446 389.108C99.8041 389.108 98.2036 388.264 98.2036 386.798ZM99.1048 386.798C99.0945 387.772 100.395 388.373 102.446 388.363C104.492 388.373 105.781 387.772 105.781 386.798C105.781 385.835 104.492 385.229 102.446 385.229C100.395 385.229 99.0945 385.835 99.1048 386.798ZM110.293 387.845C109.863 387.845 109.5 387.492 109.511 387.062C109.5 386.633 109.863 386.28 110.293 386.28C110.723 386.28 111.075 386.633 111.075 387.062C111.075 387.492 110.723 387.845 110.293 387.845ZM109.516 381.303C109.505 380.873 109.868 380.521 110.298 380.521C110.728 380.521 111.08 380.873 111.08 381.303C111.08 381.733 110.728 382.085 110.298 382.085C109.868 382.085 109.505 381.733 109.516 381.303ZM119.629 388.145C117.671 388.129 115.62 386.969 115.625 383.048C115.625 379.355 117.225 377.247 119.763 377.247C121.721 377.247 123.078 378.464 123.327 380.148H121.737C121.519 379.283 120.836 378.656 119.763 378.656C118.127 378.656 117.174 380.086 117.174 382.484H117.293C117.863 381.577 118.862 381.049 120.017 381.049C121.908 381.049 123.431 382.499 123.431 384.53C123.431 386.581 121.913 388.161 119.629 388.145ZM117.37 384.576C117.37 385.747 118.313 386.793 119.624 386.793C120.903 386.793 121.861 385.799 121.866 384.556C121.861 383.344 120.934 382.354 119.655 382.354C118.365 382.354 117.381 383.39 117.37 384.576ZM128.379 388.171C125.93 388.171 124.484 386.177 124.49 382.701C124.49 379.247 125.945 377.247 128.379 377.247C130.819 377.247 132.274 379.252 132.274 382.701C132.274 386.177 130.835 388.171 128.379 388.171ZM126.095 382.701C126.09 385.348 126.95 386.783 128.379 386.783C129.814 386.783 130.669 385.348 130.669 382.701C130.669 380.06 129.804 378.62 128.379 378.62C126.96 378.62 126.095 380.06 126.095 382.701ZM137.187 388.171C134.737 388.171 133.292 386.177 133.297 382.701C133.297 379.247 134.753 377.247 137.187 377.247C139.627 377.247 141.082 379.252 141.082 382.701C141.082 386.177 139.642 388.171 137.187 388.171ZM134.903 382.701C134.898 385.348 135.758 386.783 137.187 386.783C138.622 386.783 139.477 385.348 139.477 382.701C139.477 380.06 138.612 378.62 137.187 378.62C135.768 378.62 134.903 380.06 134.903 382.701ZM143.818 386.974L142.642 391.025H141.399L142.181 386.974H143.818ZM148.768 388.171C146.318 388.171 144.873 386.177 144.878 382.701C144.878 379.247 146.333 377.247 148.768 377.247C151.207 377.247 152.663 379.252 152.663 382.701C152.663 386.177 151.223 388.171 148.768 388.171ZM146.484 382.701C146.478 385.348 147.338 386.783 148.768 386.783C150.202 386.783 151.057 385.348 151.057 382.701C151.057 380.06 150.192 378.62 148.768 378.62C147.349 378.62 146.484 380.06 146.484 382.701ZM157.576 388.171C155.126 388.171 153.681 386.177 153.686 382.701C153.686 379.247 155.141 377.247 157.576 377.247C160.015 377.247 161.471 379.252 161.471 382.701C161.471 386.177 160.031 388.171 157.576 388.171ZM155.291 382.701C155.286 385.348 156.146 386.783 157.576 386.783C159.01 386.783 159.865 385.348 159.865 382.701C159.865 380.06 159 378.62 157.576 378.62C156.156 378.62 155.291 380.06 155.291 382.701ZM166.383 388.171C163.933 388.171 162.488 386.177 162.494 382.701C162.494 379.247 163.949 377.247 166.383 377.247C168.823 377.247 170.278 379.252 170.278 382.701C170.278 386.177 168.838 388.171 166.383 388.171ZM164.099 382.701C164.094 385.348 164.954 386.783 166.383 386.783C167.818 386.783 168.673 385.348 168.673 382.701C168.673 380.06 167.808 378.62 166.383 378.62C164.964 378.62 164.099 380.06 164.099 382.701ZM175.762 388H174.052L177.865 377.392H179.734L183.547 388H181.832L180.864 385.198H176.73L175.762 388ZM177.196 383.846H180.397L178.838 379.329H178.755L177.196 383.846ZM193.006 377.392V388H191.525L186.149 380.251H186.05V388H184.439V377.392H185.936L191.313 385.156H191.411V377.392H193.006ZM198.157 388H194.712V377.392H198.26C201.389 377.392 203.253 379.381 203.253 382.681C203.253 385.996 201.389 388 198.157 388ZM196.323 386.591H198.068C200.477 386.591 201.663 385.193 201.663 382.681C201.663 380.184 200.477 378.801 198.162 378.801H196.323V386.591Z" fill="#31A9FF"/>
<path d="M99.6215 117.91V118.944H94.6713V120.066C96.9434 120.177 98.2486 120.883 98.2583 122.096C98.2486 123.421 96.692 124.141 94.0235 124.141C91.3501 124.141 89.7742 123.421 89.7742 122.096C89.7742 120.878 91.1036 120.172 93.3902 120.066V118.944H88.4544V117.91H99.6215ZM89.0442 116.348C91.442 116.145 93.1146 115.285 93.2983 114.115H89.576V113.075H93.3902V111.905H94.6664V113.075H98.5V114.115H94.7583C94.9323 115.285 96.605 116.145 99.0124 116.348L98.6209 117.344C96.4986 117.151 94.7825 116.445 94.0283 115.299C93.2693 116.445 91.5532 117.151 89.4454 117.344L89.0442 116.348ZM91.0939 122.096C91.0843 122.797 92.1381 123.164 94.0235 123.155C95.8943 123.164 96.953 122.797 96.9627 122.096C96.953 121.395 95.8943 121.023 94.0235 121.023C92.1381 121.023 91.0843 121.395 91.0939 122.096ZM110.344 111.92V120.892H109.048V116.295H106.699V115.236H109.048V111.92H110.344ZM100.139 118.335C102.024 117.702 103.199 116.087 103.199 114.4V113.916H100.54V112.858H107.153V113.916H104.514V114.4C104.514 115.927 105.621 117.46 107.468 118.079L106.805 119.113C105.423 118.635 104.412 117.648 103.881 116.44C103.339 117.789 102.271 118.872 100.811 119.394L100.139 118.335ZM102.392 123.909V120.095H103.687V122.845H110.668V123.909H102.392ZM122.343 111.91V124.16H121.11V111.91H122.343ZM111.741 120.622C114.342 119.079 115.589 117.015 115.812 114.501H112.345V113.433H117.102C117.102 114.057 117.054 114.671 116.957 115.26H118.601V112.224H119.839V123.566H118.601V119.389H116.508V118.325H118.601V116.324H116.716C116.126 118.383 114.821 120.172 112.515 121.545L111.741 120.622ZM127.883 114.086C127.878 115.575 129.009 116.928 130.861 117.479L130.242 118.499C128.825 118.074 127.781 117.175 127.24 116.015C126.698 117.276 125.611 118.248 124.16 118.712L123.503 117.692C125.398 117.112 126.563 115.691 126.573 114.086V114.071H123.894V112.998H130.546V114.071H127.883V114.086ZM123.339 120.597C124.301 120.597 125.422 120.597 126.587 120.568V118.2H127.883V120.525C128.946 120.472 130.015 120.39 131.011 120.249L131.102 121.197C128.482 121.671 125.635 121.666 123.527 121.671L123.339 120.597ZM131.75 124.16V111.91H133.046V116.914H134.931V118.011H133.046V124.16H131.75Z" fill="black"/>
<path d="M152.877 111.959V124.112H151.852V117.731H150.073V123.474H149.077V112.229H150.073V116.841H151.852V111.959H152.877ZM142.938 121.105V113.448H147.492V114.327H144.011V120.186C145.689 120.182 146.844 120.114 148.188 119.838L148.285 120.738C146.825 121.047 145.587 121.095 143.721 121.105H142.938ZM164.203 112.751V113.815C164.203 114.965 164.203 116.222 163.855 117.972H165.673V118.862H160.645V124.131H159.572V118.862H154.593V117.972H162.763C163.14 116.227 163.14 114.946 163.14 113.815V113.641H155.985V112.751H164.203ZM177.772 118.369V119.239H166.692V118.369H177.772ZM167.92 114.791C167.92 113.273 169.593 112.374 172.223 112.384C174.843 112.374 176.516 113.273 176.516 114.791C176.516 116.309 174.843 117.218 172.223 117.218C169.593 117.218 167.92 116.309 167.92 114.791ZM168.123 123.841V120.312H169.206V122.952H176.535V123.841H168.123ZM169.032 114.791C169.022 115.758 170.27 116.338 172.223 116.338C174.176 116.338 175.423 115.758 175.423 114.791C175.423 113.844 174.176 113.254 172.223 113.254C170.27 113.254 169.022 113.844 169.032 114.791ZM189.108 111.959V119.655H188.093V116.164H186.459V119.22H185.454V112.2H186.459V115.275H188.093V111.959H189.108ZM178.724 114.279V113.419H181.325V112.046H182.389V113.419H184.96V114.279H178.724ZM179.256 117.006C179.246 115.739 180.32 114.927 181.847 114.927C183.394 114.927 184.458 115.739 184.467 117.006C184.458 118.262 183.394 119.075 181.847 119.075C180.32 119.075 179.246 118.262 179.256 117.006ZM180.213 117.006C180.213 117.76 180.88 118.272 181.847 118.272C182.824 118.272 183.491 117.76 183.491 117.006C183.491 116.242 182.824 115.729 181.847 115.729C180.88 115.729 180.213 116.242 180.213 117.006ZM181.016 121.985C181.006 120.622 182.534 119.858 185.096 119.858C187.648 119.858 189.176 120.622 189.176 121.985C189.176 123.319 187.648 124.083 185.096 124.083C182.534 124.083 181.006 123.319 181.016 121.985ZM182.079 121.985C182.07 122.778 183.201 123.251 185.096 123.242C186.981 123.251 188.103 122.778 188.112 121.985C188.103 121.153 186.981 120.689 185.096 120.699C183.201 120.689 182.07 121.153 182.079 121.985ZM194.84 123L194.831 122.101L198.205 118.543C199.375 117.296 199.936 116.628 199.945 115.72C199.936 114.695 199.085 114.037 197.973 114.037C196.793 114.037 196.049 114.782 196.049 115.894H194.879C194.869 114.144 196.223 112.964 198.012 112.964C199.81 112.964 201.086 114.173 201.096 115.72C201.086 116.822 200.574 117.682 198.814 119.49L196.552 121.83V121.907H201.27V123H194.84ZM206.48 123.135C204.507 123.135 203.096 122.081 203.028 120.515H204.275C204.343 121.453 205.281 122.043 206.46 122.043C207.766 122.043 208.713 121.337 208.713 120.302C208.713 119.229 207.853 118.465 206.306 118.465H205.503V117.383H206.306C207.514 117.383 208.355 116.706 208.355 115.681C208.355 114.695 207.63 114.037 206.499 114.037C205.445 114.037 204.478 114.617 204.43 115.584H203.241C203.299 114.018 204.759 112.964 206.518 112.964C208.404 112.964 209.554 114.202 209.545 115.623C209.554 116.744 208.897 117.566 207.862 117.856V117.934C209.148 118.127 209.931 119.046 209.922 120.312C209.931 121.936 208.452 123.135 206.48 123.135ZM215.12 123.135C213.148 123.135 211.736 122.081 211.669 120.515H212.916C212.984 121.453 213.921 122.043 215.101 122.043C216.406 122.043 217.354 121.337 217.354 120.302C217.354 119.229 216.493 118.465 214.946 118.465H214.144V117.383H214.946C216.155 117.383 216.996 116.706 216.996 115.681C216.996 114.695 216.271 114.037 215.14 114.037C214.086 114.037 213.119 114.617 213.071 115.584H211.881C211.939 114.018 213.399 112.964 215.159 112.964C217.044 112.964 218.195 114.202 218.185 115.623C218.195 116.744 217.537 117.566 216.503 117.856V117.934C217.789 118.127 218.572 119.046 218.562 120.312C218.572 121.936 217.093 123.135 215.12 123.135ZM224.612 118.224V119.307H220.271V118.224H224.612ZM229.624 123.135C227.836 123.135 226.482 122.033 226.405 120.515H227.604C227.691 121.395 228.551 122.052 229.624 122.052C230.91 122.052 231.838 121.115 231.838 119.867C231.838 118.581 230.871 117.634 229.537 117.624C228.706 117.615 228.058 117.876 227.691 118.514H226.501L227.197 113.099H232.563V114.192H228.222L227.855 117.093H227.961C228.396 116.754 229.063 116.522 229.76 116.522C231.645 116.522 233.037 117.914 233.037 119.838C233.037 121.753 231.597 123.135 229.624 123.135ZM237.978 123.135C236.189 123.135 234.836 122.033 234.758 120.515H235.957C236.044 121.395 236.905 122.052 237.978 122.052C239.264 122.052 240.192 121.115 240.192 119.867C240.192 118.581 239.225 117.634 237.891 117.624C237.059 117.615 236.411 117.876 236.044 118.514H234.855L235.551 113.099H240.917V114.192H236.576L236.208 117.093H236.315C236.75 116.754 237.417 116.522 238.113 116.522C239.998 116.522 241.391 117.914 241.391 119.838C241.391 121.753 239.95 123.135 237.978 123.135ZM247.375 118.224V119.307H243.034V118.224H247.375ZM252.388 123.135C250.599 123.135 249.246 122.033 249.168 120.515H250.367C250.454 121.395 251.315 122.052 252.388 122.052C253.674 122.052 254.602 121.115 254.602 119.867C254.602 118.581 253.635 117.634 252.301 117.624C251.469 117.615 250.822 117.876 250.454 118.514H249.265L249.961 113.099H255.327V114.192H250.986L250.619 117.093H250.725C251.16 116.754 251.827 116.522 252.523 116.522C254.409 116.522 255.801 117.914 255.801 119.838C255.801 121.753 254.36 123.135 252.388 123.135ZM260.741 123.135C258.953 123.135 257.599 122.033 257.522 120.515H258.721C258.808 121.395 259.668 122.052 260.741 122.052C262.027 122.052 262.956 121.115 262.956 119.867C262.956 118.581 261.989 117.634 260.654 117.624C259.823 117.615 259.175 117.876 258.808 118.514H257.619L258.315 113.099H263.681V114.192H259.34L258.972 117.093H259.078C259.514 116.754 260.181 116.522 260.877 116.522C262.762 116.522 264.154 117.914 264.154 119.838C264.154 121.753 262.714 123.135 260.741 123.135ZM269.366 113.099V123H268.128V114.385H268.07L265.663 115.981V114.743L268.128 113.099H269.366ZM275.504 113.099V123H274.267V114.385H274.209L271.801 115.981V114.743L274.267 113.099H275.504ZM281.566 123.135C279.593 123.135 278.182 122.081 278.114 120.515H279.361C279.429 121.453 280.367 122.043 281.546 122.043C282.852 122.043 283.799 121.337 283.799 120.302C283.799 119.229 282.939 118.465 281.392 118.465H280.589V117.383H281.392C282.6 117.383 283.441 116.706 283.441 115.681C283.441 114.695 282.716 114.037 281.585 114.037C280.531 114.037 279.564 114.617 279.516 115.584H278.327C278.385 114.018 279.845 112.964 281.604 112.964C283.49 112.964 284.64 114.202 284.631 115.623C284.64 116.744 283.983 117.566 282.948 117.856V117.934C284.234 118.127 285.017 119.046 285.008 120.312C285.017 121.936 283.538 123.135 281.566 123.135ZM286.542 120.979V119.964L290.999 113.099H292.507V119.896H293.9V120.979H292.507V123H291.338V120.979H286.542ZM287.867 119.896H291.338V114.656H291.221L287.867 119.819V119.896ZM299.793 118.224V119.307H295.452V118.224H299.793ZM304.806 123.135C303.017 123.135 301.664 122.033 301.586 120.515H302.785C302.872 121.395 303.733 122.052 304.806 122.052C306.092 122.052 307.02 121.115 307.02 119.867C307.02 118.581 306.053 117.634 304.719 117.624C303.887 117.615 303.24 117.876 302.872 118.514H301.683L302.379 113.099H307.745V114.192H303.404L303.037 117.093H303.143C303.578 116.754 304.245 116.522 304.941 116.522C306.827 116.522 308.219 117.914 308.219 119.838C308.219 121.753 306.778 123.135 304.806 123.135Z" fill="#707070"/>
<path d="M4 462C4 452.059 12.0589 444 22 444H376C385.941 444 394 452.059 394 462V844H4V462Z" fill="#F1F1F1"/>
<rect x="28" y="720" width="342" height="72" rx="12" fill="#31A9FF"/>
<path d="M178.811 755.91V757.801H171.138V759.374C174.648 759.579 176.661 760.711 176.669 762.617C176.661 764.737 174.185 765.892 169.938 765.884C165.692 765.892 163.177 764.737 163.177 762.617C163.177 760.711 165.228 759.579 168.761 759.374V757.801H161.118V755.91H178.811ZM161.954 753.334C165.927 753.046 168.206 751.762 168.563 750.182H162.858V748.29H168.761V746.52H171.131V748.29H177.071V750.182H171.321C171.67 751.762 173.957 753.046 177.937 753.334L177.216 755.157C173.736 754.884 171.154 753.805 169.946 752.119C168.73 753.805 166.147 754.884 162.691 755.157L161.954 753.334ZM165.608 762.617C165.593 763.613 167.089 764.106 169.938 764.099C172.749 764.106 174.268 763.613 174.283 762.617C174.268 761.622 172.749 761.121 169.938 761.121C167.089 761.121 165.593 761.622 165.608 762.617ZM196.397 746.512V760.703H194.011V753.585H190.57V751.655H194.011V746.512H196.397ZM180.086 756.494C183.178 755.484 184.834 752.947 184.834 750.364V749.84H180.785V747.91H191.284V749.84H187.265V750.379C187.265 752.711 188.83 755.127 191.831 756.122L190.638 758.014C188.466 757.285 186.931 755.796 186.088 753.965C185.229 756.001 183.619 757.642 181.317 758.432L180.086 756.494ZM183.657 765.535V759.45H186.042V763.597H196.883V765.535H183.657ZM214.354 746.497V754.231H217.347V756.198H214.354V765.899H211.992V746.497H214.354ZM199.039 751.397V749.468H203.628V746.771H206.013V749.468H210.495V751.397H199.039ZM199.936 757.224C199.921 754.542 202.002 752.651 204.836 752.651C207.631 752.651 209.705 754.542 209.72 757.224C209.705 759.905 207.631 761.789 204.836 761.789C202.002 761.789 199.921 759.905 199.936 757.224ZM202.222 757.224C202.207 758.819 203.316 759.829 204.836 759.814C206.332 759.829 207.419 758.819 207.434 757.224C207.419 755.651 206.332 754.61 204.836 754.61C203.316 754.61 202.207 755.651 202.222 757.224ZM234.371 746.497V765.899H231.963V746.497H234.371ZM218.289 760.559C223.371 758.143 225.726 754.869 226.151 750.448H219.276V748.556H228.582C228.574 754.337 226.333 759.244 219.542 762.473L218.289 760.559Z" fill="white"/>
<path d="M95.9392 488.028V505H93.3536V490.613H93.2541L89.2017 493.257V490.796L93.4199 488.028H95.9392Z" fill="black"/>
<path d="M86.6354 558.685V556.605L94.1271 545.028H97.326V556.506H99.6298V558.685H97.326V562H94.8646V558.685H86.6354ZM89.337 556.506H94.8812V548.094H94.6989L89.337 556.373V556.506Z" fill="black"/>
<path d="M88.5801 619L96.1547 604.365V604.24H87.4033V602.028H98.8315V604.323L91.2735 619H88.5801Z" fill="black"/>
<path d="M86.4006 676.273C82.4807 676.273 80.1685 673.083 80.1768 667.522C80.1768 661.994 82.5055 658.796 86.4006 658.796C90.3039 658.796 92.6326 662.003 92.6326 667.522C92.6326 673.083 90.3287 676.273 86.4006 676.273ZM82.7459 667.522C82.7376 671.757 84.1133 674.052 86.4006 674.052C88.6961 674.052 90.0635 671.757 90.0635 667.522C90.0635 663.296 88.6796 660.992 86.4006 660.992C84.1298 660.992 82.7459 663.296 82.7459 667.522ZM100.493 676.273C96.5732 676.273 94.261 673.083 94.2693 667.522C94.2693 661.994 96.598 658.796 100.493 658.796C104.396 658.796 106.725 662.003 106.725 667.522C106.725 673.083 104.421 676.273 100.493 676.273ZM96.8384 667.522C96.8301 671.757 98.2058 674.052 100.493 674.052C102.789 674.052 104.156 671.757 104.156 667.522C104.156 663.296 102.772 660.992 100.493 660.992C98.2223 660.992 96.8384 663.296 96.8384 667.522Z" fill="black"/>
<path d="M193.5 505L193.492 503.127L199.376 497.185C201.24 495.254 202.169 494.185 202.177 492.693C202.169 491.019 200.809 489.959 199.028 489.959C197.146 489.959 195.945 491.144 195.945 492.959H193.492C193.483 489.851 195.845 487.796 199.077 487.796C202.351 487.796 204.613 489.867 204.63 492.619C204.613 494.517 203.718 496.033 200.536 499.157L197.088 502.663V502.787H204.903V505H193.5Z" fill="black"/>
<path d="M199.276 562.232C196.052 562.232 193.641 560.276 193.533 557.566H196.044C196.169 559.017 197.552 560.069 199.276 560.069C201.331 560.069 202.807 558.586 202.807 556.564C202.807 554.5 201.282 553 199.16 552.983C197.785 552.975 196.749 553.431 196.16 554.475H193.732L194.843 545.028H204.456V547.24H196.981L196.401 551.981H196.566C197.279 551.318 198.464 550.854 199.757 550.854C202.956 550.854 205.318 553.215 205.309 556.506C205.318 559.837 202.798 562.232 199.276 562.232Z" fill="black"/>
<path d="M199.425 619.232C195.746 619.232 193.169 617.235 193.185 614.475C193.169 612.304 194.735 610.522 196.724 610.199V610.108C194.992 609.727 193.823 608.169 193.823 606.32C193.823 603.71 196.185 601.796 199.425 601.796C202.633 601.796 204.994 603.71 205.003 606.32C204.994 608.177 203.809 609.727 202.11 610.108V610.199C204.083 610.522 205.649 612.304 205.666 614.475C205.649 617.235 203.064 619.232 199.425 619.232ZM195.812 614.301C195.787 615.975 197.188 617.127 199.425 617.127C201.63 617.127 203.039 615.983 203.039 614.301C203.039 612.561 201.514 611.285 199.425 611.285C197.32 611.285 195.787 612.561 195.812 614.301ZM196.343 606.544C196.343 608.144 197.619 609.238 199.425 609.238C201.199 609.238 202.492 608.144 202.492 606.544C202.492 604.97 201.24 603.901 199.425 603.901C197.569 603.901 196.343 604.97 196.343 606.544Z" fill="black"/>
<path d="M199.401 676.273C195.481 676.273 193.169 673.083 193.177 667.522C193.177 661.994 195.506 658.796 199.401 658.796C203.304 658.796 205.633 662.003 205.633 667.522C205.633 673.083 203.329 676.273 199.401 676.273ZM195.746 667.522C195.738 671.757 197.113 674.052 199.401 674.052C201.696 674.052 203.064 671.757 203.064 667.522C203.064 663.296 201.68 660.992 199.401 660.992C197.13 660.992 195.746 663.296 195.746 667.522Z" fill="black"/>
<path d="M305.517 505.232C302.011 505.232 299.508 503.343 299.417 500.566H302.028C302.119 502.058 303.602 503.011 305.492 503.011C307.547 503.011 309.039 501.892 309.03 500.251C309.039 498.569 307.646 497.367 305.21 497.367H303.768V495.262H305.21C307.149 495.262 308.5 494.185 308.5 492.561C308.5 491.003 307.34 489.959 305.55 489.959C303.843 489.959 302.326 490.903 302.26 492.436H299.773C299.856 489.677 302.401 487.796 305.575 487.796C308.906 487.796 311.011 489.909 310.994 492.428C311.011 494.343 309.818 495.735 307.994 496.174V496.307C310.298 496.63 311.649 498.188 311.633 500.343C311.649 503.169 309.039 505.232 305.517 505.232Z" fill="black"/>
<path d="M305.633 563.232C302.5 563.207 299.218 561.351 299.227 555.077C299.227 549.169 301.787 545.796 305.848 545.796C308.981 545.796 311.152 547.743 311.55 550.436H309.006C308.657 549.052 307.564 548.05 305.848 548.05C303.229 548.05 301.704 550.337 301.704 554.174H301.895C302.807 552.724 304.406 551.878 306.254 551.878C309.279 551.878 311.715 554.199 311.715 557.448C311.715 560.729 309.287 563.257 305.633 563.232ZM302.019 557.522C302.019 559.395 303.528 561.069 305.624 561.069C307.671 561.069 309.204 559.478 309.213 557.489C309.204 555.55 307.721 553.967 305.674 553.967C303.61 553.967 302.036 555.624 302.019 557.522Z" fill="black"/>
<path d="M305.343 603.796C308.45 603.82 311.724 605.693 311.732 611.909C311.732 617.859 309.171 621.232 305.102 621.232C301.978 621.232 299.79 619.301 299.392 616.55H301.936C302.293 617.975 303.387 618.978 305.102 618.978C307.713 618.978 309.254 616.691 309.271 612.812H309.064C308.144 614.254 306.552 615.116 304.721 615.116C301.68 615.116 299.243 612.787 299.243 609.547C299.243 606.307 301.646 603.771 305.343 603.796ZM301.754 609.506C301.762 611.47 303.229 613.019 305.293 613.019C307.331 613.019 308.923 611.345 308.923 609.472C308.923 607.633 307.414 605.959 305.343 605.959C303.287 605.959 301.738 607.55 301.754 609.506Z" fill="black"/>
<path d="M271.58 660.483L282.661 649.483C284.909 647.252 287.948 646 291.115 646H320.511C327.139 646 332.511 651.373 332.511 658V680C332.511 686.627 327.139 692 320.511 692H291.115C287.948 692 284.909 690.748 282.661 688.517L271.58 677.517C266.852 672.823 266.852 665.177 271.58 660.483Z" fill="#D9D9D9"/>
<path d="M298 677L306 669M306 669L314 661M306 669L298 661M306 669L314 677" stroke="black" stroke-width="2" stroke-linecap="round" stroke-linejoin="round"/>
</g>
<defs>
<filter id="filter0_d_59_313" x="0" y="0" width="398" height="852" filterUnits="userSpaceOnUse" color-interpolation-filters="sRGB">
<feFlood flood-opacity="0" result="BackgroundImageFix"/>
<feColorMatrix in="SourceAlpha" type="matrix" values="0 0 0 0 0 0 0 0 0 0 0 0 0 0 0 0 0 0 127 0" result="hardAlpha"/>
<feOffset dy="4"/>
<feGaussianBlur stdDeviation="2"/>
<feComposite in2="hardAlpha" operator="out"/>
<feColorMatrix type="matrix" values="0 0 0 0 0 0 0 0 0 0 0 0 0 0 0 0 0 0 0.25 0"/>
<feBlend mode="normal" in2="BackgroundImageFix" result="effect1_dropShadow_59_313"/>
<feBlend mode="normal" in="SourceGraphic" in2="effect1_dropShadow_59_313" result="shape"/>
</filter>
<clipPath id="clip0_59_313">
<rect width="390" height="844" fill="white" transform="translate(4)"/>
</clipPath>
</defs>
</svg>
