<svg width="390" height="844" viewBox="0 0 390 844" fill="none" xmlns="http://www.w3.org/2000/svg">
<g clip-path="url(#clip0_59_313)">
<rect width="390" height="844" fill="white"/>
<path d="M32.5165 23.1565C31.6653 23.1565 30.9047 23.3377 30.2348 23.7001C29.5703 24.0571 29.0486 24.5513 28.6697 25.1829C28.2962 25.8089 28.1095 26.5256 28.1095 27.3328V27.3493C28.1095 28.0962 28.2743 28.7661 28.6038 29.3592C28.9387 29.9523 29.3973 30.4191 29.9794 30.7596C30.5615 31.1001 31.2315 31.2703 31.9893 31.2703C32.5385 31.2703 33.0163 31.1879 33.4226 31.0232C33.8345 30.8584 34.1805 30.6415 34.4606 30.3724C34.7406 30.1033 34.9521 29.8123 35.0948 29.4993H35.3831V27.3081H34.8889V27.3246C34.8889 27.7694 34.7846 28.1676 34.5759 28.519C34.3672 28.8705 34.0844 29.1451 33.7274 29.3428C33.3705 29.5405 32.9668 29.6393 32.5165 29.6393C32.0662 29.6393 31.6653 29.5377 31.3139 29.3345C30.9624 29.1313 30.6851 28.854 30.4819 28.5025C30.2787 28.1456 30.1771 27.7365 30.1771 27.2752V27.2587C30.1771 26.8139 30.2842 26.413 30.4984 26.056C30.7125 25.6936 30.9981 25.408 31.3551 25.1993C31.712 24.9907 32.1047 24.8863 32.533 24.8863C32.9778 24.8863 33.376 24.9934 33.7274 25.2076C34.0844 25.4218 34.3672 25.7128 34.5759 26.0807C34.7846 26.4487 34.8889 26.8578 34.8889 27.3081L35.2596 29.2933C35.2596 29.3702 35.2596 29.4498 35.2596 29.5322C35.2596 29.6091 35.2568 29.6887 35.2513 29.7711C35.2239 30.5289 35.1086 31.2209 34.9054 31.8469C34.7077 32.4675 34.4084 32.9645 34.0075 33.3379C33.6121 33.7058 33.1014 33.8898 32.4753 33.8898C32.1294 33.8898 31.8163 33.8349 31.5363 33.7251C31.2617 33.6097 31.0256 33.4477 30.8279 33.2391C30.6356 33.0304 30.4874 32.7887 30.383 32.5142L30.3501 32.4318H28.266L28.2825 32.5224C28.4143 33.1265 28.6697 33.6647 29.0486 34.1369C29.433 34.6037 29.9162 34.9717 30.4984 35.2408C31.086 35.5043 31.745 35.6361 32.4753 35.6361C33.4693 35.6361 34.3233 35.3835 35.0372 34.8783C35.7566 34.3676 36.3085 33.6372 36.6929 32.6872C37.0773 31.7371 37.2695 30.5948 37.2695 29.2604V29.2439C37.2695 28.1676 37.1432 27.2477 36.8906 26.4844C36.638 25.7156 36.2893 25.0868 35.8444 24.598C35.4051 24.1038 34.8999 23.7413 34.3288 23.5107C33.7576 23.2745 33.1536 23.1565 32.5165 23.1565ZM41.0093 33.7415C41.3882 33.7415 41.7012 33.618 41.9484 33.3709C42.1955 33.1182 42.3191 32.8107 42.3191 32.4483C42.3191 32.0803 42.1955 31.7728 41.9484 31.5257C41.7012 31.2731 41.3882 31.1468 41.0093 31.1468C40.6359 31.1468 40.3229 31.2731 40.0702 31.5257C39.8231 31.7728 39.6996 32.0803 39.6996 32.4483C39.6996 32.8107 39.8231 33.1182 40.0702 33.3709C40.3229 33.618 40.6359 33.7415 41.0093 33.7415ZM41.0093 27.6294C41.3882 27.6294 41.7012 27.5058 41.9484 27.2587C42.1955 27.0061 42.3191 26.6986 42.3191 26.3361C42.3191 25.9682 42.1955 25.6606 41.9484 25.4135C41.7012 25.1609 41.3882 25.0346 41.0093 25.0346C40.6359 25.0346 40.3229 25.1609 40.0702 25.4135C39.8231 25.6606 39.6996 25.9682 39.6996 26.3361C39.6996 26.6986 39.8231 27.0061 40.0702 27.2587C40.3229 27.5058 40.6359 27.6294 41.0093 27.6294ZM50.5153 35.3396H52.5417V33.0578H54.148V31.3033H52.5417V23.453H49.5515C49.222 23.9418 48.8925 24.4442 48.563 24.9605C48.239 25.4712 47.9123 25.9901 47.5828 26.5173C47.2588 27.039 46.932 27.569 46.6025 28.1071C46.2785 28.6398 45.9572 29.1753 45.6387 29.7134C45.3257 30.2516 45.0127 30.7871 44.6997 31.3197V33.0578H50.5153V35.3396ZM46.6766 31.3527V31.2291C46.9073 30.8227 47.1462 30.4136 47.3933 30.0018C47.6404 29.5844 47.8903 29.1698 48.1429 28.7579C48.3955 28.3405 48.6509 27.9259 48.909 27.5141C49.1671 27.1022 49.4225 26.6986 49.6751 26.3032C49.9332 25.9078 50.183 25.5233 50.4247 25.1499H50.5482V31.3527H46.6766ZM59.0657 35.3396H61.1827V23.453H59.0657L55.9602 25.6359V27.6294L58.9174 25.5453H59.0657V35.3396Z" fill="black"/>
<rect opacity="0.35" x="351.592" y="23.5" width="24" height="12" rx="3.8" stroke="black"/>
<path opacity="0.4" d="M377.092 27.7811V31.8566C377.896 31.5114 378.42 30.7085 378.42 29.8189C378.42 28.9293 377.896 28.1263 377.092 27.7811Z" fill="black"/>
<rect x="353.092" y="25" width="21" height="9" rx="2.5" fill="black"/>
<path fill-rule="evenodd" clip-rule="evenodd" d="M335.362 26.104C337.849 26.1041 340.241 27.0262 342.044 28.6797C342.179 28.8074 342.396 28.8058 342.53 28.6761L343.828 27.4126C343.895 27.3469 343.933 27.2578 343.932 27.1651C343.932 27.0724 343.893 26.9838 343.825 26.9188C339.094 22.5441 331.63 22.5441 326.899 26.9188C326.83 26.9837 326.791 27.0724 326.791 27.165C326.79 27.2577 326.828 27.3468 326.895 27.4126L328.193 28.6761C328.327 28.8059 328.544 28.8076 328.68 28.6797C330.482 27.0261 332.875 26.104 335.362 26.104ZM335.359 30.3243C336.716 30.3242 338.025 30.836 339.031 31.7601C339.167 31.8913 339.381 31.8884 339.514 31.7537L340.801 30.4344C340.869 30.3652 340.907 30.2713 340.906 30.1738C340.905 30.0762 340.865 29.9831 340.796 29.9153C337.732 27.0245 332.988 27.0245 329.924 29.9153C329.855 29.9831 329.815 30.0762 329.814 30.1738C329.813 30.2714 329.851 30.3653 329.919 30.4344L331.206 31.7537C331.339 31.8884 331.553 31.8913 331.689 31.7601C332.694 30.8366 334.002 30.3249 335.359 30.3243ZM337.883 33.1179C337.885 33.2232 337.848 33.3248 337.781 33.3986L335.604 35.8533C335.54 35.9255 335.453 35.9661 335.362 35.9661C335.272 35.9661 335.185 35.9255 335.121 35.8533L332.944 33.3986C332.877 33.3247 332.84 33.2231 332.842 33.1178C332.844 33.0124 332.884 32.9127 332.954 32.842C334.345 31.5282 336.38 31.5282 337.771 32.842C337.84 32.9127 337.881 33.0125 337.883 33.1179Z" fill="black"/>
<path fill-rule="evenodd" clip-rule="evenodd" d="M319.292 24.6821C319.292 24.049 318.814 23.5358 318.225 23.5358H317.158C316.569 23.5358 316.092 24.049 316.092 24.6821V34.616C316.092 35.2491 316.569 35.7622 317.158 35.7622H318.225C318.814 35.7622 319.292 35.2491 319.292 34.616V24.6821ZM311.857 25.9811H312.924C313.513 25.9811 313.991 26.5066 313.991 27.1548V34.5885C313.991 35.2367 313.513 35.7622 312.924 35.7622H311.857C311.268 35.7622 310.791 35.2367 310.791 34.5885V27.1548C310.791 26.5066 311.268 25.9811 311.857 25.9811ZM307.526 28.6302H306.459C305.87 28.6302 305.392 29.1623 305.392 29.8188V34.5736C305.392 35.23 305.87 35.7622 306.459 35.7622H307.526C308.115 35.7622 308.592 35.23 308.592 34.5736V29.8188C308.592 29.1623 308.115 28.6302 307.526 28.6302ZM302.225 31.0755H301.158C300.569 31.0755 300.092 31.6 300.092 32.2471V34.5905C300.092 35.2377 300.569 35.7622 301.158 35.7622H302.225C302.814 35.7622 303.292 35.2377 303.292 34.5905V32.2471C303.292 31.6 302.814 31.0755 302.225 31.0755Z" fill="black"/>
<path d="M40 88L32 80L40 72" stroke="#707070" stroke-width="2" stroke-linecap="round" stroke-linejoin="round"/>
<path d="M176.395 79.0007V80.6264H168.616V82.3888C172.187 82.5635 174.238 83.6727 174.253 85.5794C174.238 87.6609 171.791 88.7928 167.598 88.7928C163.397 88.7928 160.921 87.6609 160.921 85.5794C160.921 83.6651 163.01 82.5559 166.603 82.3888V80.6264H158.847V79.0007H176.395ZM159.774 76.547C163.541 76.2279 166.17 74.8757 166.459 73.0373H160.609V71.404H166.603V69.5656H168.608V71.404H174.633V73.0373H168.753C169.026 74.8757 171.655 76.2279 175.438 76.547L174.823 78.1119C171.488 77.808 168.791 76.6989 167.606 74.8985C166.413 76.6989 163.716 77.808 160.404 78.1119L159.774 76.547ZM162.995 85.5794C162.979 86.6809 164.635 87.2583 167.598 87.2431C170.538 87.2583 172.202 86.6809 172.217 85.5794C172.202 84.4779 170.538 83.893 167.598 83.893C164.635 83.893 162.979 84.4779 162.995 85.5794ZM193.465 69.5884V83.6878H191.429V76.4634H187.737V74.7997H191.429V69.5884H193.465ZM177.428 79.6692C180.391 78.674 182.237 76.1367 182.237 73.4855V72.7258H178.059V71.0622H188.451V72.7258H184.303V73.4855C184.303 75.886 186.043 78.2942 188.945 79.2666L187.904 80.8923C185.731 80.1402 184.143 78.5905 183.308 76.6913C182.457 78.8108 180.778 80.5124 178.484 81.3329L177.428 79.6692ZM180.968 88.4282V82.4344H183.004V86.7569H193.974V88.4282H180.968ZM210.99 69.5732V77.375H214.074V79.0691H210.99V88.8232H208.969V69.5732H210.99ZM195.888 74.2528V72.5891H200.636V69.8239H202.672V72.5891H207.29V74.2528H195.888ZM196.875 80.1554C196.868 77.5269 198.888 75.6733 201.669 75.6733C204.419 75.6733 206.44 77.5269 206.447 80.1554C206.44 82.7914 204.419 84.6222 201.669 84.6298C198.888 84.6222 196.868 82.7914 196.875 80.1554ZM198.828 80.1554C198.812 81.8191 200.02 82.9358 201.669 82.9282C203.295 82.9358 204.487 81.8191 204.502 80.1554C204.487 78.4993 203.295 77.3598 201.669 77.3598C200.02 77.3598 198.812 78.4993 198.828 80.1554ZM230.566 69.5732V88.8232H228.515V69.5732H230.566ZM214.75 83.6651C219.87 81.2341 222.362 77.7624 222.765 73.2728H215.684V71.6471H224.846C224.831 77.2762 222.438 82.1609 215.829 85.3135L214.75 83.6651Z" fill="black"/>
<path d="M37.1119 214.819V216.075H31.1008V217.437C33.8598 217.572 35.4448 218.429 35.4565 219.902C35.4448 221.511 33.5546 222.385 30.3142 222.385C27.068 222.385 25.1544 221.511 25.1544 219.902C25.1544 218.423 26.7686 217.566 29.5452 217.437V216.075H23.5518V214.819H37.1119ZM24.268 212.923C27.1796 212.676 29.2106 211.631 29.4337 210.211H24.9137V208.949H29.5452V207.528H31.095V208.949H35.75V210.211H31.2065C31.4178 211.631 33.4489 212.676 36.3722 212.923L35.8968 214.132C33.3198 213.897 31.2358 213.04 30.3201 211.649C29.3985 213.04 27.3146 213.897 24.7552 214.132L24.268 212.923ZM26.7569 219.902C26.7452 220.753 28.0249 221.2 30.3142 221.188C32.586 221.2 33.8715 220.753 33.8833 219.902C33.8715 219.051 32.586 218.599 30.3142 218.599C28.0249 218.599 26.7452 219.051 26.7569 219.902ZM50.132 207.546V218.441H48.5588V212.858H45.7059V211.573H48.5588V207.546H50.132ZM37.74 215.335C40.0294 214.566 41.4559 212.606 41.4559 210.557V209.97H38.2273V208.684H46.2577V209.97H43.0525V210.557C43.0525 212.412 44.3968 214.273 46.6392 215.024L45.835 216.28C44.1561 215.699 42.9293 214.502 42.2836 213.034C41.6261 214.672 40.3288 215.987 38.556 216.621L37.74 215.335ZM40.4755 222.104V217.472H42.0488V220.812H50.5253V222.104H40.4755ZM63.8036 208.291V209.418C63.8036 210.58 63.8036 211.913 63.4162 213.721H65.5295V215.007H51.9166V213.721H61.8313C62.2187 211.978 62.2363 210.704 62.2363 209.571H53.6189V208.291H63.8036ZM53.5719 222.221V216.897H63.8213V222.221H53.5719ZM55.1158 220.941H62.2598V218.135H55.1158V220.941ZM69.6328 208.455C71.5993 208.455 73.0492 209.923 73.0492 212.013C73.0492 214.108 71.5993 215.535 69.6328 215.535C67.6428 215.535 66.2163 214.108 66.2281 212.013C66.2163 209.923 67.6428 208.455 69.6328 208.455ZM67.6428 212.013C67.6311 213.316 68.4764 214.22 69.6328 214.208C70.7716 214.22 71.611 213.316 71.6169 212.013C71.611 210.698 70.7716 209.811 69.6328 209.811C68.4764 209.811 67.6311 210.698 67.6428 212.013ZM68.6642 218.446V217.179H78.7726V222.409H77.217V218.446H68.6642ZM74.0824 216.31V207.821H75.5617V211.302H77.2816V207.546H78.7726V216.41H77.2816V212.582H75.5617V216.31H74.0824Z" fill="black"/>
<rect x="23" y="233" width="342" height="68" rx="12" fill="#F1F1F1"/>
<path d="M245.624 259.028V276H242.557V262.003H242.458L238.488 264.539V261.746L242.698 259.028H245.624ZM256.009 276.323C251.916 276.315 249.479 273.091 249.487 267.53C249.487 261.986 251.94 258.796 256.009 258.796C260.07 258.796 262.532 261.994 262.532 267.53C262.523 273.108 260.095 276.323 256.009 276.323ZM252.562 267.53C252.562 271.608 253.88 273.738 256.009 273.738C258.131 273.738 259.449 271.608 259.449 267.53C259.44 263.478 258.123 261.34 256.009 261.34C253.888 261.34 252.57 263.478 252.562 267.53ZM267.855 274.309L265.9 280.881H263.67L264.872 274.309H267.855ZM276.681 276.323C272.587 276.315 270.151 273.091 270.159 267.53C270.159 261.986 272.612 258.796 276.681 258.796C280.742 258.796 283.203 261.994 283.203 267.53C283.195 273.108 280.767 276.323 276.681 276.323ZM273.234 267.53C273.234 271.608 274.552 273.738 276.681 273.738C278.803 273.738 280.121 271.608 280.121 267.53C280.112 263.478 278.795 261.34 276.681 261.34C274.56 261.34 273.242 263.478 273.234 267.53ZM292.009 276.323C287.916 276.315 285.479 273.091 285.487 267.53C285.487 261.986 287.94 258.796 292.009 258.796C296.07 258.796 298.532 261.994 298.532 267.53C298.523 273.108 296.095 276.323 292.009 276.323ZM288.562 267.53C288.562 271.608 289.88 273.738 292.009 273.738C294.131 273.738 295.449 271.608 295.449 267.53C295.44 263.478 294.123 261.34 292.009 261.34C289.888 261.34 288.57 263.478 288.562 267.53ZM307.338 276.323C303.244 276.315 300.807 273.091 300.816 267.53C300.816 261.986 303.269 258.796 307.338 258.796C311.398 258.796 313.86 261.994 313.86 267.53C313.851 273.108 311.423 276.323 307.338 276.323ZM303.89 267.53C303.89 271.608 305.208 273.738 307.338 273.738C309.459 273.738 310.777 271.608 310.777 267.53C310.769 263.478 309.451 261.34 307.338 261.34C305.216 261.34 303.898 263.478 303.89 267.53Z" fill="black"/>
<path d="M345.801 257.171V272.901H344.301V270.58H339.95V269.453H344.301V257.171H345.801ZM328.787 266.867C332.649 266.859 337.854 266.826 342.304 266.254L342.42 267.365C340.506 267.663 338.483 267.845 336.503 267.961V272.105H335.019V268.028C332.856 268.11 330.785 268.119 329.003 268.119L328.787 266.867ZM330.494 261.622C330.494 259.45 332.541 258.05 335.599 258.05C338.633 258.05 340.688 259.45 340.696 261.622C340.688 263.818 338.633 265.185 335.599 265.185C332.541 265.185 330.494 263.818 330.494 261.622ZM331.87 277.334V271.343H333.354V276.083H346.323V277.334H331.87ZM331.903 261.622C331.887 263.072 333.403 264.05 335.599 264.05C337.746 264.05 339.262 263.072 339.279 261.622C339.262 260.18 337.746 259.177 335.599 259.185C333.403 259.177 331.887 260.18 331.903 261.622Z" fill="#707070"/>
<path d="M35.6951 355.469V356.256H33.5145V363.14H32.5874V350.217H33.5145V355.469H35.6951ZM24.1447 359.814V351.506H25.0563V359.032H25.1443C27.0919 359.032 29.0445 358.887 31.2303 358.431L31.3546 359.234C29.1015 359.68 27.1281 359.819 25.1443 359.814H24.1447ZM40.3257 351.19C42.3509 351.19 43.7649 352.397 43.7753 354.179C43.7649 355.961 42.3509 357.167 40.3257 357.167C38.2901 357.167 36.8554 355.961 36.8657 354.179C36.8554 352.397 38.2901 351.19 40.3257 351.19ZM36.1613 359.431C38.5698 359.441 41.8951 359.426 44.7801 358.985L44.863 359.68C41.8692 360.239 38.6527 360.244 36.3012 360.244L36.1613 359.431ZM37.7722 354.179C37.7618 355.443 38.834 356.354 40.3257 356.354C41.7967 356.354 42.8637 355.443 42.8688 354.179C42.8637 352.91 41.7967 352.009 40.3257 352.003C38.834 352.009 37.7618 352.91 37.7722 354.179ZM45.6762 363.16V350.217H46.6033V363.16H45.6762ZM63.5586 356.655V357.416H58.1149V358.861C60.6373 358.939 62.0928 359.68 62.098 360.98C62.0928 362.357 60.4612 363.103 57.6643 363.103C54.8673 363.103 53.2202 362.357 53.2202 360.98C53.2202 359.68 54.6912 358.939 57.2137 358.861V357.416H51.7803V356.655H63.5586ZM52.5365 355.147C54.7793 354.914 57.1101 353.91 57.1722 352.278H53.0234V351.517H57.2137V350.16H58.1253V351.517H62.3362V352.278H58.1667C58.2185 353.91 60.5493 354.914 62.8076 355.147L62.5175 355.878C60.4716 355.64 58.4309 354.847 57.6695 353.443C56.9081 354.847 54.857 355.64 52.8317 355.878L52.5365 355.147ZM54.1629 360.98C54.1525 361.865 55.4837 362.378 57.6643 362.373C59.8345 362.378 61.1657 361.865 61.176 360.98C61.1657 360.099 59.8345 359.576 57.6643 359.571C55.4837 359.576 54.1525 360.099 54.1629 360.98ZM74.9485 350.232V359.721H74.0214V354.645H71.1778V353.873H74.0214V350.232H74.9485ZM64.3822 357.23C66.2261 356.572 67.7386 354.857 67.7386 352.936V352.117H64.7085V351.34H71.6543V352.117H68.6605V352.936C68.6605 354.65 70.0797 356.282 71.9185 356.924L71.4264 357.67C69.9658 357.131 68.7693 356.002 68.2203 354.609C67.6712 356.168 66.4022 357.401 64.8743 357.991L64.3822 357.23ZM66.7389 362.834V358.856H67.6609V362.052H75.3318V362.834H66.7389ZM89.9356 350.217V355.572H92.1162V356.359H89.9356V363.14H89.0085V350.217H89.9356ZM80.1411 359.876C83.5803 358.172 85.4605 355.531 85.6832 352.413H80.7108V351.625H86.6259C86.6155 355.22 84.8337 358.55 80.659 360.602L80.1411 359.876ZM102.926 353.956V354.728H94.157V350.491H95.0686V353.956H102.926ZM92.5047 357.152V356.37H104.288V357.152H92.5047ZM93.9446 360.752C93.9446 359.255 95.6124 358.416 98.3887 358.416C101.155 358.416 102.817 359.255 102.822 360.752C102.817 362.238 101.155 363.077 98.3887 363.077C95.6124 363.077 93.9446 362.238 93.9446 360.752ZM94.8873 360.752C94.8769 361.731 96.2288 362.337 98.3887 362.337C100.538 362.337 101.89 361.731 101.9 360.752C101.89 359.757 100.538 359.172 98.3887 359.162C96.2288 359.172 94.8769 359.757 94.8873 360.752ZM118.643 357.043V357.815H114.546V360.679H120.037V361.461H108.201V360.679H113.624V357.815H109.776V351.335H118.488V352.112H110.708V354.127H118.219V354.894H110.708V357.043H118.643ZM130.95 350.936V352.009C130.95 353.231 130.95 354.65 130.577 356.644H132.535V357.421H120.715V356.644H129.64C129.826 355.728 129.925 354.925 129.976 354.21L122.067 354.583L121.938 353.785L130.018 353.511C130.038 352.967 130.038 352.47 130.038 352.009V351.719H122.238V350.936H130.95ZM122.259 362.834V358.83H123.181V362.052H131.25V362.834H122.259ZM145.308 352.335V353.133H143.293V355.054H145.308V355.852H143.293V358.064H142.366V350.232H143.293V352.335H145.308ZM133.804 351.817V351.04H139.636V354.407H134.747V356.427H134.824C137.114 356.432 138.839 356.349 140.967 356.002L141.055 356.789C138.906 357.136 137.155 357.224 134.824 357.214H133.84V353.661H138.73V351.817H133.804ZM134.928 360.798C134.928 359.338 136.529 358.488 139.17 358.483C141.796 358.488 143.397 359.338 143.402 360.798C143.397 362.264 141.796 363.108 139.17 363.108C136.529 363.108 134.928 362.264 134.928 360.798ZM135.829 360.798C135.819 361.772 137.119 362.373 139.17 362.363C141.216 362.373 142.506 361.772 142.506 360.798C142.506 359.835 141.216 359.229 139.17 359.229C137.119 359.229 135.819 359.835 135.829 360.798ZM147.017 361.845C146.587 361.845 146.225 361.492 146.235 361.062C146.225 360.633 146.587 360.28 147.017 360.28C147.447 360.28 147.799 360.633 147.799 361.062C147.799 361.492 147.447 361.845 147.017 361.845ZM146.24 355.303C146.23 354.873 146.592 354.521 147.022 354.521C147.452 354.521 147.804 354.873 147.804 355.303C147.804 355.733 147.452 356.085 147.022 356.085C146.592 356.085 146.23 355.733 146.24 355.303ZM156.13 362.145C154.116 362.145 152.608 360.923 152.541 359.229H154.11C154.188 360.135 155.053 360.793 156.13 360.793C157.415 360.793 158.337 359.866 158.337 358.602C158.337 357.312 157.384 356.375 156.058 356.365C155.198 356.359 154.551 356.644 154.183 357.297H152.665L153.359 351.392H159.368V352.775H154.696L154.333 355.738H154.437C154.882 355.324 155.623 355.033 156.431 355.033C158.43 355.033 159.906 356.51 159.901 358.566C159.906 360.648 158.332 362.145 156.13 362.145ZM164.855 362.171C162.405 362.171 160.96 360.177 160.965 356.701C160.965 353.247 162.42 351.247 164.855 351.247C167.294 351.247 168.75 353.252 168.75 356.701C168.75 360.177 167.31 362.171 164.855 362.171ZM162.571 356.701C162.565 359.348 163.425 360.783 164.855 360.783C166.29 360.783 167.144 359.348 167.144 356.701C167.144 354.06 166.279 352.62 164.855 352.62C163.436 352.62 162.571 354.06 162.571 356.701ZM173.663 362.171C171.213 362.171 169.768 360.177 169.773 356.701C169.773 353.247 171.228 351.247 173.663 351.247C176.102 351.247 177.558 353.252 177.558 356.701C177.558 360.177 176.118 362.171 173.663 362.171ZM171.378 356.701C171.373 359.348 172.233 360.783 173.663 360.783C175.097 360.783 175.952 359.348 175.952 356.701C175.952 354.06 175.087 352.62 173.663 352.62C172.243 352.62 171.378 354.06 171.378 356.701ZM180.293 360.974L179.117 365.025H177.874L178.656 360.974H180.293ZM185.243 362.171C182.793 362.171 181.348 360.177 181.353 356.701C181.353 353.247 182.809 351.247 185.243 351.247C187.683 351.247 189.138 353.252 189.138 356.701C189.138 360.177 187.698 362.171 185.243 362.171ZM182.959 356.701C182.954 359.348 183.814 360.783 185.243 360.783C186.678 360.783 187.532 359.348 187.532 356.701C187.532 354.06 186.667 352.62 185.243 352.62C183.824 352.62 182.959 354.06 182.959 356.701ZM194.051 362.171C191.601 362.171 190.156 360.177 190.161 356.701C190.161 353.247 191.617 351.247 194.051 351.247C196.491 351.247 197.946 353.252 197.946 356.701C197.946 360.177 196.506 362.171 194.051 362.171ZM191.767 356.701C191.762 359.348 192.621 360.783 194.051 360.783C195.486 360.783 196.34 359.348 196.34 356.701C196.34 354.06 195.475 352.62 194.051 352.62C192.632 352.62 191.767 354.06 191.767 356.701ZM202.859 362.171C200.409 362.171 198.964 360.177 198.969 356.701C198.969 353.247 200.424 351.247 202.859 351.247C205.298 351.247 206.754 353.252 206.754 356.701C206.754 360.177 205.314 362.171 202.859 362.171ZM200.575 356.701C200.569 359.348 201.429 360.783 202.859 360.783C204.293 360.783 205.148 359.348 205.148 356.701C205.148 354.06 204.283 352.62 202.859 352.62C201.44 352.62 200.575 354.06 200.575 356.701ZM212.237 362H210.528L214.34 351.392H216.21L220.022 362H218.308L217.339 359.198H213.206L212.237 362ZM213.672 357.846H216.873L215.314 353.329H215.231L213.672 357.846ZM229.482 351.392V362H228L222.624 354.251H222.526V362H220.915V351.392H222.412L227.788 359.156H227.887V351.392H229.482ZM234.632 362H231.188V351.392H234.735C237.864 351.392 239.729 353.381 239.729 356.681C239.729 359.996 237.864 362 234.632 362ZM232.798 360.591H234.544C236.952 360.591 238.138 359.193 238.138 356.681C238.138 354.184 236.952 352.801 234.637 352.801H232.798V360.591Z" fill="#31A9FF"/>
<path d="M35.3481 382.655V383.416H29.9044V384.861C32.4268 384.939 33.8823 385.68 33.8874 386.98C33.8823 388.357 32.2507 389.103 29.4537 389.103C26.6568 389.103 25.0097 388.357 25.0097 386.98C25.0097 385.68 26.4807 384.939 29.0031 384.861V383.416H23.5698V382.655H35.3481ZM24.326 381.147C26.5687 380.914 28.8995 379.91 28.9617 378.278H24.8128V377.517H29.0031V376.16H29.9147V377.517H34.1257V378.278H29.9561C30.0079 379.91 32.3387 380.914 34.597 381.147L34.307 381.878C32.261 381.64 30.2203 380.847 29.4589 379.443C28.6975 380.847 26.6464 381.64 24.6212 381.878L24.326 381.147ZM25.9523 386.98C25.942 387.865 27.2731 388.378 29.4537 388.373C31.624 388.378 32.9551 387.865 32.9655 386.98C32.9551 386.099 31.624 385.576 29.4537 385.571C27.2731 385.576 25.942 386.099 25.9523 386.98ZM46.738 376.232V385.721H45.8108V380.645H42.9673V379.873H45.8108V376.232H46.738ZM36.1717 383.23C38.0156 382.572 39.528 380.857 39.528 378.936V378.117H36.498V377.34H43.4438V378.117H40.45V378.936C40.45 380.65 41.8692 382.282 43.7079 382.924L43.2159 383.67C41.7552 383.131 40.5588 382.002 40.0097 380.609C39.4607 382.168 38.1917 383.401 36.6637 383.991L36.1717 383.23ZM38.5284 388.834V384.856H39.4503V388.052H47.1213V388.834H38.5284ZM62.849 377.739V378.521H52.4174V377.739H57.2033V376.128H58.1149V377.739H62.849ZM51.7803 385.374V384.592H63.6156V385.374H58.1149V389.16H57.2033V385.374H51.7803ZM53.5206 381.479C53.5103 380.112 55.0641 379.345 57.6591 379.34C60.2437 379.345 61.7976 380.112 61.8027 381.479C61.7976 382.836 60.2437 383.603 57.6591 383.608C55.0641 383.603 53.5103 382.836 53.5206 381.479ZM54.4788 381.479C54.4685 382.349 55.6753 382.888 57.6591 382.883C59.6377 382.888 60.8393 382.349 60.8497 381.479C60.8393 380.604 59.6377 380.065 57.6591 380.065C55.6753 380.065 54.4685 380.604 54.4788 381.479ZM77.919 383.043V383.815H73.8219V386.679H79.3123V387.461H67.477V386.679H72.9V383.815H69.0516V377.335H77.7636V378.112H69.9839V380.127H77.4942V380.894H69.9839V383.043H77.919ZM90.2257 376.936V378.009C90.2257 379.231 90.2257 380.65 89.8527 382.644H91.8106V383.421H79.9908V382.644H88.9152C89.1017 381.728 89.2001 380.925 89.2519 380.21L81.3427 380.583L81.2132 379.785L89.2933 379.511C89.314 378.967 89.314 378.47 89.314 378.009V377.719H81.5136V376.936H90.2257ZM81.5344 388.834V384.83H82.4563V388.052H90.5261V388.834H81.5344ZM104.583 378.335V379.133H102.569V381.054H104.583V381.852H102.569V384.064H101.641V376.232H102.569V378.335H104.583ZM93.0796 377.817V377.04H98.9118V380.407H94.0223V382.427H94.1C96.3894 382.432 98.1142 382.349 100.243 382.002L100.331 382.789C98.1815 383.136 96.4308 383.224 94.1 383.214H93.1159V379.661H98.0054V377.817H93.0796ZM94.2036 386.798C94.2036 385.338 95.8041 384.488 98.4457 384.483C101.072 384.488 102.672 385.338 102.677 386.798C102.672 388.264 101.072 389.108 98.4457 389.108C95.8041 389.108 94.2036 388.264 94.2036 386.798ZM95.1048 386.798C95.0945 387.772 96.3946 388.373 98.4457 388.363C100.492 388.373 101.781 387.772 101.781 386.798C101.781 385.835 100.492 385.229 98.4457 385.229C96.3946 385.229 95.0945 385.835 95.1048 386.798ZM106.293 387.845C105.863 387.845 105.5 387.492 105.511 387.062C105.5 386.633 105.863 386.28 106.293 386.28C106.723 386.28 107.075 386.633 107.075 387.062C107.075 387.492 106.723 387.845 106.293 387.845ZM105.516 381.303C105.505 380.873 105.868 380.521 106.298 380.521C106.728 380.521 107.08 380.873 107.08 381.303C107.08 381.733 106.728 382.085 106.298 382.085C105.868 382.085 105.505 381.733 105.516 381.303ZM115.629 388.145C113.671 388.129 111.62 386.969 111.625 383.048C111.625 379.355 113.225 377.247 115.763 377.247C117.721 377.247 119.078 378.464 119.327 380.148H117.737C117.519 379.283 116.836 378.656 115.763 378.656C114.127 378.656 113.174 380.086 113.174 382.484H113.293C113.863 381.577 114.862 381.049 116.017 381.049C117.908 381.049 119.431 382.499 119.431 384.53C119.431 386.581 117.913 388.161 115.629 388.145ZM113.37 384.576C113.37 385.747 114.313 386.793 115.624 386.793C116.903 386.793 117.861 385.799 117.866 384.556C117.861 383.344 116.934 382.354 115.655 382.354C114.365 382.354 113.381 383.39 113.37 384.576ZM124.379 388.171C121.93 388.171 120.484 386.177 120.49 382.701C120.49 379.247 121.945 377.247 124.379 377.247C126.819 377.247 128.274 379.252 128.274 382.701C128.274 386.177 126.835 388.171 124.379 388.171ZM122.095 382.701C122.09 385.348 122.95 386.783 124.379 386.783C125.814 386.783 126.669 385.348 126.669 382.701C126.669 380.06 125.804 378.62 124.379 378.62C122.96 378.62 122.095 380.06 122.095 382.701ZM133.187 388.171C130.737 388.171 129.292 386.177 129.297 382.701C129.297 379.247 130.753 377.247 133.187 377.247C135.627 377.247 137.082 379.252 137.082 382.701C137.082 386.177 135.642 388.171 133.187 388.171ZM130.903 382.701C130.898 385.348 131.758 386.783 133.187 386.783C134.622 386.783 135.477 385.348 135.477 382.701C135.477 380.06 134.612 378.62 133.187 378.62C131.768 378.62 130.903 380.06 130.903 382.701ZM139.818 386.974L138.642 391.025H137.399L138.181 386.974H139.818ZM144.768 388.171C142.318 388.171 140.873 386.177 140.878 382.701C140.878 379.247 142.333 377.247 144.768 377.247C147.207 377.247 148.663 379.252 148.663 382.701C148.663 386.177 147.223 388.171 144.768 388.171ZM142.484 382.701C142.478 385.348 143.338 386.783 144.768 386.783C146.202 386.783 147.057 385.348 147.057 382.701C147.057 380.06 146.192 378.62 144.768 378.62C143.349 378.62 142.484 380.06 142.484 382.701ZM153.576 388.171C151.126 388.171 149.681 386.177 149.686 382.701C149.686 379.247 151.141 377.247 153.576 377.247C156.015 377.247 157.471 379.252 157.471 382.701C157.471 386.177 156.031 388.171 153.576 388.171ZM151.291 382.701C151.286 385.348 152.146 386.783 153.576 386.783C155.01 386.783 155.865 385.348 155.865 382.701C155.865 380.06 155 378.62 153.576 378.62C152.156 378.62 151.291 380.06 151.291 382.701ZM162.383 388.171C159.933 388.171 158.488 386.177 158.494 382.701C158.494 379.247 159.949 377.247 162.383 377.247C164.823 377.247 166.278 379.252 166.278 382.701C166.278 386.177 164.838 388.171 162.383 388.171ZM160.099 382.701C160.094 385.348 160.954 386.783 162.383 386.783C163.818 386.783 164.673 385.348 164.673 382.701C164.673 380.06 163.808 378.62 162.383 378.62C160.964 378.62 160.099 380.06 160.099 382.701ZM171.762 388H170.052L173.865 377.392H175.734L179.547 388H177.832L176.864 385.198H172.73L171.762 388ZM173.196 383.846H176.397L174.838 379.329H174.755L173.196 383.846ZM189.006 377.392V388H187.525L182.149 380.251H182.05V388H180.439V377.392H181.936L187.313 385.156H187.411V377.392H189.006ZM194.157 388H190.712V377.392H194.26C197.389 377.392 199.253 379.381 199.253 382.681C199.253 385.996 197.389 388 194.157 388ZM192.323 386.591H194.068C196.477 386.591 197.663 385.193 197.663 382.681C197.663 380.184 196.477 378.801 194.162 378.801H192.323V386.591Z" fill="#31A9FF"/>
<path d="M95.6215 117.91V118.944H90.6713V120.066C92.9434 120.177 94.2486 120.883 94.2583 122.096C94.2486 123.421 92.692 124.141 90.0235 124.141C87.3501 124.141 85.7742 123.421 85.7742 122.096C85.7742 120.878 87.1036 120.172 89.3902 120.066V118.944H84.4544V117.91H95.6215ZM85.0442 116.348C87.442 116.145 89.1146 115.285 89.2983 114.115H85.576V113.075H89.3902V111.905H90.6664V113.075H94.5V114.115H90.7583C90.9323 115.285 92.605 116.145 95.0124 116.348L94.6209 117.344C92.4986 117.151 90.7825 116.445 90.0283 115.299C89.2693 116.445 87.5532 117.151 85.4454 117.344L85.0442 116.348ZM87.0939 122.096C87.0843 122.797 88.1381 123.164 90.0235 123.155C91.8943 123.164 92.953 122.797 92.9627 122.096C92.953 121.395 91.8943 121.023 90.0235 121.023C88.1381 121.023 87.0843 121.395 87.0939 122.096ZM106.344 111.92V120.892H105.048V116.295H102.699V115.236H105.048V111.92H106.344ZM96.1389 118.335C98.0242 117.702 99.1989 116.087 99.1989 114.4V113.916H96.5401V112.858H103.153V113.916H100.514V114.4C100.514 115.927 101.621 117.46 103.468 118.079L102.805 119.113C101.423 118.635 100.412 117.648 99.8806 116.44C99.3391 117.789 98.2708 118.872 96.8108 119.394L96.1389 118.335ZM98.3916 123.909V120.095H99.6872V122.845H106.668V123.909H98.3916ZM118.343 111.91V124.16H117.11V111.91H118.343ZM107.741 120.622C110.342 119.079 111.589 117.015 111.812 114.501H108.345V113.433H113.102C113.102 114.057 113.054 114.671 112.957 115.26H114.601V112.224H115.839V123.566H114.601V119.389H112.508V118.325H114.601V116.324H112.716C112.126 118.383 110.821 120.172 108.515 121.545L107.741 120.622ZM123.883 114.086C123.878 115.575 125.009 116.928 126.861 117.479L126.242 118.499C124.825 118.074 123.781 117.175 123.24 116.015C122.698 117.276 121.611 118.248 120.16 118.712L119.503 117.692C121.398 117.112 122.563 115.691 122.573 114.086V114.071H119.894V112.998H126.546V114.071H123.883V114.086ZM119.339 120.597C120.301 120.597 121.422 120.597 122.587 120.568V118.2H123.883V120.525C124.946 120.472 126.015 120.39 127.011 120.249L127.102 121.197C124.482 121.671 121.635 121.666 119.527 121.671L119.339 120.597ZM127.75 124.16V111.91H129.046V116.914H130.931V118.011H129.046V124.16H127.75Z" fill="black"/>
<path d="M148.877 111.959V124.112H147.852V117.731H146.073V123.474H145.077V112.229H146.073V116.841H147.852V111.959H148.877ZM138.938 121.105V113.448H143.492V114.327H140.011V120.186C141.689 120.182 142.844 120.114 144.188 119.838L144.285 120.738C142.825 121.047 141.587 121.095 139.721 121.105H138.938ZM160.203 112.751V113.815C160.203 114.965 160.203 116.222 159.855 117.972H161.673V118.862H156.645V124.131H155.572V118.862H150.593V117.972H158.763C159.14 116.227 159.14 114.946 159.14 113.815V113.641H151.985V112.751H160.203ZM173.772 118.369V119.239H162.692V118.369H173.772ZM163.92 114.791C163.92 113.273 165.593 112.374 168.223 112.384C170.843 112.374 172.516 113.273 172.516 114.791C172.516 116.309 170.843 117.218 168.223 117.218C165.593 117.218 163.92 116.309 163.92 114.791ZM164.123 123.841V120.312H165.206V122.952H172.535V123.841H164.123ZM165.032 114.791C165.022 115.758 166.27 116.338 168.223 116.338C170.176 116.338 171.423 115.758 171.423 114.791C171.423 113.844 170.176 113.254 168.223 113.254C166.27 113.254 165.022 113.844 165.032 114.791ZM185.108 111.959V119.655H184.093V116.164H182.459V119.22H181.454V112.2H182.459V115.275H184.093V111.959H185.108ZM174.724 114.279V113.419H177.325V112.046H178.389V113.419H180.96V114.279H174.724ZM175.256 117.006C175.246 115.739 176.32 114.927 177.847 114.927C179.394 114.927 180.458 115.739 180.467 117.006C180.458 118.262 179.394 119.075 177.847 119.075C176.32 119.075 175.246 118.262 175.256 117.006ZM176.213 117.006C176.213 117.76 176.88 118.272 177.847 118.272C178.824 118.272 179.491 117.76 179.491 117.006C179.491 116.242 178.824 115.729 177.847 115.729C176.88 115.729 176.213 116.242 176.213 117.006ZM177.016 121.985C177.006 120.622 178.534 119.858 181.096 119.858C183.648 119.858 185.176 120.622 185.176 121.985C185.176 123.319 183.648 124.083 181.096 124.083C178.534 124.083 177.006 123.319 177.016 121.985ZM178.079 121.985C178.07 122.778 179.201 123.251 181.096 123.242C182.981 123.251 184.103 122.778 184.112 121.985C184.103 121.153 182.981 120.689 181.096 120.699C179.201 120.689 178.07 121.153 178.079 121.985ZM190.84 123L190.831 122.101L194.205 118.543C195.375 117.296 195.936 116.628 195.945 115.72C195.936 114.695 195.085 114.037 193.973 114.037C192.793 114.037 192.049 114.782 192.049 115.894H190.879C190.869 114.144 192.223 112.964 194.012 112.964C195.81 112.964 197.086 114.173 197.096 115.72C197.086 116.822 196.574 117.682 194.814 119.49L192.552 121.83V121.907H197.27V123H190.84ZM202.48 123.135C200.507 123.135 199.096 122.081 199.028 120.515H200.275C200.343 121.453 201.281 122.043 202.46 122.043C203.766 122.043 204.713 121.337 204.713 120.302C204.713 119.229 203.853 118.465 202.306 118.465H201.503V117.383H202.306C203.514 117.383 204.355 116.706 204.355 115.681C204.355 114.695 203.63 114.037 202.499 114.037C201.445 114.037 200.478 114.617 200.43 115.584H199.241C199.299 114.018 200.759 112.964 202.518 112.964C204.404 112.964 205.554 114.202 205.545 115.623C205.554 116.744 204.897 117.566 203.862 117.856V117.934C205.148 118.127 205.931 119.046 205.922 120.312C205.931 121.936 204.452 123.135 202.48 123.135ZM211.12 123.135C209.148 123.135 207.736 122.081 207.669 120.515H208.916C208.984 121.453 209.921 122.043 211.101 122.043C212.406 122.043 213.354 121.337 213.354 120.302C213.354 119.229 212.493 118.465 210.946 118.465H210.144V117.383H210.946C212.155 117.383 212.996 116.706 212.996 115.681C212.996 114.695 212.271 114.037 211.14 114.037C210.086 114.037 209.119 114.617 209.071 115.584H207.881C207.939 114.018 209.399 112.964 211.159 112.964C213.044 112.964 214.195 114.202 214.185 115.623C214.195 116.744 213.537 117.566 212.503 117.856V117.934C213.789 118.127 214.572 119.046 214.562 120.312C214.572 121.936 213.093 123.135 211.12 123.135ZM220.612 118.224V119.307H216.271V118.224H220.612ZM225.624 123.135C223.836 123.135 222.482 122.033 222.405 120.515H223.604C223.691 121.395 224.551 122.052 225.624 122.052C226.91 122.052 227.838 121.115 227.838 119.867C227.838 118.581 226.871 117.634 225.537 117.624C224.706 117.615 224.058 117.876 223.691 118.514H222.501L223.197 113.099H228.563V114.192H224.222L223.855 117.093H223.961C224.396 116.754 225.063 116.522 225.76 116.522C227.645 116.522 229.037 117.914 229.037 119.838C229.037 121.753 227.597 123.135 225.624 123.135ZM233.978 123.135C232.189 123.135 230.836 122.033 230.758 120.515H231.957C232.044 121.395 232.905 122.052 233.978 122.052C235.264 122.052 236.192 121.115 236.192 119.867C236.192 118.581 235.225 117.634 233.891 117.624C233.059 117.615 232.411 117.876 232.044 118.514H230.855L231.551 113.099H236.917V114.192H232.576L232.208 117.093H232.315C232.75 116.754 233.417 116.522 234.113 116.522C235.998 116.522 237.391 117.914 237.391 119.838C237.391 121.753 235.95 123.135 233.978 123.135ZM243.375 118.224V119.307H239.034V118.224H243.375ZM248.388 123.135C246.599 123.135 245.246 122.033 245.168 120.515H246.367C246.454 121.395 247.315 122.052 248.388 122.052C249.674 122.052 250.602 121.115 250.602 119.867C250.602 118.581 249.635 117.634 248.301 117.624C247.469 117.615 246.822 117.876 246.454 118.514H245.265L245.961 113.099H251.327V114.192H246.986L246.619 117.093H246.725C247.16 116.754 247.827 116.522 248.523 116.522C250.409 116.522 251.801 117.914 251.801 119.838C251.801 121.753 250.36 123.135 248.388 123.135ZM256.741 123.135C254.953 123.135 253.599 122.033 253.522 120.515H254.721C254.808 121.395 255.668 122.052 256.741 122.052C258.027 122.052 258.956 121.115 258.956 119.867C258.956 118.581 257.989 117.634 256.654 117.624C255.823 117.615 255.175 117.876 254.808 118.514H253.619L254.315 113.099H259.681V114.192H255.34L254.972 117.093H255.078C255.514 116.754 256.181 116.522 256.877 116.522C258.762 116.522 260.154 117.914 260.154 119.838C260.154 121.753 258.714 123.135 256.741 123.135ZM265.366 113.099V123H264.128V114.385H264.07L261.663 115.981V114.743L264.128 113.099H265.366ZM271.504 113.099V123H270.267V114.385H270.209L267.801 115.981V114.743L270.267 113.099H271.504ZM277.566 123.135C275.593 123.135 274.182 122.081 274.114 120.515H275.361C275.429 121.453 276.367 122.043 277.546 122.043C278.852 122.043 279.799 121.337 279.799 120.302C279.799 119.229 278.939 118.465 277.392 118.465H276.589V117.383H277.392C278.6 117.383 279.441 116.706 279.441 115.681C279.441 114.695 278.716 114.037 277.585 114.037C276.531 114.037 275.564 114.617 275.516 115.584H274.327C274.385 114.018 275.845 112.964 277.604 112.964C279.49 112.964 280.64 114.202 280.631 115.623C280.64 116.744 279.983 117.566 278.948 117.856V117.934C280.234 118.127 281.017 119.046 281.008 120.312C281.017 121.936 279.538 123.135 277.566 123.135ZM282.542 120.979V119.964L286.999 113.099H288.507V119.896H289.9V120.979H288.507V123H287.338V120.979H282.542ZM283.867 119.896H287.338V114.656H287.221L283.867 119.819V119.896ZM295.793 118.224V119.307H291.452V118.224H295.793ZM300.806 123.135C299.017 123.135 297.664 122.033 297.586 120.515H298.785C298.872 121.395 299.733 122.052 300.806 122.052C302.092 122.052 303.02 121.115 303.02 119.867C303.02 118.581 302.053 117.634 300.719 117.624C299.887 117.615 299.24 117.876 298.872 118.514H297.683L298.379 113.099H303.745V114.192H299.404L299.037 117.093H299.143C299.578 116.754 300.245 116.522 300.941 116.522C302.827 116.522 304.219 117.914 304.219 119.838C304.219 121.753 302.778 123.135 300.806 123.135Z" fill="#707070"/>
<path d="M0 462C0 452.059 8.05888 444 18 444H372C381.941 444 390 452.059 390 462V844H0V462Z" fill="#F1F1F1"/>
<rect x="24" y="720" width="342" height="72" rx="12" fill="#31A9FF"/>
<path d="M174.811 755.91V757.801H167.138V759.374C170.648 759.579 172.661 760.711 172.669 762.617C172.661 764.737 170.185 765.892 165.938 765.884C161.692 765.892 159.177 764.737 159.177 762.617C159.177 760.711 161.228 759.579 164.761 759.374V757.801H157.118V755.91H174.811ZM157.954 753.334C161.927 753.046 164.206 751.762 164.563 750.182H158.858V748.29H164.761V746.52H167.131V748.29H173.071V750.182H167.321C167.67 751.762 169.957 753.046 173.937 753.334L173.216 755.157C169.736 754.884 167.154 753.805 165.946 752.119C164.73 753.805 162.147 754.884 158.691 755.157L157.954 753.334ZM161.608 762.617C161.593 763.613 163.089 764.106 165.938 764.099C168.749 764.106 170.268 763.613 170.283 762.617C170.268 761.622 168.749 761.121 165.938 761.121C163.089 761.121 161.593 761.622 161.608 762.617ZM192.397 746.512V760.703H190.011V753.585H186.57V751.655H190.011V746.512H192.397ZM176.086 756.494C179.178 755.484 180.834 752.947 180.834 750.364V749.84H176.785V747.91H187.284V749.84H183.265V750.379C183.265 752.711 184.83 755.127 187.831 756.122L186.638 758.014C184.466 757.285 182.931 755.796 182.088 753.965C181.229 756.001 179.619 757.642 177.317 758.432L176.086 756.494ZM179.657 765.535V759.45H182.042V763.597H192.883V765.535H179.657ZM210.354 746.497V754.231H213.347V756.198H210.354V765.899H207.992V746.497H210.354ZM195.039 751.397V749.468H199.628V746.771H202.013V749.468H206.495V751.397H195.039ZM195.936 757.224C195.921 754.542 198.002 752.651 200.836 752.651C203.631 752.651 205.705 754.542 205.72 757.224C205.705 759.905 203.631 761.789 200.836 761.789C198.002 761.789 195.921 759.905 195.936 757.224ZM198.222 757.224C198.207 758.819 199.316 759.829 200.836 759.814C202.332 759.829 203.419 758.819 203.434 757.224C203.419 755.651 202.332 754.61 200.836 754.61C199.316 754.61 198.207 755.651 198.222 757.224ZM230.371 746.497V765.899H227.963V746.497H230.371ZM214.289 760.559C219.371 758.143 221.726 754.869 222.151 750.448H215.276V748.556H224.582C224.574 754.337 222.333 759.244 215.542 762.473L214.289 760.559Z" fill="white"/>
<path d="M91.9392 488.028V505H89.3536V490.613H89.2541L85.2017 493.257V490.796L89.4199 488.028H91.9392Z" fill="black"/>
<path d="M82.6354 558.685V556.605L90.1271 545.028H93.326V556.506H95.6298V558.685H93.326V562H90.8646V558.685H82.6354ZM85.337 556.506H90.8812V548.094H90.6989L85.337 556.373V556.506Z" fill="black"/>
<path d="M84.5801 619L92.1547 604.365V604.24H83.4033V602.028H94.8315V604.323L87.2735 619H84.5801Z" fill="black"/>
<path d="M82.4006 676.273C78.4807 676.273 76.1685 673.083 76.1768 667.522C76.1768 661.994 78.5055 658.796 82.4006 658.796C86.3039 658.796 88.6326 662.003 88.6326 667.522C88.6326 673.083 86.3287 676.273 82.4006 676.273ZM78.7459 667.522C78.7376 671.757 80.1133 674.052 82.4006 674.052C84.6961 674.052 86.0635 671.757 86.0635 667.522C86.0635 663.296 84.6796 660.992 82.4006 660.992C80.1298 660.992 78.7459 663.296 78.7459 667.522ZM96.4931 676.273C92.5732 676.273 90.261 673.083 90.2693 667.522C90.2693 661.994 92.598 658.796 96.4931 658.796C100.396 658.796 102.725 662.003 102.725 667.522C102.725 673.083 100.421 676.273 96.4931 676.273ZM92.8384 667.522C92.8301 671.757 94.2058 674.052 96.4931 674.052C98.7886 674.052 100.156 671.757 100.156 667.522C100.156 663.296 98.7721 660.992 96.4931 660.992C94.2223 660.992 92.8384 663.296 92.8384 667.522Z" fill="black"/>
<path d="M189.5 505L189.492 503.127L195.376 497.185C197.24 495.254 198.169 494.185 198.177 492.693C198.169 491.019 196.809 489.959 195.028 489.959C193.146 489.959 191.945 491.144 191.945 492.959H189.492C189.483 489.851 191.845 487.796 195.077 487.796C198.351 487.796 200.613 489.867 200.63 492.619C200.613 494.517 199.718 496.033 196.536 499.157L193.088 502.663V502.787H200.903V505H189.5Z" fill="black"/>
<path d="M195.276 562.232C192.052 562.232 189.641 560.276 189.533 557.566H192.044C192.169 559.017 193.552 560.069 195.276 560.069C197.331 560.069 198.807 558.586 198.807 556.564C198.807 554.5 197.282 553 195.16 552.983C193.785 552.975 192.749 553.431 192.16 554.475H189.732L190.843 545.028H200.456V547.24H192.981L192.401 551.981H192.566C193.279 551.318 194.464 550.854 195.757 550.854C198.956 550.854 201.318 553.215 201.309 556.506C201.318 559.837 198.798 562.232 195.276 562.232Z" fill="black"/>
<path d="M195.425 619.232C191.746 619.232 189.169 617.235 189.185 614.475C189.169 612.304 190.735 610.522 192.724 610.199V610.108C190.992 609.727 189.823 608.169 189.823 606.32C189.823 603.71 192.185 601.796 195.425 601.796C198.633 601.796 200.994 603.71 201.003 606.32C200.994 608.177 199.809 609.727 198.11 610.108V610.199C200.083 610.522 201.649 612.304 201.666 614.475C201.649 617.235 199.064 619.232 195.425 619.232ZM191.812 614.301C191.787 615.975 193.188 617.127 195.425 617.127C197.63 617.127 199.039 615.983 199.039 614.301C199.039 612.561 197.514 611.285 195.425 611.285C193.32 611.285 191.787 612.561 191.812 614.301ZM192.343 606.544C192.343 608.144 193.619 609.238 195.425 609.238C197.199 609.238 198.492 608.144 198.492 606.544C198.492 604.97 197.24 603.901 195.425 603.901C193.569 603.901 192.343 604.97 192.343 606.544Z" fill="black"/>
<path d="M195.401 676.273C191.481 676.273 189.169 673.083 189.177 667.522C189.177 661.994 191.506 658.796 195.401 658.796C199.304 658.796 201.633 662.003 201.633 667.522C201.633 673.083 199.329 676.273 195.401 676.273ZM191.746 667.522C191.738 671.757 193.113 674.052 195.401 674.052C197.696 674.052 199.064 671.757 199.064 667.522C199.064 663.296 197.68 660.992 195.401 660.992C193.13 660.992 191.746 663.296 191.746 667.522Z" fill="black"/>
<path d="M301.517 505.232C298.011 505.232 295.508 503.343 295.417 500.566H298.028C298.119 502.058 299.602 503.011 301.492 503.011C303.547 503.011 305.039 501.892 305.03 500.251C305.039 498.569 303.646 497.367 301.21 497.367H299.768V495.262H301.21C303.149 495.262 304.5 494.185 304.5 492.561C304.5 491.003 303.34 489.959 301.55 489.959C299.843 489.959 298.326 490.903 298.26 492.436H295.773C295.856 489.677 298.401 487.796 301.575 487.796C304.906 487.796 307.011 489.909 306.994 492.428C307.011 494.343 305.818 495.735 303.994 496.174V496.307C306.298 496.63 307.649 498.188 307.633 500.343C307.649 503.169 305.039 505.232 301.517 505.232Z" fill="black"/>
<path d="M301.633 563.232C298.5 563.207 295.218 561.351 295.227 555.077C295.227 549.169 297.787 545.796 301.848 545.796C304.981 545.796 307.152 547.743 307.55 550.436H305.006C304.657 549.052 303.564 548.05 301.848 548.05C299.229 548.05 297.704 550.337 297.704 554.174H297.895C298.807 552.724 300.406 551.878 302.254 551.878C305.279 551.878 307.715 554.199 307.715 557.448C307.715 560.729 305.287 563.257 301.633 563.232ZM298.019 557.522C298.019 559.395 299.528 561.069 301.624 561.069C303.671 561.069 305.204 559.478 305.213 557.489C305.204 555.55 303.721 553.967 301.674 553.967C299.61 553.967 298.036 555.624 298.019 557.522Z" fill="black"/>
<path d="M301.343 603.796C304.45 603.82 307.724 605.693 307.732 611.909C307.732 617.859 305.171 621.232 301.102 621.232C297.978 621.232 295.79 619.301 295.392 616.55H297.936C298.293 617.975 299.387 618.978 301.102 618.978C303.713 618.978 305.254 616.691 305.271 612.812H305.064C304.144 614.254 302.552 615.116 300.721 615.116C297.68 615.116 295.243 612.787 295.243 609.547C295.243 606.307 297.646 603.771 301.343 603.796ZM297.754 609.506C297.762 611.47 299.229 613.019 301.293 613.019C303.331 613.019 304.923 611.345 304.923 609.472C304.923 607.633 303.414 605.959 301.343 605.959C299.287 605.959 297.738 607.55 297.754 609.506Z" fill="black"/>
<path d="M267.58 660.483L278.661 649.483C280.909 647.252 283.948 646 287.115 646H316.511C323.139 646 328.511 651.373 328.511 658V680C328.511 686.627 323.139 692 316.511 692H287.115C283.948 692 280.909 690.748 278.661 688.517L267.58 677.517C262.852 672.823 262.852 665.177 267.58 660.483Z" fill="#D9D9D9"/>
<path d="M294 677L302 669M302 669L310 661M302 669L294 661M302 669L310 677" stroke="black" stroke-width="2" stroke-linecap="round" stroke-linejoin="round"/>
</g>
<defs>
<clipPath id="clip0_59_313">
<rect width="390" height="844" fill="white"/>
</clipPath>
</defs>
</svg>
