<svg width="390" height="844" viewBox="0 0 390 844" fill="none" xmlns="http://www.w3.org/2000/svg">
<rect width="390" height="844" fill="white"/>
<rect x="24.75" y="444.75" width="340.5" height="66.5" rx="11.25" fill="white" stroke="#D0D0D0" stroke-width="1.5"/>
<path d="M55.0195 469.219V486.621H53.4766V469.219H55.0195ZM41.3477 476.621C41.3574 472.93 43.1934 470.576 45.7812 470.566C48.3594 470.576 50.2246 472.93 50.2148 476.621C50.2246 480.322 48.3594 482.666 45.7812 482.656C43.1934 482.666 41.3574 480.322 41.3477 476.621ZM42.832 476.621C42.832 479.443 44.043 481.299 45.7812 481.289C47.5293 481.299 48.7305 479.443 48.7305 476.621C48.7305 473.799 47.5293 471.943 45.7812 471.934C44.043 471.943 42.832 473.799 42.832 476.621ZM73.8672 478.184V479.453H57.9688V478.184H73.8672ZM59.9805 470.879V469.648H71.8164V473.75H61.5625V475.488H72.1875V476.68H60.0391V472.598H70.2734V470.879H59.9805ZM60.1367 486.348V481.035H71.8164V486.348H60.1367ZM61.6406 485.098H70.3125V482.285H61.6406V485.098Z" fill="#D0D0D0"/>
<rect x="24.75" y="520.75" width="340.5" height="66.5" rx="11.25" fill="white" stroke="#D0D0D0" stroke-width="1.5"/>
<path d="M55.0977 545.238V557.973H53.5547V551.312H49.9805V550.043H53.5547V545.238H55.0977ZM40.7812 554.496C43.3398 553.598 45.1953 551.303 45.1953 548.812V547.914H41.2695V546.645H50.625V547.914H46.7383V548.812C46.7383 551.059 48.4766 553.236 51.0156 554.105L50.2148 555.336C48.2617 554.623 46.748 553.168 45.9961 551.371C45.2441 553.383 43.6426 554.975 41.582 555.746L40.7812 554.496ZM43.9453 562.211V556.82H45.4883V560.922H55.5859V562.211H43.9453ZM71.4648 545.219V552.621H74.2383V553.91H71.4648V562.582H69.9219V545.219H71.4648ZM57.7734 557.953C59.1895 557.953 60.8398 557.943 62.5586 557.895V555.98C60.5371 555.746 59.2188 554.555 59.2383 552.836C59.2188 550.873 60.8789 549.604 63.3398 549.613C65.7617 549.604 67.4512 550.873 67.4609 552.836C67.4512 554.564 66.1133 555.746 64.1016 555.98V557.836C65.7129 557.758 67.3535 557.621 68.8672 557.406L68.9648 558.578C65.1758 559.223 61.0742 559.262 58.0273 559.262L57.7734 557.953ZM58.0859 548.598V547.348H62.5586V545.258H64.1016V547.348H68.5547V548.598H58.0859ZM60.6641 552.836C60.6738 554.037 61.7285 554.828 63.3398 554.809C64.9219 554.828 65.9863 554.037 65.9961 552.836C65.9863 551.625 64.9219 550.805 63.3398 550.805C61.7285 550.805 60.6738 551.625 60.6641 552.836ZM89.668 545.238V558.09H88.125V551.41H84.0234V555.121H76.1523V546.391H77.6758V549.477H82.5195V546.391H84.0234V550.121H88.125V545.238H89.668ZM77.6758 553.852H82.5195V550.688H77.6758V553.852ZM78.4375 562.211V556.82H79.9805V560.922H90.0586V562.211H78.4375ZM107.559 547.797V549.066H93.3398V547.797H99.707V545.512H101.211V547.797H107.559ZM92.5586 560.551V559.281H99.707V556.84C96.6113 556.674 94.7461 555.473 94.7656 553.52C94.7461 551.459 96.9238 550.238 100.469 550.258C103.965 550.238 106.182 551.459 106.172 553.52C106.182 555.473 104.277 556.674 101.211 556.84V559.281H108.457V560.551H92.5586ZM96.3086 553.52C96.2891 554.838 97.8809 555.6 100.469 555.609C103.027 555.6 104.619 554.838 104.609 553.52C104.619 552.23 103.027 551.469 100.469 551.469C97.8809 551.469 96.2891 552.23 96.3086 553.52Z" fill="#D0D0D0"/>
<path d="M131.619 297.617V322.523H128.322V310.032H125.925V321.305H122.724V298.052H125.925V307.238H128.322V297.617H131.619ZM110.813 316.877V300.508H120.104V303.312H114.313V313.957C116.72 313.919 118.857 313.783 121.255 313.348L121.516 316.191C118.48 316.78 115.831 316.867 112.553 316.877H110.813ZM153.789 299.087V301.32C153.779 303.641 153.779 306.184 153.141 309.674H156.457V312.488H146.75V322.543H143.231V312.488H133.756V309.674H149.622C150.25 306.454 150.308 304.018 150.318 301.862H136.357V299.087H153.789ZM177.138 297.656V303.448H180.503V306.319H177.138V312.555H173.638V297.656H177.138ZM158.256 301.872V299.126H169.703V306.532H161.775V308.727C165.874 308.707 168.669 308.552 171.83 308.001L172.198 310.776C168.639 311.453 165.439 311.588 160.383 311.579H158.294V303.931H166.3V301.872H158.256ZM160.402 317.834C160.402 314.847 163.66 313.048 168.92 313.039C174.102 313.048 177.37 314.847 177.37 317.834C177.37 320.783 174.102 322.494 168.92 322.485C163.66 322.494 160.402 320.783 160.402 317.834ZM163.844 317.834C163.825 319.198 165.604 319.894 168.92 319.884C172.207 319.894 173.928 319.198 173.928 317.834C173.928 316.452 172.207 315.746 168.92 315.746C165.604 315.746 163.825 316.452 163.844 317.834ZM206.36 298.004V304.569H210.093V306.077H206.36V312.536H204.63V298.004H206.36ZM187.662 302.152V300.702H194.004V297.791H195.715V300.702H202.048V302.152H187.662ZM189.093 307.798C189.073 305.198 191.365 303.515 194.855 303.506C198.297 303.515 200.588 305.198 200.598 307.798C200.588 310.419 198.297 312.081 194.855 312.081C191.365 312.081 189.073 310.419 189.093 307.798ZM190.726 307.798C190.707 309.558 192.36 310.709 194.855 310.718C197.301 310.709 198.954 309.558 198.974 307.798C198.954 306.068 197.301 304.888 194.855 304.878C192.36 304.888 190.707 306.068 190.726 307.798ZM191.287 321.789V314.006H206.36V321.789H191.287ZM192.97 320.338H204.639V315.417H192.97V320.338ZM217.218 300.972C217.199 305.729 216.454 311.53 212.79 316.181L211.407 315.33C214.607 311.53 215.545 306.764 215.71 302.432H211.794V300.972H217.218ZM216.812 317.041C220.36 312.72 220.94 306.773 221.027 302.432H218.011V300.972H222.555C222.545 302.867 222.497 305.188 222.149 307.624H225.755V298.691H227.409V320.851H225.755V309.094H221.907C221.337 312.12 220.244 315.233 218.185 317.892L216.812 317.041ZM230.174 322.137V298.004H231.846V322.137H230.174ZM253.417 298.004V308.108H257.593V309.568H253.417V322.137H251.705V298.004H253.417ZM234.718 303.438V301.968H241.157V298.265H242.878V301.968H249.133V303.438H234.718ZM236.226 311.115C236.207 307.895 238.662 305.642 242.056 305.633C245.44 305.642 247.867 307.895 247.886 311.115C247.867 314.354 245.44 316.577 242.056 316.577C238.662 316.577 236.207 314.354 236.226 311.115ZM237.87 311.115C237.85 313.406 239.629 315.108 242.056 315.088C244.463 315.108 246.223 313.406 246.242 311.115C246.223 308.823 244.463 307.112 242.056 307.102C239.629 307.112 237.85 308.823 237.87 311.115ZM277.965 305.546V306.977H261.567V298.894H263.268V305.546H277.965ZM258.454 311.917V310.486H280.546V311.917H258.454ZM261.431 321.518V314.528H263.133V320.058H278.11V321.518H261.431ZM134.07 339.678C134.07 344 139.311 347.655 143.11 348.39L142.269 349.84C138.875 349.008 134.718 346.369 133.2 342.666C131.672 346.359 127.534 348.989 124.121 349.84L123.309 348.39C127.09 347.635 132.281 344.039 132.291 339.678V337.773H134.07V339.678ZM122.255 356.753V355.283H144.348V356.753H122.255ZM157.941 338.489V353.901H146.968V338.489H157.941ZM148.631 352.47H156.22V339.891H148.631V352.47ZM162.727 360.137V336.004H164.458V345.818H168.635V347.316H164.458V360.137H162.727ZM189.025 349.221V350.671H172.473V338.199H188.735V339.659H174.213V343.575H188.233V345.015H174.213V349.221H189.025ZM169.534 356.878V355.399H191.626V356.878H169.534ZM211.959 336.033V344.155H215.691V345.634H211.959V354.133H210.228V336.033H211.959ZM193.26 340.558V339.117H199.602V336.033H201.314V339.117H207.647V340.558H193.26ZM194.691 346.494C194.672 343.778 196.982 342.037 200.453 342.037C203.866 342.037 206.187 343.778 206.196 346.494C206.187 349.182 203.866 350.903 200.453 350.903C196.982 350.903 194.672 349.182 194.691 346.494ZM196.325 346.494C196.306 348.302 197.959 349.521 200.453 349.501C202.899 349.521 204.553 348.302 204.572 346.494C204.553 344.657 202.899 343.42 200.453 343.42C197.959 343.42 196.306 344.657 196.325 346.494ZM197.021 359.557V352.644H198.723V358.097H213.138V359.557H197.021ZM230.062 340.954C230.062 343.652 232.093 346.407 235.167 347.539L234.249 348.883C231.861 347.954 230.091 346.117 229.25 343.942C228.37 346.311 226.543 348.457 224.126 349.521L223.169 348.177C226.282 346.814 228.409 343.652 228.409 340.954V337.532H230.062V340.954ZM227.539 355.825C227.52 353.127 230.555 351.57 235.554 351.561C240.514 351.57 243.579 353.127 243.579 355.825C243.579 358.503 240.514 360.059 235.554 360.059C230.555 360.059 227.52 358.503 227.539 355.825ZM229.231 355.825C229.221 357.594 231.677 358.696 235.554 358.677C239.392 358.696 241.858 357.594 241.868 355.825C241.858 354.036 239.392 352.943 235.554 352.943C231.677 352.943 229.221 354.036 229.231 355.825ZM236.55 350.198V336.497H238.194V342.704H241.8V336.033H243.434V350.971H241.8V344.155H238.194V350.198H236.55ZM265.352 336.004V342.347H269.123V343.836H265.352V350.265H263.631V336.004H265.352ZM246.605 348.225C248.587 348.225 250.936 348.215 253.383 348.148V346.494C250.472 346.32 248.635 345.18 248.655 343.304C248.635 341.322 250.82 340.162 254.214 340.162C257.588 340.162 259.773 341.322 259.793 343.304C259.773 345.17 257.965 346.301 255.104 346.494V348.08C257.443 347.974 259.822 347.79 262.017 347.481L262.162 348.67C256.931 349.55 251.081 349.588 246.827 349.579L246.605 348.225ZM247.214 339.262V337.967H253.383V335.762H255.104V337.967H261.243V339.262H247.214ZM249.834 352.702V351.425H265.352V356.076H251.604V358.522H266.309V359.827H249.902V354.867H263.651V352.702H249.834ZM250.289 343.304C250.279 344.512 251.816 345.315 254.214 345.305C256.602 345.315 258.149 344.512 258.149 343.304C258.149 342.134 256.602 341.38 254.214 341.37C251.816 341.38 250.279 342.134 250.289 343.304Z" fill="#31A9FF"/>
<rect x="24" y="718" width="342" height="72" rx="12" fill="#31A9FF"/>
<path d="M173.284 744.512V758.544H170.891V744.512H173.284ZM157.468 750.635C157.46 747.809 159.747 745.789 162.702 745.789C165.657 745.789 167.928 747.809 167.928 750.635C167.928 753.507 165.657 755.512 162.702 755.505C159.747 755.512 157.46 753.507 157.468 750.635ZM159.8 750.635C159.792 752.36 161.038 753.423 162.702 753.423C164.32 753.423 165.581 752.36 165.581 750.635C165.581 748.956 164.32 747.87 162.702 747.87C161.038 747.87 159.792 748.956 159.8 750.635ZM160.438 763.535V757.115H162.846V761.597H173.831V763.535H160.438ZM193.825 753.537V755.474H176.132V753.537H193.825ZM176.983 750.795C180.591 750.438 182.946 748.987 183.311 747.361H177.75V745.424H192.237V747.361H186.631C186.988 748.964 189.305 750.438 192.997 750.795L192.153 752.664C188.629 752.307 186.015 750.909 184.959 748.941C183.911 750.901 181.328 752.307 177.796 752.664L176.983 750.795ZM178.191 760.329C178.191 758.065 180.736 756.758 184.952 756.758C189.153 756.758 191.675 758.065 191.682 760.329C191.675 762.608 189.153 763.892 184.952 763.884C180.736 763.892 178.191 762.608 178.191 760.329ZM180.622 760.329C180.606 761.453 182.133 762.015 184.952 762.008C187.74 762.015 189.282 761.453 189.297 760.329C189.282 759.197 187.74 758.627 184.952 758.619C182.133 758.627 180.606 759.197 180.622 760.329ZM210.468 744.497V749.01H213.18V750.97H210.468V755.824H208.068V744.497H210.468ZM195.807 754.791V745.622H198.169V748.265H202.697V745.622H205.082V754.791H195.807ZM197.941 763.641V756.766H210.582V758.665H200.327V761.742H210.947V763.641H197.941ZM198.169 752.899H202.697V750.126H198.169V752.899ZM230.371 744.497V763.899H227.963V744.497H230.371ZM214.289 758.559C219.371 756.143 221.726 752.869 222.151 748.448H215.276V746.556H224.582C224.574 752.337 222.333 757.244 215.542 760.473L214.289 758.559Z" fill="white"/>
<g clip-path="url(#clip0_36_737)">
<path d="M162.05 236.712C162.398 236.933 162.525 237.313 162.525 237.724C162.651 238.072 162.525 238.547 162.398 238.8C162.177 239.179 161.924 239.432 161.702 239.622C161.386 239.749 161.038 239.97 160.563 239.97C160.216 240.097 159.741 240.192 159.393 240.192H153.636C153.161 240.192 152.623 240.065 152.022 240.065C151.548 240.065 150.915 239.939 150.504 239.844C150.029 239.717 149.555 239.527 149.08 239.179C148.732 238.895 148.416 238.547 148.163 237.946C147.942 237.724 147.815 237.345 147.815 237.028C147.688 236.554 147.688 236.206 147.594 235.858V216.878C147.467 216.561 147.467 216.087 147.467 215.612C147.594 215.264 147.594 214.758 147.688 214.315C147.688 213.841 147.815 213.493 148.036 213.145C148.258 212.923 148.511 212.67 148.827 212.544C149.175 212.322 149.523 212.196 149.903 212.196C150.251 212.101 150.504 212.101 150.82 212.006H158.128C158.476 212.132 158.982 212.132 159.361 212.196C159.804 212.196 160.279 212.322 160.627 212.544C161.101 212.765 161.323 213.145 161.449 213.493C161.576 213.841 161.639 214.189 161.576 214.631C161.576 215.138 161.576 215.391 161.449 215.612C161.228 215.96 160.848 216.213 160.405 216.435C160.057 216.435 159.266 216.561 158.159 216.561H154.142C153.794 216.561 153.446 216.656 153.193 216.751C153.066 216.751 153.003 216.878 152.876 217.099C152.75 217.32 152.655 217.573 152.655 217.795V219.282L152.782 233.738C152.782 234.434 152.782 234.909 153.003 235.099C153.193 235.32 153.541 235.447 154.015 235.447H155.47C156.071 235.447 156.641 235.573 157.305 235.573H159.235C159.551 235.573 159.899 235.573 160.247 235.7C160.595 235.7 160.943 235.826 161.291 236.048C161.607 236.174 161.829 236.396 162.082 236.649L162.05 236.712ZM175.779 214.41V237.693C175.779 238.452 175.779 239.211 175.653 239.939C175.526 241.077 174.641 241.9 173.407 241.773C171.446 241.552 171.446 239.338 171.446 237.693V228.044H168.662V237.598C168.788 238.357 168.662 238.895 168.662 239.496C168.535 240.192 168.314 240.666 168.124 240.983C167.649 241.584 166.7 241.932 166.005 241.679C164.36 241.077 164.233 239.243 164.233 237.819C164.233 237.345 164.106 236.997 164.106 236.775V215.169C164.106 214.79 164.233 214.315 164.233 213.999C164.233 213.524 164.36 213.05 164.454 212.702C164.549 212.354 164.802 212.038 165.056 211.69C165.309 211.342 165.657 211.215 166.068 211.088C166.289 210.962 166.7 210.962 166.922 211.088C167.143 211.215 167.523 211.31 167.618 211.563C167.966 211.784 168.282 212.101 168.409 212.702C168.535 213.176 168.63 213.746 168.63 214.442V223.331H171.414V214.252C171.414 213.777 171.414 213.303 171.54 212.828C171.667 212.354 171.762 212.038 172.015 211.69C172.363 211.342 172.679 211.088 173.28 211.088C173.881 210.962 174.514 211.215 174.862 211.563C175.178 211.911 175.4 212.227 175.526 212.828C175.748 213.303 175.653 213.872 175.748 214.442L175.779 214.41Z" fill="#31A9FF"/>
<path d="M196.246 242.406C195.93 242.723 195.456 242.786 194.981 242.786C194.19 242.849 193.494 242.786 193.02 242.09C192.703 241.774 192.64 241.236 192.545 240.919C192.482 240.603 192.387 239.97 192.387 239.654V232.536H183.118C182.486 232.473 181.948 232.378 181.473 232.315C180.936 232.157 180.461 231.84 180.145 231.303C179.923 230.923 179.702 230.385 179.702 229.942C179.828 229.468 179.987 228.993 180.366 228.677C180.524 228.456 180.746 228.297 181.062 228.203C181.379 228.139 181.6 228.044 181.916 227.981C182.138 227.981 182.391 227.886 182.612 227.886H201.055V219.978C200.992 219.598 201.055 219.345 201.055 219.029C200.992 218.554 201.055 218.08 200.897 217.7C200.802 217.542 200.738 217.384 200.58 217.32C200.422 217.226 200.264 217.226 200.043 217.226C199.252 217.162 198.398 217.226 197.48 217.226H185.428C184.953 217.226 184.479 217.162 183.846 217.004C183.308 216.846 182.897 216.53 182.581 216.055C182.486 215.897 182.359 215.676 182.359 215.296C182.264 215.074 182.264 214.758 182.264 214.442C182.359 213.904 182.486 213.335 182.897 212.955C183.213 212.734 183.593 212.575 184.004 212.417C184.415 212.259 184.795 212.196 185.269 212.196C185.649 212.101 186.124 212.101 186.535 212.101H198.682C199.473 212.196 200.327 212.101 201.118 212.101C201.498 212.101 201.972 212.101 202.447 212.196C202.921 212.196 203.396 212.291 203.87 212.417C204.345 212.48 204.724 212.734 205.041 212.955C205.42 213.271 205.673 213.651 205.832 214.125C205.958 214.442 206.021 214.663 206.021 214.916C206.116 215.138 206.18 215.517 206.18 215.739C206.274 216.435 206.274 217.067 206.274 217.795V220.927C206.338 221.306 206.274 222.097 206.274 222.572V227.886H207.888C208.362 227.981 208.742 228.044 209.153 228.108C209.628 228.266 209.944 228.487 210.165 228.804C210.482 229.12 210.64 229.5 210.64 230.132C210.64 230.797 210.577 231.208 210.007 231.651C209.691 231.967 209.153 232.125 208.584 232.283C207.951 232.442 206.496 232.505 205.832 232.505H197.638V238.389C197.575 239.053 197.575 239.622 197.48 239.907C197.48 240.382 197.322 240.856 197.164 241.331C196.974 241.71 196.658 242.121 196.183 242.343L196.246 242.406Z" fill="#31A9FF"/>
<path d="M227.596 228.361H219.118C217.979 228.361 216.777 228.361 215.544 228.266C214.405 228.234 213.614 227.348 213.487 226.083C213.361 225.102 213.361 222.287 213.361 221.401V221.022C213.329 220.421 213.266 219.725 213.74 219.124C214.436 218.269 215.892 218.174 217.125 218.174H226.014V215.865H218.169C217.853 215.865 217.537 215.897 217.22 215.897C216.904 215.928 216.556 215.928 216.208 215.928C215.702 215.928 215.227 215.897 214.848 215.802C214.373 215.675 214.025 215.359 213.74 214.948C213.393 214.315 213.266 213.493 213.456 212.828C213.74 211.911 214.911 211.5 215.544 211.405C215.923 211.31 216.366 211.278 216.841 211.278H217.537C217.821 211.278 218.043 211.31 218.327 211.31H226.299C229.02 211.31 230.57 212.449 230.57 214.442V218.649C230.57 219.44 230.253 220.832 229.431 221.37C228.767 221.812 228.007 221.812 227.311 221.749H218.232V224.343H227.185C227.691 224.343 228.229 224.343 228.767 224.375C229.621 224.406 230.285 225.071 230.538 225.862C230.854 226.874 230.506 227.601 229.557 227.981C228.925 228.202 228.26 228.297 227.596 228.297V228.361ZM228.071 230.448C235.283 230.448 241.199 231.208 241.199 236.491C241.199 241.773 235.315 242.533 228.071 242.533C220.826 242.533 214.943 241.71 214.943 236.491C214.943 231.745 220.826 230.448 228.071 230.448ZM228.071 234.529C224.433 234.529 220.479 234.687 220.479 236.491C220.479 238.104 224.401 238.42 228.071 238.42C231.74 238.42 235.884 238.61 235.884 236.491C235.884 234.687 231.709 234.529 228.071 234.529ZM240.471 218.396C240.914 218.428 243.034 218.491 243.508 218.586C244.52 218.776 244.868 219.218 244.995 219.756C245.153 220.294 245.185 221.211 244.868 221.718C244.236 222.73 242.907 222.698 241.389 222.73H240.471V225.83C240.44 226.368 240.345 227 240.028 227.601C239.87 227.918 239.649 228.202 239.364 228.392C238.984 228.677 238.51 228.772 238.067 228.772C237.687 228.772 237.276 228.709 236.96 228.487C235.884 227.854 235.726 226.399 235.726 226.368V213.872C235.694 213.682 235.758 212.449 236.074 211.816C236.295 211.31 236.897 210.962 237.656 210.867C238.573 210.741 239.396 210.994 239.807 211.468C240.123 211.848 240.186 212.259 240.313 212.67C240.471 213.176 240.471 213.809 240.44 214.347C240.44 214.252 240.408 217.573 240.44 218.301L240.471 218.396Z" fill="#31A9FF"/>
<path d="M237.845 198.72C237.845 198.72 237.718 198.72 237.687 198.72C236.453 198.656 212.127 197.17 194.475 183.124C176.823 197.17 152.528 198.656 151.263 198.72C149.491 198.815 148.036 197.486 147.941 195.714C147.846 193.975 149.175 192.488 150.915 192.393C151.2 192.393 173.533 191.001 189.666 178.79C187.642 176.702 185.744 174.425 184.099 171.894C181.252 167.592 179.765 162.372 179.765 156.868C179.765 148.801 186.187 142.253 194.158 142C194.253 142 194.38 142 194.475 142C194.57 142 194.696 142 194.791 142C202.763 142.221 209.185 148.801 209.185 156.836C209.185 162.341 207.666 167.56 204.851 171.862C203.174 174.393 201.308 176.702 199.283 178.759C215.416 190.969 237.75 192.361 238.035 192.361C239.775 192.456 241.103 193.943 241.008 195.683C240.913 197.359 239.522 198.688 237.845 198.688V198.72ZM194.475 148.327C189.825 148.39 186.092 152.186 186.092 156.836C186.092 161.107 187.231 165.093 189.382 168.383C190.9 170.66 192.608 172.717 194.475 174.615C196.341 172.748 198.049 170.66 199.568 168.383C201.719 165.093 202.858 161.107 202.858 156.836C202.858 152.186 199.093 148.39 194.475 148.327Z" fill="#31A9FF"/>
</g>
<defs>
<clipPath id="clip0_36_737">
<rect width="101" height="101" fill="white" transform="translate(144 142)"/>
</clipPath>
</defs>
</svg>
