<svg width="390" height="844" viewBox="0 0 390 844" fill="none" xmlns="http://www.w3.org/2000/svg">
<rect width="390" height="844" fill="white"/>
<rect x="24" y="444" width="342" height="68" rx="12" fill="#F1F1F1"/>
<path d="M49.8633 470.352C49.8633 474.736 46.6406 477.861 41.5234 479.219L40.8984 478.008C45.1855 476.875 47.9004 474.57 48.2324 471.602H41.8164V470.352H49.8633ZM43.75 486.348V479.883H55.0391V486.348H43.75ZM45.2539 485.098H53.5352V481.113H45.2539V485.098ZM53.5156 479.043V469.238H55.0391V479.043H53.5156ZM72.832 469.219V486.582H71.3672V477.48H68.8086V485.684H67.4023V469.609H68.8086V476.211H71.3672V469.219H72.832ZM58.6328 482.285V471.348H65.1367V472.617H60.1562V480.977C62.5488 480.967 64.1992 480.879 66.1328 480.488L66.2695 481.777C64.1797 482.207 62.4121 482.275 59.7461 482.285H58.6328ZM89.0039 470.352V471.875C89.0039 473.516 89.0039 475.322 88.5059 477.812H91.0938V479.082H83.9258V486.621H82.3828V479.082H75.2734V477.812H86.9531C87.4805 475.312 87.4805 473.496 87.4805 471.875V471.621H77.2656V470.352H89.0039Z" fill="#707070"/>
<rect x="24" y="520" width="342" height="68" rx="12" fill="#F1F1F1"/>
<path d="M45.957 561.195C42.8223 561.195 41.0059 558.559 41.0156 553.93C41.0059 549.34 42.8418 546.664 45.957 546.664C49.0625 546.664 50.8984 549.34 50.8984 553.93C50.8984 558.559 49.0918 561.195 45.957 561.195ZM42.7148 553.93C42.7246 557.592 43.9062 559.633 45.957 559.633C47.998 559.633 49.1895 557.592 49.1797 553.93C49.1895 550.268 47.9883 548.197 45.957 548.188C43.9258 548.197 42.7246 550.268 42.7148 553.93ZM58.2422 546.859V561H56.4648V548.695H56.3867L52.9492 550.98V549.203L56.4648 546.859H58.2422ZM66.6406 561.195C63.5059 561.195 61.6895 558.559 61.6992 553.93C61.6895 549.34 63.5254 546.664 66.6406 546.664C69.7461 546.664 71.582 549.34 71.582 553.93C71.582 558.559 69.7754 561.195 66.6406 561.195ZM63.3984 553.93C63.4082 557.592 64.5898 559.633 66.6406 559.633C68.6816 559.633 69.873 557.592 69.8633 553.93C69.873 550.268 68.6719 548.197 66.6406 548.188C64.6094 548.197 63.4082 550.268 63.3984 553.93ZM78.9258 546.859V561H77.1484V548.695H77.0703L73.6328 550.98V549.203L77.1484 546.859H78.9258ZM82.6953 561L82.6758 559.711L87.5 554.633C89.1699 552.855 89.9707 551.898 89.9805 550.59C89.9707 549.135 88.7598 548.197 87.168 548.188C85.4785 548.197 84.4238 549.262 84.4141 550.844H82.7539C82.7344 548.344 84.668 546.664 87.2266 546.664C89.7949 546.664 91.6113 548.393 91.6211 550.59C91.6113 552.172 90.8789 553.402 88.3789 555.98L85.1367 559.32V559.438H91.875V561H82.6953ZM99.3164 561.195C96.5039 561.195 94.4824 559.691 94.3945 557.445H96.1719C96.2695 558.793 97.6074 559.633 99.2969 559.633C101.162 559.633 102.51 558.627 102.52 557.152C102.51 555.609 101.279 554.525 99.082 554.516H97.9297V552.973H99.082C100.801 552.973 102.002 552.006 101.992 550.551C102.002 549.135 100.967 548.197 99.3555 548.188C97.8418 548.197 96.4648 549.027 96.3867 550.414H94.6875C94.7754 548.168 96.8652 546.664 99.375 546.664C102.07 546.664 103.711 548.432 103.691 550.453C103.711 552.064 102.773 553.236 101.289 553.656V553.754C103.135 554.037 104.248 555.355 104.238 557.152C104.248 559.477 102.139 561.195 99.3164 561.195ZM106.426 558.109V556.664L112.793 546.859H114.961V556.566H116.934V558.109H114.961V561H113.281V558.109H106.426ZM108.32 556.566H113.281V549.086H113.105L108.32 556.449V556.566ZM123.867 561.195C121.318 561.195 119.385 559.623 119.277 557.445H120.977C121.104 558.705 122.334 559.643 123.867 559.652C125.703 559.643 127.031 558.305 127.031 556.527C127.031 554.691 125.654 553.334 123.75 553.324C122.559 553.305 121.631 553.676 121.113 554.594H119.414L120.41 546.859H128.066V548.422H121.875L121.348 552.562H121.484C122.119 552.074 123.066 551.742 124.062 551.742C126.758 551.742 128.74 553.734 128.75 556.488C128.74 559.223 126.689 561.195 123.867 561.195ZM136.113 561.195C133.662 561.166 130.957 559.711 130.957 554.477C130.957 549.467 133.008 546.664 136.328 546.664C138.818 546.664 140.557 548.197 140.918 550.414H139.18C138.857 549.164 137.9 548.227 136.328 548.227C134.004 548.227 132.607 550.209 132.617 553.617H132.793C133.604 552.436 134.902 551.742 136.426 551.742C138.936 551.742 141.035 553.695 141.035 556.43C141.035 559.096 139.092 561.225 136.113 561.195ZM132.852 556.469C132.861 558.129 134.219 559.643 136.113 559.652C137.939 559.643 139.326 558.207 139.336 556.449C139.326 554.711 137.998 553.295 136.152 553.285C134.297 553.295 132.871 554.799 132.852 556.469ZM143.906 561L150.391 548.52V548.422H142.91V546.859H152.207V548.5L145.742 561H143.906ZM158.945 561.195C155.967 561.195 153.916 559.545 153.926 557.25C153.916 555.424 155.186 553.91 156.797 553.656V553.578C155.391 553.256 154.463 551.957 154.473 550.414C154.463 548.256 156.357 546.664 158.945 546.664C161.523 546.664 163.418 548.256 163.438 550.414C163.418 551.957 162.48 553.256 161.094 553.578V553.656C162.695 553.91 163.965 555.424 163.984 557.25C163.965 559.545 161.895 561.195 158.945 561.195ZM155.684 557.152C155.654 558.637 156.914 559.643 158.945 559.652C160.967 559.643 162.227 558.637 162.227 557.152C162.227 555.59 160.85 554.438 158.945 554.438C157.051 554.438 155.654 555.59 155.684 557.152ZM156.172 550.551C156.182 551.977 157.324 552.943 158.945 552.953C160.557 552.943 161.719 551.977 161.719 550.551C161.719 549.135 160.596 548.178 158.945 548.188C157.266 548.178 156.182 549.135 156.172 550.551Z" fill="#707070"/>
<rect x="24.75" y="620.75" width="340.5" height="66.5" rx="11.25" fill="white" stroke="#D0D0D0" stroke-width="1.5"/>
<path d="M46.0359 645.063C48.4669 645.091 51.174 646.555 51.174 651.762C51.174 656.789 49.116 659.593 45.8011 659.593C43.3149 659.593 41.5608 658.074 41.2017 655.823H42.942C43.2597 657.093 44.2265 658.033 45.8011 658.033C48.1077 658.033 49.5166 656.044 49.5304 652.604H49.337C48.5221 653.778 47.2238 654.483 45.7182 654.483C43.1906 654.483 41.0912 652.535 41.0912 649.801C41.0912 647.176 43.0249 645.035 46.0359 645.063ZM42.8039 649.787C42.8039 651.541 44.1298 652.936 45.9807 652.936C47.8177 652.936 49.2541 651.417 49.2541 649.759C49.2541 648.129 47.9006 646.61 46.0359 646.61C44.1851 646.61 42.7901 648.046 42.8039 649.787ZM58.3015 645.063C60.7325 645.091 63.4397 646.555 63.4397 651.762C63.4397 656.789 61.3816 659.593 58.0667 659.593C55.5805 659.593 53.8264 658.074 53.4673 655.823H55.2076C55.5253 657.093 56.4921 658.033 58.0667 658.033C60.3734 658.033 61.7822 656.044 61.796 652.604H61.6026C60.7877 653.778 59.4894 654.483 57.9839 654.483C55.4562 654.483 53.3568 652.535 53.3568 649.801C53.3568 647.176 55.2905 645.035 58.3015 645.063ZM55.0695 649.787C55.0695 651.541 56.3955 652.936 58.2463 652.936C60.0833 652.936 61.5198 651.417 61.5198 649.759C61.5198 648.129 60.1662 646.61 58.3015 646.61C56.4507 646.61 55.0557 648.046 55.0695 649.787ZM65.9086 659.4L72.4003 646.928V646.817H64.9279V645.256H74.2235V646.9L67.7594 659.4H65.9086ZM81.1064 659.593C78.6616 659.566 75.9544 658.115 75.9544 652.867C75.9544 647.867 78.0125 645.063 81.3274 645.063C83.8136 645.063 85.5539 646.596 85.913 648.806H84.1727C83.855 647.563 82.902 646.624 81.3274 646.624C79.0069 646.624 77.6119 648.613 77.6119 652.024H77.7915C78.6064 650.836 79.9047 650.146 81.4241 650.146C83.9379 650.146 86.0373 652.093 86.0373 654.828C86.0373 657.494 84.0898 659.621 81.1064 659.593ZM77.8605 654.87C77.8605 656.527 79.2141 658.046 81.1064 658.046C82.9434 658.046 84.3246 656.61 84.3384 654.842C84.3246 653.115 82.9986 651.693 81.1616 651.693C79.297 651.693 77.8743 653.198 77.8605 654.87ZM93.4549 645.256V659.4H91.6869V647.093H91.604L88.1648 649.372V647.604L91.6869 645.256H93.4549ZM101.962 659.593C98.9785 659.593 96.9205 657.95 96.9343 655.643C96.9205 653.82 98.1913 652.314 99.8073 652.052V651.983C98.3984 651.651 97.473 650.353 97.473 648.82C97.473 646.651 99.3653 645.063 101.962 645.063C104.531 645.063 106.423 646.651 106.437 648.82C106.423 650.353 105.484 651.651 104.103 651.983V652.052C105.705 652.314 106.976 653.82 106.99 655.643C106.976 657.95 104.904 659.593 101.962 659.593ZM98.6885 655.546C98.6609 657.038 99.9178 658.046 101.962 658.046C103.979 658.046 105.235 657.038 105.235 655.546C105.235 653.986 103.854 652.839 101.962 652.839C100.056 652.839 98.6609 653.986 98.6885 655.546ZM99.1857 648.944C99.1857 650.381 100.332 651.348 101.962 651.348C103.564 651.348 104.724 650.381 104.724 648.944C104.724 647.535 103.606 646.582 101.962 646.582C100.277 646.582 99.1857 647.535 99.1857 648.944Z" fill="#D0D0D0"/>
<rect x="24" y="720" width="342" height="72" rx="12" fill="#31A9FF"/>
<path d="M174.841 755.492V757.444H157.118V755.492H174.841ZM159.177 762.329C159.177 760.065 161.722 758.789 165.938 758.789C170.139 758.789 172.661 760.065 172.669 762.329C172.661 764.608 170.139 765.892 165.938 765.884C161.722 765.892 159.177 764.608 159.177 762.329ZM159.299 753.972V747.105H172.692V749.042H161.669V752.05H172.798V753.972H159.299ZM161.608 762.329C161.593 763.468 163.12 764.046 165.938 764.046C168.726 764.046 170.268 763.468 170.283 762.329C170.268 761.227 168.726 760.627 165.938 760.619C163.12 760.627 161.593 761.227 161.608 762.329ZM193.863 756.996V758.925H176.109V756.996H183.805V755.378H178.358V750.235H189.282V748.784H178.312V746.915H191.667V751.974H180.728V753.524H192.047V755.378H186.167V756.996H193.863ZM178.092 762.048V760.148H191.774V765.785H189.373V762.048H178.092ZM210.354 746.497V754.231H213.347V756.198H210.354V765.899H207.992V746.497H210.354ZM195.039 751.397V749.468H199.628V746.771H202.013V749.468H206.495V751.397H195.039ZM195.936 757.224C195.921 754.542 198.002 752.651 200.836 752.651C203.631 752.651 205.705 754.542 205.72 757.224C205.705 759.905 203.631 761.789 200.836 761.789C198.002 761.789 195.921 759.905 195.936 757.224ZM198.222 757.224C198.207 758.819 199.316 759.829 200.836 759.814C202.332 759.829 203.419 758.819 203.434 757.224C203.419 755.651 202.332 754.61 200.836 754.61C199.316 754.61 198.207 755.651 198.222 757.224ZM230.371 746.497V765.899H227.963V746.497H230.371ZM214.289 760.559C219.371 758.143 221.726 754.869 222.151 750.448H215.276V748.556H224.582C224.574 754.337 222.333 759.244 215.542 762.473L214.289 760.559Z" fill="white"/>
<path d="M131.619 297.617V322.523H128.322V310.032H125.925V321.305H122.724V298.052H125.925V307.238H128.322V297.617H131.619ZM110.813 316.877V300.508H120.104V303.312H114.313V313.957C116.72 313.919 118.857 313.783 121.255 313.348L121.516 316.191C118.48 316.78 115.831 316.867 112.553 316.877H110.813ZM153.789 299.087V301.32C153.779 303.641 153.779 306.184 153.141 309.674H156.457V312.488H146.75V322.543H143.231V312.488H133.756V309.674H149.622C150.25 306.454 150.308 304.018 150.318 301.862H136.357V299.087H153.789ZM177.138 297.656V303.448H180.503V306.319H177.138V312.555H173.638V297.656H177.138ZM158.256 301.872V299.126H169.703V306.532H161.775V308.727C165.874 308.707 168.669 308.552 171.83 308.001L172.198 310.776C168.639 311.453 165.439 311.588 160.383 311.579H158.294V303.931H166.3V301.872H158.256ZM160.402 317.834C160.402 314.847 163.66 313.048 168.92 313.039C174.102 313.048 177.37 314.847 177.37 317.834C177.37 320.783 174.102 322.494 168.92 322.485C163.66 322.494 160.402 320.783 160.402 317.834ZM163.844 317.834C163.825 319.198 165.604 319.894 168.92 319.884C172.207 319.894 173.928 319.198 173.928 317.834C173.928 316.452 172.207 315.746 168.92 315.746C165.604 315.746 163.825 316.452 163.844 317.834ZM206.36 298.004V304.569H210.093V306.077H206.36V312.536H204.63V298.004H206.36ZM187.662 302.152V300.702H194.004V297.791H195.715V300.702H202.048V302.152H187.662ZM189.093 307.798C189.073 305.198 191.365 303.515 194.855 303.506C198.297 303.515 200.588 305.198 200.598 307.798C200.588 310.419 198.297 312.081 194.855 312.081C191.365 312.081 189.073 310.419 189.093 307.798ZM190.726 307.798C190.707 309.558 192.36 310.709 194.855 310.718C197.301 310.709 198.954 309.558 198.974 307.798C198.954 306.068 197.301 304.888 194.855 304.878C192.36 304.888 190.707 306.068 190.726 307.798ZM191.287 321.789V314.006H206.36V321.789H191.287ZM192.97 320.338H204.639V315.417H192.97V320.338ZM217.218 300.972C217.199 305.729 216.454 311.53 212.79 316.181L211.407 315.33C214.607 311.53 215.545 306.764 215.71 302.432H211.794V300.972H217.218ZM216.812 317.041C220.36 312.72 220.94 306.773 221.027 302.432H218.011V300.972H222.555C222.545 302.867 222.497 305.188 222.149 307.624H225.755V298.691H227.409V320.851H225.755V309.094H221.907C221.337 312.12 220.244 315.233 218.185 317.892L216.812 317.041ZM230.174 322.137V298.004H231.846V322.137H230.174ZM253.417 298.004V308.108H257.593V309.568H253.417V322.137H251.705V298.004H253.417ZM234.718 303.438V301.968H241.157V298.265H242.878V301.968H249.133V303.438H234.718ZM236.226 311.115C236.207 307.895 238.662 305.642 242.056 305.633C245.44 305.642 247.867 307.895 247.886 311.115C247.867 314.354 245.44 316.577 242.056 316.577C238.662 316.577 236.207 314.354 236.226 311.115ZM237.87 311.115C237.85 313.406 239.629 315.108 242.056 315.088C244.463 315.108 246.223 313.406 246.242 311.115C246.223 308.823 244.463 307.112 242.056 307.102C239.629 307.112 237.85 308.823 237.87 311.115ZM277.965 305.546V306.977H261.567V298.894H263.268V305.546H277.965ZM258.454 311.917V310.486H280.546V311.917H258.454ZM261.431 321.518V314.528H263.133V320.058H278.11V321.518H261.431ZM134.07 339.678C134.07 344 139.311 347.655 143.11 348.39L142.269 349.84C138.875 349.008 134.718 346.369 133.2 342.666C131.672 346.359 127.534 348.989 124.121 349.84L123.309 348.39C127.09 347.635 132.281 344.039 132.291 339.678V337.773H134.07V339.678ZM122.255 356.753V355.283H144.348V356.753H122.255ZM157.941 338.489V353.901H146.968V338.489H157.941ZM148.631 352.47H156.22V339.891H148.631V352.47ZM162.727 360.137V336.004H164.458V345.818H168.635V347.316H164.458V360.137H162.727ZM189.025 349.221V350.671H172.473V338.199H188.735V339.659H174.213V343.575H188.233V345.015H174.213V349.221H189.025ZM169.534 356.878V355.399H191.626V356.878H169.534ZM211.959 336.033V344.155H215.691V345.634H211.959V354.133H210.228V336.033H211.959ZM193.26 340.558V339.117H199.602V336.033H201.314V339.117H207.647V340.558H193.26ZM194.691 346.494C194.672 343.778 196.982 342.037 200.453 342.037C203.866 342.037 206.187 343.778 206.196 346.494C206.187 349.182 203.866 350.903 200.453 350.903C196.982 350.903 194.672 349.182 194.691 346.494ZM196.325 346.494C196.306 348.302 197.959 349.521 200.453 349.501C202.899 349.521 204.553 348.302 204.572 346.494C204.553 344.657 202.899 343.42 200.453 343.42C197.959 343.42 196.306 344.657 196.325 346.494ZM197.021 359.557V352.644H198.723V358.097H213.138V359.557H197.021ZM230.062 340.954C230.062 343.652 232.093 346.407 235.167 347.539L234.249 348.883C231.861 347.954 230.091 346.117 229.25 343.942C228.37 346.311 226.543 348.457 224.126 349.521L223.169 348.177C226.282 346.814 228.409 343.652 228.409 340.954V337.532H230.062V340.954ZM227.539 355.825C227.52 353.127 230.555 351.57 235.554 351.561C240.514 351.57 243.579 353.127 243.579 355.825C243.579 358.503 240.514 360.059 235.554 360.059C230.555 360.059 227.52 358.503 227.539 355.825ZM229.231 355.825C229.221 357.594 231.677 358.696 235.554 358.677C239.392 358.696 241.858 357.594 241.868 355.825C241.858 354.036 239.392 352.943 235.554 352.943C231.677 352.943 229.221 354.036 229.231 355.825ZM236.55 350.198V336.497H238.194V342.704H241.8V336.033H243.434V350.971H241.8V344.155H238.194V350.198H236.55ZM265.352 336.004V342.347H269.123V343.836H265.352V350.265H263.631V336.004H265.352ZM246.605 348.225C248.587 348.225 250.936 348.215 253.383 348.148V346.494C250.472 346.32 248.635 345.18 248.655 343.304C248.635 341.322 250.82 340.162 254.214 340.162C257.588 340.162 259.773 341.322 259.793 343.304C259.773 345.17 257.965 346.301 255.104 346.494V348.08C257.443 347.974 259.822 347.79 262.017 347.481L262.162 348.67C256.931 349.55 251.081 349.588 246.827 349.579L246.605 348.225ZM247.214 339.262V337.967H253.383V335.762H255.104V337.967H261.243V339.262H247.214ZM249.834 352.702V351.425H265.352V356.076H251.604V358.522H266.309V359.827H249.902V354.867H263.651V352.702H249.834ZM250.289 343.304C250.279 344.512 251.816 345.315 254.214 345.305C256.602 345.315 258.149 344.512 258.149 343.304C258.149 342.134 256.602 341.38 254.214 341.37C251.816 341.38 250.279 342.134 250.289 343.304Z" fill="#31A9FF"/>
<g clip-path="url(#clip0_36_777)">
<path d="M162.05 236.712C162.398 236.933 162.525 237.313 162.525 237.724C162.651 238.072 162.525 238.547 162.398 238.8C162.177 239.179 161.924 239.432 161.702 239.622C161.386 239.749 161.038 239.97 160.563 239.97C160.216 240.097 159.741 240.192 159.393 240.192H153.636C153.161 240.192 152.623 240.065 152.022 240.065C151.548 240.065 150.915 239.939 150.504 239.844C150.029 239.717 149.555 239.527 149.08 239.179C148.732 238.895 148.416 238.547 148.163 237.946C147.942 237.724 147.815 237.345 147.815 237.028C147.688 236.554 147.688 236.206 147.594 235.858V216.878C147.467 216.561 147.467 216.087 147.467 215.612C147.594 215.264 147.594 214.758 147.688 214.315C147.688 213.841 147.815 213.493 148.036 213.145C148.258 212.923 148.511 212.67 148.827 212.544C149.175 212.322 149.523 212.196 149.903 212.196C150.251 212.101 150.504 212.101 150.82 212.006H158.128C158.476 212.132 158.982 212.132 159.361 212.196C159.804 212.196 160.279 212.322 160.627 212.544C161.101 212.765 161.323 213.145 161.449 213.493C161.576 213.841 161.639 214.189 161.576 214.631C161.576 215.138 161.576 215.391 161.449 215.612C161.228 215.96 160.848 216.213 160.405 216.435C160.057 216.435 159.266 216.561 158.159 216.561H154.142C153.794 216.561 153.446 216.656 153.193 216.751C153.066 216.751 153.003 216.878 152.876 217.099C152.75 217.32 152.655 217.573 152.655 217.795V219.282L152.782 233.738C152.782 234.434 152.782 234.909 153.003 235.099C153.193 235.32 153.541 235.447 154.015 235.447H155.47C156.071 235.447 156.641 235.573 157.305 235.573H159.235C159.551 235.573 159.899 235.573 160.247 235.7C160.595 235.7 160.943 235.826 161.291 236.048C161.607 236.174 161.829 236.396 162.082 236.649L162.05 236.712ZM175.779 214.41V237.693C175.779 238.452 175.779 239.211 175.653 239.939C175.526 241.077 174.641 241.9 173.407 241.773C171.446 241.552 171.446 239.338 171.446 237.693V228.044H168.662V237.598C168.788 238.357 168.662 238.895 168.662 239.496C168.535 240.192 168.314 240.666 168.124 240.983C167.649 241.584 166.7 241.932 166.005 241.679C164.36 241.077 164.233 239.243 164.233 237.819C164.233 237.345 164.106 236.997 164.106 236.775V215.169C164.106 214.79 164.233 214.315 164.233 213.999C164.233 213.524 164.36 213.05 164.454 212.702C164.549 212.354 164.802 212.038 165.056 211.69C165.309 211.342 165.657 211.215 166.068 211.088C166.289 210.962 166.7 210.962 166.922 211.088C167.143 211.215 167.523 211.31 167.618 211.563C167.966 211.784 168.282 212.101 168.409 212.702C168.535 213.176 168.63 213.746 168.63 214.442V223.331H171.414V214.252C171.414 213.777 171.414 213.303 171.54 212.828C171.667 212.354 171.762 212.038 172.015 211.69C172.363 211.342 172.679 211.088 173.28 211.088C173.881 210.962 174.514 211.215 174.862 211.563C175.178 211.911 175.4 212.227 175.526 212.828C175.748 213.303 175.653 213.872 175.748 214.442L175.779 214.41Z" fill="#31A9FF"/>
<path d="M196.247 242.406C195.93 242.723 195.456 242.786 194.981 242.786C194.19 242.849 193.494 242.786 193.02 242.09C192.704 241.774 192.64 241.236 192.545 240.919C192.482 240.603 192.387 239.97 192.387 239.654V232.536H183.118C182.486 232.473 181.948 232.378 181.474 232.315C180.936 232.157 180.461 231.84 180.145 231.303C179.923 230.923 179.702 230.385 179.702 229.942C179.829 229.468 179.987 228.993 180.366 228.677C180.525 228.456 180.746 228.297 181.062 228.203C181.379 228.139 181.6 228.044 181.916 227.981C182.138 227.981 182.391 227.886 182.612 227.886H201.055V219.978C200.992 219.598 201.055 219.345 201.055 219.029C200.992 218.554 201.055 218.08 200.897 217.7C200.802 217.542 200.739 217.384 200.58 217.32C200.422 217.226 200.264 217.226 200.043 217.226C199.252 217.162 198.398 217.226 197.48 217.226H185.428C184.953 217.226 184.479 217.162 183.846 217.004C183.308 216.846 182.897 216.53 182.581 216.055C182.486 215.897 182.359 215.676 182.359 215.296C182.264 215.074 182.264 214.758 182.264 214.442C182.359 213.904 182.486 213.335 182.897 212.955C183.213 212.734 183.593 212.575 184.004 212.417C184.415 212.259 184.795 212.196 185.27 212.196C185.649 212.101 186.124 212.101 186.535 212.101H198.682C199.473 212.196 200.327 212.101 201.118 212.101C201.498 212.101 201.972 212.101 202.447 212.196C202.921 212.196 203.396 212.291 203.87 212.417C204.345 212.48 204.724 212.734 205.041 212.955C205.42 213.271 205.673 213.651 205.832 214.125C205.958 214.442 206.021 214.663 206.021 214.916C206.116 215.138 206.18 215.517 206.18 215.739C206.275 216.435 206.275 217.067 206.275 217.795V220.927C206.338 221.306 206.275 222.097 206.275 222.572V227.886H207.888C208.362 227.981 208.742 228.044 209.153 228.108C209.628 228.266 209.944 228.487 210.166 228.804C210.482 229.12 210.64 229.5 210.64 230.132C210.64 230.797 210.577 231.208 210.007 231.651C209.691 231.967 209.153 232.125 208.584 232.283C207.951 232.442 206.496 232.505 205.832 232.505H197.638V238.389C197.575 239.053 197.575 239.622 197.48 239.907C197.48 240.382 197.322 240.856 197.164 241.331C196.974 241.71 196.658 242.121 196.183 242.343L196.247 242.406Z" fill="#31A9FF"/>
<path d="M227.596 228.361H219.118C217.979 228.361 216.777 228.361 215.544 228.266C214.405 228.234 213.614 227.348 213.487 226.083C213.361 225.102 213.361 222.287 213.361 221.401V221.022C213.329 220.421 213.266 219.725 213.74 219.124C214.436 218.269 215.892 218.174 217.125 218.174H226.014V215.865H218.169C217.853 215.865 217.537 215.897 217.22 215.897C216.904 215.928 216.556 215.928 216.208 215.928C215.702 215.928 215.227 215.897 214.848 215.802C214.373 215.675 214.025 215.359 213.74 214.948C213.393 214.315 213.266 213.493 213.456 212.828C213.74 211.911 214.911 211.5 215.544 211.405C215.923 211.31 216.366 211.278 216.841 211.278H217.537C217.821 211.278 218.043 211.31 218.327 211.31H226.299C229.02 211.31 230.57 212.449 230.57 214.442V218.649C230.57 219.44 230.253 220.832 229.431 221.37C228.767 221.812 228.007 221.812 227.311 221.749H218.232V224.343H227.185C227.691 224.343 228.229 224.343 228.767 224.375C229.621 224.406 230.285 225.071 230.538 225.862C230.854 226.874 230.506 227.601 229.557 227.981C228.925 228.202 228.26 228.297 227.596 228.297V228.361ZM228.071 230.448C235.283 230.448 241.199 231.208 241.199 236.491C241.199 241.773 235.315 242.533 228.071 242.533C220.826 242.533 214.943 241.71 214.943 236.491C214.943 231.745 220.826 230.448 228.071 230.448ZM228.071 234.529C224.433 234.529 220.479 234.687 220.479 236.491C220.479 238.104 224.401 238.42 228.071 238.42C231.74 238.42 235.884 238.61 235.884 236.491C235.884 234.687 231.709 234.529 228.071 234.529ZM240.471 218.396C240.914 218.428 243.034 218.491 243.508 218.586C244.52 218.776 244.868 219.218 244.995 219.756C245.153 220.294 245.185 221.211 244.868 221.718C244.236 222.73 242.907 222.698 241.389 222.73H240.471V225.83C240.44 226.368 240.345 227 240.028 227.601C239.87 227.918 239.649 228.202 239.364 228.392C238.984 228.677 238.51 228.772 238.067 228.772C237.687 228.772 237.276 228.709 236.96 228.487C235.884 227.854 235.726 226.399 235.726 226.368V213.872C235.694 213.682 235.758 212.449 236.074 211.816C236.295 211.31 236.897 210.962 237.656 210.867C238.573 210.741 239.396 210.994 239.807 211.468C240.123 211.848 240.186 212.259 240.313 212.67C240.471 213.176 240.471 213.809 240.44 214.347C240.44 214.252 240.408 217.573 240.44 218.301L240.471 218.396Z" fill="#31A9FF"/>
<path d="M237.845 198.72C237.845 198.72 237.719 198.72 237.687 198.72C236.453 198.656 212.127 197.17 194.475 183.124C176.823 197.17 152.528 198.656 151.263 198.72C149.491 198.815 148.036 197.486 147.941 195.714C147.847 193.975 149.175 192.488 150.915 192.393C151.2 192.393 173.533 191.001 189.667 178.79C187.642 176.702 185.744 174.425 184.099 171.894C181.252 167.592 179.765 162.372 179.765 156.868C179.765 148.801 186.187 142.253 194.159 142C194.254 142 194.38 142 194.475 142C194.57 142 194.696 142 194.791 142C202.763 142.221 209.185 148.801 209.185 156.836C209.185 162.341 207.666 167.56 204.851 171.862C203.174 174.393 201.308 176.702 199.283 178.759C215.417 190.969 237.75 192.361 238.035 192.361C239.775 192.456 241.103 193.943 241.008 195.683C240.914 197.359 239.522 198.688 237.845 198.688V198.72ZM194.475 148.327C189.825 148.39 186.092 152.186 186.092 156.836C186.092 161.107 187.231 165.093 189.382 168.383C190.9 170.66 192.609 172.717 194.475 174.615C196.341 172.748 198.05 170.66 199.568 168.383C201.719 165.093 202.858 161.107 202.858 156.836C202.858 152.186 199.093 148.39 194.475 148.327Z" fill="#31A9FF"/>
</g>
<defs>
<clipPath id="clip0_36_777">
<rect width="101" height="101" fill="white" transform="translate(144 142)"/>
</clipPath>
</defs>
</svg>
