<svg width="390" height="844" viewBox="0 0 390 844" fill="none" xmlns="http://www.w3.org/2000/svg">
<rect width="390" height="844" fill="white"/>
<rect x="24" y="444" width="342" height="68" rx="12" fill="#F1F1F1"/>
<path d="M49.8633 470.352C49.8633 474.736 46.6406 477.861 41.5234 479.219L40.8984 478.008C45.1855 476.875 47.9004 474.57 48.2324 471.602H41.8164V470.352H49.8633ZM43.75 486.348V479.883H55.0391V486.348H43.75ZM45.2539 485.098H53.5352V481.113H45.2539V485.098ZM53.5156 479.043V469.238H55.0391V479.043H53.5156ZM72.832 469.219V486.582H71.3672V477.48H68.8086V485.684H67.4023V469.609H68.8086V476.211H71.3672V469.219H72.832ZM58.6328 482.285V471.348H65.1367V472.617H60.1562V480.977C62.5488 480.967 64.1992 480.879 66.1328 480.488L66.2695 481.777C64.1797 482.207 62.4121 482.275 59.7461 482.285H58.6328ZM89.0039 470.352V471.875C89.0039 473.516 89.0039 475.322 88.5059 477.812H91.0938V479.082H83.9258V486.621H82.3828V479.082H75.2734V477.812H86.9531C87.4805 475.312 87.4805 473.496 87.4805 471.875V471.621H77.2656V470.352H89.0039Z" fill="#707070"/>
<rect x="24" y="520" width="342" height="68" rx="12" fill="#F1F1F1"/>
<path d="M45.957 561.195C42.8223 561.195 41.0059 558.559 41.0156 553.93C41.0059 549.34 42.8418 546.664 45.957 546.664C49.0625 546.664 50.8984 549.34 50.8984 553.93C50.8984 558.559 49.0918 561.195 45.957 561.195ZM42.7148 553.93C42.7246 557.592 43.9062 559.633 45.957 559.633C47.998 559.633 49.1895 557.592 49.1797 553.93C49.1895 550.268 47.9883 548.197 45.957 548.188C43.9258 548.197 42.7246 550.268 42.7148 553.93ZM58.2422 546.859V561H56.4648V548.695H56.3867L52.9492 550.98V549.203L56.4648 546.859H58.2422ZM66.6406 561.195C63.5059 561.195 61.6895 558.559 61.6992 553.93C61.6895 549.34 63.5254 546.664 66.6406 546.664C69.7461 546.664 71.582 549.34 71.582 553.93C71.582 558.559 69.7754 561.195 66.6406 561.195ZM63.3984 553.93C63.4082 557.592 64.5898 559.633 66.6406 559.633C68.6816 559.633 69.873 557.592 69.8633 553.93C69.873 550.268 68.6719 548.197 66.6406 548.188C64.6094 548.197 63.4082 550.268 63.3984 553.93ZM78.9258 546.859V561H77.1484V548.695H77.0703L73.6328 550.98V549.203L77.1484 546.859H78.9258ZM82.6953 561L82.6758 559.711L87.5 554.633C89.1699 552.855 89.9707 551.898 89.9805 550.59C89.9707 549.135 88.7598 548.197 87.168 548.188C85.4785 548.197 84.4238 549.262 84.4141 550.844H82.7539C82.7344 548.344 84.668 546.664 87.2266 546.664C89.7949 546.664 91.6113 548.393 91.6211 550.59C91.6113 552.172 90.8789 553.402 88.3789 555.98L85.1367 559.32V559.438H91.875V561H82.6953ZM99.3164 561.195C96.5039 561.195 94.4824 559.691 94.3945 557.445H96.1719C96.2695 558.793 97.6074 559.633 99.2969 559.633C101.162 559.633 102.51 558.627 102.52 557.152C102.51 555.609 101.279 554.525 99.082 554.516H97.9297V552.973H99.082C100.801 552.973 102.002 552.006 101.992 550.551C102.002 549.135 100.967 548.197 99.3555 548.188C97.8418 548.197 96.4648 549.027 96.3867 550.414H94.6875C94.7754 548.168 96.8652 546.664 99.375 546.664C102.07 546.664 103.711 548.432 103.691 550.453C103.711 552.064 102.773 553.236 101.289 553.656V553.754C103.135 554.037 104.248 555.355 104.238 557.152C104.248 559.477 102.139 561.195 99.3164 561.195ZM106.426 558.109V556.664L112.793 546.859H114.961V556.566H116.934V558.109H114.961V561H113.281V558.109H106.426ZM108.32 556.566H113.281V549.086H113.105L108.32 556.449V556.566ZM123.867 561.195C121.318 561.195 119.385 559.623 119.277 557.445H120.977C121.104 558.705 122.334 559.643 123.867 559.652C125.703 559.643 127.031 558.305 127.031 556.527C127.031 554.691 125.654 553.334 123.75 553.324C122.559 553.305 121.631 553.676 121.113 554.594H119.414L120.41 546.859H128.066V548.422H121.875L121.348 552.562H121.484C122.119 552.074 123.066 551.742 124.062 551.742C126.758 551.742 128.74 553.734 128.75 556.488C128.74 559.223 126.689 561.195 123.867 561.195ZM136.113 561.195C133.662 561.166 130.957 559.711 130.957 554.477C130.957 549.467 133.008 546.664 136.328 546.664C138.818 546.664 140.557 548.197 140.918 550.414H139.18C138.857 549.164 137.9 548.227 136.328 548.227C134.004 548.227 132.607 550.209 132.617 553.617H132.793C133.604 552.436 134.902 551.742 136.426 551.742C138.936 551.742 141.035 553.695 141.035 556.43C141.035 559.096 139.092 561.225 136.113 561.195ZM132.852 556.469C132.861 558.129 134.219 559.643 136.113 559.652C137.939 559.643 139.326 558.207 139.336 556.449C139.326 554.711 137.998 553.295 136.152 553.285C134.297 553.295 132.871 554.799 132.852 556.469ZM143.906 561L150.391 548.52V548.422H142.91V546.859H152.207V548.5L145.742 561H143.906ZM158.945 561.195C155.967 561.195 153.916 559.545 153.926 557.25C153.916 555.424 155.186 553.91 156.797 553.656V553.578C155.391 553.256 154.463 551.957 154.473 550.414C154.463 548.256 156.357 546.664 158.945 546.664C161.523 546.664 163.418 548.256 163.438 550.414C163.418 551.957 162.48 553.256 161.094 553.578V553.656C162.695 553.91 163.965 555.424 163.984 557.25C163.965 559.545 161.895 561.195 158.945 561.195ZM155.684 557.152C155.654 558.637 156.914 559.643 158.945 559.652C160.967 559.643 162.227 558.637 162.227 557.152C162.227 555.59 160.85 554.438 158.945 554.438C157.051 554.438 155.654 555.59 155.684 557.152ZM156.172 550.551C156.182 551.977 157.324 552.943 158.945 552.953C160.557 552.943 161.719 551.977 161.719 550.551C161.719 549.135 160.596 548.178 158.945 548.188C157.266 548.178 156.182 549.135 156.172 550.551Z" fill="#707070"/>
<rect x="24.75" y="620.75" width="340.5" height="66.5" rx="11.25" fill="#FFD700" stroke="#D0D0D0" stroke-width="1.5"/>
<path opacity="0.23" d="M55.0414 643.64V656.334H53.5083V643.64H55.0414ZM41.105 649.11C41.105 646.61 43.0663 644.856 45.663 644.856C48.2597 644.856 50.2072 646.61 50.2072 649.11C50.2072 651.638 48.2597 653.392 45.663 653.378C43.0663 653.392 41.105 651.638 41.105 649.11ZM42.6105 649.11C42.5967 650.836 43.9088 652.038 45.663 652.038C47.3895 652.038 48.7155 650.836 48.7155 649.11C48.7155 647.411 47.3895 646.196 45.663 646.196C43.9088 646.196 42.5967 647.411 42.6105 649.11ZM43.826 660.602V655.035H45.3591V659.331H55.5801V660.602H43.826ZM73.8183 651.886V653.157H57.9896V651.886H73.8183ZM58.8874 649.621C61.9122 649.269 64.8266 647.77 64.9095 645.795H59.4399V644.51H72.3957V645.795H66.8984C66.9675 647.756 69.8542 649.269 72.9343 649.621L72.368 650.836C69.5158 650.484 66.857 649.214 65.9039 647.28C64.944 649.214 62.2921 650.484 59.4399 650.836L58.8874 649.621ZM59.8957 657.825C59.8957 655.823 62.147 654.676 65.8901 654.676C69.6194 654.676 71.857 655.823 71.8708 657.825C71.857 659.828 69.6194 660.947 65.8901 660.947C62.147 660.947 59.8957 659.828 59.8957 657.825ZM61.4564 657.825C61.4426 659.027 63.1139 659.718 65.8901 659.718C68.6526 659.718 70.3238 659.027 70.3376 657.825C70.3238 656.596 68.6526 655.906 65.8901 655.892C63.1139 655.906 61.4426 656.596 61.4564 657.825ZM89.667 643.64V656.486H88.1338V649.801H84.0316V653.516H76.1449V644.787H77.678V647.881H82.5123V644.787H84.0316V648.53H88.1338V643.64H89.667ZM77.678 652.259H82.5123V649.082H77.678V652.259ZM78.4377 660.602V655.229H79.9847V659.331H90.0676V660.602H78.4377ZM107.56 646.196V647.466H93.3472V646.196H99.7146V643.917H101.22V646.196H107.56ZM92.5599 658.944V657.673H99.7146V655.236C96.6207 655.077 94.7422 653.875 94.756 651.928C94.7422 649.856 96.9245 648.64 100.46 648.654C103.969 648.64 106.179 649.856 106.179 651.928C106.179 653.868 104.286 655.07 101.22 655.236V657.673H108.458V658.944H92.5599ZM96.303 651.928C96.2892 653.24 97.8776 653.999 100.46 654.013C103.03 653.999 104.618 653.24 104.618 651.928C104.618 650.629 103.03 649.87 100.46 649.87C97.8776 649.87 96.2892 650.629 96.303 651.928Z" fill="black"/>
<path d="M127.056 239.019V265.704H123.524V252.32H120.955V264.398H117.526V239.485H120.955V249.326H123.524V239.019H127.056ZM104.764 259.654V242.116H114.719V245.12H108.514V256.526C111.093 256.484 113.382 256.339 115.951 255.873L116.231 258.919C112.978 259.55 110.14 259.644 106.628 259.654H104.764ZM150.81 240.593V242.986C150.799 245.472 150.799 248.197 150.116 251.936H153.669V254.951H143.268V265.724H139.497V254.951H129.346V251.936H146.345C147.018 248.487 147.08 245.876 147.091 243.566H132.132V240.593H150.81ZM175.827 239.06V245.265H179.432V248.342H175.827V255.023H172.077V239.06H175.827ZM155.595 243.577V240.635H167.86V248.57H159.366V250.921C163.758 250.901 166.752 250.735 170.139 250.144L170.533 253.117C166.721 253.843 163.292 253.988 157.874 253.977H155.637V245.783H164.214V243.577H155.595ZM157.895 260.68C157.895 257.479 161.386 255.552 167.021 255.541C172.574 255.552 176.075 257.479 176.075 260.68C176.075 263.839 172.574 265.673 167.021 265.662C161.386 265.673 157.895 263.839 157.895 260.68ZM161.583 260.68C161.562 262.14 163.468 262.886 167.021 262.876C170.543 262.886 172.387 262.14 172.387 260.68C172.387 259.198 170.543 258.442 167.021 258.442C163.468 258.442 161.562 259.198 161.583 260.68ZM207.136 239.433V246.467H211.135V248.083H207.136V255.003H205.282V239.433H207.136ZM187.102 243.877V242.323H193.897V239.205H195.731V242.323H202.516V243.877H187.102ZM188.635 249.927C188.614 247.14 191.069 245.338 194.809 245.327C198.497 245.338 200.952 247.14 200.962 249.927C200.952 252.734 198.497 254.516 194.809 254.516C191.069 254.516 188.614 252.734 188.635 249.927ZM190.386 249.927C190.365 251.812 192.136 253.045 194.809 253.055C197.43 253.045 199.201 251.812 199.222 249.927C199.201 248.073 197.43 246.809 194.809 246.798C192.136 246.809 190.365 248.073 190.386 249.927ZM190.986 264.916V256.577H207.136V264.916H190.986ZM192.789 263.363H205.292V258.09H192.789V263.363ZM218.769 242.613C218.748 247.71 217.951 253.925 214.025 258.908L212.543 257.997C215.972 253.925 216.977 248.818 217.153 244.177H212.958V242.613H218.769ZM218.334 259.83C222.136 255.2 222.757 248.829 222.851 244.177H219.619V242.613H224.487C224.477 244.644 224.425 247.13 224.052 249.74H227.916V240.169H229.688V263.912H227.916V251.315H223.793C223.182 254.557 222.012 257.893 219.805 260.742L218.334 259.83ZM232.65 265.289V239.433H234.443V265.289H232.65ZM257.553 239.433V250.258H262.029V251.823H257.553V265.289H255.72V239.433H257.553ZM237.519 245.255V243.68H244.418V239.713H246.262V243.68H252.964V245.255H237.519ZM239.135 253.48C239.114 250.03 241.745 247.617 245.381 247.606C249.007 247.617 251.607 250.03 251.628 253.48C251.607 256.95 249.007 259.333 245.381 259.333C241.745 259.333 239.114 256.95 239.135 253.48ZM240.896 253.48C240.875 255.935 242.781 257.758 245.381 257.738C247.961 257.758 249.846 255.935 249.867 253.48C249.846 251.025 247.961 249.191 245.381 249.181C242.781 249.191 240.875 251.025 240.896 253.48ZM283.855 247.513V249.046H266.286V240.386H268.109V247.513H283.855ZM262.95 254.34V252.807H286.621V254.34H262.95ZM266.141 264.626V257.137H267.964V263.062H284.01V264.626H266.141ZM129.682 284.369C129.682 289 135.297 292.916 139.368 293.703L138.467 295.257C134.831 294.366 130.376 291.538 128.75 287.57C127.113 291.528 122.68 294.345 119.023 295.257L118.153 293.703C122.203 292.895 127.766 289.041 127.776 284.369V282.329H129.682V284.369ZM117.023 302.664V301.089H140.694V302.664H117.023ZM155.259 283.095V299.608H143.501V283.095H155.259ZM145.283 298.075H153.415V284.597H145.283V298.075ZM160.386 306.289V280.433H162.241V290.948H166.716V292.553H162.241V306.289H160.386ZM188.563 294.594V296.148H170.828V282.785H188.252V284.349H172.693V288.544H187.713V290.088H172.693V294.594H188.563ZM167.679 302.798V301.213H191.35V302.798H167.679ZM213.134 280.464V289.166H217.133V290.751H213.134V299.856H211.28V280.464H213.134ZM193.1 285.312V283.769H199.896V280.464H201.729V283.769H208.514V285.312H193.1ZM194.633 291.673C194.612 288.762 197.088 286.897 200.807 286.897C204.464 286.897 206.95 288.762 206.96 291.673C206.95 294.552 204.464 296.396 200.807 296.396C197.088 296.396 194.612 294.552 194.633 291.673ZM196.384 291.673C196.363 293.61 198.134 294.915 200.807 294.894C203.428 294.915 205.199 293.61 205.22 291.673C205.199 289.704 203.428 288.378 200.807 288.378C198.134 288.378 196.363 289.704 196.384 291.673ZM197.13 305.668V298.261H198.953V304.104H214.398V305.668H197.13ZM232.531 285.737C232.531 288.627 234.707 291.579 238.001 292.791L237.017 294.231C234.458 293.237 232.562 291.269 231.661 288.938C230.718 291.476 228.76 293.776 226.171 294.915L225.145 293.475C228.481 292.015 230.76 288.627 230.76 285.737V282.07H232.531V285.737ZM229.827 301.669C229.807 298.779 233.059 297.111 238.415 297.101C243.729 297.111 247.013 298.779 247.013 301.669C247.013 304.539 243.729 306.206 238.415 306.206C233.059 306.206 229.807 304.539 229.827 301.669ZM231.64 301.669C231.63 303.565 234.261 304.746 238.415 304.725C242.528 304.746 245.169 303.565 245.18 301.669C245.169 299.753 242.528 298.582 238.415 298.582C234.261 298.582 231.63 299.753 231.64 301.669ZM239.482 295.64V280.961H241.243V287.612H245.107V280.464H246.858V296.469H245.107V289.166H241.243V295.64H239.482ZM270.342 280.433V287.229H274.382V288.824H270.342V295.713H268.498V280.433H270.342ZM250.255 293.527C252.379 293.527 254.896 293.517 257.517 293.444V291.673C254.399 291.486 252.431 290.264 252.451 288.254C252.431 286.131 254.772 284.887 258.408 284.887C262.023 284.887 264.364 286.131 264.385 288.254C264.364 290.253 262.427 291.465 259.361 291.673V293.372C261.868 293.258 264.416 293.061 266.768 292.729L266.923 294.003C261.319 294.946 255.052 294.988 250.494 294.977L250.255 293.527ZM250.908 283.924V282.536H257.517V280.174H259.361V282.536H265.939V283.924H250.908ZM253.715 298.323V296.956H270.342V301.939H255.611V304.559H271.367V305.958H253.788V300.644H268.518V298.323H253.715ZM254.202 288.254C254.192 289.549 255.839 290.409 258.408 290.398C260.967 290.409 262.624 289.549 262.624 288.254C262.624 287.001 260.967 286.193 258.408 286.182C255.839 286.193 254.192 287.001 254.202 288.254Z" fill="#31A9FF"/>
<rect x="24" y="720" width="342" height="72" rx="12" fill="#31A9FF"/>
<path d="M174.841 755.492V757.444H157.118V755.492H174.841ZM159.177 762.329C159.177 760.065 161.722 758.789 165.938 758.789C170.139 758.789 172.661 760.065 172.669 762.329C172.661 764.608 170.139 765.892 165.938 765.884C161.722 765.892 159.177 764.608 159.177 762.329ZM159.299 753.972V747.105H172.692V749.042H161.669V752.05H172.798V753.972H159.299ZM161.608 762.329C161.593 763.468 163.12 764.046 165.938 764.046C168.726 764.046 170.268 763.468 170.283 762.329C170.268 761.227 168.726 760.627 165.938 760.619C163.12 760.627 161.593 761.227 161.608 762.329ZM193.863 756.996V758.925H176.109V756.996H183.805V755.378H178.358V750.235H189.282V748.784H178.312V746.915H191.667V751.974H180.728V753.524H192.047V755.378H186.167V756.996H193.863ZM178.092 762.048V760.148H191.774V765.785H189.373V762.048H178.092ZM210.354 746.497V754.231H213.347V756.198H210.354V765.899H207.992V746.497H210.354ZM195.039 751.397V749.468H199.628V746.771H202.013V749.468H206.495V751.397H195.039ZM195.936 757.224C195.921 754.542 198.002 752.651 200.836 752.651C203.631 752.651 205.705 754.542 205.72 757.224C205.705 759.905 203.631 761.789 200.836 761.789C198.002 761.789 195.921 759.905 195.936 757.224ZM198.222 757.224C198.207 758.819 199.316 759.829 200.836 759.814C202.332 759.829 203.419 758.819 203.434 757.224C203.419 755.651 202.332 754.61 200.836 754.61C199.316 754.61 198.207 755.651 198.222 757.224ZM230.371 746.497V765.899H227.963V746.497H230.371ZM214.289 760.559C219.371 758.143 221.726 754.869 222.151 750.448H215.276V748.556H224.582C224.574 754.337 222.333 759.244 215.542 762.473L214.289 760.559Z" fill="white"/>
<path d="M32.5165 23.1565C31.6653 23.1565 30.9047 23.3377 30.2348 23.7001C29.5703 24.0571 29.0486 24.5513 28.6697 25.1829C28.2962 25.8089 28.1095 26.5256 28.1095 27.3328V27.3493C28.1095 28.0962 28.2743 28.7661 28.6038 29.3592C28.9387 29.9523 29.3973 30.4191 29.9794 30.7596C30.5615 31.1001 31.2315 31.2703 31.9893 31.2703C32.5385 31.2703 33.0163 31.1879 33.4226 31.0232C33.8345 30.8584 34.1805 30.6415 34.4606 30.3724C34.7406 30.1033 34.9521 29.8123 35.0948 29.4993H35.3831V27.3081H34.8889V27.3246C34.8889 27.7694 34.7846 28.1676 34.5759 28.519C34.3672 28.8705 34.0844 29.1451 33.7274 29.3428C33.3705 29.5405 32.9668 29.6393 32.5165 29.6393C32.0662 29.6393 31.6653 29.5377 31.3139 29.3345C30.9624 29.1313 30.6851 28.854 30.4819 28.5025C30.2787 28.1456 30.1771 27.7365 30.1771 27.2752V27.2587C30.1771 26.8139 30.2842 26.413 30.4984 26.056C30.7125 25.6936 30.9981 25.408 31.3551 25.1993C31.712 24.9907 32.1047 24.8863 32.533 24.8863C32.9778 24.8863 33.376 24.9934 33.7274 25.2076C34.0844 25.4218 34.3672 25.7128 34.5759 26.0807C34.7846 26.4487 34.8889 26.8578 34.8889 27.3081L35.2596 29.2933C35.2596 29.3702 35.2596 29.4498 35.2596 29.5322C35.2596 29.6091 35.2568 29.6887 35.2513 29.7711C35.2239 30.5289 35.1086 31.2209 34.9054 31.8469C34.7077 32.4675 34.4084 32.9645 34.0075 33.3379C33.6121 33.7058 33.1014 33.8898 32.4753 33.8898C32.1294 33.8898 31.8163 33.8349 31.5363 33.7251C31.2617 33.6097 31.0256 33.4477 30.8279 33.2391C30.6356 33.0304 30.4874 32.7887 30.383 32.5142L30.3501 32.4318H28.266L28.2825 32.5224C28.4143 33.1265 28.6697 33.6647 29.0486 34.1369C29.433 34.6037 29.9162 34.9717 30.4984 35.2408C31.086 35.5043 31.745 35.6361 32.4753 35.6361C33.4693 35.6361 34.3233 35.3835 35.0372 34.8783C35.7566 34.3676 36.3085 33.6372 36.6929 32.6872C37.0773 31.7371 37.2695 30.5948 37.2695 29.2604V29.2439C37.2695 28.1676 37.1432 27.2477 36.8906 26.4844C36.638 25.7156 36.2893 25.0868 35.8444 24.598C35.4051 24.1038 34.8999 23.7413 34.3288 23.5107C33.7576 23.2745 33.1536 23.1565 32.5165 23.1565ZM41.0093 33.7415C41.3882 33.7415 41.7012 33.618 41.9484 33.3709C42.1955 33.1182 42.3191 32.8107 42.3191 32.4483C42.3191 32.0803 42.1955 31.7728 41.9484 31.5257C41.7012 31.2731 41.3882 31.1468 41.0093 31.1468C40.6359 31.1468 40.3229 31.2731 40.0702 31.5257C39.8231 31.7728 39.6996 32.0803 39.6996 32.4483C39.6996 32.8107 39.8231 33.1182 40.0702 33.3709C40.3229 33.618 40.6359 33.7415 41.0093 33.7415ZM41.0093 27.6294C41.3882 27.6294 41.7012 27.5058 41.9484 27.2587C42.1955 27.0061 42.3191 26.6986 42.3191 26.3361C42.3191 25.9682 42.1955 25.6606 41.9484 25.4135C41.7012 25.1609 41.3882 25.0346 41.0093 25.0346C40.6359 25.0346 40.3229 25.1609 40.0702 25.4135C39.8231 25.6606 39.6996 25.9682 39.6996 26.3361C39.6996 26.6986 39.8231 27.0061 40.0702 27.2587C40.3229 27.5058 40.6359 27.6294 41.0093 27.6294ZM50.5153 35.3396H52.5417V33.0578H54.148V31.3033H52.5417V23.453H49.5515C49.222 23.9418 48.8925 24.4442 48.563 24.9605C48.239 25.4712 47.9123 25.9901 47.5828 26.5173C47.2588 27.039 46.932 27.569 46.6025 28.1071C46.2785 28.6398 45.9572 29.1753 45.6387 29.7134C45.3257 30.2516 45.0127 30.7871 44.6997 31.3197V33.0578H50.5153V35.3396ZM46.6766 31.3527V31.2291C46.9073 30.8227 47.1462 30.4136 47.3933 30.0018C47.6404 29.5844 47.8903 29.1698 48.1429 28.7579C48.3955 28.3405 48.6509 27.9259 48.909 27.5141C49.1671 27.1022 49.4225 26.6986 49.6751 26.3032C49.9332 25.9078 50.183 25.5233 50.4247 25.1499H50.5482V31.3527H46.6766ZM59.0657 35.3396H61.1827V23.453H59.0657L55.9602 25.6359V27.6294L58.9174 25.5453H59.0657V35.3396Z" fill="black"/>
<rect opacity="0.35" x="351.592" y="23.5" width="24" height="12" rx="3.8" stroke="black"/>
<path opacity="0.4" d="M377.092 27.7811V31.8566C377.896 31.5114 378.42 30.7085 378.42 29.8189C378.42 28.9293 377.896 28.1263 377.092 27.7811" fill="black"/>
<rect x="353.092" y="25" width="21" height="9" rx="2.5" fill="black"/>
<path fill-rule="evenodd" clip-rule="evenodd" d="M335.362 26.104C337.849 26.1041 340.241 27.0262 342.044 28.6797C342.179 28.8074 342.396 28.8058 342.53 28.6761L343.828 27.4126C343.895 27.3469 343.933 27.2578 343.932 27.1651C343.932 27.0724 343.893 26.9838 343.825 26.9188C339.094 22.5441 331.63 22.5441 326.899 26.9188C326.83 26.9837 326.791 27.0724 326.791 27.165C326.79 27.2577 326.828 27.3468 326.895 27.4126L328.193 28.6761C328.327 28.8059 328.544 28.8076 328.68 28.6797C330.482 27.0261 332.875 26.104 335.362 26.104ZM335.359 30.3243C336.716 30.3242 338.025 30.836 339.031 31.7601C339.167 31.8913 339.381 31.8884 339.514 31.7537L340.801 30.4344C340.869 30.3652 340.907 30.2713 340.906 30.1738C340.905 30.0762 340.865 29.9831 340.796 29.9153C337.732 27.0245 332.988 27.0245 329.924 29.9153C329.855 29.9831 329.815 30.0762 329.814 30.1738C329.813 30.2714 329.851 30.3653 329.919 30.4344L331.206 31.7537C331.339 31.8884 331.553 31.8913 331.689 31.7601C332.694 30.8366 334.002 30.3249 335.359 30.3243ZM337.883 33.1179C337.885 33.2232 337.848 33.3248 337.781 33.3986L335.604 35.8533C335.54 35.9255 335.453 35.9661 335.362 35.9661C335.272 35.9661 335.185 35.9255 335.121 35.8533L332.944 33.3986C332.877 33.3247 332.84 33.2231 332.842 33.1178C332.844 33.0124 332.884 32.9127 332.954 32.842C334.345 31.5282 336.38 31.5282 337.771 32.842C337.84 32.9127 337.881 33.0125 337.883 33.1179Z" fill="black"/>
<path fill-rule="evenodd" clip-rule="evenodd" d="M319.292 24.6821C319.292 24.049 318.814 23.5358 318.225 23.5358H317.158C316.569 23.5358 316.092 24.049 316.092 24.6821V34.616C316.092 35.2491 316.569 35.7622 317.158 35.7622H318.225C318.814 35.7622 319.292 35.2491 319.292 34.616V24.6821ZM311.857 25.9811H312.924C313.513 25.9811 313.991 26.5066 313.991 27.1548V34.5885C313.991 35.2367 313.513 35.7622 312.924 35.7622H311.857C311.268 35.7622 310.791 35.2367 310.791 34.5885V27.1548C310.791 26.5066 311.268 25.9811 311.857 25.9811ZM307.526 28.6302H306.459C305.87 28.6302 305.392 29.1623 305.392 29.8188V34.5736C305.392 35.23 305.87 35.7622 306.459 35.7622H307.526C308.115 35.7622 308.592 35.23 308.592 34.5736V29.8188C308.592 29.1623 308.115 28.6302 307.526 28.6302ZM302.225 31.0755H301.158C300.569 31.0755 300.092 31.6 300.092 32.2471V34.5905C300.092 35.2377 300.569 35.7622 301.158 35.7622H302.225C302.814 35.7622 303.292 35.2377 303.292 34.5905V32.2471C303.292 31.6 302.814 31.0755 302.225 31.0755Z" fill="black"/>
</svg>
