<svg width="390" height="844" viewBox="0 0 390 844" fill="none" xmlns="http://www.w3.org/2000/svg">
<rect width="390" height="844" fill="#F1F1F1"/>
<path d="M32.5165 23.1565C31.6653 23.1565 30.9047 23.3377 30.2347 23.7001C29.5702 24.0571 29.0485 24.5513 28.6696 25.1829C28.2962 25.8089 28.1094 26.5256 28.1094 27.3328V27.3493C28.1094 28.0962 28.2742 28.7661 28.6037 29.3592C28.9387 29.9523 29.3972 30.4191 29.9793 30.7596C30.5615 31.1001 31.2314 31.2703 31.9893 31.2703C32.5384 31.2703 33.0162 31.1879 33.4226 31.0232C33.8345 30.8584 34.1804 30.6415 34.4605 30.3724C34.7406 30.1033 34.952 29.8123 35.0948 29.4993H35.3831V27.3081H34.8888V27.3246C34.8888 27.7694 34.7845 28.1676 34.5758 28.519C34.3671 28.8705 34.0843 29.1451 33.7274 29.3428C33.3704 29.5405 32.9668 29.6393 32.5165 29.6393C32.0662 29.6393 31.6653 29.5377 31.3138 29.3345C30.9623 29.1313 30.685 28.854 30.4818 28.5025C30.2786 28.1456 30.177 27.7365 30.177 27.2752V27.2587C30.177 26.8139 30.2841 26.413 30.4983 26.056C30.7125 25.6936 30.998 25.408 31.355 25.1993C31.7119 24.9907 32.1046 24.8863 32.5329 24.8863C32.9778 24.8863 33.3759 24.9934 33.7274 25.2076C34.0843 25.4218 34.3671 25.7128 34.5758 26.0807C34.7845 26.4487 34.8888 26.8578 34.8888 27.3081L35.2595 29.2933C35.2595 29.3702 35.2595 29.4498 35.2595 29.5322C35.2595 29.6091 35.2568 29.6887 35.2513 29.7711C35.2238 30.5289 35.1085 31.2209 34.9053 31.8469C34.7076 32.4675 34.4083 32.9645 34.0074 33.3379C33.612 33.7058 33.1013 33.8898 32.4753 33.8898C32.1293 33.8898 31.8163 33.8349 31.5362 33.7251C31.2616 33.6097 31.0255 33.4477 30.8278 33.2391C30.6356 33.0304 30.4873 32.7887 30.383 32.5142L30.35 32.4318H28.266L28.2824 32.5224C28.4142 33.1265 28.6696 33.6647 29.0485 34.1369C29.4329 34.6037 29.9162 34.9717 30.4983 35.2408C31.0859 35.5043 31.7449 35.6361 32.4753 35.6361C33.4693 35.6361 34.3232 35.3835 35.0371 34.8783C35.7565 34.3676 36.3084 33.6372 36.6928 32.6872C37.0772 31.7371 37.2695 30.5948 37.2695 29.2604V29.2439C37.2695 28.1676 37.1431 27.2477 36.8905 26.4844C36.6379 25.7156 36.2892 25.0868 35.8444 24.598C35.4051 24.1038 34.8998 23.7413 34.3287 23.5107C33.7576 23.2745 33.1535 23.1565 32.5165 23.1565ZM41.0092 33.7415C41.3882 33.7415 41.7012 33.618 41.9483 33.3709C42.1954 33.1182 42.319 32.8107 42.319 32.4483C42.319 32.0803 42.1954 31.7728 41.9483 31.5257C41.7012 31.2731 41.3882 31.1468 41.0092 31.1468C40.6358 31.1468 40.3228 31.2731 40.0702 31.5257C39.8231 31.7728 39.6995 32.0803 39.6995 32.4483C39.6995 32.8107 39.8231 33.1182 40.0702 33.3709C40.3228 33.618 40.6358 33.7415 41.0092 33.7415ZM41.0092 27.6294C41.3882 27.6294 41.7012 27.5058 41.9483 27.2587C42.1954 27.0061 42.319 26.6986 42.319 26.3361C42.319 25.9682 42.1954 25.6606 41.9483 25.4135C41.7012 25.1609 41.3882 25.0346 41.0092 25.0346C40.6358 25.0346 40.3228 25.1609 40.0702 25.4135C39.8231 25.6606 39.6995 25.9682 39.6995 26.3361C39.6995 26.6986 39.8231 27.0061 40.0702 27.2587C40.3228 27.5058 40.6358 27.6294 41.0092 27.6294ZM50.5152 35.3396H52.5416V33.0578H54.1479V31.3033H52.5416V23.453H49.5514C49.2219 23.9418 48.8924 24.4442 48.563 24.9605C48.2389 25.4712 47.9122 25.9901 47.5827 26.5173C47.2587 27.039 46.9319 27.569 46.6024 28.1071C46.2784 28.6398 45.9572 29.1753 45.6387 29.7134C45.3256 30.2516 45.0126 30.7871 44.6996 31.3197V33.0578H50.5152V35.3396ZM46.6766 31.3527V31.2291C46.9072 30.8227 47.1461 30.4136 47.3932 30.0018C47.6404 29.5844 47.8902 29.1698 48.1428 28.7579C48.3955 28.3405 48.6508 27.9259 48.9089 27.5141C49.167 27.1022 49.4224 26.6986 49.675 26.3032C49.9331 25.9078 50.183 25.5233 50.4246 25.1499H50.5482V31.3527H46.6766ZM59.0657 35.3396H61.1827V23.453H59.0657L55.9602 25.6359V27.6294L58.9174 25.5453H59.0657V35.3396Z" fill="black"/>
<rect opacity="0.35" x="351.592" y="23.5" width="24" height="12" rx="3.8" stroke="black"/>
<path opacity="0.4" d="M377.092 27.7811V31.8566C377.896 31.5114 378.42 30.7085 378.42 29.8189C378.42 28.9293 377.896 28.1263 377.092 27.7811Z" fill="black"/>
<rect x="353.092" y="25" width="21" height="9" rx="2.5" fill="black"/>
<path fill-rule="evenodd" clip-rule="evenodd" d="M335.362 26.104C337.849 26.1041 340.241 27.0262 342.044 28.6797C342.179 28.8074 342.396 28.8058 342.53 28.6761L343.828 27.4126C343.895 27.3469 343.933 27.2578 343.932 27.1651C343.932 27.0724 343.893 26.9838 343.825 26.9188C339.094 22.5441 331.63 22.5441 326.899 26.9188C326.83 26.9837 326.791 27.0724 326.791 27.165C326.79 27.2577 326.828 27.3468 326.896 27.4126L328.193 28.6761C328.327 28.8059 328.544 28.8076 328.68 28.6797C330.482 27.0261 332.875 26.104 335.362 26.104ZM335.359 30.3243C336.716 30.3242 338.025 30.836 339.031 31.7601C339.167 31.8913 339.382 31.8884 339.514 31.7537L340.801 30.4344C340.869 30.3652 340.907 30.2713 340.906 30.1738C340.905 30.0762 340.865 29.9831 340.796 29.9153C337.732 27.0245 332.988 27.0245 329.924 29.9153C329.855 29.9831 329.815 30.0762 329.814 30.1738C329.813 30.2714 329.851 30.3653 329.919 30.4344L331.206 31.7537C331.339 31.8884 331.553 31.8913 331.689 31.7601C332.695 30.8366 334.002 30.3249 335.359 30.3243ZM337.883 33.1179C337.885 33.2232 337.848 33.3248 337.781 33.3986L335.604 35.8533C335.54 35.9255 335.453 35.9661 335.363 35.9661C335.272 35.9661 335.185 35.9255 335.121 35.8533L332.944 33.3986C332.877 33.3247 332.84 33.2231 332.842 33.1178C332.844 33.0124 332.884 32.9127 332.954 32.842C334.345 31.5282 336.38 31.5282 337.771 32.842C337.841 32.9127 337.881 33.0125 337.883 33.1179Z" fill="black"/>
<path fill-rule="evenodd" clip-rule="evenodd" d="M319.292 24.6821C319.292 24.049 318.814 23.5358 318.225 23.5358H317.158C316.569 23.5358 316.092 24.049 316.092 24.6821V34.616C316.092 35.2491 316.569 35.7622 317.158 35.7622H318.225C318.814 35.7622 319.292 35.2491 319.292 34.616V24.6821ZM311.857 25.9811H312.924C313.513 25.9811 313.991 26.5066 313.991 27.1548V34.5885C313.991 35.2367 313.513 35.7622 312.924 35.7622H311.857C311.268 35.7622 310.791 35.2367 310.791 34.5885V27.1548C310.791 26.5066 311.268 25.9811 311.857 25.9811ZM307.526 28.6302H306.459C305.87 28.6302 305.392 29.1623 305.392 29.8188V34.5736C305.392 35.23 305.87 35.7622 306.459 35.7622H307.526C308.115 35.7622 308.592 35.23 308.592 34.5736V29.8188C308.592 29.1623 308.115 28.6302 307.526 28.6302ZM302.225 31.0755H301.158C300.569 31.0755 300.092 31.6 300.092 32.2471V34.5905C300.092 35.2377 300.569 35.7622 301.158 35.7622H302.225C302.814 35.7622 303.292 35.2377 303.292 34.5905V32.2471C303.292 31.6 302.814 31.0755 302.225 31.0755Z" fill="black"/>
<rect x="24" y="636" width="167" height="72" rx="12" fill="#31A9FF"/>
<path d="M79.3895 674.637C83.6133 674.644 86.2721 675.974 86.2873 678.276C86.2721 680.539 83.6133 681.892 79.3895 681.884C75.2037 681.892 72.5221 680.539 72.5221 678.276C72.5221 675.974 75.2037 674.644 79.3895 674.637ZM70.6837 673.224V671.287H77.5131V667.769H79.8757V671.287H88.308V673.224H70.6837ZM72.7044 665.3V663.409H86.1657V665.019C86.1657 666.561 86.1657 668.195 85.6188 670.193L83.2638 669.957C83.7424 668.073 83.7728 666.713 83.7804 665.3H72.7044ZM74.9075 678.276C74.8923 679.423 76.5863 680.046 79.3895 680.046C82.2079 680.046 83.9019 679.423 83.9095 678.276C83.9019 677.098 82.2079 676.437 79.3895 676.43C76.5863 676.437 74.8923 677.098 74.9075 678.276ZM106.73 673.376V675.313H102.4V681.899H99.9842V675.313H95.6693V681.899H93.2231V675.313H88.9766V673.376H106.73ZM90.8378 667.526C90.8302 664.883 93.6714 663.189 97.8039 663.189C101.944 663.189 104.8 664.883 104.8 667.526C104.8 670.124 101.944 671.773 97.8039 671.765C93.6714 671.773 90.8302 670.124 90.8378 667.526ZM93.2991 667.526C93.2839 669.008 95.0615 669.874 97.8039 669.874C100.562 669.874 102.332 669.008 102.339 667.526C102.332 665.999 100.562 665.11 97.8039 665.11C95.0615 665.11 93.2839 665.999 93.2991 667.526ZM122.562 662.497V670.231H125.555V672.198H122.562V681.899H120.199V662.497H122.562ZM107.247 667.397V665.468H111.835V662.771H114.22V665.468H118.703V667.397H107.247ZM108.143 673.224C108.128 670.542 110.209 668.651 113.043 668.651C115.839 668.651 117.912 670.542 117.928 673.224C117.912 675.905 115.839 677.789 113.043 677.789C110.209 677.789 108.128 675.905 108.143 673.224ZM110.43 673.224C110.415 674.819 111.524 675.829 113.043 675.814C114.54 675.829 115.626 674.819 115.641 673.224C115.626 671.651 114.54 670.61 113.043 670.61C111.524 670.61 110.415 671.651 110.43 673.224ZM141.918 662.497V681.899H139.51V662.497H141.918ZM125.836 676.559C130.918 674.143 133.273 670.869 133.698 666.448H126.823V664.556H136.129C136.122 670.337 133.881 675.244 127.089 678.473L125.836 676.559Z" fill="white"/>
<rect x="199" y="636" width="167" height="72" rx="12" fill="#31A9FF"/>
<path d="M263.338 672.259V674.189H245.646V672.259H253.28V670.39H247.932V662.961H250.295V664.898H258.682V662.961H261.059V670.39H255.673V672.259H263.338ZM247.606 677.607V675.715H261.181V681.899H258.78V677.607H247.606ZM250.295 668.491H258.682V666.675H250.295V668.491ZM270.935 667.162C270.92 670.618 272.66 674.128 275.66 675.579L274.209 677.493C272.097 676.43 270.593 674.378 269.765 671.91C268.907 674.546 267.319 676.741 265.101 677.858L263.627 675.928C266.757 674.454 268.535 670.74 268.55 667.162V664.055H270.935V667.162ZM276.815 681.899V662.497H279.208V670.109H282.201V672.137H279.208V681.899H276.815ZM297.562 662.497V670.231H300.555V672.198H297.562V681.899H295.199V662.497H297.562ZM282.247 667.397V665.468H286.835V662.771H289.22V665.468H293.703V667.397H282.247ZM283.143 673.224C283.128 670.542 285.209 668.651 288.043 668.651C290.839 668.651 292.912 670.542 292.928 673.224C292.912 675.905 290.839 677.789 288.043 677.789C285.209 677.789 283.128 675.905 283.143 673.224ZM285.43 673.224C285.415 674.819 286.524 675.829 288.043 675.814C289.54 675.829 290.626 674.819 290.641 673.224C290.626 671.651 289.54 670.61 288.043 670.61C286.524 670.61 285.415 671.651 285.43 673.224ZM316.918 662.497V681.899H314.51V662.497H316.918ZM300.836 676.559C305.918 674.143 308.273 670.869 308.698 666.448H301.823V664.556H311.129C311.122 670.337 308.881 675.244 302.089 678.473L300.836 676.559Z" fill="white"/>
<rect x="45" y="205" width="300" height="300" rx="12" fill="white"/>
<path d="M56.6934 539.271V552H55.1022V540.924H55.0276L51.9323 542.975V541.384L55.1022 539.271H56.6934ZM63.7103 552H59.7573V539.271H63.8719C67.5888 539.271 69.7766 541.657 69.7766 545.61C69.7766 549.588 67.5888 552 63.7103 552ZM61.336 550.595H63.6109C66.731 550.595 68.2352 548.706 68.2352 545.61C68.2352 542.54 66.731 540.675 63.7725 540.675H61.336V550.595ZM71.5571 552V539.271H73.0737V543.97H73.1856C73.5212 543.46 74.093 542.329 75.9452 542.329C78.3444 542.329 80.0226 544.231 80.0226 547.251C80.0226 550.285 78.3444 552.199 75.9701 552.199C74.1428 552.199 73.5212 551.068 73.1856 550.533H73.024V552H71.5571ZM73.0364 547.227C73.0364 549.365 74.006 550.844 75.7463 550.844C77.5613 550.844 78.4936 549.253 78.4936 547.227C78.4936 545.225 77.5861 543.684 75.7463 543.684C73.9812 543.684 73.0364 545.101 73.0364 547.227ZM81.4406 552L81.4281 550.844L85.7665 546.269C87.2707 544.666 87.9917 543.808 88.0041 542.64C87.9917 541.322 86.8977 540.477 85.4682 540.477C83.9516 540.477 82.9944 541.434 82.9944 542.863H81.4903C81.4778 540.613 83.2182 539.097 85.5179 539.097C87.8301 539.097 89.4709 540.651 89.4834 542.64C89.4709 544.057 88.8121 545.163 86.5497 547.488L83.6408 550.496V550.595H89.7071V552H81.4406ZM95.0824 552.199C92.7081 552.199 91.0299 550.285 91.0299 547.251C91.0299 544.231 92.7081 542.329 95.1073 542.329C96.9595 542.329 97.5437 543.46 97.8669 543.97H97.9788V539.271H99.4954V552H98.0285V550.533H97.8669C97.5313 551.068 96.9098 552.199 95.0824 552.199ZM92.5589 547.227C92.5589 549.253 93.4913 550.844 95.3062 550.844C97.0465 550.844 98.0161 549.365 98.0161 547.227C98.0161 545.101 97.0714 543.684 95.3062 543.684C93.4664 543.684 92.5589 545.225 92.5589 547.227ZM105.848 542.453V543.721H103.735V552H102.219V543.721H100.677V542.453H102.219V541.16C102.219 539.606 103.25 538.674 104.929 538.674C105.301 538.674 105.749 538.724 106.06 538.786V540.128C105.737 540.079 105.463 540.066 105.277 540.066C104.208 540.066 103.735 540.501 103.735 541.496V542.453H105.848ZM111.485 552.174C108.949 552.174 107.134 550.819 107.047 548.805H108.651C108.738 550.011 109.943 550.769 111.46 550.769C113.138 550.769 114.356 549.862 114.356 548.532C114.356 547.152 113.25 546.17 111.261 546.17H110.229V544.778H111.261C112.815 544.778 113.896 543.907 113.896 542.59C113.896 541.322 112.964 540.477 111.51 540.477C110.155 540.477 108.912 541.222 108.849 542.465H107.32C107.395 540.452 109.272 539.097 111.535 539.097C113.959 539.097 115.438 540.688 115.425 542.515C115.438 543.957 114.593 545.014 113.262 545.387V545.486C114.916 545.735 115.923 546.916 115.91 548.544C115.923 550.633 114.021 552.174 111.485 552.174ZM122.054 552.174C119.518 552.174 117.703 550.819 117.616 548.805H119.22C119.307 550.011 120.513 550.769 122.029 550.769C123.707 550.769 124.926 549.862 124.926 548.532C124.926 547.152 123.819 546.17 121.83 546.17H120.799V544.778H121.83C123.384 544.778 124.466 543.907 124.466 542.59C124.466 541.322 123.533 540.477 122.079 540.477C120.724 540.477 119.481 541.222 119.419 542.465H117.89C117.964 540.452 119.841 539.097 122.104 539.097C124.528 539.097 126.007 540.688 125.995 542.515C126.007 543.957 125.162 545.014 123.832 545.387V545.486C125.485 545.735 126.492 546.916 126.48 548.544C126.492 550.633 124.59 552.174 122.054 552.174ZM132.487 552.174C129.802 552.174 127.949 550.695 127.962 548.619C127.949 546.978 129.093 545.623 130.548 545.387V545.325C129.28 545.026 128.447 543.858 128.447 542.478C128.447 540.526 130.15 539.097 132.487 539.097C134.799 539.097 136.502 540.526 136.514 542.478C136.502 543.858 135.657 545.026 134.414 545.325V545.387C135.856 545.623 136.999 546.978 137.012 548.619C136.999 550.695 135.135 552.174 132.487 552.174ZM129.541 548.532C129.516 549.874 130.647 550.782 132.487 550.782C134.302 550.782 135.433 549.874 135.433 548.532C135.433 547.127 134.19 546.095 132.487 546.095C130.771 546.095 129.516 547.127 129.541 548.532ZM129.988 542.59C129.988 543.883 131.02 544.753 132.487 544.753C133.929 544.753 134.973 543.883 134.973 542.59C134.973 541.322 133.966 540.464 132.487 540.464C130.97 540.464 129.988 541.322 129.988 542.59ZM142.216 552.199C139.842 552.199 138.164 550.285 138.164 547.251C138.164 544.231 139.842 542.329 142.241 542.329C144.093 542.329 144.678 543.46 145.001 543.97H145.113V539.271H146.629V552H145.163V550.533H145.001C144.665 551.068 144.044 552.199 142.216 552.199ZM139.693 547.227C139.693 549.253 140.625 550.844 142.44 550.844C144.18 550.844 145.15 549.365 145.15 547.227C145.15 545.101 144.205 543.684 142.44 543.684C140.6 543.684 139.693 545.225 139.693 547.227ZM152.982 542.453V543.721H150.869V552H149.353V543.721H147.811V542.453H149.353V541.16C149.353 539.606 150.384 538.674 152.063 538.674C152.435 538.674 152.883 538.724 153.194 538.786V540.128C152.871 540.079 152.597 540.066 152.411 540.066C151.342 540.066 150.869 540.501 150.869 541.496V542.453H152.982ZM154.218 552L154.206 550.844L158.544 546.269C160.048 544.666 160.769 543.808 160.782 542.64C160.769 541.322 159.675 540.477 158.246 540.477C156.729 540.477 155.772 541.434 155.772 542.863H154.268C154.256 540.613 155.996 539.097 158.296 539.097C160.608 539.097 162.249 540.651 162.261 542.64C162.249 544.057 161.59 545.163 159.327 547.488L156.418 550.496V550.595H162.485V552H154.218ZM165.772 546.269V552H164.255V542.453H165.722V543.957H165.846C166.294 542.975 167.189 542.329 168.631 542.329C170.57 542.329 171.863 543.51 171.863 545.934V552H170.346V546.046C170.346 544.566 169.538 543.684 168.183 543.684C166.791 543.684 165.772 544.616 165.772 546.269ZM173.735 552V539.271H175.251V546.68H175.425L179.552 542.453H181.417L177.408 546.53L181.715 552H179.801L176.264 547.5L175.251 548.451V552H173.735ZM186.981 539.271V552H185.39V540.924H185.315L182.22 542.975V541.384L185.39 539.271H186.981ZM193.451 552.199C191.077 552.199 189.399 550.285 189.399 547.251C189.399 544.231 191.077 542.329 193.476 542.329C195.328 542.329 195.912 543.46 196.236 543.97H196.347V539.271H197.864V552H196.397V550.533H196.236C195.9 551.068 195.278 552.199 193.451 552.199ZM190.928 547.227C190.928 549.253 191.86 550.844 193.675 550.844C195.415 550.844 196.385 549.365 196.385 547.227C196.385 545.101 195.44 543.684 193.675 543.684C191.835 543.684 190.928 545.225 190.928 547.227ZM204.08 552.174C201.781 552.174 200.04 550.757 199.941 548.805H201.482C201.594 549.936 202.7 550.782 204.08 550.782C205.734 550.782 206.927 549.576 206.927 547.972C206.927 546.319 205.684 545.101 203.968 545.088C202.899 545.076 202.066 545.412 201.594 546.232H200.065L200.96 539.271H207.859V540.675H202.278L201.805 544.405H201.942C202.502 543.97 203.359 543.671 204.254 543.671C206.678 543.671 208.468 545.461 208.468 547.935C208.468 550.396 206.616 552.174 204.08 552.174ZM214.368 539.097C216.555 539.122 218.992 540.439 218.992 545.126C218.992 549.651 217.14 552.174 214.156 552.174C211.919 552.174 210.34 550.807 210.017 548.78H211.583C211.869 549.924 212.739 550.769 214.156 550.769C216.232 550.769 217.5 548.979 217.513 545.884H217.339C216.605 546.941 215.437 547.575 214.082 547.575C211.807 547.575 209.917 545.822 209.917 543.36C209.917 540.999 211.658 539.072 214.368 539.097ZM211.459 543.348C211.459 544.927 212.652 546.182 214.318 546.182C215.971 546.182 217.264 544.815 217.264 543.323C217.264 541.856 216.046 540.489 214.368 540.489C212.702 540.489 211.446 541.782 211.459 543.348ZM224.916 542.453V543.721H222.803V552H221.287V543.721H219.745V542.453H221.287V541.16C221.287 539.606 222.318 538.674 223.996 538.674C224.369 538.674 224.817 538.724 225.128 538.786V540.128C224.804 540.079 224.531 540.066 224.345 540.066C223.275 540.066 222.803 540.501 222.803 541.496V542.453H224.916ZM229.639 555.779C227.327 555.779 225.76 554.772 225.586 552.994H227.177C227.376 553.977 228.284 554.461 229.639 554.461C231.267 554.461 232.274 553.753 232.274 552.174V550.235H232.15C231.827 550.769 231.217 551.851 229.365 551.851C227.053 551.851 225.313 550.098 225.313 547.102C225.313 544.156 226.991 542.329 229.39 542.329C231.242 542.329 231.839 543.46 232.175 543.97H232.311V542.453H233.778V552.261C233.778 554.722 231.963 555.779 229.639 555.779ZM226.842 547.152C226.842 549.128 227.774 550.508 229.589 550.508C231.329 550.508 232.299 549.253 232.299 547.152C232.299 545.101 231.354 543.684 229.589 543.684C227.749 543.684 226.842 545.225 226.842 547.152ZM235.632 552L235.619 550.844L239.958 546.269C241.462 544.666 242.183 543.808 242.195 542.64C242.183 541.322 241.089 540.477 239.659 540.477C238.143 540.477 237.186 541.434 237.186 542.863H235.681C235.669 540.613 237.409 539.097 239.709 539.097C242.021 539.097 243.662 540.651 243.674 542.64C243.662 544.057 243.003 545.163 240.741 547.488L237.832 550.496V550.595H243.898V552H235.632ZM249.808 552.174C247.508 552.174 245.768 550.757 245.669 548.805H247.21C247.322 549.936 248.428 550.782 249.808 550.782C251.461 550.782 252.655 549.576 252.655 547.972C252.655 546.319 251.412 545.101 249.696 545.088C248.627 545.076 247.794 545.412 247.322 546.232H245.793L246.688 539.271H253.587V540.675H248.006L247.533 544.405H247.67C248.229 543.97 249.087 543.671 249.982 543.671C252.406 543.671 254.196 545.461 254.196 547.935C254.196 550.396 252.344 552.174 249.808 552.174ZM255.595 552V550.856L260.978 543.945V543.845H255.769V542.453H262.93V543.646L257.696 550.508V550.608H263.104V552H255.595ZM266.074 546.269V552H264.557V542.453H266.024V543.957H266.148C266.596 542.975 267.491 542.329 268.933 542.329C270.872 542.329 272.165 543.51 272.165 545.934V552H270.648V546.046C270.648 544.566 269.84 543.684 268.485 543.684C267.093 543.684 266.074 544.616 266.074 546.269ZM274.422 552L280.265 540.775V540.675H273.54V539.271H281.906V540.75L276.088 552H274.422ZM288.033 544.939C287.834 544.144 287.225 543.622 286.107 543.622C284.926 543.622 284.093 544.256 284.093 545.051C284.093 545.685 284.602 546.12 285.721 546.394L287.151 546.742C288.854 547.152 289.687 547.997 289.687 549.327C289.687 550.981 288.344 552.199 285.945 552.199C283.807 552.199 282.526 551.242 282.278 549.501H283.857C284.031 550.434 284.714 550.881 285.92 550.881C287.275 550.881 288.133 550.309 288.133 549.414C288.133 548.743 287.648 548.296 286.566 548.047L285.125 547.711C283.459 547.326 282.576 546.419 282.576 545.138C282.576 543.51 284.006 542.329 286.107 542.329C288.083 542.329 289.326 543.385 289.525 544.939H288.033ZM294.72 552.199C292.346 552.199 290.668 550.285 290.668 547.251C290.668 544.231 292.346 542.329 294.745 542.329C296.597 542.329 297.181 543.46 297.505 543.97H297.616V539.271H299.133V552H297.666V550.533H297.505C297.169 551.068 296.547 552.199 294.72 552.199ZM292.197 547.227C292.197 549.253 293.129 550.844 294.944 550.844C296.684 550.844 297.654 549.365 297.654 547.227C297.654 545.101 296.709 543.684 294.944 543.684C293.104 543.684 292.197 545.225 292.197 547.227ZM301.409 552V539.271H302.925V543.97H303.037C303.373 543.46 303.945 542.329 305.797 542.329C308.196 542.329 309.874 544.231 309.874 547.251C309.874 550.285 308.196 552.199 305.822 552.199C303.994 552.199 303.373 551.068 303.037 550.533H302.876V552H301.409ZM302.888 547.227C302.888 549.365 303.858 550.844 305.598 550.844C307.413 550.844 308.345 549.253 308.345 547.227C308.345 545.225 307.438 543.684 305.598 543.684C303.833 543.684 302.888 545.101 302.888 547.227ZM310.981 549.402V548.097L316.712 539.271H318.651V548.01H320.441V549.402H318.651V552H317.147V549.402H310.981ZM312.684 548.01H317.147V541.272H316.998L312.684 547.91V548.01ZM326.273 542.453V543.721H324.16V552H322.643V543.721H321.102V542.453H322.643V541.16C322.643 539.606 323.675 538.674 325.353 538.674C325.726 538.674 326.174 538.724 326.485 538.786V540.128C326.161 540.079 325.888 540.066 325.701 540.066C324.632 540.066 324.16 540.501 324.16 541.496V542.453H326.273ZM331.773 552.174C329.088 552.174 327.236 550.695 327.248 548.619C327.236 546.978 328.379 545.623 329.834 545.387V545.325C328.566 545.026 327.733 543.858 327.733 542.478C327.733 540.526 329.436 539.097 331.773 539.097C334.085 539.097 335.788 540.526 335.8 542.478C335.788 543.858 334.943 545.026 333.7 545.325V545.387C335.142 545.623 336.285 546.978 336.298 548.619C336.285 550.695 334.421 552.174 331.773 552.174ZM328.827 548.532C328.802 549.874 329.933 550.782 331.773 550.782C333.588 550.782 334.719 549.874 334.719 548.532C334.719 547.127 333.476 546.095 331.773 546.095C330.057 546.095 328.802 547.127 328.827 548.532ZM329.274 542.59C329.274 543.883 330.306 544.753 331.773 544.753C333.215 544.753 334.259 543.883 334.259 542.59C334.259 541.322 333.252 540.464 331.773 540.464C330.256 540.464 329.274 541.322 329.274 542.59Z" fill="#707070"/>
<path d="M40 88L32 80L40 72" stroke="#707070" stroke-width="2" stroke-linecap="round" stroke-linejoin="round"/>
</svg>
