<svg width="390" height="844" viewBox="0 0 390 844" fill="none" xmlns="http://www.w3.org/2000/svg">
<g clip-path="url(#clip0_59_177)">
<rect width="390" height="844" fill="white"/>
<path d="M32.5165 23.1565C31.6653 23.1565 30.9047 23.3377 30.2347 23.7001C29.5702 24.0571 29.0485 24.5513 28.6696 25.1829C28.2962 25.8089 28.1094 26.5256 28.1094 27.3328V27.3493C28.1094 28.0962 28.2742 28.7661 28.6037 29.3592C28.9387 29.9523 29.3972 30.4191 29.9793 30.7596C30.5615 31.1001 31.2314 31.2703 31.9893 31.2703C32.5384 31.2703 33.0162 31.1879 33.4226 31.0232C33.8345 30.8584 34.1804 30.6415 34.4605 30.3724C34.7406 30.1033 34.952 29.8123 35.0948 29.4993H35.3831V27.3081H34.8888V27.3246C34.8888 27.7694 34.7845 28.1676 34.5758 28.519C34.3671 28.8705 34.0843 29.1451 33.7274 29.3428C33.3704 29.5405 32.9668 29.6393 32.5165 29.6393C32.0662 29.6393 31.6653 29.5377 31.3138 29.3345C30.9623 29.1313 30.685 28.854 30.4818 28.5025C30.2786 28.1456 30.177 27.7365 30.177 27.2752V27.2587C30.177 26.8139 30.2841 26.413 30.4983 26.056C30.7125 25.6936 30.998 25.408 31.355 25.1993C31.7119 24.9907 32.1046 24.8863 32.5329 24.8863C32.9778 24.8863 33.3759 24.9934 33.7274 25.2076C34.0843 25.4218 34.3671 25.7128 34.5758 26.0807C34.7845 26.4487 34.8888 26.8578 34.8888 27.3081L35.2595 29.2933C35.2595 29.3702 35.2595 29.4498 35.2595 29.5322C35.2595 29.6091 35.2568 29.6887 35.2513 29.7711C35.2238 30.5289 35.1085 31.2209 34.9053 31.8469C34.7076 32.4675 34.4083 32.9645 34.0074 33.3379C33.612 33.7058 33.1013 33.8898 32.4753 33.8898C32.1293 33.8898 31.8163 33.8349 31.5362 33.7251C31.2616 33.6097 31.0255 33.4477 30.8278 33.2391C30.6356 33.0304 30.4873 32.7887 30.383 32.5142L30.35 32.4318H28.266L28.2824 32.5224C28.4142 33.1265 28.6696 33.6647 29.0485 34.1369C29.4329 34.6037 29.9162 34.9717 30.4983 35.2408C31.0859 35.5043 31.7449 35.6361 32.4753 35.6361C33.4693 35.6361 34.3232 35.3835 35.0371 34.8783C35.7565 34.3676 36.3084 33.6372 36.6928 32.6872C37.0772 31.7371 37.2695 30.5948 37.2695 29.2604V29.2439C37.2695 28.1676 37.1431 27.2477 36.8905 26.4844C36.6379 25.7156 36.2892 25.0868 35.8444 24.598C35.4051 24.1038 34.8998 23.7413 34.3287 23.5107C33.7576 23.2745 33.1535 23.1565 32.5165 23.1565ZM41.0092 33.7415C41.3882 33.7415 41.7012 33.618 41.9483 33.3709C42.1954 33.1182 42.319 32.8107 42.319 32.4483C42.319 32.0803 42.1954 31.7728 41.9483 31.5257C41.7012 31.2731 41.3882 31.1468 41.0092 31.1468C40.6358 31.1468 40.3228 31.2731 40.0702 31.5257C39.8231 31.7728 39.6995 32.0803 39.6995 32.4483C39.6995 32.8107 39.8231 33.1182 40.0702 33.3709C40.3228 33.618 40.6358 33.7415 41.0092 33.7415ZM41.0092 27.6294C41.3882 27.6294 41.7012 27.5058 41.9483 27.2587C42.1954 27.0061 42.319 26.6986 42.319 26.3361C42.319 25.9682 42.1954 25.6606 41.9483 25.4135C41.7012 25.1609 41.3882 25.0346 41.0092 25.0346C40.6358 25.0346 40.3228 25.1609 40.0702 25.4135C39.8231 25.6606 39.6995 25.9682 39.6995 26.3361C39.6995 26.6986 39.8231 27.0061 40.0702 27.2587C40.3228 27.5058 40.6358 27.6294 41.0092 27.6294ZM50.5152 35.3396H52.5416V33.0578H54.1479V31.3033H52.5416V23.453H49.5514C49.2219 23.9418 48.8924 24.4442 48.563 24.9605C48.2389 25.4712 47.9122 25.9901 47.5827 26.5173C47.2587 27.039 46.9319 27.569 46.6024 28.1071C46.2784 28.6398 45.9572 29.1753 45.6387 29.7134C45.3256 30.2516 45.0126 30.7871 44.6996 31.3197V33.0578H50.5152V35.3396ZM46.6766 31.3527V31.2291C46.9072 30.8227 47.1461 30.4136 47.3932 30.0018C47.6404 29.5844 47.8902 29.1698 48.1428 28.7579C48.3955 28.3405 48.6508 27.9259 48.9089 27.5141C49.167 27.1022 49.4224 26.6986 49.675 26.3032C49.9331 25.9078 50.183 25.5233 50.4246 25.1499H50.5482V31.3527H46.6766ZM59.0657 35.3396H61.1827V23.453H59.0657L55.9602 25.6359V27.6294L58.9174 25.5453H59.0657V35.3396Z" fill="black"/>
<rect opacity="0.35" x="351.592" y="23.5" width="24" height="12" rx="3.8" stroke="black"/>
<path opacity="0.4" d="M377.092 27.7811V31.8566C377.896 31.5114 378.42 30.7085 378.42 29.8189C378.42 28.9293 377.896 28.1263 377.092 27.7811Z" fill="black"/>
<rect x="353.092" y="25" width="21" height="9" rx="2.5" fill="black"/>
<path fill-rule="evenodd" clip-rule="evenodd" d="M335.362 26.104C337.849 26.1041 340.241 27.0262 342.044 28.6797C342.179 28.8074 342.396 28.8058 342.53 28.6761L343.828 27.4126C343.895 27.3469 343.933 27.2578 343.932 27.1651C343.932 27.0724 343.893 26.9838 343.825 26.9188C339.094 22.5441 331.63 22.5441 326.899 26.9188C326.83 26.9837 326.791 27.0724 326.791 27.165C326.79 27.2577 326.828 27.3468 326.896 27.4126L328.193 28.6761C328.327 28.8059 328.544 28.8076 328.68 28.6797C330.482 27.0261 332.875 26.104 335.362 26.104ZM335.359 30.3243C336.716 30.3242 338.025 30.836 339.031 31.7601C339.167 31.8913 339.382 31.8884 339.514 31.7537L340.801 30.4344C340.869 30.3652 340.907 30.2713 340.906 30.1738C340.905 30.0762 340.865 29.9831 340.796 29.9153C337.732 27.0245 332.988 27.0245 329.924 29.9153C329.855 29.9831 329.815 30.0762 329.814 30.1738C329.813 30.2714 329.851 30.3653 329.919 30.4344L331.206 31.7537C331.339 31.8884 331.553 31.8913 331.689 31.7601C332.695 30.8366 334.002 30.3249 335.359 30.3243ZM337.883 33.1179C337.885 33.2232 337.848 33.3248 337.781 33.3986L335.604 35.8533C335.54 35.9255 335.453 35.9661 335.363 35.9661C335.272 35.9661 335.185 35.9255 335.121 35.8533L332.944 33.3986C332.877 33.3247 332.84 33.2231 332.842 33.1178C332.844 33.0124 332.884 32.9127 332.954 32.842C334.345 31.5282 336.38 31.5282 337.771 32.842C337.841 32.9127 337.881 33.0125 337.883 33.1179Z" fill="black"/>
<path fill-rule="evenodd" clip-rule="evenodd" d="M319.292 24.6821C319.292 24.049 318.814 23.5358 318.225 23.5358H317.158C316.569 23.5358 316.092 24.049 316.092 24.6821V34.616C316.092 35.2491 316.569 35.7622 317.158 35.7622H318.225C318.814 35.7622 319.292 35.2491 319.292 34.616V24.6821ZM311.857 25.9811H312.924C313.513 25.9811 313.991 26.5066 313.991 27.1548V34.5885C313.991 35.2367 313.513 35.7622 312.924 35.7622H311.857C311.268 35.7622 310.791 35.2367 310.791 34.5885V27.1548C310.791 26.5066 311.268 25.9811 311.857 25.9811ZM307.526 28.6302H306.459C305.87 28.6302 305.392 29.1623 305.392 29.8188V34.5736C305.392 35.23 305.87 35.7622 306.459 35.7622H307.526C308.115 35.7622 308.592 35.23 308.592 34.5736V29.8188C308.592 29.1623 308.115 28.6302 307.526 28.6302ZM302.225 31.0755H301.158C300.569 31.0755 300.092 31.6 300.092 32.2471V34.5905C300.092 35.2377 300.569 35.7622 301.158 35.7622H302.225C302.814 35.7622 303.292 35.2377 303.292 34.5905V32.2471C303.292 31.6 302.814 31.0755 302.225 31.0755Z" fill="black"/>
<rect x="24" y="126" width="108.667" height="48" rx="12" fill="#31A9FF"/>
<path d="M75.3729 141.102V154.003H73.2044V147.532H70.076V145.778H73.2044V141.102H75.3729ZM60.5456 150.177C63.3564 149.258 64.8619 146.952 64.8619 144.604V144.127H61.1809V142.373H70.7251V144.127H67.0718V144.617C67.0718 146.738 68.4945 148.934 71.2224 149.838L70.1381 151.558C68.163 150.895 66.768 149.541 66.0014 147.877C65.221 149.728 63.7569 151.22 61.6644 151.938L60.5456 150.177ZM63.7914 158.395V152.863H65.9599V156.634H75.8149V158.395H63.7914ZM83.2658 146.475C83.2658 149.21 84.3846 151.959 86.857 153.291L85.6484 154.887C83.9979 154.023 82.886 152.47 82.2575 150.612C81.636 152.615 80.5241 154.327 78.8666 155.301L77.6028 153.664C80.1028 152.214 81.2009 149.265 81.2147 146.475V145.923H78.2037V144.169H81.2147V141.71H83.2589V144.169H86.2147V145.923H83.2658V146.475ZM85.1166 149.659V147.87H87.4302V141.42H89.4675V157.877H87.4302V149.659H85.1166ZM91.0006 158.727V141.088H93.0586V158.727H91.0006Z" fill="white"/>
<rect x="140.667" y="126" width="108.667" height="48" rx="12" fill="#D0D0D0"/>
<path d="M193.31 148.72V150.315H186.363V151.606H191.335V155.75H181.294V156.965H191.819V158.581H179.167V154.272H189.194V153.174H179.146V151.606H184.208V150.315H177.288V148.72H193.31ZM177.986 146.517C181.473 146.344 183.531 145.398 183.98 144.148H178.835V142.525H184.201V141.047H186.356V142.525H191.756V144.148H186.577C187.012 145.398 189.07 146.344 192.592 146.517L191.95 148.133C188.766 147.939 186.39 147.076 185.279 145.646C184.174 147.076 181.798 147.939 178.593 148.133L177.986 146.517ZM208.703 141.938V143.312C208.703 144.693 208.703 146.247 208.261 148.326H210.678V150.08H194.539V148.326H206.072C206.493 146.42 206.528 144.977 206.535 143.685H196.535V141.938H208.703ZM196.479 158.519V152.138H208.676V158.519H196.479ZM198.607 156.765H206.521V153.837H198.607V156.765Z" fill="white"/>
<rect x="257.333" y="126" width="108.667" height="48" rx="12" fill="#D0D0D0"/>
<path d="M308.617 141.088V150.564H306.441V141.088H308.617ZM294.238 146.006C294.231 143.554 296.268 141.855 298.996 141.862C301.717 141.855 303.748 143.554 303.748 146.006C303.748 148.409 301.717 150.115 298.996 150.108C296.268 150.115 294.231 148.409 294.238 146.006ZM296.358 146.006C296.351 147.421 297.456 148.319 298.996 148.319C300.509 148.319 301.614 147.421 301.614 146.006C301.614 144.59 300.509 143.671 298.996 143.678C297.456 143.671 296.351 144.59 296.358 146.006ZM296.952 158.519V151.378H299.086V153.181H306.455V151.378H308.617V158.519H296.952ZM299.086 156.758H306.455V154.88H299.086V156.758ZM325.37 141.938V143.312C325.37 144.693 325.37 146.247 324.928 148.326H327.345V150.08H311.206V148.326H322.739C323.16 146.42 323.194 144.977 323.201 143.685H313.201V141.938H325.37ZM313.146 158.519V152.138H325.342V158.519H313.146ZM315.273 156.765H323.188V153.837H315.273V156.765Z" fill="white"/>
<path d="M40 88L32 80L40 72" stroke="#707070" stroke-width="2" stroke-linecap="round" stroke-linejoin="round"/>
<path d="M115.381 87H112.874L118.465 71.442H121.208L126.799 87H124.284L122.864 82.8902H116.802L115.381 87ZM117.485 80.9075H122.18L119.893 74.2831H119.772L117.485 80.9075ZM140.893 71.442V87H138.721L130.835 75.6354H130.691V87H128.328V71.442H130.524L138.409 82.8294H138.554V71.442H140.893ZM148.667 87H143.615V71.442H148.819C153.407 71.442 156.142 74.3591 156.142 79.1982C156.142 84.0601 153.407 87 148.667 87ZM145.978 84.9337H148.538C152.07 84.9337 153.81 82.8826 153.81 79.1982C153.81 75.5366 152.07 73.5083 148.674 73.5083H145.978V84.9337ZM173.117 79.4337V81.0746H167.291V84.8349H175.115V86.4986H157.498V84.8349H165.247V81.0746H159.709V71.0698H172.927V72.7334H161.768V75.1948H172.502V76.828H161.768V79.4337H173.117ZM191.455 70.5532V72.2396C191.455 74.0932 191.455 76.1291 190.924 78.9551H193.651V80.6188H176.072V78.9551H188.857C189.085 77.8384 189.222 76.8432 189.305 75.924L178.04 76.4254L177.797 74.7314L189.397 74.4047C189.427 73.6374 189.427 72.9233 189.427 72.2396V72.2093H178.275V70.5532H191.455ZM178.237 88.4282V82.3812H180.273V86.7569H191.828V88.4282H178.237ZM215.522 69.5732V88.8612H213.471V69.5732H215.522ZM200.238 77.77C200.238 73.645 202.312 71.0242 205.214 71.0166C208.085 71.0242 210.182 73.645 210.182 77.77C210.182 81.9178 208.085 84.5387 205.214 84.5387C202.312 84.5387 200.238 81.9178 200.238 77.77ZM202.205 77.77C202.205 80.8239 203.436 82.7079 205.214 82.7079C206.991 82.7079 208.207 80.8239 208.207 77.77C208.207 74.7389 206.991 72.855 205.214 72.8398C203.436 72.855 202.205 74.7389 202.205 77.77ZM235.699 78.9627V80.6188H218.15V78.9627H222.359V76.3798C220.87 75.7797 220.027 74.8073 220.027 73.5311C220.027 71.2445 222.678 69.9151 226.909 69.9075C231.126 69.9151 233.777 71.2445 233.777 73.5311C233.777 74.8073 232.934 75.7797 231.445 76.3874V78.9627H235.699ZM220.224 85.3515C220.224 83.1485 222.724 81.9254 226.902 81.9406C231.05 81.9254 233.541 83.1485 233.557 85.3515C233.541 87.5698 231.05 88.7852 226.902 88.7852C222.724 88.7852 220.224 87.5698 220.224 85.3515ZM222.146 73.5311C222.131 74.8225 223.916 75.5366 226.909 75.5366C229.887 75.5366 231.688 74.8225 231.688 73.5311C231.688 72.2396 229.887 71.4952 226.909 71.4952C223.916 71.4952 222.131 72.2396 222.146 73.5311ZM222.298 85.3515C222.283 86.5518 223.962 87.2355 226.902 87.2203C229.811 87.2355 231.505 86.5518 231.521 85.3515C231.505 84.1588 229.811 83.5055 226.902 83.4903C223.962 83.5055 222.283 84.1588 222.298 85.3515ZM224.41 78.9627H229.416V76.9192C228.664 77.0407 227.821 77.1015 226.909 77.1015C225.998 77.1015 225.162 77.0407 224.41 76.9268V78.9627ZM258.14 69.5732V88.8232H256.165V78.9703H253.711V87.8356H251.797V69.9682H253.711V77.2762H256.165V69.5732H258.14ZM242.552 83.9309V71.8446H244.595V82.1381C246.373 82.1077 248.31 81.971 250.49 81.5456L250.718 83.3232C248.074 83.8018 245.871 83.9309 243.798 83.9309H242.552ZM276.273 81.9254V88.8232H274.237V83.5435H263.222V81.9254H276.273ZM260.51 75.2859C260.495 72.5739 262.652 70.6367 265.547 70.6519C267.18 70.6443 268.585 71.2749 269.482 72.3232H274.237V69.5732H276.273V80.9227H274.237V78.2714H269.489C268.585 79.3273 267.187 79.9655 265.547 79.9579C262.652 79.9655 260.495 78.0359 260.51 75.2859ZM262.447 75.2859C262.447 77.0559 263.739 78.2258 265.547 78.2258C267.286 78.2258 268.608 77.0559 268.608 75.2859C268.608 73.5691 267.286 72.3764 265.547 72.3764C263.739 72.3764 262.447 73.5691 262.447 75.2859ZM270.378 76.6077H274.237V73.9945H270.378C270.492 74.3971 270.56 74.8301 270.56 75.2859C270.56 75.7493 270.492 76.1975 270.378 76.6077Z" fill="black"/>
<g filter="url(#filter0_d_59_177)">
<path d="M0 742C0 732.059 8.05888 724 18 724H372C381.941 724 390 732.059 390 742V844H0V742Z" fill="white"/>
</g>
<path d="M63.5 761L81.5 750L99.5 761" stroke="#31A9FF" stroke-width="2.5" stroke-linecap="round" stroke-linejoin="round"/>
<path d="M95.4998 768V780.8C95.4998 781.463 94.9626 782 94.2998 782H68.6998C68.0371 782 67.4998 781.463 67.4998 780.8V768" stroke="#31A9FF" stroke-width="2.5" stroke-linecap="round" stroke-linejoin="round"/>
<path d="M77.4999 774H85.4999" stroke="#31A9FF" stroke-width="2.5" stroke-linecap="round" stroke-linejoin="round"/>
<path d="M61.0168 801.796V805.47H62.6632V800.514H64.3151V813.707H62.6632V806.878H61.0168V810.751H55.4698V801.796H61.0168ZM57.0997 809.381H59.387V803.166H57.0997V809.381ZM65.5472 814.381V800.271H67.2157V814.381H65.5472ZM80.1384 800.282V810.486H78.3981V800.282H80.1384ZM68.6356 804.735C68.6301 802.68 70.2931 801.21 72.4423 801.21C74.5914 801.21 76.2434 802.68 76.2434 804.735C76.2434 806.823 74.5914 808.282 72.4423 808.276C70.2931 808.282 68.6301 806.823 68.6356 804.735ZM70.3318 804.735C70.3262 805.989 71.2323 806.762 72.4423 806.762C73.6191 806.762 74.5362 805.989 74.5362 804.735C74.5362 803.514 73.6191 802.724 72.4423 802.724C71.2323 802.724 70.3262 803.514 70.3318 804.735ZM70.7959 814.116V809.448H72.5472V812.707H80.5362V814.116H70.7959ZM92.9009 800.271V806.099H94.8788V807.541H92.9009V814.381H91.155V800.271H92.9009ZM81.5583 810.475C82.6302 810.475 83.8733 810.47 85.1716 810.436V809.11C83.6302 808.851 82.6246 807.89 82.6302 806.558C82.6246 804.972 84.0224 803.912 86.0556 803.912C88.0611 803.912 89.481 804.972 89.492 806.558C89.481 807.89 88.4534 808.856 86.9175 809.116V810.37C88.0998 810.309 89.2876 810.21 90.3981 810.055L90.5141 811.331C87.481 811.878 84.2103 811.906 81.807 811.906L81.5583 810.475ZM81.8235 803.271V801.895H85.1716V800.326H86.9175V801.895H90.2434V803.271H81.8235ZM84.2766 806.558C84.271 807.376 84.9838 807.856 86.0556 807.851C87.1108 807.856 87.8235 807.376 87.8235 806.558C87.8235 805.74 87.1108 805.243 86.0556 805.243C84.9838 805.243 84.271 805.74 84.2766 806.558ZM102.321 801.448V802.58H105.172V800.282H106.906V810.558H105.172V807.006H102.321V808.221H95.691V801.448H102.321ZM97.4148 806.856H100.614V802.834H97.4148V806.856ZM97.5971 814.116V809.608H99.354V812.707H107.216V814.116H97.5971ZM102.321 805.613H105.172V803.994H102.321V805.613Z" fill="#707070"/>
<path d="M201.75 784C203.158 784 204.3 782.858 204.3 781.45C204.3 780.042 203.158 778.9 201.75 778.9C200.342 778.9 199.2 780.042 199.2 781.45C199.2 782.858 200.342 784 201.75 784Z" stroke="#31A9FF" stroke-width="2.5" stroke-linecap="round" stroke-linejoin="round"/>
<path d="M184.75 784C186.158 784 187.3 782.858 187.3 781.45C187.3 780.042 186.158 778.9 184.75 778.9C183.342 778.9 182.2 780.042 182.2 781.45C182.2 782.858 183.342 784 184.75 784Z" stroke="#31A9FF" stroke-width="2.5" stroke-linecap="round" stroke-linejoin="round"/>
<path d="M177.1 753.4H206L202.6 772.1H180.5L177.1 753.4ZM177.1 753.4C176.817 752.267 175.4 750 172 750" stroke="#31A9FF" stroke-width="2.5" stroke-linecap="round" stroke-linejoin="round"/>
<path d="M202.6 772.1H180.5H177.492C174.459 772.1 172.85 773.428 172.85 775.5C172.85 777.572 174.459 778.9 177.492 778.9H201.75" stroke="#31A9FF" stroke-width="2.5" stroke-linecap="round" stroke-linejoin="round"/>
<path d="M174.752 803.663C174.741 806.177 176.006 808.729 178.188 809.785L177.133 811.177C175.597 810.403 174.503 808.912 173.901 807.116C173.276 809.033 172.122 810.63 170.509 811.442L169.437 810.039C171.713 808.967 173.006 806.265 173.017 803.663V801.403H174.752V803.663ZM179.028 814.381V800.271H180.768V805.807H182.945V807.282H180.768V814.381H179.028ZM195.923 807.061V808.453H183.056V807.061H186.05V805.265C184.989 804.812 184.387 804.105 184.393 803.182C184.387 801.497 186.359 800.503 189.481 800.497C192.591 800.503 194.564 801.497 194.564 803.182C194.564 804.11 193.956 804.823 192.879 805.276V807.061H195.923ZM184.553 811.823C184.553 810.199 186.393 809.298 189.47 809.304C192.514 809.298 194.359 810.199 194.365 811.823C194.359 813.47 192.514 814.365 189.47 814.359C186.393 814.365 184.553 813.47 184.553 811.823ZM186.194 803.182C186.183 804.05 187.393 804.508 189.481 804.508C191.558 804.508 192.779 804.05 192.779 803.182C192.779 802.32 191.558 801.84 189.481 801.84C187.393 801.84 186.183 802.32 186.194 803.182ZM186.321 811.823C186.31 812.624 187.42 813.055 189.47 813.044C191.498 813.055 192.619 812.624 192.63 811.823C192.619 811.039 191.498 810.63 189.47 810.619C187.42 810.63 186.31 811.039 186.321 811.823ZM187.801 807.061H191.149V805.718C190.641 805.785 190.083 805.823 189.481 805.823C188.873 805.823 188.315 805.785 187.801 805.718V807.061ZM208.255 800.271V814.414H206.509V807.182H203.779V805.779H206.509V800.271H208.255ZM196.371 810.376C198.575 809.376 199.824 806.972 199.824 804.751V804.011H196.796V802.624H199.835V800.569H201.569V802.624H204.531V804.011H201.553V804.751C201.547 806.884 202.829 809.166 205.061 810.149L204.122 811.481C202.509 810.79 201.332 809.381 200.702 807.691C200.094 809.481 198.923 810.989 197.304 811.718L196.371 810.376Z" fill="#707070"/>
<path d="M298.723 771.235H302.959M302.959 771.235H307.194M302.959 771.235V767M302.959 771.235V775.471" stroke="#31A9FF" stroke-width="2.5" stroke-linecap="round" stroke-linejoin="round"/>
<path d="M320.956 759.834L317.75 751.604C317.611 751.247 317.166 751 316.659 751H309L309.899 758.917C309.929 759.176 310.121 759.41 310.425 759.544C311.162 759.866 312.605 760.463 313.731 760.717C315.653 761.15 318.463 760.994 320.063 760.85C320.729 760.79 321.14 760.307 320.956 759.834Z" stroke="#31A9FF" stroke-width="2.5"/>
<path d="M306.525 760.531C307.525 760.293 308.794 759.749 309.505 759.425C309.843 759.271 310.029 758.98 309.996 758.678L309.168 751H296.832L296.004 758.678C295.971 758.98 296.157 759.271 296.495 759.425C297.206 759.749 298.475 760.293 299.475 760.531C302.107 761.156 303.894 761.156 306.525 760.531Z" stroke="#31A9FF" stroke-width="2.5"/>
<path d="M288.25 751.604L285.044 759.834C284.86 760.307 285.271 760.79 285.937 760.85C287.537 760.994 290.347 761.15 292.269 760.717C293.395 760.463 294.838 759.866 295.575 759.544C295.879 759.41 296.071 759.176 296.101 758.917L297 751H289.341C288.834 751 288.389 751.247 288.25 751.604Z" stroke="#31A9FF" stroke-width="2.5"/>
<path d="M288.043 761.5V779.444C288.043 781.408 289.635 783 291.599 783H314.487C316.451 783 318.043 781.408 318.043 779.444V761.5" stroke="#31A9FF" stroke-width="2.5"/>
<path d="M279.262 800.271V805.785H281.356V807.227H279.262V814.359H277.521V800.271H279.262ZM268.129 810.503C271.566 808.779 273.422 806.381 273.764 803.166H268.88V801.735H275.532C275.521 805.884 273.803 809.53 269.107 811.84L268.129 810.503ZM293.626 800.282V808.79H291.974V805.21H290.56V808.343H288.947V800.541H290.56V803.79H291.974V800.282H293.626ZM282.096 807.685V801.497H287.665V807.685H282.096ZM283.731 806.37H286.041V802.834H283.731V806.37ZM284.024 811.707C284.013 810.061 285.88 809.066 288.858 809.072C291.814 809.066 293.693 810.061 293.698 811.707C293.693 813.376 291.814 814.376 288.858 814.37C285.88 814.376 284.013 813.376 284.024 811.707ZM285.753 811.707C285.748 812.58 286.903 813.033 288.858 813.033C290.792 813.033 291.947 812.58 291.958 811.707C291.947 810.873 290.792 810.414 288.858 810.409C286.903 810.414 285.748 810.873 285.753 811.707ZM306.726 800.271V808.47H304.991V805.044H302.549V803.619H304.991V800.271H306.726ZM294.864 807.061C297.113 806.315 298.317 804.448 298.317 802.58V802.464H295.372V801.055H303.008V802.464H300.085V802.591C300.085 804.287 301.223 806.039 303.405 806.785L302.538 808.155C300.958 807.619 299.842 806.541 299.223 805.204C298.604 806.685 297.428 807.867 295.759 808.431L294.864 807.061ZM297.328 814.215V809.083H306.726V814.215H297.328ZM299.063 812.812H305.024V810.459H299.063V812.812ZM323.319 800.282V810.602H321.579V800.282H323.319ZM311.573 807.271C313.866 806.459 315.037 804.464 315.037 802.442V801.061H316.833V802.442C316.822 804.409 317.976 806.265 320.22 807.017L319.33 808.392C317.717 807.829 316.573 806.702 315.943 805.265C315.313 806.807 314.148 808.044 312.49 808.641L311.573 807.271ZM313.976 814.116V809.613H315.728V812.707H323.717V814.116H313.976ZM329.982 803.276C329.982 804.829 331.192 806.354 333.419 806.945L332.595 808.293C330.971 807.856 329.8 806.906 329.148 805.685C328.535 807.066 327.363 808.16 325.684 808.663L324.861 807.304C327.07 806.641 328.253 804.983 328.253 803.276V803.204H325.297V801.823H328.253V800.21H330.004V801.823H332.932V803.204H329.982V803.276ZM327.153 811.713C327.148 810.039 328.982 809.094 331.96 809.088C334.943 809.094 336.778 810.039 336.778 811.713C336.778 813.398 334.943 814.376 331.96 814.37C328.982 814.376 327.148 813.398 327.153 811.713ZM328.883 811.713C328.872 812.558 329.993 813.033 331.96 813.033C333.954 813.033 335.048 812.558 335.054 811.713C335.048 810.878 333.954 810.431 331.96 810.425C329.993 810.431 328.872 810.878 328.883 811.713ZM332.512 805.547V804.144H335.004V800.271H336.739V808.812H335.004V805.547H332.512Z" fill="#707070"/>
</g>
<defs>
<filter id="filter0_d_59_177" x="-30" y="680" width="450" height="180" filterUnits="userSpaceOnUse" color-interpolation-filters="sRGB">
<feFlood flood-opacity="0" result="BackgroundImageFix"/>
<feColorMatrix in="SourceAlpha" type="matrix" values="0 0 0 0 0 0 0 0 0 0 0 0 0 0 0 0 0 0 127 0" result="hardAlpha"/>
<feOffset dy="-14"/>
<feGaussianBlur stdDeviation="15"/>
<feComposite in2="hardAlpha" operator="out"/>
<feColorMatrix type="matrix" values="0 0 0 0 0 0 0 0 0 0 0 0 0 0 0 0 0 0 0.1 0"/>
<feBlend mode="normal" in2="BackgroundImageFix" result="effect1_dropShadow_59_177"/>
<feBlend mode="normal" in="SourceGraphic" in2="effect1_dropShadow_59_177" result="shape"/>
</filter>
<clipPath id="clip0_59_177">
<rect width="390" height="844" fill="white"/>
</clipPath>
</defs>
</svg>
