<svg width="390" height="844" viewBox="0 0 390 844" fill="none" xmlns="http://www.w3.org/2000/svg">
<g clip-path="url(#clip0_36_930)">
<rect width="390" height="844" fill="white"/>
<path d="M0 0H390V374H18C8.05887 374 0 365.941 0 356V0Z" fill="#31A9FF"/>
<path d="M40.0691 69.8149V91.163H37.2431V80.4558H35.1878V90.1188H32.4448V70.1878H35.1878V78.0608H37.2431V69.8149H40.0691ZM22.2348 86.3232V72.2928H30.1989V74.6961H25.2348V83.8204C27.2983 83.7873 29.1298 83.6713 31.1851 83.2983L31.4088 85.7348C28.8066 86.2403 26.5359 86.3149 23.7265 86.3232H22.2348ZM59.0716 71.0746V72.989C59.0633 74.9779 59.0633 77.1575 58.5163 80.1492H61.3589V82.5608H53.0384V91.1796H50.0219V82.5608H41.9003V80.1492H55.4998C56.0384 77.3895 56.0882 75.3011 56.0964 73.453H44.1296V71.0746H59.0716ZM79.0852 69.8481V74.8122H81.9691V77.2735H79.0852V82.6188H76.0852V69.8481H79.0852ZM62.9001 73.4613V71.1077H72.7122V77.4558H65.9166V79.337C69.4305 79.3204 71.8255 79.1878 74.5354 78.7155L74.8503 81.0939C71.8006 81.674 69.0575 81.7901 64.7233 81.7818H62.9332V75.2265H69.7951V73.4613H62.9001ZM64.7398 87.1436C64.7398 84.5829 67.5327 83.0414 72.041 83.0331C76.4829 83.0414 79.284 84.5829 79.284 87.1436C79.284 89.6713 76.4829 91.1381 72.041 91.1298C67.5327 91.1381 64.7398 89.6713 64.7398 87.1436ZM67.6901 87.1436C67.6735 88.3122 69.1984 88.9088 72.041 88.9006C74.8586 88.9088 76.3338 88.3122 76.3338 87.1436C76.3338 85.9586 74.8586 85.3536 72.041 85.3536C69.1984 85.3536 67.6735 85.9586 67.6901 87.1436Z" fill="white"/>
<path d="M32.5165 23.1565C31.6653 23.1565 30.9047 23.3377 30.2348 23.7001C29.5703 24.0571 29.0486 24.5513 28.6697 25.1829C28.2962 25.8089 28.1095 26.5256 28.1095 27.3328V27.3493C28.1095 28.0962 28.2743 28.7661 28.6038 29.3592C28.9387 29.9523 29.3973 30.4191 29.9794 30.7596C30.5615 31.1001 31.2315 31.2703 31.9893 31.2703C32.5385 31.2703 33.0163 31.1879 33.4226 31.0232C33.8345 30.8584 34.1805 30.6415 34.4606 30.3724C34.7406 30.1033 34.9521 29.8123 35.0948 29.4993H35.3831V27.3081H34.8889V27.3246C34.8889 27.7694 34.7846 28.1676 34.5759 28.519C34.3672 28.8705 34.0844 29.1451 33.7274 29.3428C33.3705 29.5405 32.9668 29.6393 32.5165 29.6393C32.0662 29.6393 31.6653 29.5377 31.3139 29.3345C30.9624 29.1313 30.6851 28.854 30.4819 28.5025C30.2787 28.1456 30.1771 27.7365 30.1771 27.2752V27.2587C30.1771 26.8139 30.2842 26.413 30.4984 26.056C30.7125 25.6936 30.9981 25.408 31.3551 25.1993C31.712 24.9907 32.1047 24.8863 32.533 24.8863C32.9778 24.8863 33.376 24.9934 33.7274 25.2076C34.0844 25.4218 34.3672 25.7128 34.5759 26.0807C34.7846 26.4487 34.8889 26.8578 34.8889 27.3081L35.2596 29.2933C35.2596 29.3702 35.2596 29.4498 35.2596 29.5322C35.2596 29.6091 35.2568 29.6887 35.2513 29.7711C35.2239 30.5289 35.1086 31.2209 34.9054 31.8469C34.7077 32.4675 34.4084 32.9645 34.0075 33.3379C33.6121 33.7058 33.1014 33.8898 32.4753 33.8898C32.1294 33.8898 31.8163 33.8349 31.5363 33.7251C31.2617 33.6097 31.0256 33.4477 30.8279 33.2391C30.6356 33.0304 30.4874 32.7887 30.383 32.5142L30.3501 32.4318H28.266L28.2825 32.5224C28.4143 33.1265 28.6697 33.6647 29.0486 34.1369C29.433 34.6037 29.9162 34.9717 30.4984 35.2408C31.086 35.5043 31.745 35.6361 32.4753 35.6361C33.4693 35.6361 34.3233 35.3835 35.0372 34.8783C35.7566 34.3676 36.3085 33.6372 36.6929 32.6872C37.0773 31.7371 37.2695 30.5948 37.2695 29.2604V29.2439C37.2695 28.1676 37.1432 27.2477 36.8906 26.4844C36.638 25.7156 36.2893 25.0868 35.8444 24.598C35.4051 24.1038 34.8999 23.7413 34.3288 23.5107C33.7576 23.2745 33.1536 23.1565 32.5165 23.1565ZM41.0093 33.7415C41.3882 33.7415 41.7012 33.618 41.9484 33.3709C42.1955 33.1182 42.3191 32.8107 42.3191 32.4483C42.3191 32.0803 42.1955 31.7728 41.9484 31.5257C41.7012 31.2731 41.3882 31.1468 41.0093 31.1468C40.6359 31.1468 40.3229 31.2731 40.0702 31.5257C39.8231 31.7728 39.6996 32.0803 39.6996 32.4483C39.6996 32.8107 39.8231 33.1182 40.0702 33.3709C40.3229 33.618 40.6359 33.7415 41.0093 33.7415ZM41.0093 27.6294C41.3882 27.6294 41.7012 27.5058 41.9484 27.2587C42.1955 27.0061 42.3191 26.6986 42.3191 26.3361C42.3191 25.9682 42.1955 25.6606 41.9484 25.4135C41.7012 25.1609 41.3882 25.0346 41.0093 25.0346C40.6359 25.0346 40.3229 25.1609 40.0702 25.4135C39.8231 25.6606 39.6996 25.9682 39.6996 26.3361C39.6996 26.6986 39.8231 27.0061 40.0702 27.2587C40.3229 27.5058 40.6359 27.6294 41.0093 27.6294ZM50.5153 35.3396H52.5417V33.0578H54.148V31.3033H52.5417V23.453H49.5515C49.222 23.9418 48.8925 24.4442 48.563 24.9605C48.239 25.4712 47.9123 25.9901 47.5828 26.5173C47.2588 27.039 46.932 27.569 46.6025 28.1071C46.2785 28.6398 45.9572 29.1753 45.6387 29.7134C45.3257 30.2516 45.0127 30.7871 44.6997 31.3197V33.0578H50.5153V35.3396ZM46.6766 31.3527V31.2291C46.9073 30.8227 47.1462 30.4136 47.3933 30.0018C47.6404 29.5844 47.8903 29.1698 48.1429 28.7579C48.3955 28.3405 48.6509 27.9259 48.909 27.5141C49.1671 27.1022 49.4225 26.6986 49.6751 26.3032C49.9332 25.9078 50.183 25.5233 50.4247 25.1499H50.5482V31.3527H46.6766ZM59.0657 35.3396H61.1827V23.453H59.0657L55.9602 25.6359V27.6294L58.9174 25.5453H59.0657V35.3396Z" fill="black"/>
<rect opacity="0.35" x="351.592" y="23.5" width="24" height="12" rx="3.8" stroke="black"/>
<path opacity="0.4" d="M377.092 27.7811V31.8566C377.896 31.5114 378.42 30.7085 378.42 29.8189C378.42 28.9293 377.896 28.1263 377.092 27.7811Z" fill="black"/>
<rect x="353.092" y="25" width="21" height="9" rx="2.5" fill="black"/>
<path fill-rule="evenodd" clip-rule="evenodd" d="M335.362 26.104C337.849 26.1041 340.241 27.0262 342.044 28.6797C342.179 28.8074 342.396 28.8058 342.53 28.6761L343.828 27.4126C343.895 27.3469 343.933 27.2578 343.932 27.1651C343.932 27.0724 343.893 26.9838 343.825 26.9188C339.094 22.5441 331.63 22.5441 326.899 26.9188C326.83 26.9837 326.791 27.0724 326.791 27.165C326.79 27.2577 326.828 27.3468 326.896 27.4126L328.193 28.6761C328.327 28.8059 328.544 28.8076 328.68 28.6797C330.482 27.0261 332.875 26.104 335.362 26.104ZM335.359 30.3243C336.716 30.3242 338.025 30.836 339.031 31.7601C339.167 31.8913 339.382 31.8884 339.514 31.7537L340.801 30.4344C340.869 30.3652 340.907 30.2713 340.906 30.1738C340.905 30.0762 340.865 29.9831 340.796 29.9153C337.732 27.0245 332.988 27.0245 329.924 29.9153C329.855 29.9831 329.815 30.0762 329.814 30.1738C329.813 30.2714 329.851 30.3653 329.919 30.4344L331.206 31.7537C331.339 31.8884 331.553 31.8913 331.689 31.7601C332.695 30.8366 334.002 30.3249 335.359 30.3243ZM337.883 33.1179C337.885 33.2232 337.848 33.3248 337.781 33.3986L335.604 35.8533C335.54 35.9255 335.453 35.9661 335.363 35.9661C335.272 35.9661 335.185 35.9255 335.121 35.8533L332.944 33.3986C332.877 33.3247 332.84 33.2231 332.842 33.1178C332.844 33.0124 332.884 32.9127 332.954 32.842C334.345 31.5282 336.38 31.5282 337.771 32.842C337.841 32.9127 337.881 33.0125 337.883 33.1179Z" fill="black"/>
<path fill-rule="evenodd" clip-rule="evenodd" d="M319.292 24.6821C319.292 24.049 318.814 23.5358 318.225 23.5358H317.158C316.569 23.5358 316.092 24.049 316.092 24.6821V34.616C316.092 35.2491 316.569 35.7622 317.158 35.7622H318.225C318.814 35.7622 319.292 35.2491 319.292 34.616V24.6821ZM311.857 25.9811H312.924C313.513 25.9811 313.991 26.5066 313.991 27.1548V34.5885C313.991 35.2367 313.513 35.7622 312.924 35.7622H311.857C311.268 35.7622 310.791 35.2367 310.791 34.5885V27.1548C310.791 26.5066 311.268 25.9811 311.857 25.9811ZM307.526 28.6302H306.459C305.87 28.6302 305.392 29.1623 305.392 29.8188V34.5736C305.392 35.23 305.87 35.7622 306.459 35.7622H307.526C308.115 35.7622 308.592 35.23 308.592 34.5736V29.8188C308.592 29.1623 308.115 28.6302 307.526 28.6302ZM302.225 31.0755H301.158C300.569 31.0755 300.092 31.6 300.092 32.2471V34.5905C300.092 35.2377 300.569 35.7622 301.158 35.7622H302.225C302.814 35.7622 303.292 35.2377 303.292 34.5905V32.2471C303.292 31.6 302.814 31.0755 302.225 31.0755Z" fill="black"/>
<path d="M36.2983 549.271V556.414H34.5635V555.193H31.1602V553.862H34.5635V552.475H31.3315C30.453 554.63 28.3812 556.028 25.2597 556.729L24.663 555.309C27.9779 554.619 29.6354 553.16 29.8785 551.276H25.4309V549.873H31.8066C31.8066 550.315 31.7735 550.735 31.7072 551.138H34.5635V549.271H36.2983ZM26.9945 558.343V556.967H36.2983V560.691H28.7514V561.856H36.663V563.249H27.0166V559.392H34.5525V558.343H26.9945ZM49.9669 549.271V563.381H48.3205V549.271H49.9669ZM37.5691 559.381C39.6078 558.133 40.5028 555.586 40.5028 553.127V552.188H38.0498V550.785H44.4586V552.188H42.1769V553.127C42.1713 555.508 43.0277 557.901 45.0498 559.061L44.0277 560.337C42.7183 559.564 41.8454 558.221 41.3592 556.613C40.8619 558.354 39.9614 559.84 38.6299 560.663L37.5691 559.381ZM43.431 555.597V554.193H45.4641V549.536H47.094V562.702H45.4641V555.597H43.431ZM62.0076 550.144V556.017H55.2065V550.144H62.0076ZM56.0463 562.022C58.759 561.779 60.4883 560.569 60.6485 559.448H56.6209V558.149H60.6872V556.906H62.4275V558.149H66.5104V559.448H62.4717C62.6319 560.541 64.3391 561.746 67.0407 562.022L66.4551 563.348C64.1623 563.105 62.4275 562.204 61.5656 561.028C60.6982 562.221 58.9413 563.094 56.643 563.348L56.0463 562.022ZM56.9137 554.657H60.2894V551.514H56.9137V554.657ZM64.4993 557.309V549.271H66.2175V557.309H64.4993ZM78.4295 554.243V556.099H84.0151V557.492H71.1477V556.099H76.7057V554.243H78.4295ZM71.8439 553.685C74.761 553.315 76.6781 551.718 76.6781 550.033V549.497H78.4461V550.033C78.4461 551.757 80.3411 553.315 83.2914 553.685L82.6174 555.055C80.2969 554.691 78.4516 553.646 77.5511 552.16C76.6505 553.641 74.7997 554.691 72.4792 555.055L71.8439 553.685ZM72.645 560.895C72.645 559.304 74.4848 558.398 77.5621 558.398C80.6284 558.398 82.4516 559.304 82.4571 560.895C82.4516 562.486 80.6284 563.376 77.5621 563.37C74.4848 563.376 72.645 562.486 72.645 560.895ZM74.4129 560.895C74.4019 561.663 75.4903 562.066 77.5621 562.061C79.6063 562.066 80.7113 561.663 80.7223 560.895C80.7113 560.116 79.6063 559.735 77.5621 559.735C75.4903 559.735 74.4019 560.116 74.4129 560.895ZM95.8274 549.95V551.05C95.8274 552.155 95.8274 553.398 95.4738 555.061H97.4075V556.464H84.4959V555.061H93.7224C94.0594 553.536 94.087 552.381 94.0925 551.348H86.0925V549.95H95.8274ZM86.0483 563.215V558.11H95.8053V563.215H86.0483ZM87.75 561.812H94.0815V559.47H87.75V561.812Z" fill="black"/>
<rect x="24" y="582" width="342" height="86" rx="12" fill="#31A9FF"/>
<path d="M101.636 617.12V619.68C101.636 620.151 101.254 620.533 100.783 620.533H98.223C97.7517 620.533 97.3696 620.151 97.3696 619.68V617.12C97.3696 616.649 97.7517 616.267 98.223 616.267H100.783C101.254 616.267 101.636 616.649 101.636 617.12Z" stroke="white" stroke-width="2" stroke-linecap="round" stroke-linejoin="round"/>
<path d="M97.3696 624.8H101.636" stroke="white" stroke-width="2" stroke-linecap="round" stroke-linejoin="round"/>
<path d="M110.17 624.8V629.067" stroke="white" stroke-width="2" stroke-linecap="round" stroke-linejoin="round"/>
<path d="M105.903 633.333H110.17" stroke="white" stroke-width="2" stroke-linecap="round" stroke-linejoin="round"/>
<path d="M105.903 624.815L105.916 624.8" stroke="white" stroke-width="2" stroke-linecap="round" stroke-linejoin="round"/>
<path d="M114.436 624.815L114.449 624.8" stroke="white" stroke-width="2" stroke-linecap="round" stroke-linejoin="round"/>
<path d="M105.903 629.081L105.916 629.067" stroke="white" stroke-width="2" stroke-linecap="round" stroke-linejoin="round"/>
<path d="M114.436 629.081L114.449 629.067" stroke="white" stroke-width="2" stroke-linecap="round" stroke-linejoin="round"/>
<path d="M114.436 633.348L114.449 633.333" stroke="white" stroke-width="2" stroke-linecap="round" stroke-linejoin="round"/>
<path d="M105.903 620.548L105.916 620.533" stroke="white" stroke-width="2" stroke-linecap="round" stroke-linejoin="round"/>
<path d="M105.903 616.282L105.916 616.267" stroke="white" stroke-width="2" stroke-linecap="round" stroke-linejoin="round"/>
<path d="M101.636 629.92V632.48C101.636 632.951 101.254 633.333 100.783 633.333H98.223C97.7517 633.333 97.3696 632.951 97.3696 632.48V629.92C97.3696 629.449 97.7517 629.067 98.223 629.067H100.783C101.254 629.067 101.636 629.449 101.636 629.92Z" stroke="white" stroke-width="2" stroke-linecap="round" stroke-linejoin="round"/>
<path d="M114.436 617.12V619.68C114.436 620.151 114.054 620.533 113.583 620.533H111.023C110.552 620.533 110.17 620.151 110.17 619.68V617.12C110.17 616.649 110.552 616.267 111.023 616.267H113.583C114.054 616.267 114.436 616.649 114.436 617.12Z" stroke="white" stroke-width="2" stroke-linecap="round" stroke-linejoin="round"/>
<path d="M114.436 612H118.703V616.267" stroke="white" stroke-width="2" stroke-linecap="round" stroke-linejoin="round"/>
<path d="M114.436 637.6H118.703V633.333" stroke="white" stroke-width="2" stroke-linecap="round" stroke-linejoin="round"/>
<path d="M97.3696 612H93.1029V616.267" stroke="white" stroke-width="2" stroke-linecap="round" stroke-linejoin="round"/>
<path d="M97.3696 637.6H93.1029V633.333" stroke="white" stroke-width="2" stroke-linecap="round" stroke-linejoin="round"/>
<path d="M137.39 627.781H139.935L141.272 629.513C142.153 628.594 142.677 627.143 142.677 625.221C142.677 621.666 140.892 619.744 138.355 619.744C135.81 619.744 134.025 621.666 134.025 625.221C134.025 628.776 135.81 630.698 138.355 630.698C138.757 630.698 139.145 630.653 139.509 630.554L137.39 627.781ZM131.214 625.221C131.214 620.192 134.26 617.229 138.355 617.229C142.426 617.229 145.496 620.192 145.496 625.221C145.496 628.039 144.531 630.212 142.966 631.572L145.116 634.345H142.388L141.105 632.704C140.261 633.038 139.342 633.213 138.355 633.213C134.26 633.213 131.214 630.235 131.214 625.221ZM148.009 633V617.442H153.828C157.406 617.442 159.313 619.448 159.313 622.418C159.313 624.53 158.348 626.095 156.51 626.831L159.883 633H156.753L153.699 627.295H150.797V633H148.009ZM150.797 624.97H153.418C155.514 624.97 156.456 624.074 156.456 622.418C156.456 620.762 155.514 619.782 153.403 619.782H150.797V624.97ZM177.419 622.691C177.1 620.823 175.611 619.744 173.719 619.744C171.167 619.744 169.366 621.704 169.366 625.221C169.366 628.799 171.182 630.698 173.704 630.698C175.565 630.698 177.054 629.665 177.419 627.842L180.252 627.857C179.819 630.827 177.358 633.213 173.674 633.213C169.564 633.213 166.556 630.235 166.556 625.221C166.556 620.192 169.602 617.229 173.674 617.229C177.107 617.229 179.766 619.227 180.252 622.691H177.419ZM196.542 625.221C196.542 630.25 193.473 633.213 189.402 633.213C185.307 633.213 182.261 630.235 182.261 625.221C182.261 620.192 185.307 617.229 189.402 617.229C193.473 617.229 196.542 620.192 196.542 625.221ZM185.071 625.221C185.071 628.776 186.857 630.698 189.402 630.698C191.939 630.698 193.724 628.776 193.724 625.221C193.724 621.666 191.939 619.744 189.402 619.744C186.857 619.744 185.071 621.666 185.071 625.221ZM204.299 633H199.034V617.442H204.398C209.039 617.442 211.835 620.359 211.835 625.206C211.835 630.068 209.039 633 204.299 633ZM201.822 630.577H204.162C207.413 630.577 209.062 628.784 209.062 625.206C209.062 621.635 207.413 619.865 204.246 619.865H201.822V630.577ZM214.331 633V617.442H224.435V619.797H217.119V624.036H223.903V626.383H217.119V630.645H224.488V633H214.331ZM240.804 621.719C240.667 620.382 239.551 619.607 237.864 619.607C236.094 619.607 235.038 620.465 235.038 621.643C235.023 622.942 236.406 623.489 237.689 623.793L239.148 624.157C241.473 624.704 243.714 625.927 243.714 628.632C243.714 631.367 241.549 633.235 237.819 633.235C234.203 633.235 231.908 631.503 231.787 628.419H234.537C234.658 630.045 236.033 630.843 237.796 630.843C239.642 630.843 240.91 629.946 240.918 628.609C240.91 627.401 239.786 626.877 238.115 626.444L236.345 625.988C233.785 625.335 232.197 624.044 232.205 621.81C232.189 619.06 234.636 617.229 237.902 617.229C241.207 617.229 243.448 619.09 243.501 621.719H240.804ZM256.524 622.691C256.205 620.823 254.716 619.744 252.825 619.744C250.272 619.744 248.472 621.704 248.472 625.221C248.472 628.799 250.287 630.698 252.809 630.698C254.671 630.698 256.16 629.665 256.524 627.842L259.358 627.857C258.925 630.827 256.464 633.213 252.779 633.213C248.669 633.213 245.661 630.235 245.661 625.221C245.661 620.192 248.707 617.229 252.779 617.229C256.213 617.229 258.872 619.227 259.358 622.691H256.524ZM263.535 633H260.542L266.027 617.442H269.476L274.961 633H271.975L270.684 629.148H264.827L263.535 633ZM265.579 626.9H269.924L267.812 620.617H267.691L265.579 626.9ZM289.599 617.442V633H287.115L279.746 622.372H279.617V633H276.829V617.442H279.344L286.682 628.077H286.819V617.442H289.599Z" fill="white"/>
<g filter="url(#filter0_d_36_930)">
<path d="M0 742C0 732.059 8.05888 724 18 724H372C381.941 724 390 732.059 390 742V844H0V742Z" fill="white"/>
</g>
<path d="M63.5 761L81.5 750L99.5 761" stroke="#31A9FF" stroke-width="2.5" stroke-linecap="round" stroke-linejoin="round"/>
<path d="M95.4998 768V780.8C95.4998 781.463 94.9626 782 94.2998 782H68.6998C68.037 782 67.4998 781.463 67.4998 780.8V768" stroke="#31A9FF" stroke-width="2.5" stroke-linecap="round" stroke-linejoin="round"/>
<path d="M77.4999 774H85.4999" stroke="#31A9FF" stroke-width="2.5" stroke-linecap="round" stroke-linejoin="round"/>
<path d="M61.0169 805.469H62.6575V800.516H64.3137V813.703H62.6575V806.875H61.0169V810.75H55.47V801.797H61.0169V805.469ZM59.3919 809.375V803.172H57.095V809.375H59.3919ZM65.5481 800.266H67.22V814.391H65.5481V800.266ZM80.1462 810.484H78.3962V800.281H80.1462V810.484ZM68.6306 804.734C68.6306 804.062 68.7973 803.458 69.1306 802.922C69.4692 802.385 69.9275 801.966 70.5056 801.664C71.089 801.357 71.7348 801.203 72.4431 801.203C73.1515 801.203 73.7947 801.357 74.3728 801.664C74.9561 801.966 75.4119 802.385 75.74 802.922C76.0733 803.458 76.24 804.062 76.24 804.734C76.24 805.417 76.0733 806.029 75.74 806.57C75.4119 807.107 74.9561 807.526 74.3728 807.828C73.7947 808.13 73.1515 808.281 72.4431 808.281C71.7348 808.281 71.089 808.13 70.5056 807.828C69.9275 807.526 69.4692 807.107 69.1306 806.57C68.7973 806.029 68.6306 805.417 68.6306 804.734ZM70.3337 804.734C70.3337 805.141 70.4223 805.497 70.5994 805.805C70.7817 806.112 71.0317 806.349 71.3494 806.516C71.6723 806.682 72.0369 806.766 72.4431 806.766C72.839 806.766 73.1957 806.682 73.5134 806.516C73.8311 806.349 74.0811 806.112 74.2634 805.805C74.4457 805.497 74.5369 805.141 74.5369 804.734C74.5369 804.339 74.4457 803.987 74.2634 803.68C74.0811 803.372 73.8285 803.135 73.5056 802.969C73.1879 802.802 72.8337 802.719 72.4431 802.719C72.0421 802.719 71.6801 802.802 71.3572 802.969C71.0343 803.135 70.7817 803.372 70.5994 803.68C70.4223 803.987 70.3337 804.339 70.3337 804.734ZM70.8025 809.453H72.5525V812.703H80.5369V814.109H70.8025V809.453ZM92.9006 806.094H94.885V807.547H92.9006V814.391H91.1506V800.266H92.9006V806.094ZM81.5569 810.469C83.0985 810.469 84.3017 810.458 85.1663 810.438V809.117C84.6558 809.029 84.2079 808.867 83.8225 808.633C83.4423 808.398 83.148 808.104 82.9397 807.75C82.7366 807.396 82.635 807 82.635 806.562C82.635 806.036 82.7782 805.573 83.0647 805.172C83.3511 804.771 83.7522 804.461 84.2678 804.242C84.7886 804.018 85.385 803.906 86.0569 803.906C86.7235 803.906 87.3147 804.018 87.8303 804.242C88.3511 804.461 88.7574 804.771 89.0491 805.172C89.3407 805.573 89.4892 806.036 89.4944 806.562C89.4892 807 89.3798 807.398 89.1663 807.758C88.9527 808.112 88.6506 808.406 88.26 808.641C87.8746 808.875 87.4267 809.034 86.9163 809.117V810.375C88.2652 810.302 89.4267 810.198 90.4006 810.062L90.51 811.328C89.1715 811.573 87.8043 811.732 86.4084 811.805C85.0126 811.872 83.4788 811.906 81.8069 811.906L81.5569 810.469ZM81.8225 801.891H85.1663V800.328H86.9163V801.891H90.2444V803.266H81.8225V801.891ZM84.2756 806.562C84.2704 806.958 84.4267 807.271 84.7444 807.5C85.0673 807.729 85.497 807.844 86.0334 807.844C86.5803 807.844 87.0152 807.732 87.3381 807.508C87.661 807.284 87.8225 806.969 87.8225 806.562C87.8225 806.156 87.661 805.836 87.3381 805.602C87.0152 805.362 86.5881 805.24 86.0569 805.234C85.5152 805.24 85.0803 805.362 84.7522 805.602C84.4293 805.836 84.2704 806.156 84.2756 806.562ZM102.327 802.578H105.171V800.281H106.905V810.562H105.171V807H102.327V808.219H95.6862V801.453H102.327V802.578ZM100.608 806.859V802.828H97.4206V806.859H100.608ZM97.5925 809.609H99.3581V812.703H107.217V814.109H97.5925V809.609ZM105.171 805.609V804H102.327V805.609H105.171Z" fill="#707070"/>
<path d="M201.75 784C203.158 784 204.3 782.858 204.3 781.45C204.3 780.042 203.158 778.9 201.75 778.9C200.342 778.9 199.2 780.042 199.2 781.45C199.2 782.858 200.342 784 201.75 784Z" stroke="#31A9FF" stroke-width="2.5" stroke-linecap="round" stroke-linejoin="round"/>
<path d="M184.75 784C186.158 784 187.3 782.858 187.3 781.45C187.3 780.042 186.158 778.9 184.75 778.9C183.342 778.9 182.2 780.042 182.2 781.45C182.2 782.858 183.342 784 184.75 784Z" stroke="#31A9FF" stroke-width="2.5" stroke-linecap="round" stroke-linejoin="round"/>
<path d="M177.1 753.4H206L202.6 772.1H180.5L177.1 753.4ZM177.1 753.4C176.817 752.267 175.4 750 172 750" stroke="#31A9FF" stroke-width="2.5" stroke-linecap="round" stroke-linejoin="round"/>
<path d="M202.6 772.1H180.5H177.492C174.459 772.1 172.85 773.428 172.85 775.5C172.85 777.572 174.459 778.9 177.492 778.9H201.75" stroke="#31A9FF" stroke-width="2.5" stroke-linecap="round" stroke-linejoin="round"/>
<path d="M174.753 803.656C174.748 804.505 174.881 805.333 175.152 806.141C175.428 806.948 175.824 807.672 176.339 808.312C176.86 808.948 177.477 809.438 178.191 809.781L177.128 811.172C176.378 810.792 175.727 810.25 175.175 809.547C174.628 808.844 174.201 808.031 173.894 807.109C173.576 808.094 173.128 808.964 172.55 809.719C171.977 810.469 171.295 811.042 170.503 811.438L169.441 810.047C170.175 809.698 170.811 809.19 171.347 808.523C171.889 807.852 172.3 807.094 172.582 806.25C172.868 805.401 173.014 804.536 173.019 803.656V801.406H174.753V803.656ZM179.035 800.266H180.769V805.797H182.941V807.281H180.769V814.391H179.035V800.266ZM195.93 808.453H183.055V807.062H186.055V805.273C185.513 805.044 185.099 804.755 184.812 804.406C184.526 804.052 184.383 803.646 184.383 803.188C184.383 802.63 184.589 802.151 185 801.75C185.417 801.344 186.008 801.034 186.773 800.82C187.539 800.607 188.44 800.5 189.477 800.5C190.513 800.5 191.411 800.607 192.172 800.82C192.938 801.034 193.529 801.344 193.945 801.75C194.362 802.151 194.57 802.63 194.57 803.188C194.565 803.646 194.417 804.052 194.125 804.406C193.839 804.76 193.424 805.049 192.883 805.273V807.062H195.93V808.453ZM184.555 811.828C184.555 811.292 184.75 810.836 185.141 810.461C185.531 810.081 186.094 809.794 186.828 809.602C187.568 809.404 188.451 809.307 189.477 809.312C190.487 809.307 191.357 809.404 192.086 809.602C192.82 809.794 193.383 810.081 193.773 810.461C194.169 810.836 194.367 811.292 194.367 811.828C194.367 812.37 194.172 812.828 193.781 813.203C193.391 813.583 192.828 813.87 192.094 814.062C191.365 814.26 190.492 814.359 189.477 814.359C188.445 814.359 187.562 814.26 186.828 814.062C186.094 813.87 185.531 813.583 185.141 813.203C184.75 812.828 184.555 812.37 184.555 811.828ZM186.195 803.188C186.19 803.609 186.466 803.935 187.023 804.164C187.586 804.388 188.385 804.5 189.422 804.5C190.495 804.5 191.32 804.388 191.898 804.164C192.482 803.94 192.773 803.615 192.773 803.188C192.773 802.76 192.487 802.43 191.914 802.195C191.346 801.961 190.549 801.844 189.523 801.844C188.456 801.844 187.633 801.961 187.055 802.195C186.477 802.424 186.19 802.755 186.195 803.188ZM186.32 811.828C186.315 812.224 186.578 812.526 187.109 812.734C187.641 812.943 188.411 813.047 189.422 813.047C190.458 813.047 191.25 812.945 191.797 812.742C192.349 812.534 192.628 812.229 192.633 811.828C192.628 811.438 192.354 811.141 191.812 810.938C191.271 810.734 190.492 810.63 189.477 810.625C188.445 810.63 187.659 810.734 187.117 810.938C186.581 811.141 186.315 811.438 186.32 811.828ZM191.148 807.062V805.719C190.622 805.792 190.065 805.828 189.477 805.828C188.888 805.828 188.331 805.792 187.805 805.719V807.062H191.148ZM208.247 814.406H206.512V807.188H203.778V805.781H206.512V800.266H208.247V814.406ZM196.372 810.375C197.085 810.052 197.702 809.591 198.223 808.992C198.744 808.393 199.14 807.724 199.411 806.984C199.687 806.245 199.825 805.5 199.825 804.75V804.016H196.793V802.625H199.84V800.562H201.575V802.625H204.528V804.016H201.559V804.75C201.554 805.469 201.689 806.182 201.965 806.891C202.247 807.599 202.65 808.24 203.176 808.812C203.708 809.385 204.335 809.833 205.059 810.156L204.122 811.484C203.335 811.151 202.65 810.654 202.067 809.992C201.484 809.326 201.03 808.56 200.708 807.695C200.39 808.617 199.939 809.43 199.356 810.133C198.778 810.836 198.096 811.365 197.309 811.719L196.372 810.375Z" fill="#707070"/>
<path d="M298.723 771.235H302.959M302.959 771.235H307.194M302.959 771.235V767M302.959 771.235V775.471" stroke="#31A9FF" stroke-width="2.5" stroke-linecap="round" stroke-linejoin="round"/>
<path d="M320.956 759.834L317.75 751.604C317.611 751.247 317.166 751 316.659 751H309L309.899 758.917C309.929 759.176 310.121 759.41 310.425 759.544C311.162 759.866 312.605 760.463 313.731 760.717C315.653 761.15 318.463 760.994 320.063 760.85C320.729 760.79 321.14 760.307 320.956 759.834Z" stroke="#31A9FF" stroke-width="2.5"/>
<path d="M306.525 760.531C307.525 760.293 308.794 759.749 309.505 759.425C309.843 759.271 310.029 758.98 309.996 758.678L309.168 751H296.832L296.004 758.678C295.971 758.98 296.157 759.271 296.495 759.425C297.206 759.749 298.475 760.293 299.475 760.531C302.107 761.156 303.894 761.156 306.525 760.531Z" stroke="#31A9FF" stroke-width="2.5"/>
<path d="M288.25 751.604L285.044 759.834C284.86 760.307 285.271 760.79 285.937 760.85C287.537 760.994 290.347 761.15 292.269 760.717C293.395 760.463 294.838 759.866 295.575 759.544C295.879 759.41 296.071 759.176 296.101 758.917L297 751H289.341C288.834 751 288.389 751.247 288.25 751.604Z" stroke="#31A9FF" stroke-width="2.5"/>
<path d="M288.043 761.5V779.444C288.043 781.408 289.635 783 291.599 783H314.487C316.451 783 318.043 781.408 318.043 779.444V761.5" stroke="#31A9FF" stroke-width="2.5"/>
<path d="M279.263 805.781H281.356V807.234H279.263V814.359H277.528V800.266H279.263V805.781ZM268.122 810.5C269.846 809.641 271.174 808.607 272.106 807.398C273.039 806.185 273.591 804.776 273.763 803.172H268.888V801.734H275.528C275.518 806.37 273.377 809.74 269.106 811.844L268.122 810.5ZM293.626 808.797H291.97V805.219H290.564V808.344H288.939V800.547H290.564V803.781H291.97V800.281H293.626V808.797ZM282.095 801.5H287.658V807.688H282.095V801.5ZM286.048 806.375V802.828H283.736V806.375H286.048ZM284.017 811.703C284.017 811.161 284.212 810.693 284.603 810.297C284.993 809.901 285.553 809.599 286.283 809.391C287.017 809.177 287.876 809.073 288.861 809.078C289.84 809.073 290.694 809.177 291.423 809.391C292.152 809.599 292.715 809.901 293.111 810.297C293.506 810.693 293.704 811.161 293.704 811.703C293.704 812.255 293.506 812.732 293.111 813.133C292.715 813.534 292.152 813.841 291.423 814.055C290.694 814.268 289.84 814.375 288.861 814.375C287.871 814.375 287.012 814.268 286.283 814.055C285.553 813.841 284.993 813.534 284.603 813.133C284.212 812.732 284.017 812.255 284.017 811.703ZM285.751 811.703C285.746 812.135 286.014 812.466 286.556 812.695C287.098 812.919 287.866 813.031 288.861 813.031C289.84 813.031 290.598 812.919 291.134 812.695C291.676 812.466 291.949 812.135 291.954 811.703C291.949 811.286 291.676 810.969 291.134 810.75C290.592 810.526 289.835 810.411 288.861 810.406C287.871 810.411 287.103 810.526 286.556 810.75C286.014 810.969 285.746 811.286 285.751 811.703ZM306.724 808.469H304.99V805.047H302.553V803.625H304.99V800.266H306.724V808.469ZM294.865 807.062C295.594 806.823 296.217 806.471 296.732 806.008C297.253 805.544 297.646 805.016 297.912 804.422C298.183 803.823 298.318 803.208 298.318 802.578V802.469H295.381V801.062H303.006V802.469H300.084V802.594C300.084 803.172 300.211 803.734 300.467 804.281C300.722 804.828 301.099 805.323 301.599 805.766C302.099 806.203 302.704 806.542 303.412 806.781L302.537 808.156C301.766 807.891 301.099 807.505 300.537 807C299.98 806.49 299.542 805.891 299.224 805.203C298.901 805.964 298.446 806.622 297.857 807.18C297.274 807.737 296.573 808.151 295.756 808.422L294.865 807.062ZM297.334 809.078H306.724V814.219H297.334V809.078ZM305.021 812.812V810.453H299.068V812.812H305.021ZM323.327 810.594H321.577V800.281H323.327V810.594ZM311.577 807.266C312.316 807.005 312.947 806.628 313.468 806.133C313.988 805.633 314.379 805.065 314.639 804.43C314.905 803.789 315.035 803.125 315.03 802.438V801.062H316.827V802.438C316.822 803.104 316.947 803.74 317.202 804.344C317.462 804.948 317.848 805.484 318.358 805.953C318.869 806.417 319.488 806.771 320.218 807.016L319.327 808.391C318.535 808.115 317.853 807.708 317.28 807.172C316.707 806.63 316.262 805.992 315.944 805.258C315.626 806.049 315.173 806.737 314.585 807.32C313.996 807.904 313.296 808.344 312.483 808.641L311.577 807.266ZM313.983 809.609H315.733V812.703H323.718V814.109H313.983V809.609ZM329.987 803.281C329.982 803.802 330.112 804.307 330.378 804.797C330.649 805.281 331.042 805.714 331.558 806.094C332.073 806.474 332.691 806.76 333.409 806.953L332.597 808.297C331.8 808.078 331.107 807.745 330.519 807.297C329.935 806.844 329.48 806.305 329.152 805.68C328.834 806.388 328.381 807 327.792 807.516C327.204 808.031 326.498 808.411 325.675 808.656L324.862 807.312C325.581 807.094 326.196 806.779 326.706 806.367C327.217 805.951 327.602 805.477 327.862 804.945C328.123 804.414 328.253 803.859 328.253 803.281V803.203H325.3V801.828H328.253V800.203H330.003V801.828H332.941V803.203H329.987V803.281ZM327.159 811.719C327.154 811.167 327.344 810.695 327.73 810.305C328.115 809.909 328.667 809.609 329.386 809.406C330.11 809.198 330.967 809.094 331.956 809.094C332.951 809.094 333.808 809.198 334.527 809.406C335.251 809.609 335.808 809.909 336.198 810.305C336.589 810.695 336.784 811.167 336.784 811.719C336.784 812.271 336.589 812.747 336.198 813.148C335.808 813.549 335.251 813.854 334.527 814.062C333.803 814.271 332.946 814.375 331.956 814.375C330.967 814.375 330.11 814.268 329.386 814.055C328.667 813.846 328.115 813.542 327.73 813.141C327.344 812.745 327.154 812.271 327.159 811.719ZM328.878 811.719C328.873 812.135 329.139 812.458 329.675 812.688C330.217 812.917 330.977 813.031 331.956 813.031C332.951 813.031 333.714 812.919 334.245 812.695C334.782 812.466 335.05 812.141 335.05 811.719C335.05 811.297 334.784 810.977 334.253 810.758C333.727 810.539 332.961 810.427 331.956 810.422C330.967 810.427 330.204 810.542 329.667 810.766C329.136 810.984 328.873 811.302 328.878 811.719ZM332.519 804.141H335.003V800.266H336.737V808.812H335.003V805.547H332.519V804.141Z" fill="#707070"/>
</g>
<defs>
<filter id="filter0_d_36_930" x="-30" y="680" width="450" height="180" filterUnits="userSpaceOnUse" color-interpolation-filters="sRGB">
<feFlood flood-opacity="0" result="BackgroundImageFix"/>
<feColorMatrix in="SourceAlpha" type="matrix" values="0 0 0 0 0 0 0 0 0 0 0 0 0 0 0 0 0 0 127 0" result="hardAlpha"/>
<feOffset dy="-14"/>
<feGaussianBlur stdDeviation="15"/>
<feComposite in2="hardAlpha" operator="out"/>
<feColorMatrix type="matrix" values="0 0 0 0 0 0 0 0 0 0 0 0 0 0 0 0 0 0 0.1 0"/>
<feBlend mode="normal" in2="BackgroundImageFix" result="effect1_dropShadow_36_930"/>
<feBlend mode="normal" in="SourceGraphic" in2="effect1_dropShadow_36_930" result="shape"/>
</filter>
<clipPath id="clip0_36_930">
<rect width="390" height="844" fill="white"/>
</clipPath>
</defs>
</svg>
