<svg width="390" height="844" viewBox="0 0 390 844" fill="none" xmlns="http://www.w3.org/2000/svg">
<rect width="390" height="844" fill="white"/>
<path d="M32.5165 23.1565C31.6653 23.1565 30.9047 23.3377 30.2347 23.7001C29.5702 24.0571 29.0485 24.5513 28.6696 25.1829C28.2962 25.8089 28.1094 26.5256 28.1094 27.3328V27.3493C28.1094 28.0962 28.2742 28.7661 28.6037 29.3592C28.9387 29.9523 29.3972 30.4191 29.9793 30.7596C30.5615 31.1001 31.2314 31.2703 31.9893 31.2703C32.5384 31.2703 33.0162 31.1879 33.4226 31.0232C33.8345 30.8584 34.1804 30.6415 34.4605 30.3724C34.7406 30.1033 34.952 29.8123 35.0948 29.4993H35.3831V27.3081H34.8888V27.3246C34.8888 27.7694 34.7845 28.1676 34.5758 28.519C34.3671 28.8705 34.0843 29.1451 33.7274 29.3428C33.3704 29.5405 32.9668 29.6393 32.5165 29.6393C32.0662 29.6393 31.6653 29.5377 31.3138 29.3345C30.9623 29.1313 30.685 28.854 30.4818 28.5025C30.2786 28.1456 30.177 27.7365 30.177 27.2752V27.2587C30.177 26.8139 30.2841 26.413 30.4983 26.056C30.7125 25.6936 30.998 25.408 31.355 25.1993C31.7119 24.9907 32.1046 24.8863 32.5329 24.8863C32.9778 24.8863 33.3759 24.9934 33.7274 25.2076C34.0843 25.4218 34.3671 25.7128 34.5758 26.0807C34.7845 26.4487 34.8888 26.8578 34.8888 27.3081L35.2595 29.2933C35.2595 29.3702 35.2595 29.4498 35.2595 29.5322C35.2595 29.6091 35.2568 29.6887 35.2513 29.7711C35.2238 30.5289 35.1085 31.2209 34.9053 31.8469C34.7076 32.4675 34.4083 32.9645 34.0074 33.3379C33.612 33.7058 33.1013 33.8898 32.4753 33.8898C32.1293 33.8898 31.8163 33.8349 31.5362 33.7251C31.2616 33.6097 31.0255 33.4477 30.8278 33.2391C30.6356 33.0304 30.4873 32.7887 30.383 32.5142L30.35 32.4318H28.266L28.2824 32.5224C28.4142 33.1265 28.6696 33.6647 29.0485 34.1369C29.4329 34.6037 29.9162 34.9717 30.4983 35.2408C31.0859 35.5043 31.7449 35.6361 32.4753 35.6361C33.4693 35.6361 34.3232 35.3835 35.0371 34.8783C35.7565 34.3676 36.3084 33.6372 36.6928 32.6872C37.0772 31.7371 37.2695 30.5948 37.2695 29.2604V29.2439C37.2695 28.1676 37.1431 27.2477 36.8905 26.4844C36.6379 25.7156 36.2892 25.0868 35.8444 24.598C35.4051 24.1038 34.8998 23.7413 34.3287 23.5107C33.7576 23.2745 33.1535 23.1565 32.5165 23.1565ZM41.0092 33.7415C41.3882 33.7415 41.7012 33.618 41.9483 33.3709C42.1954 33.1182 42.319 32.8107 42.319 32.4483C42.319 32.0803 42.1954 31.7728 41.9483 31.5257C41.7012 31.2731 41.3882 31.1468 41.0092 31.1468C40.6358 31.1468 40.3228 31.2731 40.0702 31.5257C39.8231 31.7728 39.6995 32.0803 39.6995 32.4483C39.6995 32.8107 39.8231 33.1182 40.0702 33.3709C40.3228 33.618 40.6358 33.7415 41.0092 33.7415ZM41.0092 27.6294C41.3882 27.6294 41.7012 27.5058 41.9483 27.2587C42.1954 27.0061 42.319 26.6986 42.319 26.3361C42.319 25.9682 42.1954 25.6606 41.9483 25.4135C41.7012 25.1609 41.3882 25.0346 41.0092 25.0346C40.6358 25.0346 40.3228 25.1609 40.0702 25.4135C39.8231 25.6606 39.6995 25.9682 39.6995 26.3361C39.6995 26.6986 39.8231 27.0061 40.0702 27.2587C40.3228 27.5058 40.6358 27.6294 41.0092 27.6294ZM50.5152 35.3396H52.5416V33.0578H54.1479V31.3033H52.5416V23.453H49.5514C49.2219 23.9418 48.8924 24.4442 48.563 24.9605C48.2389 25.4712 47.9122 25.9901 47.5827 26.5173C47.2587 27.039 46.9319 27.569 46.6024 28.1071C46.2784 28.6398 45.9572 29.1753 45.6387 29.7134C45.3256 30.2516 45.0126 30.7871 44.6996 31.3197V33.0578H50.5152V35.3396ZM46.6766 31.3527V31.2291C46.9072 30.8227 47.1461 30.4136 47.3932 30.0018C47.6404 29.5844 47.8902 29.1698 48.1428 28.7579C48.3955 28.3405 48.6508 27.9259 48.9089 27.5141C49.167 27.1022 49.4224 26.6986 49.675 26.3032C49.9331 25.9078 50.183 25.5233 50.4246 25.1499H50.5482V31.3527H46.6766ZM59.0657 35.3396H61.1827V23.453H59.0657L55.9602 25.6359V27.6294L58.9174 25.5453H59.0657V35.3396Z" fill="black"/>
<rect opacity="0.35" x="351.592" y="23.5" width="24" height="12" rx="3.8" stroke="black"/>
<path opacity="0.4" d="M377.092 27.7811V31.8566C377.896 31.5114 378.42 30.7085 378.42 29.8189C378.42 28.9293 377.896 28.1263 377.092 27.7811Z" fill="black"/>
<rect x="353.092" y="25" width="21" height="9" rx="2.5" fill="black"/>
<path fill-rule="evenodd" clip-rule="evenodd" d="M335.362 26.104C337.849 26.1041 340.241 27.0262 342.044 28.6797C342.179 28.8074 342.396 28.8058 342.53 28.6761L343.828 27.4126C343.895 27.3469 343.933 27.2578 343.932 27.1651C343.932 27.0724 343.893 26.9838 343.825 26.9188C339.094 22.5441 331.63 22.5441 326.899 26.9188C326.83 26.9837 326.791 27.0724 326.791 27.165C326.79 27.2577 326.828 27.3468 326.896 27.4126L328.193 28.6761C328.327 28.8059 328.544 28.8076 328.68 28.6797C330.482 27.0261 332.875 26.104 335.362 26.104ZM335.359 30.3243C336.716 30.3242 338.025 30.836 339.031 31.7601C339.167 31.8913 339.382 31.8884 339.514 31.7537L340.801 30.4344C340.869 30.3652 340.907 30.2713 340.906 30.1738C340.905 30.0762 340.865 29.9831 340.796 29.9153C337.732 27.0245 332.988 27.0245 329.924 29.9153C329.855 29.9831 329.815 30.0762 329.814 30.1738C329.813 30.2714 329.851 30.3653 329.919 30.4344L331.206 31.7537C331.339 31.8884 331.553 31.8913 331.689 31.7601C332.695 30.8366 334.002 30.3249 335.359 30.3243ZM337.883 33.1179C337.885 33.2232 337.848 33.3248 337.781 33.3986L335.604 35.8533C335.54 35.9255 335.453 35.9661 335.363 35.9661C335.272 35.9661 335.185 35.9255 335.121 35.8533L332.944 33.3986C332.877 33.3247 332.84 33.2231 332.842 33.1178C332.844 33.0124 332.884 32.9127 332.954 32.842C334.345 31.5282 336.38 31.5282 337.771 32.842C337.841 32.9127 337.881 33.0125 337.883 33.1179Z" fill="black"/>
<path fill-rule="evenodd" clip-rule="evenodd" d="M319.292 24.6821C319.292 24.049 318.814 23.5358 318.225 23.5358H317.158C316.569 23.5358 316.092 24.049 316.092 24.6821V34.616C316.092 35.2491 316.569 35.7622 317.158 35.7622H318.225C318.814 35.7622 319.292 35.2491 319.292 34.616V24.6821ZM311.857 25.9811H312.924C313.513 25.9811 313.991 26.5066 313.991 27.1548V34.5885C313.991 35.2367 313.513 35.7622 312.924 35.7622H311.857C311.268 35.7622 310.791 35.2367 310.791 34.5885V27.1548C310.791 26.5066 311.268 25.9811 311.857 25.9811ZM307.526 28.6302H306.459C305.87 28.6302 305.392 29.1623 305.392 29.8188V34.5736C305.392 35.23 305.87 35.7622 306.459 35.7622H307.526C308.115 35.7622 308.592 35.23 308.592 34.5736V29.8188C308.592 29.1623 308.115 28.6302 307.526 28.6302ZM302.225 31.0755H301.158C300.569 31.0755 300.092 31.6 300.092 32.2471V34.5905C300.092 35.2377 300.569 35.7622 301.158 35.7622H302.225C302.814 35.7622 303.292 35.2377 303.292 34.5905V32.2471C303.292 31.6 302.814 31.0755 302.225 31.0755Z" fill="black"/>
<path d="M40 88L32 80L40 72" stroke="#707070" stroke-width="2" stroke-linecap="round" stroke-linejoin="round"/>
<path d="M160.173 69.5732V79.3729H158.137V77.5269H153.245V75.9392H158.137V73.8425H153.503C152.303 76.828 149.401 78.8108 145.132 79.7983L144.417 78.1271C149.044 77.1015 151.536 74.9668 151.862 72.1333H145.435V70.4696H154.118C154.118 71.0925 154.065 71.6851 153.959 72.2472H158.137V69.5732H160.173ZM147.585 81.8115V80.1782H160.173V85.0628H149.652V86.9924H160.75V88.6409H147.623V83.5283H158.13V81.8115H147.585ZM179.21 69.5732V88.8232H177.273V69.5732H179.21ZM162.414 83.5283C165.141 81.8722 166.531 78.3702 166.531 74.9441V73.4019H163.006V71.7383H171.819V73.4019H168.499V74.9441C168.499 78.241 169.828 81.5304 172.533 83.0877L171.317 84.5919C169.471 83.4903 168.21 81.5304 167.542 79.2058C166.858 81.7203 165.551 83.8702 163.675 85.0401L162.414 83.5283ZM170.383 78.0511V76.395H173.383V69.9834H175.305V87.8508H173.383V78.0511H170.383ZM196.364 70.7963V78.7196H187.202V70.7963H196.364ZM188.471 87.1975C191.996 86.8481 194.738 85.0856 194.852 83.3612H189.261V81.8115H194.898V80.0262H196.934V81.8115H202.593V83.3612H196.972C197.086 85.0477 199.775 86.7949 203.292 87.1975L202.593 88.77C199.577 88.4054 197.086 87.1064 195.923 85.4123C194.746 87.1291 192.216 88.3978 189.185 88.77L188.471 87.1975ZM189.208 77.1091H194.351V72.422H189.208V77.1091ZM200.132 80.5808V69.5732H202.145V80.5808H200.132ZM219.474 76.3267V79.0159H227.26V80.6568H209.712V79.0159H217.468V76.3267H219.474ZM210.715 75.7721C214.407 75.2859 217.43 73.1209 217.43 70.6899V69.8771H219.497V70.6899C219.497 73.1512 222.512 75.2859 226.235 75.7721L225.422 77.3826C222.376 76.8888 219.686 75.3999 218.463 73.2804C217.233 75.4075 214.544 76.8888 211.467 77.3826L210.715 75.7721ZM211.786 85.4503C211.786 83.2928 214.285 82.0773 218.463 82.0773C222.634 82.0773 225.103 83.2928 225.118 85.4503C225.103 87.6001 222.634 88.7928 218.463 88.7928C214.285 88.7928 211.786 87.6001 211.786 85.4503ZM213.86 85.4503C213.845 86.605 215.501 87.2431 218.463 87.2279C221.403 87.2431 223.067 86.605 223.082 85.4503C223.067 84.2804 221.403 83.6575 218.463 83.6575C215.501 83.6575 213.845 84.2804 213.86 85.4503ZM243.669 70.5532V72.0117C243.669 73.5159 243.669 75.2403 243.168 77.5801H245.902V79.2438H228.286V77.5801H241.116C241.618 75.3239 241.641 73.6754 241.641 72.2093H230.489V70.5532H243.669ZM230.428 88.5801V81.6899H243.692V88.5801H230.428ZM232.426 86.924H241.671V83.2928H232.426V86.924Z" fill="black"/>
<rect x="24" y="165" width="83" height="29" rx="12" fill="#31A9FF"/>
<path d="M51.6651 183.569V184.642H40.4544V183.569H45.3854V181.055H41.7307V174.747H43.0311V176.859H49.0449V174.747H50.3356V181.055H46.6713V183.569H51.6651ZM43.0311 180.001H49.0449V177.903H43.0311V180.001ZM62.6244 173.91V186.16H61.3675V179.89H59.806V185.532H58.5878V174.162H59.806V178.812H61.3675V173.91H62.6244ZM52.7045 183.047V175.356H54.0049V181.906C55.1361 181.887 56.3688 181.8 57.7563 181.529L57.9013 182.66C56.219 182.965 54.817 183.047 53.4973 183.047H52.7045ZM73.7287 177.497V178.537H65.2881V174.355H66.574V177.497H73.7287ZM63.7943 181.118V180.079H75.0049V181.118H63.7943ZM65.1962 185.87V182.283H66.487V184.811H73.806V185.87H65.1962ZM89.6825 180.325V181.369H84.8241V183.622H83.5382V181.369H78.4719V180.325H89.6825ZM79.869 185.909V182.549H81.1549V184.845H88.4401V185.909H79.869ZM79.9512 179.242V174.302H81.2419V175.776H86.9173V174.302H88.2081V179.242H79.9512ZM81.2419 178.203H86.9173V176.758H81.2419V178.203Z" fill="white"/>
<path d="M126.89 173.287C126.89 176.79 124.315 179.287 120.215 180.37L119.718 179.409C123.155 178.497 125.32 176.657 125.58 174.282H120.459V173.287H126.89ZM121.994 186.072V180.901H131.033V186.072H121.994ZM123.21 185.077H129.829V181.884H123.21V185.077ZM129.807 180.238V172.392H131.033V180.238H129.807ZM145.259 172.381V186.271H144.088V178.978H142.055V185.541H140.917V172.691H142.055V177.961H144.088V172.381H145.259ZM133.9 182.834V174.083H139.104V175.088H135.126V181.785C137.044 181.779 138.364 181.702 139.9 181.387L140.01 182.414C138.342 182.768 136.928 182.823 134.795 182.834H133.9ZM158.203 173.287V174.503C158.203 175.818 158.203 177.254 157.805 179.254H159.883V180.271H154.137V186.293H152.91V180.271H147.22V179.254H156.557C156.988 177.26 156.988 175.796 156.988 174.503V174.304H148.811V173.287H158.203Z" fill="black"/>
<rect x="24" y="206" width="83" height="29" rx="12" fill="#31A9FF"/>
<path d="M56.0794 214.91V217.811H57.8536V218.889H56.0794V222.065H54.779V214.91H56.0794ZM46.9233 221.354V215.611H48.2044V217.385H51.4144V215.611H52.7003V221.354H46.9233ZM48.2044 220.32H51.4144V218.41H48.2044V220.32ZM48.2721 226.991V222.703H56.1664V223.738H49.5725V225.952H56.3985V226.991H48.2721ZM68.0491 218.497V219.537H59.6085V215.355H60.8944V218.497H68.0491ZM58.1147 222.118V221.079H69.3253V222.118H58.1147ZM59.5166 226.87V223.283H60.8074V225.811H68.1264V226.87H59.5166ZM84.0029 221.325V222.369H79.1445V224.622H77.8586V222.369H72.7923V221.325H84.0029ZM74.1894 226.909V223.549H75.4753V225.845H82.7605V226.909H74.1894ZM74.2716 220.242V215.302H75.5623V216.776H81.2377V215.302H82.5285V220.242H74.2716ZM75.5623 219.203H81.2377V217.758H75.5623V219.203Z" fill="white"/>
<path d="M131.431 213.381V227.271H130.26V219.978H128.227V226.541H127.088V213.691H128.227V218.961H130.26V213.381H131.431ZM120.072 223.834V215.083H125.276V216.088H121.298V222.785C123.215 222.779 124.536 222.702 126.072 222.387L126.182 223.414C124.514 223.768 123.099 223.823 120.967 223.834H120.072ZM144.375 214.287V215.503C144.375 216.818 144.375 218.254 143.977 220.254H146.055V221.271H140.309V227.293H139.082V221.271H133.392V220.254H142.729C143.16 218.26 143.16 216.796 143.16 215.503V215.304H134.983V214.287H144.375ZM158.667 213.381V227.271H157.441V213.381H158.667ZM147.496 223.624C149.562 222.685 151.142 220.343 151.142 217.901V216.796H147.872V215.801H151.131V213.635H152.347V215.801H155.573V216.796H152.347V217.901C152.347 220.232 153.971 222.486 156.06 223.37L155.374 224.331C153.772 223.619 152.413 222.11 151.767 220.276C151.137 222.221 149.794 223.818 148.192 224.575L147.496 223.624ZM168.418 214.442C168.407 218.055 166.484 220.773 161.921 222.243L161.446 221.238C163.838 220.492 165.385 219.403 166.258 218.066L161.556 218.431L161.346 217.414L166.722 217.171C166.943 216.63 167.076 216.061 167.125 215.459H162.042V214.442H168.418ZM163.545 227.05V222.762H164.772V226.044H172.948V227.05H163.545ZM171.291 223.481V213.392H172.518V223.481H171.291Z" fill="black"/>
<path d="M38.1647 311.262V312.566H24.5518V311.262H30.5394V308.21H26.1015V300.549H27.6806V303.115H34.9831V300.549H36.5504V308.21H32.1008V311.262H38.1647ZM27.6806 306.93H34.9831V304.383H27.6806V306.93ZM51.4079 299.546V307.147H49.9168V303.978H48.0619V307.106H46.5826V299.821H48.0619V302.704H49.9168V299.546H51.4079ZM39.421 306.402V300.379H41.0001V305.11C42.4793 305.105 43.9058 305.011 45.5553 304.694L45.7138 305.979C43.7649 306.343 42.1565 306.408 40.3837 306.402H39.421ZM41.4345 309.038V307.77H51.4079V311.521H43.0429V312.959H51.9773V314.221H41.4638V310.335H49.8464V309.038H41.4345ZM58.2534 313H56.3163L60.6367 300.978H62.7558L67.0763 313H65.1333L64.0355 309.824H59.3512L58.2534 313ZM59.8795 308.292H63.5072L61.7403 303.173H61.6464L59.8795 308.292ZM77.7975 300.978V313H76.1186L70.0254 304.218H69.9138V313H68.0882V300.978H69.7847L75.8779 309.777H75.9895V300.978H77.7975ZM83.6342 313H79.7306V300.978H83.7516C87.2972 300.978 89.4105 303.232 89.4105 306.971C89.4105 310.728 87.2972 313 83.6342 313ZM81.5562 311.403H83.5344C86.2641 311.403 87.6083 309.818 87.6083 306.971C87.6083 304.142 86.2641 302.575 83.6401 302.575H81.5562V311.403ZM105.998 307.153V308.421H101.496V311.327H107.542V312.613H93.9291V311.327H99.9166V308.421H95.6373V300.69H105.851V301.976H97.2281V303.878H105.523V305.14H97.2281V307.153H105.998ZM119.999 300.291V301.594C119.999 303.027 119.999 304.6 119.588 306.783H121.695V308.069H108.111V306.783H117.991C118.167 305.921 118.273 305.152 118.337 304.441L109.632 304.829L109.444 303.52L118.408 303.267C118.431 302.674 118.431 302.123 118.431 301.594V301.571H109.814V300.291H119.999ZM109.784 314.104V309.431H111.358V312.812H120.286V314.104H109.784ZM136.147 301.753V303.074H133.981V304.893H136.147V306.208H133.981V308.539H132.402V299.546H133.981V301.753H136.147ZM122.881 301.723V300.455H129.661V304.606H124.478V306.42C127.06 306.425 128.892 306.326 131.058 305.962L131.222 307.241C128.921 307.646 126.955 307.734 124.102 307.729H122.91V303.402H128.117V301.723H122.881ZM124.166 311.662C124.166 309.93 126.062 308.903 129.156 308.897C132.214 308.903 134.116 309.93 134.116 311.662C134.116 313.387 132.214 314.379 129.156 314.379C126.062 314.379 124.166 313.387 124.166 311.662ZM125.716 311.662C125.704 312.624 126.984 313.182 129.156 313.17C131.316 313.182 132.572 312.624 132.572 311.662C132.572 310.693 131.316 310.135 129.156 310.135C126.984 310.135 125.704 310.693 125.716 311.662Z" fill="black"/>
<rect x="24" y="325" width="342" height="68" rx="12" fill="#F1F1F1"/>
<path d="M217.624 351.028V368H214.557V354.003H214.458L210.488 356.539V353.746L214.698 351.028H217.624ZM228.009 368.323C223.916 368.315 221.479 365.091 221.487 359.53C221.487 353.986 223.94 350.796 228.009 350.796C232.07 350.796 234.532 353.994 234.532 359.53C234.523 365.108 232.095 368.323 228.009 368.323ZM224.562 359.53C224.562 363.608 225.88 365.738 228.009 365.738C230.131 365.738 231.449 363.608 231.449 359.53C231.44 355.478 230.123 353.34 228.009 353.34C225.888 353.34 224.57 355.478 224.562 359.53ZM239.855 366.309L237.9 372.881H235.67L236.872 366.309H239.855ZM248.681 368.323C244.587 368.315 242.151 365.091 242.159 359.53C242.159 353.986 244.612 350.796 248.681 350.796C252.742 350.796 255.203 353.994 255.203 359.53C255.195 365.108 252.767 368.323 248.681 368.323ZM245.234 359.53C245.234 363.608 246.552 365.738 248.681 365.738C250.803 365.738 252.121 363.608 252.121 359.53C252.112 355.478 250.795 353.34 248.681 353.34C246.56 353.34 245.242 355.478 245.234 359.53ZM264.009 368.323C259.916 368.315 257.479 365.091 257.487 359.53C257.487 353.986 259.94 350.796 264.009 350.796C268.07 350.796 270.532 353.994 270.532 359.53C270.523 365.108 268.095 368.323 264.009 368.323ZM260.562 359.53C260.562 363.608 261.88 365.738 264.009 365.738C266.131 365.738 267.449 363.608 267.449 359.53C267.44 355.478 266.123 353.34 264.009 353.34C261.888 353.34 260.57 355.478 260.562 359.53ZM279.338 368.323C275.244 368.315 272.807 365.091 272.816 359.53C272.816 353.986 275.269 350.796 279.338 350.796C283.398 350.796 285.86 353.994 285.86 359.53C285.851 365.108 283.423 368.323 279.338 368.323ZM275.89 359.53C275.89 363.608 277.208 365.738 279.338 365.738C281.459 365.738 282.777 363.608 282.777 359.53C282.769 355.478 281.451 353.34 279.338 353.34C277.216 353.34 275.898 355.478 275.89 359.53Z" fill="black"/>
<path d="M303.508 368H301.76L307.934 351.028H309.732L315.906 368H314.149L312.359 362.953H305.307L303.508 368ZM305.829 361.47H311.829L308.887 353.182H308.779L305.829 361.47ZM331.626 351.028V368H330.026L320.164 354.011H320.023V368H318.358V351.028H319.974L329.852 365.041H329.993V351.028H331.626ZM340.693 368H335.654V351.028H340.975C345.848 351.028 348.732 354.202 348.732 359.472C348.723 364.809 345.815 368 340.693 368ZM337.32 366.508H340.602C344.911 366.508 347.107 363.856 347.099 359.472C347.099 355.138 344.953 352.519 340.875 352.519H337.32V366.508Z" fill="#707070"/>
<path d="M36.6951 408.469V409.256H34.5145V416.14H33.5874V403.217H34.5145V408.469H36.6951ZM25.1447 412.814V404.506H26.0563V412.032H26.1443C28.0919 412.032 30.0445 411.887 32.2303 411.431L32.3546 412.234C30.1015 412.68 28.1281 412.819 26.1443 412.814H25.1447ZM41.3257 404.19C43.3509 404.19 44.7649 405.397 44.7753 407.179C44.7649 408.961 43.3509 410.167 41.3257 410.167C39.2901 410.167 37.8554 408.961 37.8657 407.179C37.8554 405.397 39.2901 404.19 41.3257 404.19ZM37.1613 412.431C39.5698 412.441 42.8951 412.426 45.7801 411.985L45.863 412.68C42.8692 413.239 39.6527 413.244 37.3012 413.244L37.1613 412.431ZM38.7722 407.179C38.7618 408.443 39.834 409.354 41.3257 409.354C42.7967 409.354 43.8637 408.443 43.8688 407.179C43.8637 405.91 42.7967 405.009 41.3257 405.003C39.834 405.009 38.7618 405.91 38.7722 407.179ZM46.6762 416.16V403.217H47.6033V416.16H46.6762ZM62.8442 403.232V406.267H64.859V407.065H62.8442V410.535H61.917V403.232H62.8442ZM53.4433 409.432V403.885H54.3756V408.645H54.4481C56.3646 408.645 58.3017 408.5 60.4668 408.059L60.5859 408.847C58.3587 409.297 56.4267 409.437 54.4481 409.432H53.4433ZM54.7434 415.948V411.281H62.8442V415.948H54.7434ZM55.6394 415.181H61.9429V412.027H55.6394V415.181ZM77.0725 410.095V410.862H65.2942V410.095H77.0725ZM66.6409 406.221C66.6409 404.62 68.3915 403.677 71.173 403.683C73.944 403.677 75.6999 404.62 75.6999 406.221C75.6999 407.826 73.944 408.774 71.173 408.774C68.3915 408.774 66.6409 407.826 66.6409 406.221ZM66.848 415.834V412.089H67.7804V415.052H75.7672V415.834H66.848ZM67.5939 406.221C67.5835 407.319 69.0079 408.002 71.173 408.002C73.3432 408.002 74.7624 407.319 74.7624 406.221C74.7624 405.138 73.3432 404.449 71.173 404.444C69.0079 404.449 67.5835 405.138 67.5939 406.221ZM81.7885 415H80.6956L84.5544 404.392H85.6783L89.5371 415H88.439L87.3203 411.846H82.9125L81.7885 415ZM83.2388 410.919H86.9888L85.15 405.739H85.0827L83.2388 410.919ZM98.9118 404.392V415H97.9122L91.7485 406.257H91.6605V415H90.6194V404.392H91.6294L97.8034 413.151H97.8915V404.392H98.9118ZM104.129 415H100.98V404.392H104.305C107.351 404.392 109.153 406.376 109.153 409.67C109.148 413.006 107.33 415 104.129 415ZM102.021 414.068H104.072C106.765 414.068 108.138 412.41 108.133 409.67C108.133 406.961 106.791 405.325 104.243 405.325H102.021V414.068ZM123.69 410.043V410.815H119.593V413.679H125.084V414.461H113.248V413.679H118.671V410.815H114.823V404.335H123.535V405.112H115.755V407.127H123.266V407.894H115.755V410.043H123.69ZM135.997 403.936V405.009C135.997 406.231 135.997 407.65 135.624 409.644H137.582V410.421H125.762V409.644H134.687C134.873 408.728 134.972 407.925 135.023 407.21L127.114 407.583L126.985 406.785L135.065 406.511C135.086 405.967 135.086 405.47 135.086 405.009V404.719H127.285V403.936H135.997ZM127.306 415.834V411.83H128.228V415.052H136.298V415.834H127.306ZM150.355 405.335V406.133H148.34V408.054H150.355V408.852H148.34V411.064H147.413V403.232H148.34V405.335H150.355ZM138.851 404.817V404.04H144.683V407.407H139.794V409.427H139.871C142.161 409.432 143.886 409.349 146.014 409.002L146.103 409.789C143.953 410.136 142.202 410.224 139.871 410.214H138.887V406.661H143.777V404.817H138.851ZM139.975 413.798C139.975 412.338 141.576 411.488 144.217 411.483C146.843 411.488 148.444 412.338 148.449 413.798C148.444 415.264 146.843 416.108 144.217 416.108C141.576 416.108 139.975 415.264 139.975 413.798ZM140.876 413.798C140.866 414.772 142.166 415.373 144.217 415.363C146.263 415.373 147.553 414.772 147.553 413.798C147.553 412.835 146.263 412.229 144.217 412.229C142.166 412.229 140.866 412.835 140.876 413.798ZM152.064 414.845C151.634 414.845 151.272 414.492 151.282 414.062C151.272 413.633 151.634 413.28 152.064 413.28C152.494 413.28 152.846 413.633 152.846 414.062C152.846 414.492 152.494 414.845 152.064 414.845ZM151.287 408.303C151.277 407.873 151.64 407.521 152.069 407.521C152.499 407.521 152.852 407.873 152.852 408.303C152.852 408.733 152.499 409.085 152.069 409.085C151.64 409.085 151.277 408.733 151.287 408.303ZM161.592 404.392V415H159.976V406.008H159.914L157.381 407.661V406.122L160.017 404.392H161.592ZM165.147 413.974L163.971 418.025H162.728L163.51 413.974H165.147ZM170.096 415.171C167.647 415.171 166.201 413.177 166.207 409.701C166.207 406.247 167.662 404.247 170.096 404.247C172.536 404.247 173.991 406.252 173.991 409.701C173.991 413.177 172.552 415.171 170.096 415.171ZM167.812 409.701C167.807 412.348 168.667 413.783 170.096 413.783C171.531 413.783 172.386 412.348 172.386 409.701C172.386 407.06 171.521 405.62 170.096 405.62C168.677 405.62 167.812 407.06 167.812 409.701ZM178.904 415.171C176.454 415.171 175.009 413.177 175.014 409.701C175.014 406.247 176.47 404.247 178.904 404.247C181.344 404.247 182.799 406.252 182.799 409.701C182.799 413.177 181.359 415.171 178.904 415.171ZM176.62 409.701C176.615 412.348 177.475 413.783 178.904 413.783C180.339 413.783 181.194 412.348 181.194 409.701C181.194 407.06 180.329 405.62 178.904 405.62C177.485 405.62 176.62 407.06 176.62 409.701ZM187.712 415.171C185.262 415.171 183.817 413.177 183.822 409.701C183.822 406.247 185.278 404.247 187.712 404.247C190.152 404.247 191.607 406.252 191.607 409.701C191.607 413.177 190.167 415.171 187.712 415.171ZM185.428 409.701C185.423 412.348 186.283 413.783 187.712 413.783C189.147 413.783 190.001 412.348 190.001 409.701C190.001 407.06 189.136 405.62 187.712 405.62C186.293 405.62 185.428 407.06 185.428 409.701ZM194.343 413.974L193.167 418.025H191.924L192.706 413.974H194.343ZM199.293 415.171C196.843 415.171 195.398 413.177 195.403 409.701C195.403 406.247 196.858 404.247 199.293 404.247C201.732 404.247 203.188 406.252 203.188 409.701C203.188 413.177 201.748 415.171 199.293 415.171ZM197.008 409.701C197.003 412.348 197.863 413.783 199.293 413.783C200.727 413.783 201.582 412.348 201.582 409.701C201.582 407.06 200.717 405.62 199.293 405.62C197.873 405.62 197.008 407.06 197.008 409.701ZM208.1 415.171C205.65 415.171 204.205 413.177 204.211 409.701C204.211 406.247 205.666 404.247 208.1 404.247C210.54 404.247 211.995 406.252 211.995 409.701C211.995 413.177 210.555 415.171 208.1 415.171ZM205.816 409.701C205.811 412.348 206.671 413.783 208.1 413.783C209.535 413.783 210.39 412.348 210.39 409.701C210.39 407.06 209.525 405.62 208.1 405.62C206.681 405.62 205.816 407.06 205.816 409.701ZM216.908 415.171C214.458 415.171 213.013 413.177 213.018 409.701C213.018 406.247 214.474 404.247 216.908 404.247C219.348 404.247 220.803 406.252 220.803 409.701C220.803 413.177 219.363 415.171 216.908 415.171ZM214.624 409.701C214.619 412.348 215.479 413.783 216.908 413.783C218.343 413.783 219.198 412.348 219.198 409.701C219.198 407.06 218.333 405.62 216.908 405.62C215.489 405.62 214.624 407.06 214.624 409.701ZM226.287 415H224.577L228.389 404.392H230.259L234.071 415H232.357L231.388 412.198H227.255L226.287 415ZM227.721 410.846H230.922L229.363 406.329H229.28L227.721 410.846ZM243.531 404.392V415H242.05L236.674 407.251H236.575V415H234.964V404.392H236.461L241.838 412.156H241.936V404.392H243.531ZM248.681 415H245.237V404.392H248.785C251.913 404.392 253.778 406.381 253.778 409.681C253.778 412.996 251.913 415 248.681 415ZM246.848 413.591H248.593C251.002 413.591 252.188 412.193 252.188 409.681C252.188 407.184 251.002 405.801 248.687 405.801H246.848V413.591Z" fill="#31A9FF"/>
<rect x="24" y="720" width="342" height="72" rx="12" fill="#31A9FF"/>
<path d="M191.341 746.497V753.858H194.334V755.818H191.341V765.945H188.948V746.497H191.341ZM176.93 761.182V748.328H186.015V750.265H179.307V759.199C182.339 759.176 184.724 759.039 187.398 758.561L187.671 760.574C184.656 761.098 182.042 761.189 178.525 761.182H176.93ZM203.981 746.877C208.273 746.877 210.97 748.29 210.97 750.645C210.97 752.977 208.273 754.367 203.981 754.36C199.719 754.367 196.977 752.977 196.984 750.645C196.977 748.29 199.719 746.877 203.981 746.877ZM195.146 757.588V755.666H212.838V757.588H195.146ZM197.235 765.671V759.131H210.696V765.671H197.235ZM199.461 750.645C199.445 751.83 201.132 752.491 203.981 752.499C206.807 752.491 208.516 751.83 208.516 750.645C208.516 749.422 206.807 748.753 203.981 748.753C201.132 748.753 199.445 749.422 199.461 750.645ZM199.59 763.742H208.372V761.03H199.59V763.742Z" fill="white"/>
</svg>
