<svg width="390" height="844" viewBox="0 0 390 844" fill="none" xmlns="http://www.w3.org/2000/svg">
<g clip-path="url(#clip0_89_1540)">
<rect width="390" height="844" fill="white"/>
<path d="M32.5165 23.1565C31.6653 23.1565 30.9047 23.3377 30.2347 23.7001C29.5702 24.0571 29.0485 24.5513 28.6696 25.1829C28.2962 25.8089 28.1094 26.5256 28.1094 27.3328V27.3493C28.1094 28.0962 28.2742 28.7661 28.6037 29.3592C28.9387 29.9523 29.3972 30.4191 29.9793 30.7596C30.5615 31.1001 31.2314 31.2703 31.9893 31.2703C32.5384 31.2703 33.0162 31.1879 33.4226 31.0232C33.8345 30.8584 34.1804 30.6415 34.4605 30.3724C34.7406 30.1033 34.952 29.8123 35.0948 29.4993H35.3831V27.3081H34.8888V27.3246C34.8888 27.7694 34.7845 28.1676 34.5758 28.519C34.3671 28.8705 34.0843 29.1451 33.7274 29.3428C33.3704 29.5405 32.9668 29.6393 32.5165 29.6393C32.0662 29.6393 31.6653 29.5377 31.3138 29.3345C30.9623 29.1313 30.685 28.854 30.4818 28.5025C30.2786 28.1456 30.177 27.7365 30.177 27.2752V27.2587C30.177 26.8139 30.2841 26.413 30.4983 26.056C30.7125 25.6936 30.998 25.408 31.355 25.1993C31.7119 24.9907 32.1046 24.8863 32.5329 24.8863C32.9778 24.8863 33.3759 24.9934 33.7274 25.2076C34.0843 25.4218 34.3671 25.7128 34.5758 26.0807C34.7845 26.4487 34.8888 26.8578 34.8888 27.3081L35.2595 29.2933C35.2595 29.3702 35.2595 29.4498 35.2595 29.5322C35.2595 29.6091 35.2568 29.6887 35.2513 29.7711C35.2238 30.5289 35.1085 31.2209 34.9053 31.8469C34.7076 32.4675 34.4083 32.9645 34.0074 33.3379C33.612 33.7058 33.1013 33.8898 32.4753 33.8898C32.1293 33.8898 31.8163 33.8349 31.5362 33.7251C31.2616 33.6097 31.0255 33.4477 30.8278 33.2391C30.6356 33.0304 30.4873 32.7887 30.383 32.5142L30.35 32.4318H28.266L28.2824 32.5224C28.4142 33.1265 28.6696 33.6647 29.0485 34.1369C29.4329 34.6037 29.9162 34.9717 30.4983 35.2408C31.0859 35.5043 31.7449 35.6361 32.4753 35.6361C33.4693 35.6361 34.3232 35.3835 35.0371 34.8783C35.7565 34.3676 36.3084 33.6372 36.6928 32.6872C37.0772 31.7371 37.2695 30.5948 37.2695 29.2604V29.2439C37.2695 28.1676 37.1431 27.2477 36.8905 26.4844C36.6379 25.7156 36.2892 25.0868 35.8444 24.598C35.4051 24.1038 34.8998 23.7413 34.3287 23.5107C33.7576 23.2745 33.1535 23.1565 32.5165 23.1565ZM41.0092 33.7415C41.3882 33.7415 41.7012 33.618 41.9483 33.3709C42.1954 33.1182 42.319 32.8107 42.319 32.4483C42.319 32.0803 42.1954 31.7728 41.9483 31.5257C41.7012 31.2731 41.3882 31.1468 41.0092 31.1468C40.6358 31.1468 40.3228 31.2731 40.0702 31.5257C39.8231 31.7728 39.6995 32.0803 39.6995 32.4483C39.6995 32.8107 39.8231 33.1182 40.0702 33.3709C40.3228 33.618 40.6358 33.7415 41.0092 33.7415ZM41.0092 27.6294C41.3882 27.6294 41.7012 27.5058 41.9483 27.2587C42.1954 27.0061 42.319 26.6986 42.319 26.3361C42.319 25.9682 42.1954 25.6606 41.9483 25.4135C41.7012 25.1609 41.3882 25.0346 41.0092 25.0346C40.6358 25.0346 40.3228 25.1609 40.0702 25.4135C39.8231 25.6606 39.6995 25.9682 39.6995 26.3361C39.6995 26.6986 39.8231 27.0061 40.0702 27.2587C40.3228 27.5058 40.6358 27.6294 41.0092 27.6294ZM50.5152 35.3396H52.5416V33.0578H54.1479V31.3033H52.5416V23.453H49.5514C49.2219 23.9418 48.8924 24.4442 48.563 24.9605C48.2389 25.4712 47.9122 25.9901 47.5827 26.5173C47.2587 27.039 46.9319 27.569 46.6024 28.1071C46.2784 28.6398 45.9572 29.1753 45.6387 29.7134C45.3256 30.2516 45.0126 30.7871 44.6996 31.3197V33.0578H50.5152V35.3396ZM46.6766 31.3527V31.2291C46.9072 30.8227 47.1461 30.4136 47.3932 30.0018C47.6404 29.5844 47.8902 29.1698 48.1428 28.7579C48.3955 28.3405 48.6508 27.9259 48.9089 27.5141C49.167 27.1022 49.4224 26.6986 49.675 26.3032C49.9331 25.9078 50.183 25.5233 50.4246 25.1499H50.5482V31.3527H46.6766ZM59.0657 35.3396H61.1827V23.453H59.0657L55.9602 25.6359V27.6294L58.9174 25.5453H59.0657V35.3396Z" fill="black"/>
<rect opacity="0.35" x="351.592" y="23.5" width="24" height="12" rx="3.8" stroke="black"/>
<path opacity="0.4" d="M377.092 27.7811V31.8566C377.896 31.5114 378.42 30.7085 378.42 29.8189C378.42 28.9293 377.896 28.1263 377.092 27.7811Z" fill="black"/>
<rect x="353.092" y="25" width="21" height="9" rx="2.5" fill="black"/>
<path fill-rule="evenodd" clip-rule="evenodd" d="M335.362 26.104C337.849 26.1041 340.241 27.0262 342.044 28.6796C342.179 28.8073 342.396 28.8057 342.53 28.676L343.828 27.4126C343.895 27.3468 343.933 27.2577 343.932 27.165C343.932 27.0724 343.893 26.9837 343.825 26.9187C339.094 22.544 331.63 22.544 326.899 26.9187C326.83 26.9837 326.791 27.0723 326.791 27.165C326.79 27.2577 326.828 27.3468 326.896 27.4126L328.193 28.676C328.327 28.8059 328.544 28.8075 328.68 28.6796C330.482 27.0261 332.875 26.104 335.362 26.104ZM335.359 30.3243C336.716 30.3242 338.025 30.8359 339.031 31.76C339.167 31.8912 339.382 31.8883 339.514 31.7536L340.801 30.4343C340.869 30.3651 340.907 30.2712 340.906 30.1737C340.905 30.0761 340.865 29.9831 340.796 29.9153C337.732 27.0244 332.988 27.0244 329.924 29.9153C329.855 29.9831 329.815 30.0762 329.814 30.1738C329.813 30.2714 329.851 30.3652 329.919 30.4343L331.206 31.7536C331.339 31.8883 331.553 31.8912 331.689 31.76C332.695 30.8365 334.002 30.3248 335.359 30.3243ZM337.883 33.1178C337.885 33.2232 337.848 33.3247 337.781 33.3985L335.604 35.8533C335.54 35.9254 335.453 35.966 335.363 35.966C335.272 35.966 335.185 35.9254 335.121 35.8533L332.944 33.3985C332.877 33.3247 332.84 33.2231 332.842 33.1177C332.844 33.0124 332.884 32.9126 332.954 32.842C334.345 31.5281 336.38 31.5281 337.771 32.842C337.841 32.9127 337.881 33.0125 337.883 33.1178Z" fill="black"/>
<path fill-rule="evenodd" clip-rule="evenodd" d="M319.292 24.6821C319.292 24.0491 318.814 23.5359 318.225 23.5359H317.158C316.569 23.5359 316.092 24.0491 316.092 24.6821V34.6161C316.092 35.2491 316.569 35.7623 317.158 35.7623H318.225C318.814 35.7623 319.292 35.2491 319.292 34.6161V24.6821ZM311.857 25.9812H312.924C313.513 25.9812 313.991 26.5067 313.991 27.1549V34.5886C313.991 35.2368 313.513 35.7623 312.924 35.7623H311.857C311.268 35.7623 310.791 35.2368 310.791 34.5886V27.1549C310.791 26.5067 311.268 25.9812 311.857 25.9812ZM307.526 28.6302H306.459C305.87 28.6302 305.392 29.1624 305.392 29.8189V34.5736C305.392 35.2301 305.87 35.7623 306.459 35.7623H307.526C308.115 35.7623 308.592 35.2301 308.592 34.5736V29.8189C308.592 29.1624 308.115 28.6302 307.526 28.6302ZM302.225 31.0755H301.158C300.569 31.0755 300.092 31.6001 300.092 32.2472V34.5906C300.092 35.2377 300.569 35.7623 301.158 35.7623H302.225C302.814 35.7623 303.292 35.2377 303.292 34.5906V32.2472C303.292 31.6001 302.814 31.0755 302.225 31.0755Z" fill="black"/>
<path d="M40 88L32 80L40 72" stroke="#707070" stroke-width="2" stroke-linecap="round" stroke-linejoin="round"/>
<path d="M160.173 69.5732V79.3729H158.137V77.5269H153.245V75.9392H158.137V73.8425H153.503C152.303 76.828 149.401 78.8108 145.132 79.7983L144.417 78.1271C149.044 77.1015 151.536 74.9668 151.862 72.1333H145.435V70.4696H154.118C154.118 71.0925 154.065 71.6851 153.959 72.2472H158.137V69.5732H160.173ZM147.585 81.8115V80.1782H160.173V85.0628H149.652V86.9924H160.75V88.6409H147.623V83.5283H158.13V81.8115H147.585ZM179.21 69.5732V88.8232H177.273V69.5732H179.21ZM162.414 83.5283C165.141 81.8722 166.531 78.3702 166.531 74.9441V73.4019H163.006V71.7383H171.819V73.4019H168.499V74.9441C168.499 78.241 169.828 81.5304 172.533 83.0877L171.317 84.5919C169.471 83.4903 168.21 81.5304 167.542 79.2058C166.858 81.7203 165.551 83.8702 163.675 85.0401L162.414 83.5283ZM170.383 78.0511V76.395H173.383V69.9834H175.305V87.8508H173.383V78.0511H170.383ZM196.364 70.7963V78.7196H187.202V70.7963H196.364ZM188.471 87.1975C191.996 86.8481 194.738 85.0856 194.852 83.3612H189.261V81.8115H194.898V80.0262H196.934V81.8115H202.593V83.3612H196.972C197.086 85.0477 199.775 86.7949 203.292 87.1975L202.593 88.77C199.577 88.4054 197.086 87.1064 195.923 85.4123C194.746 87.1291 192.216 88.3978 189.185 88.77L188.471 87.1975ZM189.208 77.1091H194.351V72.422H189.208V77.1091ZM200.132 80.5808V69.5732H202.145V80.5808H200.132ZM219.474 76.3267V79.0159H227.26V80.6568H209.712V79.0159H217.468V76.3267H219.474ZM210.715 75.7721C214.407 75.2859 217.43 73.1209 217.43 70.6899V69.8771H219.497V70.6899C219.497 73.1512 222.512 75.2859 226.235 75.7721L225.422 77.3826C222.376 76.8888 219.686 75.3999 218.463 73.2804C217.233 75.4075 214.544 76.8888 211.467 77.3826L210.715 75.7721ZM211.786 85.4503C211.786 83.2928 214.285 82.0773 218.463 82.0773C222.634 82.0773 225.103 83.2928 225.118 85.4503C225.103 87.6001 222.634 88.7928 218.463 88.7928C214.285 88.7928 211.786 87.6001 211.786 85.4503ZM213.86 85.4503C213.845 86.605 215.501 87.2431 218.463 87.2279C221.403 87.2431 223.067 86.605 223.082 85.4503C223.067 84.2804 221.403 83.6575 218.463 83.6575C215.501 83.6575 213.845 84.2804 213.86 85.4503ZM243.669 70.5532V72.0117C243.669 73.5159 243.669 75.2403 243.168 77.5801H245.902V79.2438H228.286V77.5801H241.116C241.618 75.3239 241.641 73.6754 241.641 72.2093H230.489V70.5532H243.669ZM230.428 88.5801V81.6899H243.692V88.5801H230.428ZM232.426 86.924H241.671V83.2928H232.426V86.924Z" fill="black"/>
<rect x="24" y="636" width="342" height="72" rx="12" fill="#31A9FF"/>
<path d="M191.341 662.497V669.858H194.334V671.818H191.341V681.945H188.948V662.497H191.341ZM176.93 677.182V664.328H186.015V666.265H179.307V675.199C182.339 675.176 184.724 675.039 187.398 674.561L187.671 676.574C184.656 677.098 182.042 677.189 178.525 677.182H176.93ZM203.981 662.877C208.273 662.877 210.97 664.29 210.97 666.645C210.97 668.977 208.273 670.367 203.981 670.36C199.719 670.367 196.977 668.977 196.984 666.645C196.977 664.29 199.719 662.877 203.981 662.877ZM195.146 673.588V671.666H212.838V673.588H195.146ZM197.235 681.671V675.131H210.696V681.671H197.235ZM199.461 666.645C199.445 667.83 201.132 668.491 203.981 668.499C206.807 668.491 208.516 667.83 208.516 666.645C208.516 665.422 206.807 664.753 203.981 664.753C201.132 664.753 199.445 665.422 199.461 666.645ZM199.59 679.742H208.372V677.03H199.59V679.742Z" fill="white"/>
<rect x="24" y="165" width="83" height="29" rx="12" fill="#31A9FF"/>
<path d="M51.6651 183.569V184.642H40.4544V183.569H45.3854V181.055H41.7307V174.747H43.0311V176.859H49.0449V174.747H50.3356V181.055H46.6713V183.569H51.6651ZM43.0311 180.001H49.0449V177.903H43.0311V180.001ZM62.6244 173.91V186.16H61.3675V179.89H59.806V185.532H58.5878V174.162H59.806V178.812H61.3675V173.91H62.6244ZM52.7045 183.047V175.356H54.0049V181.906C55.1361 181.887 56.3688 181.8 57.7563 181.529L57.9013 182.66C56.219 182.965 54.817 183.047 53.4973 183.047H52.7045ZM73.7287 177.497V178.537H65.2881V174.355H66.574V177.497H73.7287ZM63.7943 181.118V180.079H75.0049V181.118H63.7943ZM65.1962 185.87V182.283H66.487V184.811H73.806V185.87H65.1962ZM89.6825 180.325V181.369H84.8241V183.622H83.5382V181.369H78.4719V180.325H89.6825ZM79.869 185.909V182.549H81.1549V184.845H88.4401V185.909H79.869ZM79.9512 179.242V174.302H81.2419V175.776H86.9173V174.302H88.2081V179.242H79.9512ZM81.2419 178.203H86.9173V176.758H81.2419V178.203Z" fill="white"/>
<path d="M126.89 173.287C126.89 176.79 124.315 179.287 120.215 180.37L119.718 179.409C123.155 178.497 125.32 176.657 125.58 174.282H120.459V173.287H126.89ZM121.994 186.072V180.901H131.033V186.072H121.994ZM123.21 185.077H129.829V181.884H123.21V185.077ZM129.807 180.238V172.392H131.033V180.238H129.807ZM145.259 172.381V186.271H144.088V178.978H142.055V185.541H140.917V172.691H142.055V177.961H144.088V172.381H145.259ZM133.9 182.834V174.083H139.104V175.088H135.126V181.785C137.044 181.779 138.364 181.702 139.9 181.387L140.01 182.414C138.342 182.768 136.928 182.823 134.795 182.834H133.9ZM158.203 173.287V174.503C158.203 175.818 158.203 177.254 157.805 179.254H159.883V180.271H154.137V186.293H152.91V180.271H147.22V179.254H156.557C156.988 177.26 156.988 175.796 156.988 174.503V174.304H148.811V173.287H158.203Z" fill="black"/>
<rect x="24" y="206" width="83" height="29" rx="12" fill="#31A9FF"/>
<path d="M56.0794 214.91V217.811H57.8536V218.889H56.0794V222.065H54.779V214.91H56.0794ZM46.9233 221.354V215.611H48.2044V217.385H51.4144V215.611H52.7003V221.354H46.9233ZM48.2044 220.32H51.4144V218.41H48.2044V220.32ZM48.2721 226.991V222.703H56.1664V223.738H49.5725V225.952H56.3985V226.991H48.2721ZM68.0491 218.497V219.537H59.6085V215.355H60.8944V218.497H68.0491ZM58.1147 222.118V221.079H69.3253V222.118H58.1147ZM59.5166 226.87V223.283H60.8074V225.811H68.1264V226.87H59.5166ZM84.0029 221.325V222.369H79.1445V224.622H77.8586V222.369H72.7923V221.325H84.0029ZM74.1894 226.909V223.549H75.4753V225.845H82.7605V226.909H74.1894ZM74.2716 220.242V215.302H75.5623V216.776H81.2377V215.302H82.5285V220.242H74.2716ZM75.5623 219.203H81.2377V217.758H75.5623V219.203Z" fill="white"/>
<path d="M131.431 213.381V227.271H130.26V219.978H128.227V226.541H127.088V213.691H128.227V218.961H130.26V213.381H131.431ZM120.072 223.834V215.083H125.276V216.088H121.298V222.785C123.215 222.779 124.536 222.702 126.072 222.387L126.182 223.414C124.514 223.768 123.099 223.823 120.967 223.834H120.072ZM144.375 214.287V215.503C144.375 216.818 144.375 218.254 143.977 220.254H146.055V221.271H140.309V227.293H139.082V221.271H133.392V220.254H142.729C143.16 218.26 143.16 216.796 143.16 215.503V215.304H134.983V214.287H144.375ZM158.667 213.381V227.271H157.441V213.381H158.667ZM147.496 223.624C149.562 222.685 151.142 220.343 151.142 217.901V216.796H147.872V215.801H151.131V213.635H152.347V215.801H155.573V216.796H152.347V217.901C152.347 220.232 153.971 222.486 156.06 223.37L155.374 224.331C153.772 223.619 152.413 222.11 151.767 220.276C151.137 222.221 149.794 223.818 148.192 224.575L147.496 223.624ZM168.418 214.442C168.407 218.055 166.484 220.773 161.921 222.243L161.446 221.238C163.838 220.492 165.385 219.403 166.258 218.066L161.556 218.431L161.346 217.414L166.722 217.171C166.943 216.63 167.076 216.061 167.125 215.459H162.042V214.442H168.418ZM163.545 227.05V222.762H164.772V226.044H172.948V227.05H163.545ZM171.291 223.481V213.392H172.518V223.481H171.291Z" fill="black"/>
<path d="M38.1647 311.262V312.566H24.5518V311.262H30.5394V308.21H26.1015V300.549H27.6806V303.115H34.9831V300.549H36.5504V308.21H32.1008V311.262H38.1647ZM27.6806 306.93H34.9831V304.383H27.6806V306.93ZM51.4079 299.546V307.147H49.9168V303.978H48.0619V307.106H46.5826V299.821H48.0619V302.704H49.9168V299.546H51.4079ZM39.421 306.402V300.379H41.0001V305.11C42.4793 305.105 43.9058 305.011 45.5553 304.694L45.7138 305.979C43.7649 306.343 42.1565 306.408 40.3837 306.402H39.421ZM41.4345 309.038V307.77H51.4079V311.521H43.0429V312.959H51.9773V314.221H41.4638V310.335H49.8464V309.038H41.4345ZM58.2534 313H56.3163L60.6367 300.978H62.7558L67.0763 313H65.1333L64.0355 309.824H59.3512L58.2534 313ZM59.8795 308.292H63.5072L61.7403 303.173H61.6464L59.8795 308.292ZM77.7975 300.978V313H76.1186L70.0254 304.218H69.9138V313H68.0882V300.978H69.7847L75.8779 309.777H75.9895V300.978H77.7975ZM83.6342 313H79.7306V300.978H83.7516C87.2972 300.978 89.4105 303.232 89.4105 306.971C89.4105 310.728 87.2972 313 83.6342 313ZM81.5562 311.403H83.5344C86.2641 311.403 87.6083 309.818 87.6083 306.971C87.6083 304.142 86.2641 302.575 83.6401 302.575H81.5562V311.403ZM105.998 307.153V308.421H101.496V311.327H107.542V312.613H93.9291V311.327H99.9166V308.421H95.6373V300.69H105.851V301.976H97.2281V303.878H105.523V305.14H97.2281V307.153H105.998ZM119.999 300.291V301.594C119.999 303.027 119.999 304.6 119.588 306.783H121.695V308.069H108.111V306.783H117.991C118.167 305.921 118.273 305.152 118.337 304.441L109.632 304.829L109.444 303.52L118.408 303.267C118.431 302.674 118.431 302.123 118.431 301.594V301.571H109.814V300.291H119.999ZM109.784 314.104V309.431H111.358V312.812H120.286V314.104H109.784ZM136.147 301.753V303.074H133.981V304.893H136.147V306.208H133.981V308.539H132.402V299.546H133.981V301.753H136.147ZM122.881 301.723V300.455H129.661V304.606H124.478V306.42C127.06 306.425 128.892 306.326 131.058 305.962L131.222 307.241C128.921 307.646 126.955 307.734 124.102 307.729H122.91V303.402H128.117V301.723H122.881ZM124.166 311.662C124.166 309.93 126.062 308.903 129.156 308.897C132.214 308.903 134.116 309.93 134.116 311.662C134.116 313.387 132.214 314.379 129.156 314.379C126.062 314.379 124.166 313.387 124.166 311.662ZM125.716 311.662C125.704 312.624 126.984 313.182 129.156 313.17C131.316 313.182 132.572 312.624 132.572 311.662C132.572 310.693 131.316 310.135 129.156 310.135C126.984 310.135 125.704 310.693 125.716 311.662Z" fill="black"/>
<rect x="24" y="325" width="342" height="68" rx="12" fill="#F1F1F1"/>
<path d="M211.754 368.232C208.133 368.232 205.547 366.26 205.464 363.392H208.547C208.622 364.768 209.981 365.663 211.746 365.663C213.619 365.663 214.97 364.635 214.961 363.135C214.97 361.602 213.652 360.508 211.439 360.508H209.931V358.155H211.439C213.246 358.155 214.506 357.152 214.506 355.669C214.506 354.243 213.428 353.282 211.787 353.282C210.18 353.282 208.804 354.177 208.746 355.594H205.821C205.887 352.751 208.473 350.796 211.804 350.796C215.235 350.796 217.464 352.901 217.448 355.494C217.464 357.409 216.205 358.776 214.34 359.166V359.298C216.743 359.622 218.102 361.155 218.086 363.293C218.102 366.152 215.426 368.232 211.754 368.232ZM227.009 368.323C222.916 368.315 220.479 365.091 220.487 359.53C220.487 353.986 222.94 350.796 227.009 350.796C231.07 350.796 233.532 353.994 233.532 359.53C233.523 365.108 231.095 368.323 227.009 368.323ZM223.562 359.53C223.562 363.608 224.88 365.738 227.009 365.738C229.131 365.738 230.449 363.608 230.449 359.53C230.44 355.478 229.123 353.34 227.009 353.34C224.888 353.34 223.57 355.478 223.562 359.53ZM238.855 366.309L236.9 372.881H234.67L235.872 366.309H238.855ZM247.681 368.323C243.587 368.315 241.151 365.091 241.159 359.53C241.159 353.986 243.612 350.796 247.681 350.796C251.742 350.796 254.203 353.994 254.203 359.53C254.195 365.108 251.767 368.323 247.681 368.323ZM244.234 359.53C244.234 363.608 245.552 365.738 247.681 365.738C249.803 365.738 251.121 363.608 251.121 359.53C251.112 355.478 249.795 353.34 247.681 353.34C245.56 353.34 244.242 355.478 244.234 359.53ZM263.009 368.323C258.916 368.315 256.479 365.091 256.487 359.53C256.487 353.986 258.94 350.796 263.009 350.796C267.07 350.796 269.532 353.994 269.532 359.53C269.523 365.108 267.095 368.323 263.009 368.323ZM259.562 359.53C259.562 363.608 260.88 365.738 263.009 365.738C265.131 365.738 266.449 363.608 266.449 359.53C266.44 355.478 265.123 353.34 263.009 353.34C260.888 353.34 259.57 355.478 259.562 359.53ZM278.338 368.323C274.244 368.315 271.807 365.091 271.816 359.53C271.816 353.986 274.269 350.796 278.338 350.796C282.398 350.796 284.86 353.994 284.86 359.53C284.851 365.108 282.423 368.323 278.338 368.323ZM274.89 359.53C274.89 363.608 276.208 365.738 278.338 365.738C280.459 365.738 281.777 363.608 281.777 359.53C281.769 355.478 280.451 353.34 278.338 353.34C276.216 353.34 274.898 355.478 274.89 359.53Z" fill="black"/>
<path d="M302.188 368H300.439L306.613 351.028H308.412L314.586 368H312.829L311.039 362.953H303.986L302.188 368ZM304.508 361.47H310.508L307.566 353.182H307.459L304.508 361.47ZM330.305 351.028V368H328.706L318.844 354.011H318.703V368H317.037V351.028H318.653L328.532 365.041H328.673V351.028H330.305ZM339.373 368H334.334V351.028H339.655C344.527 351.028 347.411 354.202 347.411 359.472C347.403 364.809 344.494 368 339.373 368ZM336 366.508H339.282C343.591 366.508 345.787 363.856 345.779 359.472C345.779 355.138 343.632 352.519 339.555 352.519H336V366.508Z" fill="#707070"/>
<path d="M35.8535 407.902V408.641H33.8164V415.066H32.9551V403.008H33.8164V407.902H35.8535ZM25.0664 411.963V404.197H25.9141V411.225H25.9961C27.8145 411.231 29.6396 411.095 31.6836 410.664L31.793 411.416C29.6943 411.833 27.8555 411.963 25.9961 411.963H25.0664ZM40.164 403.91C42.0575 403.91 43.3837 405.038 43.3905 406.699C43.3837 408.36 42.0575 409.488 40.164 409.488C38.2704 409.488 36.9374 408.36 36.9374 406.699C36.9374 405.038 38.2704 403.91 40.164 403.91ZM36.2812 411.594C38.537 411.607 41.6337 411.594 44.3339 411.184L44.4023 411.84C41.6132 412.353 38.6122 412.359 36.4179 412.359L36.2812 411.594ZM37.7851 406.699C37.7782 407.882 38.7763 408.729 40.164 408.723C41.5448 408.729 42.5429 407.882 42.5429 406.699C42.5429 405.517 41.5448 404.676 40.164 404.676C38.7763 404.676 37.7782 405.517 37.7851 406.699ZM45.1679 415.08V403.008H46.0292V415.08H45.1679ZM60.242 403.008V405.852H62.115V406.59H60.242V409.83H59.3806V403.008H60.242ZM51.4646 408.805V403.623H52.3396V408.066H52.408C54.1921 408.066 56.0037 407.937 58.0271 407.52L58.1365 408.258C56.0584 408.675 54.2468 408.805 52.408 408.805H51.4646ZM52.6814 414.889V410.527H60.242V414.889H52.6814ZM53.5154 414.164H59.3943V411.225H53.5154V414.164ZM73.5212 409.42V410.131H62.529V409.42H73.5212ZM63.7868 405.811C63.7868 404.313 65.4206 403.432 68.0114 403.432C70.6022 403.432 72.236 404.313 72.236 405.811C72.236 407.301 70.6022 408.189 68.0114 408.189C65.4206 408.189 63.7868 407.301 63.7868 405.811ZM63.9782 414.779V411.279H64.8532V414.055H72.3044V414.779H63.9782ZM64.6755 405.811C64.6618 406.836 65.988 407.472 68.0114 407.465C70.0417 407.472 71.361 406.836 71.361 405.811C71.361 404.799 70.0417 404.149 68.0114 404.143C65.988 404.149 64.6618 404.799 64.6755 405.811ZM77.9175 414H76.8921L80.4878 404.102H81.5405L85.1362 414H84.1109L83.0718 411.061H78.9566L77.9175 414ZM79.2642 410.199H82.7642L81.0484 405.359H80.98L79.2642 410.199ZM93.8901 404.102V414H92.9604L87.2045 405.838H87.1225V414H86.1518V404.102H87.0952L92.851 412.277H92.933V404.102H93.8901ZM98.7611 414H95.8216V404.102H98.9252C101.769 404.102 103.451 405.947 103.451 409.023C103.444 412.141 101.748 414 98.7611 414ZM96.7923 413.125H98.7064C101.222 413.125 102.5 411.58 102.494 409.023C102.494 406.494 101.243 404.97 98.8705 404.977H96.7923V413.125ZM117.007 409.379V410.09H113.179V412.77H118.306V413.494H107.259V412.77H112.318V410.09H108.722V404.047H116.857V404.771H109.597V406.645H116.611V407.369H109.597V409.379H117.007ZM128.495 403.678V404.676C128.488 405.817 128.488 407.13 128.14 408.996H129.972V409.721H118.939V408.996H127.272C127.442 408.142 127.531 407.396 127.586 406.727L120.196 407.082L120.073 406.33L127.62 406.077C127.641 405.571 127.634 405.106 127.634 404.676V404.402H120.36V403.678H128.495ZM120.374 414.779V411.047H121.235V414.055H128.769V414.779H120.374ZM141.884 404.977V405.729H140.011V407.52H141.884V408.258H140.011V410.322H139.149V403.008H140.011V404.977H141.884ZM131.151 404.498V403.773H136.593V406.918H132.04V408.805H132.108C134.241 408.805 135.855 408.729 137.837 408.395L137.919 409.133C135.916 409.461 134.282 409.543 132.108 409.529H131.179V406.221H135.745V404.498H131.151ZM132.204 412.879C132.204 411.512 133.694 410.719 136.169 410.719C138.616 410.719 140.106 411.512 140.106 412.879C140.106 414.246 138.616 415.032 136.169 415.039C133.694 415.032 132.204 414.246 132.204 412.879ZM133.052 412.879C133.038 413.788 134.248 414.349 136.169 414.342C138.076 414.349 139.272 413.788 139.272 412.879C139.272 411.977 138.076 411.416 136.169 411.416C134.248 411.416 133.038 411.977 133.052 412.879ZM143.487 414.068C143.084 414.075 142.749 413.74 142.749 413.344C142.749 412.94 143.084 412.612 143.487 412.605C143.884 412.612 144.212 412.94 144.212 413.344C144.212 413.74 143.884 414.075 143.487 414.068ZM142.749 407.588C142.749 407.185 143.084 406.856 143.487 406.85C143.884 406.856 144.212 407.185 144.212 407.588C144.212 407.984 143.884 408.319 143.487 408.312C143.084 408.319 142.749 407.984 142.749 407.588ZM151.862 404.102V414H150.878V405.113H150.823L148.485 406.658V405.66L150.85 404.102H151.862ZM154.928 413.166L153.93 416.707H153.124L153.889 413.166H154.928ZM159.389 414.137C157.277 414.137 156.04 412.264 156.04 409.051C156.04 405.858 157.291 403.965 159.389 403.965C161.481 403.965 162.725 405.858 162.725 409.051C162.725 412.264 161.495 414.137 159.389 414.137ZM156.997 409.051C156.99 411.73 157.879 413.262 159.389 413.262C160.886 413.262 161.775 411.73 161.782 409.051C161.775 406.371 160.88 404.819 159.389 404.826C157.885 404.819 156.99 406.371 156.997 409.051ZM167.131 414.137C165.019 414.137 163.782 412.264 163.782 409.051C163.782 405.858 165.033 403.965 167.131 403.965C169.223 403.965 170.467 405.858 170.467 409.051C170.467 412.264 169.237 414.137 167.131 414.137ZM164.739 409.051C164.732 411.73 165.621 413.262 167.131 413.262C168.628 413.262 169.517 411.73 169.524 409.051C169.517 406.371 168.622 404.819 167.131 404.826C165.628 404.819 164.732 406.371 164.739 409.051ZM174.874 414.137C172.761 414.137 171.524 412.264 171.524 409.051C171.524 405.858 172.775 403.965 174.874 403.965C176.965 403.965 178.209 405.858 178.209 409.051C178.209 412.264 176.979 414.137 174.874 414.137ZM172.481 409.051C172.474 411.73 173.363 413.262 174.874 413.262C176.371 413.262 177.259 411.73 177.266 409.051C177.259 406.371 176.364 404.819 174.874 404.826C173.37 404.819 172.474 406.371 172.481 409.051ZM180.414 413.166L179.416 416.707H178.61L179.375 413.166H180.414ZM184.875 414.137C182.763 414.137 181.526 412.264 181.526 409.051C181.526 405.858 182.777 403.965 184.875 403.965C186.967 403.965 188.211 405.858 188.211 409.051C188.211 412.264 186.981 414.137 184.875 414.137ZM182.483 409.051C182.476 411.73 183.365 413.262 184.875 413.262C186.372 413.262 187.261 411.73 187.268 409.051C187.261 406.371 186.366 404.819 184.875 404.826C183.371 404.819 182.476 406.371 182.483 409.051ZM192.617 414.137C190.505 414.137 189.268 412.264 189.268 409.051C189.268 405.858 190.519 403.965 192.617 403.965C194.709 403.965 195.953 405.858 195.953 409.051C195.953 412.264 194.723 414.137 192.617 414.137ZM190.225 409.051C190.218 411.73 191.107 413.262 192.617 413.262C194.114 413.262 195.003 411.73 195.01 409.051C195.003 406.371 194.108 404.819 192.617 404.826C191.114 404.819 190.218 406.371 190.225 409.051ZM200.36 414.137C198.247 414.137 197.01 412.264 197.01 409.051C197.01 405.858 198.261 403.965 200.36 403.965C202.451 403.965 203.695 405.858 203.695 409.051C203.695 412.264 202.465 414.137 200.36 414.137ZM197.967 409.051C197.96 411.73 198.849 413.262 200.36 413.262C201.857 413.262 202.745 411.73 202.752 409.051C202.745 406.371 201.85 404.819 200.36 404.826C198.856 404.819 197.96 406.371 197.967 409.051ZM208.256 414H207.23L210.826 404.102H211.879L215.475 414H214.449L213.41 411.061H209.295L208.256 414ZM209.603 410.199H213.103L211.387 405.359H211.318L209.603 410.199ZM224.228 404.102V414H223.299L217.543 405.838H217.461V414H216.49V404.102H217.434L223.189 412.277H223.271V404.102H224.228ZM229.099 414H226.16V404.102H229.264C232.107 404.102 233.789 405.947 233.789 409.023C233.782 412.141 232.087 414 229.099 414ZM227.131 413.125H229.045C231.56 413.125 232.839 411.58 232.832 409.023C232.832 406.494 231.581 404.97 229.209 404.977H227.131V413.125Z" fill="#31A9FF"/>
<path d="M0 180C0 170.059 8.05888 162 18 162H372C381.941 162 390 170.059 390 180V844H0V180Z" fill="#31A9FF"/>
<rect x="24" y="636" width="120" height="72" rx="12" fill="white"/>
<path d="M76.8066 664.541V666.394H72.7956C72.8336 668.081 74.3833 669.577 77.2396 670.132L76.2901 671.978C74.0718 671.522 72.4993 670.474 71.6409 669.091C70.7901 670.61 69.1872 671.758 66.9006 672.251L65.9054 670.39C68.8149 669.813 70.357 668.187 70.395 666.394H66.384V664.541H70.4102V662.543H72.7956V664.541H76.8066ZM65.1609 673.262C68.7845 673.262 73.6084 673.239 77.7638 672.707L77.9309 674.439C76.2445 674.72 74.5124 674.903 72.8108 675.017V681.314H70.4178V675.146C68.6402 675.214 66.9461 675.222 65.4572 675.222L65.1609 673.262ZM79.0173 681.899V662.512H81.3874V681.899H79.0173ZM101.253 677.577V679.506H83.4994V677.577H91.0961V673.072H93.4662V677.577H101.253ZM84.0084 671.575C88.0802 670.922 90.9821 668.012 90.9973 665.095V663.675H93.5346V665.095C93.527 668.02 96.4669 670.922 100.562 671.575L99.5284 673.566C96.2466 672.935 93.5574 671.051 92.266 668.514C90.9897 671.036 88.3157 672.95 85.0415 673.566L84.0084 671.575Z" fill="#31A9FF"/>
<rect x="152" y="636" width="214" height="72" rx="12" fill="white"/>
<path d="M248.899 677.615V679.567H231.146V677.615H238.796V673.831H233.098V663.781H235.491V666.956H244.485V663.781H246.863V673.831H241.166V677.615H248.899ZM235.491 671.91H244.485V668.871H235.491V671.91ZM266.174 662.497V681.899H263.872V672.084H261.722V680.934H259.481V662.862H261.722V670.132H263.872V662.497H266.174ZM250.343 677.068V664.715H252.736V674.971C254.407 674.941 256.238 674.796 258.281 674.401L258.532 676.475C255.903 676.939 253.678 677.075 251.634 677.068H250.343ZM284.064 662.497V681.899H281.656V662.497H284.064ZM267.982 676.559C273.064 674.143 275.419 670.869 275.845 666.448H268.97V664.556H278.276C278.268 670.337 276.027 675.244 269.236 678.473L267.982 676.559Z" fill="#31A9FF"/>
<path d="M42.9094 266.86V274.834H41.7968V273.069H37.4584V272.162H41.7968V270.135H37.7132C36.7498 272.615 34.2699 274.325 30.8203 275.182L30.41 274.25C34.2823 273.311 36.6939 271.335 36.9363 268.631H31.1745V267.693H38.1607C38.1607 268.227 38.1048 268.737 37.9929 269.222H41.7968V266.86H42.9094ZM32.9397 276.506V275.58H42.9094V279.21H34.071V281.298H43.4998V282.218H32.9832V278.34H41.803V276.506H32.9397ZM58.8886 266.86V282.374H57.8196V266.86H58.8886ZM45.5378 278.358C47.6573 277.103 49.0496 274.256 49.0496 271.354V269.7H45.9107V268.768H53.1207V269.7H50.1248V271.354C50.1186 274.088 51.4549 276.792 53.5558 277.998L52.8721 278.831C51.3058 277.886 50.1435 276.121 49.6027 274.051C49.0558 276.289 47.8438 278.197 46.2526 279.198L45.5378 278.358ZM51.9025 273.461V272.535H54.7056V267.27H55.756V281.528H54.7056V273.461H51.9025ZM73.6023 267.898V274.132H66.4234V267.898H73.6023ZM67.5049 273.243H72.5208V268.811H67.5049V273.243ZM67.6479 281.429C70.0781 281.118 72.9497 279.589 72.9497 277.905V277.824H68.2881V276.935H72.9683V275.338H74.0623V276.935H78.7674V277.824H74.0809V277.905C74.0809 279.552 76.853 281.087 79.2957 281.429L78.8917 282.318C76.679 281.957 74.4103 280.807 73.5153 279.285C72.6016 280.838 70.2708 281.97 68.0581 282.318L67.6479 281.429ZM77.2384 275.81V266.86H78.3261V275.81H77.2384ZM93.1268 272.255V274.666H99.6468V275.586H85.5128V274.666H92.0328V272.255H93.1268ZM86.4078 272.131C88.9127 271.776 92.0204 270.067 92.0204 267.885V267.09H93.1268V267.885C93.1268 270.042 96.2594 271.776 98.7518 272.131L98.2918 273.032C96.0605 272.622 93.537 271.347 92.586 269.483C91.6413 271.366 89.1116 272.622 86.8367 273.032L86.4078 272.131ZM87.2407 279.676C87.2407 277.967 89.2297 277.016 92.5736 277.016C95.9051 277.016 97.8878 277.967 97.894 279.676C97.8878 281.379 95.9051 282.324 92.5736 282.324C89.2297 282.324 87.2407 281.379 87.2407 279.676ZM88.3719 279.676C88.3595 280.776 89.9569 281.441 92.5736 281.429C95.1779 281.441 96.7752 280.776 96.7877 279.676C96.7752 278.564 95.1779 277.905 92.5736 277.905C89.9569 277.905 88.3595 278.564 88.3719 279.676ZM113.351 267.724V268.849C113.351 270.055 113.351 271.503 112.916 273.485H115.272V274.418H101.069V273.485H111.804C112.257 271.484 112.257 270.055 112.257 268.849V268.662H102.897V267.724H113.351ZM102.847 282.15V276.711H113.451V282.15H102.847ZM103.935 281.218H112.357V277.606H103.935V281.218ZM133.771 266.86V276.115H132.658V271.925H129.296V270.993H132.658V266.86H133.771ZM121.097 275.027C123.322 274.2 125.119 272.106 125.119 269.806V268.998H121.483V268.066H129.818V268.998H126.225V269.794C126.225 271.869 127.928 273.802 130.135 274.573L129.544 275.468C127.791 274.822 126.362 273.467 125.703 271.807C125.044 273.697 123.515 275.195 121.682 275.916L121.097 275.027ZM123.528 279.496C123.515 277.681 125.467 276.637 128.674 276.637C131.869 276.637 133.82 277.681 133.82 279.496C133.82 281.298 131.869 282.336 128.674 282.349C125.467 282.336 123.515 281.298 123.528 279.496ZM124.622 279.496C124.609 280.695 126.194 281.448 128.674 281.435C131.148 281.448 132.726 280.695 132.726 279.496C132.726 278.278 131.148 277.526 128.674 277.526C126.194 277.526 124.609 278.278 124.622 279.496ZM150.744 279.378V280.329H136.542V279.378H143.05V275.885H138.276V267.997H139.383V270.919H147.86V267.997H148.954V275.885H144.144V279.378H150.744ZM139.383 274.952H147.86V271.851H139.383V274.952ZM166.276 274.151V275.046H152.074V274.151H166.276ZM153.814 277.308V276.45H164.474V279.62H154.952V281.292H164.996V282.137H153.852V278.806H163.374V277.308H153.814ZM153.895 268.221V267.394H164.418V270.459H155.045V271.988H164.691V272.833H153.951V269.663H163.311V268.221H153.895ZM184.091 266.878V272.099H186.491V273.05H184.091V278.514H182.979V266.878H184.091ZM172.071 269.787V268.861H176.148V266.878H177.248V268.861H181.319V269.787H172.071ZM172.991 273.604C172.978 271.857 174.464 270.738 176.695 270.738C178.889 270.738 180.381 271.857 180.387 273.604C180.381 275.331 178.889 276.438 176.695 276.438C174.464 276.438 172.978 275.331 172.991 273.604ZM174.041 273.604C174.029 274.766 175.091 275.549 176.695 275.537C178.268 275.549 179.33 274.766 179.343 273.604C179.33 272.423 178.268 271.627 176.695 271.627C175.091 271.627 174.029 272.423 174.041 273.604ZM174.489 282.001V277.557H175.582V281.062H184.85V282.001H174.489ZM200.357 266.878V278.358H199.244V272.261H195.316V275.636H188.386V267.898H189.498V270.788H194.222V267.898H195.316V271.323H199.244V266.878H200.357ZM189.498 274.71H194.222V271.671H189.498V274.71ZM190.424 282.001V277.24H191.537V281.062H200.73V282.001H190.424ZM209.458 277.563C212.398 277.563 214.293 277.476 216.55 277.047L216.693 277.979C214.356 278.414 212.466 278.526 209.458 278.52H208.283V268.376H215.412V269.321H209.396V277.563H209.458ZM214.43 273.535V272.584H219.172V266.86H220.279V282.392H219.172V273.535H214.43ZM239.412 266.878V271.646H241.836V272.59H239.412V277.209H238.305V266.878H239.412ZM227.36 275.767C228.634 275.767 230.144 275.767 231.717 275.717V274.486C229.865 274.356 228.665 273.51 228.678 272.205C228.665 270.788 230.095 269.918 232.251 269.924C234.408 269.918 235.825 270.788 235.838 272.205C235.825 273.504 234.657 274.343 232.823 274.486V275.673C234.327 275.599 235.856 275.474 237.267 275.257L237.361 276.084C233.979 276.693 230.225 276.711 227.503 276.705L227.36 275.767ZM227.751 269.247V268.37H231.717V266.742H232.823V268.37H236.77V269.247H227.751ZM229.256 278.955V278.035H239.412V282.374H238.305V278.955H229.256ZM229.728 272.205C229.722 273.081 230.71 273.709 232.251 273.697C233.787 273.709 234.781 273.081 234.781 272.205C234.781 271.304 233.787 270.726 232.251 270.726C230.71 270.726 229.722 271.304 229.728 272.205ZM255.714 266.878V278.271H254.602V266.878H255.714ZM243.358 271.758C243.358 269.539 245.073 267.991 247.373 267.991C249.673 267.991 251.376 269.539 251.376 271.758C251.376 273.995 249.673 275.543 247.373 275.53C245.073 275.543 243.358 273.995 243.358 271.758ZM244.446 271.758C244.433 273.38 245.695 274.555 247.373 274.555C249.033 274.555 250.307 273.38 250.307 271.758C250.307 270.154 249.033 268.967 247.373 268.961C245.695 268.967 244.433 270.154 244.446 271.758ZM245.813 282.001V277.097H246.913V281.062H256.218V282.001H245.813ZM266.348 269.644V270.564H258.479V269.644H261.867V267.338H262.979V269.644H266.348ZM259.101 275.195C259.089 273.162 260.487 271.727 262.414 271.727C264.353 271.727 265.739 273.162 265.752 275.195C265.739 277.252 264.353 278.7 262.414 278.694C260.487 278.7 259.089 277.252 259.101 275.195ZM260.095 275.195C260.089 276.643 261.065 277.724 262.414 277.712C263.763 277.724 264.751 276.643 264.751 275.195C264.751 273.771 263.763 272.684 262.414 272.671C261.065 272.684 260.089 273.771 260.095 275.195ZM267.231 281.572V267.245H268.281V273.473H270.606V266.86H271.669V282.374H270.606V274.412H268.281V281.572H267.231ZM281.743 269.048C281.731 271.279 284.832 273.057 287.319 273.442L286.883 274.331C284.602 273.908 282.06 272.584 281.14 270.626C280.202 272.584 277.66 273.908 275.403 274.331L274.962 273.442C277.423 273.057 280.519 271.279 280.531 269.048V268.805H275.428V267.892H286.827V268.805H281.743V269.048ZM274.073 276.724V275.785H288.207V276.724H281.662V282.355H280.575V276.724H274.073ZM294.118 271.428C294.111 273.883 295.491 276.568 297.524 277.743L296.865 278.601C295.33 277.681 294.161 275.934 293.608 273.977C293.042 276.115 291.799 277.973 290.227 278.93L289.493 278.104C291.588 276.898 293.048 274.138 293.048 271.478V268.358H294.118V271.428ZM295.79 273.492V272.535H298.618V267.227H299.668V281.559H298.618V273.492H295.79ZM301.794 282.374V266.86H302.875V282.374H301.794ZM319.389 279.365V280.316H305.187V279.365H308.81V275.052C307.449 274.381 306.629 273.262 306.629 271.851C306.629 269.477 308.953 267.923 312.241 267.91C315.542 267.923 317.86 269.477 317.866 271.851C317.86 273.243 317.064 274.349 315.74 275.027V279.365H319.389ZM307.685 271.851C307.679 273.641 309.593 274.878 312.241 274.872C314.877 274.878 316.81 273.641 316.81 271.851C316.81 270.055 314.877 268.824 312.241 268.83C309.593 268.824 307.679 270.055 307.685 271.851ZM309.898 279.365H314.622V275.456C313.913 275.661 313.111 275.767 312.241 275.767C311.39 275.767 310.6 275.661 309.898 275.468V279.365ZM322.981 268.271L322.894 277.358H321.719L321.626 268.271H322.981ZM321.371 280.155C321.359 279.639 321.794 279.216 322.31 279.216C322.825 279.216 323.248 279.639 323.248 280.155C323.248 280.671 322.825 281.093 322.31 281.093C321.794 281.093 321.359 280.671 321.371 280.155Z" fill="white"/>
<rect x="29" y="309" width="83" height="29" rx="12" fill="white"/>
<path d="M56.6621 326.564V327.645H45.4512V326.564H50.3867V324.049H46.7363V317.746H48.0352V319.852H54.0508V317.746H55.3359V324.049H51.6719V326.564H56.6621ZM48.0352 322.996H54.0508V320.904H48.0352V322.996ZM67.6171 316.912V329.162H66.373V322.887H64.8007V328.533H63.5839V317.158H64.8007V321.82H66.373V316.912H67.6171ZM57.705 326.045V318.361H59.0038V324.903C60.1318 324.89 61.3691 324.801 62.7636 324.527L62.9003 325.662C61.2187 325.963 59.8173 326.052 58.498 326.045H57.705ZM78.7225 320.494V321.533H70.287V317.35H71.5721V320.494H78.7225ZM68.7967 324.117V323.078H80.0077V324.117H68.7967ZM70.1912 328.875V325.279H71.4901V327.809H78.8045V328.875H70.1912ZM94.6852 323.324V324.363H89.818V326.619H88.5329V324.363H83.4743V323.324H94.6852ZM84.8688 328.902V325.553H86.154V327.85H93.4411V328.902H84.8688ZM84.9509 322.244V317.295H86.236V318.785H91.9098V317.295H93.2087V322.244H84.9509ZM86.236 321.205H91.9098V319.756H86.236V321.205Z" fill="#31A9FF"/>
<path d="M137.431 327.193V328.851H124.425V327.193H129.895V324.624H125.503V323.066H127.409V319H125.442V317.409H136.348V319H134.343V323.066H136.282V324.624H131.867V327.193H137.431ZM129.398 323.066H132.376V319H129.398V323.066ZM150.132 316.232V326.702H148.154V316.232H150.132ZM138.983 318.746V317.166H145.574V321.685H140.961V323.271C143.502 323.26 145.115 323.182 146.955 322.823L147.165 324.425C145.104 324.818 143.259 324.89 140.248 324.884H138.999V320.215H143.602V318.746H138.983ZM140.574 330.193V325.829H142.568V328.586H150.513V330.193H140.574ZM156.634 319.796C156.634 322.099 157.275 324.475 159.225 325.724L158.137 327.26C156.91 326.519 156.131 325.298 155.678 323.845C155.176 325.453 154.319 326.801 153.032 327.586L151.816 326.105C153.921 324.801 154.7 322.298 154.7 319.89V317.436H156.634V319.796ZM157.723 322.641V321.017H159.562V316.431H161.43V329.785H159.562V322.641H157.723ZM162.496 330.442V316.21H164.402V330.442H162.496ZM173.39 318.088C173.385 320.177 175.23 322.403 178.451 322.95L177.573 324.608C175.092 324.116 173.252 322.718 172.335 320.895C171.402 322.707 169.556 324.11 167.092 324.608L166.236 322.95C169.396 322.387 171.252 320.155 171.263 318.088V317.066H173.39V318.088ZM165.91 328.696V327.055H178.915V328.696H165.91Z" fill="black"/>
<rect x="29" y="350" width="83" height="29" rx="12" fill="white"/>
<path d="M61.0762 357.912V360.811H62.8535V361.891H61.0762V365.062H59.7773V357.912H61.0762ZM51.9297 364.352V358.609H53.2012V360.387H56.4141V358.609H57.6992V364.352H51.9297ZM53.2012 363.326H56.4141V361.412H53.2012V363.326ZM53.2695 369.984V365.705H61.1719V366.744H54.5684V368.959H61.3906V369.984H53.2695ZM73.0429 361.494V362.533H64.6073V358.35H65.8925V361.494H73.0429ZM63.1171 365.117V364.078H74.328V365.117H63.1171ZM64.5116 369.875V366.279H65.8105V368.809H73.1249V369.875H64.5116ZM89.0056 364.324V365.363H84.1384V367.619H82.8533V365.363H77.7947V364.324H89.0056ZM79.1892 369.902V366.553H80.4744V368.85H87.7615V369.902H79.1892ZM79.2712 363.244V358.295H80.5564V359.785H86.2302V358.295H87.5291V363.244H79.2712ZM80.5564 362.205H86.2302V360.756H80.5564V362.205Z" fill="#31A9FF"/>
<path d="M136.713 357.21V371.442H134.829V364.304H133.459V370.746H131.63V357.459H133.459V362.707H134.829V357.21H136.713ZM124.823 368.215V358.862H130.133V360.464H126.823V366.547C128.199 366.525 129.42 366.448 130.79 366.199L130.939 367.823C129.204 368.16 127.691 368.21 125.818 368.215H124.823ZM149.701 358.05V359.326C149.696 360.652 149.696 362.105 149.331 364.099H151.226V365.707H145.679V371.453H143.668V365.707H138.254V364.099H147.32C147.679 362.26 147.712 360.867 147.718 359.635H139.74V358.05H149.701ZM163.96 357.21V371.442H161.966V357.21H163.96ZM152.153 367.254C154.496 366.227 155.651 363.84 155.656 361.674V361.122H152.629V359.536H155.645V357.536H157.629V359.536H160.59V361.122H157.64V361.674C157.64 363.735 158.805 366.055 161.17 367.039L160.098 368.564C158.479 367.895 157.319 366.536 156.673 364.906C156.037 366.635 154.872 368.088 153.22 368.785L152.153 367.254ZM173.556 358.249C173.545 362.238 171.777 364.956 166.893 366.486L166.142 364.917C168.219 364.287 169.562 363.47 170.379 362.481L166.424 362.779L166.142 361.227L171.186 361.05C171.324 360.669 171.407 360.265 171.451 359.845H166.86V358.249H173.556ZM168.28 371.227V366.724H170.297V369.619H178.186V371.227H168.28ZM175.81 367.564V357.232H177.81V367.564H175.81Z" fill="black"/>
<path d="M51.4328 459.641V495H45.0447V465.839H44.8375L36.5675 471.122V465.304L45.3382 459.641H51.4328ZM73.0699 495.673C64.5409 495.656 59.4649 488.94 59.4822 477.355C59.4822 465.805 64.5927 459.157 73.0699 459.157C81.5299 459.157 86.6576 465.822 86.6576 477.355C86.6404 488.974 81.5817 495.673 73.0699 495.673ZM65.8876 477.355C65.8876 485.849 68.6328 490.287 73.0699 490.287C77.4898 490.287 80.235 485.849 80.235 477.355C80.2177 468.912 77.4725 464.458 73.0699 464.458C68.65 464.458 65.9049 468.912 65.8876 477.355ZM97.7489 491.478L93.6743 505.169H89.03L91.5334 491.478H97.7489ZM116.136 495.673C107.607 495.656 102.531 488.94 102.549 477.355C102.549 465.805 107.659 459.157 116.136 459.157C124.596 459.157 129.724 465.822 129.724 477.355C129.707 488.974 124.648 495.673 116.136 495.673ZM108.954 477.355C108.954 485.849 111.699 490.287 116.136 490.287C120.556 490.287 123.301 485.849 123.301 477.355C123.284 468.912 120.539 464.458 116.136 464.458C111.716 464.458 108.971 468.912 108.954 477.355ZM148.07 495.673C139.541 495.656 134.465 488.94 134.482 477.355C134.482 465.805 139.593 459.157 148.07 459.157C156.53 459.157 161.658 465.822 161.658 477.355C161.64 488.974 156.582 495.673 148.07 495.673ZM140.888 477.355C140.888 485.849 143.633 490.287 148.07 490.287C152.49 490.287 155.235 485.849 155.235 477.355C155.218 468.912 152.473 464.458 148.07 464.458C143.65 464.458 140.905 468.912 140.888 477.355ZM180.004 495.673C171.475 495.656 166.399 488.94 166.416 477.355C166.416 465.805 171.526 459.157 180.004 459.157C188.463 459.157 193.591 465.822 193.591 477.355C193.574 488.974 188.515 495.673 180.004 495.673ZM172.821 477.355C172.821 485.849 175.566 490.287 180.004 490.287C184.423 490.287 187.169 485.849 187.169 477.355C187.151 468.912 184.406 464.458 180.004 464.458C175.584 464.458 172.838 468.912 172.821 477.355ZM212.483 495H208.402L215.881 473.785H220.584L228.063 495H223.992L222.231 489.748H214.244L212.483 495ZM215.27 486.682H221.195L218.315 478.115H218.15L215.27 486.682ZM248.025 473.785V495H244.638L234.589 480.508H234.413V495H230.611V473.785H234.04L244.047 488.287H244.234V473.785H248.025ZM259.148 495H251.969V473.785H259.282C265.612 473.785 269.424 477.762 269.424 484.372C269.424 491.001 265.612 495 259.148 495ZM255.771 491.695H258.961C263.395 491.695 265.643 489.251 265.643 484.372C265.643 479.503 263.395 477.089 259.075 477.089H255.771V491.695Z" fill="white"/>
<path d="M44.1176 601.122V602.613H38.8206V606.032H45.9339V607.544H29.9187V606.032H36.9629V602.613H31.9284V593.518H43.9449V595.03H33.7999V597.268H43.5582V598.753H33.7999V601.122H44.1176ZM61.1887 593.048V594.581C61.1887 596.267 61.1887 598.117 60.7052 600.686H63.1845V602.199H47.2039V600.686H58.8268C59.034 599.671 59.1583 598.767 59.2342 597.931L48.9925 598.387L48.7715 596.847L59.3171 596.55C59.3447 595.852 59.3447 595.203 59.3447 594.581V594.554H49.2066V593.048H61.1887ZM49.1721 609.298V603.801H51.0229V607.779H61.5271V609.298H49.1721ZM72.4517 592.448C76.3951 592.448 78.6948 593.511 78.6948 595.452C78.6948 597.42 76.3951 598.483 72.4517 598.497C68.5084 598.483 66.1948 597.42 66.1948 595.452C66.1948 593.511 68.5084 592.448 72.4517 592.448ZM64.489 601.046V599.561H80.4421V601.046H64.489ZM66.3882 603.78V602.392H78.4186V606.488H68.239V608.055H78.9227V609.492H66.4227V605.155H76.5954V603.78H66.3882ZM68.1354 595.452C68.1216 596.543 69.6686 597.102 72.4517 597.102C75.2556 597.102 76.7956 596.543 76.7956 595.452C76.7956 594.43 75.2556 593.822 72.4517 593.829C69.6686 593.822 68.1216 594.43 68.1354 595.452ZM100.407 592.151V597.378H102.942V598.925H100.407V605.01H98.5492V592.151H100.407ZM86.9194 597.71C86.9056 595.155 88.936 593.359 91.581 593.359C94.2191 593.359 96.2219 595.155 96.2357 597.71C96.2219 600.258 94.2191 602.068 91.581 602.068C88.936 602.068 86.9056 600.258 86.9194 597.71ZM88.7357 597.71C88.7219 599.333 89.9788 600.445 91.581 600.445C93.197 600.445 94.4194 599.333 94.4332 597.71C94.4194 596.073 93.197 594.975 91.581 594.975C89.9788 594.975 88.7219 596.073 88.7357 597.71ZM89.3158 609.298V603.67H91.1597V607.779H101.153V609.298H89.3158ZM118.528 592.171V604.989H116.677V598.421H113.321V596.909H116.677V592.171H118.528ZM103.949 601.336C106.642 600.431 108.321 598.124 108.321 595.714V595.023H104.522V593.511H113.97V595.023H110.199V595.714C110.199 597.896 111.781 600.086 114.419 600.97L113.473 602.448C111.497 601.764 110.054 600.355 109.294 598.628C108.521 600.555 106.995 602.102 104.909 602.848L103.949 601.336ZM107.167 609.298V603.849H109.018V607.779H118.99V609.298H107.167ZM134.86 592.157V599.25H137.664V600.79H134.86V609.657H133.023V592.157H134.86ZM121.131 596.412V594.899H125.447V592.385H127.298V594.899H131.497V596.412H121.131ZM122.028 601.778C122.021 599.388 123.859 597.703 126.386 597.703C128.886 597.703 130.723 599.388 130.73 601.778C130.723 604.174 128.886 605.838 126.386 605.845C123.859 605.838 122.021 604.174 122.028 601.778ZM123.803 601.778C123.789 603.29 124.888 604.305 126.386 604.298C127.864 604.305 128.948 603.29 128.962 601.778C128.948 600.272 127.864 599.236 126.386 599.236C124.888 599.236 123.789 600.272 123.803 601.778ZM153.554 592.157V609.657H151.793V592.157H153.554ZM138.443 604.602C142.159 602.399 143.941 599.45 144.251 595.859H139.272V594.333H146.102C146.095 596.046 145.854 597.675 145.322 599.195H148.105V592.606H149.859V608.808H148.105V600.68H144.68C143.637 602.703 141.972 604.485 139.514 605.921L138.443 604.602ZM169.555 598.297V600.742H176.633V602.233H160.68V600.742H167.732V598.297H169.555ZM161.592 597.793C164.948 597.351 167.697 595.383 167.697 593.173V592.434H169.575V593.173C169.575 595.41 172.317 597.351 175.701 597.793L174.962 599.257C172.193 598.808 169.748 597.454 168.636 595.528C167.517 597.461 165.073 598.808 162.276 599.257L161.592 597.793ZM162.566 606.591C162.566 604.63 164.838 603.525 168.636 603.525C172.428 603.525 174.672 604.63 174.686 606.591C174.672 608.546 172.428 609.63 168.636 609.63C164.838 609.63 162.566 608.546 162.566 606.591ZM164.451 606.591C164.437 607.641 165.943 608.221 168.636 608.207C171.309 608.221 172.821 607.641 172.835 606.591C172.821 605.528 171.309 604.961 168.636 604.961C165.943 604.961 164.437 605.528 164.451 606.591ZM191.95 593.048V594.374C191.95 595.742 191.95 597.309 191.495 599.436H193.981V600.949H177.966V599.436H189.63C190.086 597.385 190.106 595.887 190.106 594.554H179.968V593.048H191.95ZM179.913 609.436V603.173H191.971V609.436H179.913ZM181.729 607.931H190.134V604.63H181.729V607.931ZM209.001 592.157V596.55H211.535V598.11H209.001V602.351H207.143V592.157H209.001ZM195.271 595.369V593.877H199.567V592.006H201.411V593.877H205.686V595.369H195.271ZM196.224 599.153C196.218 597.289 197.93 596.08 200.486 596.08C203.006 596.08 204.719 597.289 204.726 599.153C204.719 601.018 203.006 602.233 200.486 602.227C197.93 602.233 196.218 601.018 196.224 599.153ZM197.799 609.436V603.083H199.636V604.782H207.143V603.083H209.001V609.436H197.799ZM198.013 599.153C197.999 600.196 198.994 600.845 200.486 600.845C201.963 600.845 202.958 600.196 202.972 599.153C202.958 598.131 201.963 597.461 200.486 597.468C198.994 597.461 197.999 598.131 198.013 599.153ZM199.636 607.952H207.143V606.225H199.636V607.952ZM227.052 592.157V609.657H225.215V592.157H227.052ZM213.606 605.21V593.863H215.43V603.615C217.992 603.594 220.678 603.38 223.496 602.8L223.738 604.36C220.644 605.003 217.833 605.217 215.07 605.21H213.606ZM243.454 592.157V598.932H246.258V600.472H243.454V609.692H241.596V592.157H243.454ZM230.56 605.348V593.843H238.744V595.348H232.411V603.801C235.346 603.787 237.549 603.663 240.056 603.207L240.277 604.789C237.542 605.265 235.215 605.355 231.969 605.348H230.56ZM249.095 608.131C248.329 608.131 247.693 607.51 247.707 606.75C247.693 605.99 248.329 605.369 249.095 605.369C249.841 605.369 250.476 605.99 250.476 606.75C250.476 607.51 249.841 608.131 249.095 608.131Z" fill="white"/>
<path d="M32 519H358" stroke="white" stroke-linecap="round" stroke-linejoin="round"/>
</g>
<defs>
<clipPath id="clip0_89_1540">
<rect width="390" height="844" fill="white"/>
</clipPath>
</defs>
</svg>
