<svg width="390" height="844" viewBox="0 0 390 844" fill="none" xmlns="http://www.w3.org/2000/svg">
<g clip-path="url(#clip0_59_109)">
<rect width="390" height="844" fill="white"/>
<path d="M32.5165 23.1565C31.6653 23.1565 30.9047 23.3377 30.2347 23.7001C29.5702 24.0571 29.0485 24.5513 28.6696 25.1829C28.2962 25.8089 28.1095 26.5256 28.1095 27.3328V27.3493C28.1095 28.0962 28.2742 28.7661 28.6037 29.3592C28.9387 29.9523 29.3972 30.4191 29.9794 30.7596C30.5615 31.1001 31.2314 31.2703 31.9893 31.2703C32.5384 31.2703 33.0162 31.1879 33.4226 31.0232C33.8345 30.8584 34.1804 30.6415 34.4605 30.3724C34.7406 30.1033 34.952 29.8123 35.0948 29.4993H35.3831V27.3081H34.8889V27.3246C34.8889 27.7694 34.7845 28.1676 34.5758 28.519C34.3671 28.8705 34.0843 29.1451 33.7274 29.3428C33.3704 29.5405 32.9668 29.6393 32.5165 29.6393C32.0662 29.6393 31.6653 29.5377 31.3138 29.3345C30.9623 29.1313 30.685 28.854 30.4818 28.5025C30.2786 28.1456 30.177 27.7365 30.177 27.2752V27.2587C30.177 26.8139 30.2841 26.413 30.4983 26.056C30.7125 25.6936 30.998 25.408 31.355 25.1993C31.712 24.9907 32.1046 24.8863 32.5329 24.8863C32.9778 24.8863 33.3759 24.9934 33.7274 25.2076C34.0843 25.4218 34.3671 25.7128 34.5758 26.0807C34.7845 26.4487 34.8889 26.8578 34.8889 27.3081L35.2595 29.2933C35.2595 29.3702 35.2595 29.4498 35.2595 29.5322C35.2595 29.6091 35.2568 29.6887 35.2513 29.7711C35.2238 30.5289 35.1085 31.2209 34.9053 31.8469C34.7076 32.4675 34.4083 32.9645 34.0074 33.3379C33.6121 33.7058 33.1013 33.8898 32.4753 33.8898C32.1293 33.8898 31.8163 33.8349 31.5362 33.7251C31.2616 33.6097 31.0255 33.4477 30.8278 33.2391C30.6356 33.0304 30.4873 32.7887 30.383 32.5142L30.35 32.4318H28.266L28.2824 32.5224C28.4142 33.1265 28.6696 33.6647 29.0485 34.1369C29.4329 34.6037 29.9162 34.9717 30.4983 35.2408C31.0859 35.5043 31.7449 35.6361 32.4753 35.6361C33.4693 35.6361 34.3232 35.3835 35.0371 34.8783C35.7565 34.3676 36.3084 33.6372 36.6928 32.6872C37.0773 31.7371 37.2695 30.5948 37.2695 29.2604V29.2439C37.2695 28.1676 37.1432 27.2477 36.8905 26.4844C36.6379 25.7156 36.2892 25.0868 35.8444 24.598C35.4051 24.1038 34.8998 23.7413 34.3287 23.5107C33.7576 23.2745 33.1535 23.1565 32.5165 23.1565ZM41.0093 33.7415C41.3882 33.7415 41.7012 33.618 41.9483 33.3709C42.1954 33.1182 42.319 32.8107 42.319 32.4483C42.319 32.0803 42.1954 31.7728 41.9483 31.5257C41.7012 31.2731 41.3882 31.1468 41.0093 31.1468C40.6358 31.1468 40.3228 31.2731 40.0702 31.5257C39.8231 31.7728 39.6995 32.0803 39.6995 32.4483C39.6995 32.8107 39.8231 33.1182 40.0702 33.3709C40.3228 33.618 40.6358 33.7415 41.0093 33.7415ZM41.0093 27.6294C41.3882 27.6294 41.7012 27.5058 41.9483 27.2587C42.1954 27.0061 42.319 26.6986 42.319 26.3361C42.319 25.9682 42.1954 25.6606 41.9483 25.4135C41.7012 25.1609 41.3882 25.0346 41.0093 25.0346C40.6358 25.0346 40.3228 25.1609 40.0702 25.4135C39.8231 25.6606 39.6995 25.9682 39.6995 26.3361C39.6995 26.6986 39.8231 27.0061 40.0702 27.2587C40.3228 27.5058 40.6358 27.6294 41.0093 27.6294ZM50.5152 35.3396H52.5416V33.0578H54.1479V31.3033H52.5416V23.453H49.5515C49.222 23.9418 48.8925 24.4442 48.563 24.9605C48.239 25.4712 47.9122 25.9901 47.5827 26.5173C47.2587 27.039 46.932 27.569 46.6025 28.1071C46.2785 28.6398 45.9572 29.1753 45.6387 29.7134C45.3257 30.2516 45.0126 30.7871 44.6996 31.3197V33.0578H50.5152V35.3396ZM46.6766 31.3527V31.2291C46.9072 30.8227 47.1461 30.4136 47.3932 30.0018C47.6404 29.5844 47.8902 29.1698 48.1429 28.7579C48.3955 28.3405 48.6508 27.9259 48.9089 27.5141C49.167 27.1022 49.4224 26.6986 49.675 26.3032C49.9331 25.9078 50.183 25.5233 50.4246 25.1499H50.5482V31.3527H46.6766ZM59.0657 35.3396H61.1827V23.453H59.0657L55.9602 25.6359V27.6294L58.9174 25.5453H59.0657V35.3396Z" fill="black"/>
<rect opacity="0.35" x="351.592" y="23.5" width="24" height="12" rx="3.8" stroke="black"/>
<path opacity="0.4" d="M377.092 27.7812V31.8567C377.896 31.5116 378.42 30.7086 378.42 29.819C378.42 28.9294 377.896 28.1264 377.092 27.7812Z" fill="black"/>
<rect x="353.092" y="25" width="21" height="9" rx="2.5" fill="black"/>
<path fill-rule="evenodd" clip-rule="evenodd" d="M335.362 26.104C337.849 26.1041 340.241 27.0262 342.044 28.6796C342.179 28.8073 342.396 28.8057 342.53 28.676L343.828 27.4126C343.895 27.3468 343.933 27.2577 343.932 27.165C343.932 27.0724 343.893 26.9837 343.825 26.9187C339.094 22.544 331.63 22.544 326.899 26.9187C326.83 26.9837 326.791 27.0723 326.791 27.165C326.79 27.2577 326.828 27.3468 326.896 27.4126L328.193 28.676C328.327 28.8059 328.544 28.8075 328.68 28.6796C330.482 27.0261 332.875 26.104 335.362 26.104ZM335.359 30.3243C336.716 30.3242 338.025 30.8359 339.031 31.76C339.167 31.8912 339.382 31.8883 339.514 31.7536L340.801 30.4343C340.869 30.3651 340.907 30.2712 340.906 30.1737C340.905 30.0761 340.865 29.9831 340.796 29.9153C337.732 27.0244 332.988 27.0244 329.924 29.9153C329.855 29.9831 329.815 30.0762 329.814 30.1738C329.813 30.2714 329.851 30.3652 329.919 30.4343L331.206 31.7536C331.339 31.8883 331.553 31.8912 331.689 31.76C332.695 30.8365 334.002 30.3248 335.359 30.3243ZM337.883 33.1178C337.885 33.2232 337.848 33.3247 337.781 33.3985L335.604 35.8533C335.54 35.9254 335.453 35.966 335.363 35.966C335.272 35.966 335.185 35.9254 335.121 35.8533L332.944 33.3985C332.877 33.3247 332.84 33.2231 332.842 33.1177C332.844 33.0124 332.884 32.9126 332.954 32.842C334.345 31.5281 336.38 31.5281 337.771 32.842C337.841 32.9127 337.881 33.0125 337.883 33.1178Z" fill="black"/>
<path fill-rule="evenodd" clip-rule="evenodd" d="M319.292 24.6821C319.292 24.0491 318.814 23.5359 318.225 23.5359H317.158C316.569 23.5359 316.092 24.0491 316.092 24.6821V34.6161C316.092 35.2491 316.569 35.7623 317.158 35.7623H318.225C318.814 35.7623 319.292 35.2491 319.292 34.6161V24.6821ZM311.857 25.9812H312.924C313.513 25.9812 313.991 26.5067 313.991 27.1549V34.5886C313.991 35.2368 313.513 35.7623 312.924 35.7623H311.857C311.268 35.7623 310.791 35.2368 310.791 34.5886V27.1549C310.791 26.5067 311.268 25.9812 311.857 25.9812ZM307.526 28.6302H306.459C305.87 28.6302 305.392 29.1624 305.392 29.8189V34.5736C305.392 35.2301 305.87 35.7623 306.459 35.7623H307.526C308.115 35.7623 308.592 35.2301 308.592 34.5736V29.8189C308.592 29.1624 308.115 28.6302 307.526 28.6302ZM302.225 31.0755H301.158C300.569 31.0755 300.092 31.6001 300.092 32.2472V34.5906C300.092 35.2377 300.569 35.7623 301.158 35.7623H302.225C302.814 35.7623 303.292 35.2377 303.292 34.5906V32.2472C303.292 31.6001 302.814 31.0755 302.225 31.0755Z" fill="black"/>
<path d="M40 88L32 80L40 72" stroke="#707070" stroke-width="2" stroke-linecap="round" stroke-linejoin="round"/>
<path d="M160.173 69.5732V79.3729H158.137V77.5269H153.245V75.9392H158.137V73.8425H153.503C152.303 76.828 149.401 78.8108 145.132 79.7983L144.417 78.1271C149.044 77.1015 151.536 74.9668 151.862 72.1333H145.435V70.4696H154.118C154.118 71.0925 154.065 71.6851 153.959 72.2472H158.137V69.5732H160.173ZM147.585 81.8115V80.1782H160.173V85.0628H149.652V86.9924H160.75V88.6409H147.623V83.5283H158.13V81.8115H147.585ZM179.21 69.5732V88.8232H177.273V69.5732H179.21ZM162.414 83.5283C165.141 81.8722 166.531 78.3702 166.531 74.9441V73.4019H163.006V71.7383H171.819V73.4019H168.499V74.9441C168.499 78.241 169.828 81.5304 172.533 83.0877L171.317 84.5919C169.471 83.4903 168.21 81.5304 167.542 79.2058C166.858 81.7203 165.551 83.8702 163.675 85.0401L162.414 83.5283ZM170.383 78.0511V76.395H173.383V69.9834H175.305V87.8508H173.383V78.0511H170.383ZM196.364 70.7963V78.7196H187.202V70.7963H196.364ZM188.471 87.1975C191.996 86.8481 194.738 85.0856 194.852 83.3612H189.261V81.8115H194.898V80.0262H196.934V81.8115H202.593V83.3612H196.972C197.086 85.0477 199.775 86.7949 203.292 87.1975L202.593 88.77C199.577 88.4054 197.086 87.1064 195.923 85.4123C194.746 87.1291 192.216 88.3978 189.185 88.77L188.471 87.1975ZM189.208 77.1091H194.351V72.422H189.208V77.1091ZM200.132 80.5808V69.5732H202.145V80.5808H200.132ZM219.474 76.3267V79.0159H227.26V80.6568H209.712V79.0159H217.468V76.3267H219.474ZM210.715 75.7721C214.407 75.2859 217.43 73.1209 217.43 70.6899V69.8771H219.497V70.6899C219.497 73.1512 222.512 75.2859 226.235 75.7721L225.422 77.3826C222.376 76.8888 219.686 75.3999 218.463 73.2804C217.233 75.4075 214.544 76.8888 211.467 77.3826L210.715 75.7721ZM211.786 85.4503C211.786 83.2928 214.285 82.0773 218.463 82.0773C222.634 82.0773 225.103 83.2928 225.118 85.4503C225.103 87.6001 222.634 88.7928 218.463 88.7928C214.285 88.7928 211.786 87.6001 211.786 85.4503ZM213.86 85.4503C213.845 86.605 215.501 87.2431 218.463 87.2279C221.403 87.2431 223.067 86.605 223.082 85.4503C223.067 84.2804 221.403 83.6575 218.463 83.6575C215.501 83.6575 213.845 84.2804 213.86 85.4503ZM243.669 70.5532V72.0117C243.669 73.5159 243.669 75.2403 243.168 77.5801H245.902V79.2438H228.286V77.5801H241.116C241.618 75.3239 241.641 73.6754 241.641 72.2093H230.489V70.5532H243.669ZM230.428 88.5801V81.6899H243.692V88.5801H230.428ZM232.426 86.924H241.671V83.2928H232.426V86.924Z" fill="black"/>
<rect x="24" y="165" width="83" height="29" rx="12" fill="#31A9FF"/>
<path d="M51.6651 183.569V184.642H40.4544V183.569H45.3854V181.055H41.7307V174.747H43.0311V176.859H49.0449V174.747H50.3356V181.055H46.6713V183.569H51.6651ZM43.0311 180.001H49.0449V177.903H43.0311V180.001ZM62.6244 173.91V186.16H61.3675V179.89H59.806V185.532H58.5878V174.162H59.806V178.812H61.3675V173.91H62.6244ZM52.7045 183.047V175.356H54.0049V181.906C55.1361 181.887 56.3688 181.8 57.7563 181.529L57.9013 182.66C56.219 182.965 54.817 183.047 53.4973 183.047H52.7045ZM73.7287 177.497V178.537H65.2881V174.355H66.574V177.497H73.7287ZM63.7943 181.118V180.079H75.0049V181.118H63.7943ZM65.1962 185.87V182.283H66.487V184.811H73.806V185.87H65.1962ZM89.6825 180.325V181.369H84.8241V183.622H83.5382V181.369H78.4719V180.325H89.6825ZM79.869 185.909V182.549H81.1549V184.845H88.4401V185.909H79.869ZM79.9512 179.242V174.302H81.2419V175.776H86.9173V174.302H88.2081V179.242H79.9512ZM81.2419 178.203H86.9173V176.758H81.2419V178.203Z" fill="white"/>
<path d="M126.89 173.287C126.89 176.79 124.315 179.287 120.215 180.37L119.718 179.409C123.155 178.497 125.32 176.657 125.58 174.282H120.459V173.287H126.89ZM121.994 186.072V180.901H131.033V186.072H121.994ZM123.21 185.077H129.829V181.884H123.21V185.077ZM129.807 180.238V172.392H131.033V180.238H129.807ZM145.259 172.381V186.271H144.088V178.978H142.055V185.541H140.917V172.691H142.055V177.961H144.088V172.381H145.259ZM133.9 182.834V174.083H139.104V175.088H135.126V181.785C137.044 181.779 138.364 181.702 139.9 181.387L140.01 182.414C138.342 182.768 136.928 182.823 134.795 182.834H133.9ZM158.203 173.287V174.503C158.203 175.818 158.203 177.254 157.805 179.254H159.883V180.271H154.137V186.293H152.91V180.271H147.22V179.254H156.557C156.988 177.26 156.988 175.796 156.988 174.503V174.304H148.811V173.287H158.203Z" fill="black"/>
<rect x="24" y="206" width="83" height="29" rx="12" fill="#31A9FF"/>
<path d="M56.0794 214.91V217.811H57.8536V218.889H56.0794V222.065H54.779V214.91H56.0794ZM46.9233 221.354V215.611H48.2044V217.385H51.4144V215.611H52.7003V221.354H46.9233ZM48.2044 220.32H51.4144V218.41H48.2044V220.32ZM48.2721 226.991V222.703H56.1664V223.738H49.5725V225.952H56.3985V226.991H48.2721ZM68.0491 218.497V219.537H59.6085V215.355H60.8944V218.497H68.0491ZM58.1147 222.118V221.079H69.3253V222.118H58.1147ZM59.5166 226.87V223.283H60.8074V225.811H68.1264V226.87H59.5166ZM84.0029 221.325V222.369H79.1445V224.622H77.8586V222.369H72.7923V221.325H84.0029ZM74.1894 226.909V223.549H75.4753V225.845H82.7605V226.909H74.1894ZM74.2716 220.242V215.302H75.5623V216.776H81.2377V215.302H82.5285V220.242H74.2716ZM75.5623 219.203H81.2377V217.758H75.5623V219.203Z" fill="white"/>
<path d="M131.431 213.381V227.271H130.26V219.978H128.227V226.541H127.088V213.691H128.227V218.961H130.26V213.381H131.431ZM120.072 223.834V215.083H125.276V216.088H121.298V222.785C123.215 222.779 124.536 222.702 126.072 222.387L126.182 223.414C124.514 223.768 123.099 223.823 120.967 223.834H120.072ZM144.375 214.287V215.503C144.375 216.818 144.375 218.254 143.977 220.254H146.055V221.271H140.309V227.293H139.082V221.271H133.392V220.254H142.729C143.16 218.26 143.16 216.796 143.16 215.503V215.304H134.983V214.287H144.375ZM158.667 213.381V227.271H157.441V213.381H158.667ZM147.496 223.624C149.562 222.685 151.142 220.343 151.142 217.901V216.796H147.872V215.801H151.131V213.635H152.347V215.801H155.573V216.796H152.347V217.901C152.347 220.232 153.971 222.486 156.06 223.37L155.374 224.331C153.772 223.619 152.413 222.11 151.767 220.276C151.137 222.221 149.794 223.818 148.192 224.575L147.496 223.624ZM168.418 214.442C168.407 218.055 166.484 220.773 161.921 222.243L161.446 221.238C163.838 220.492 165.385 219.403 166.258 218.066L161.556 218.431L161.346 217.414L166.722 217.171C166.943 216.63 167.076 216.061 167.125 215.459H162.042V214.442H168.418ZM163.545 227.05V222.762H164.772V226.044H172.948V227.05H163.545ZM171.291 223.481V213.392H172.518V223.481H171.291Z" fill="black"/>
<path d="M38.1647 311.262V312.566H24.5518V311.262H30.5394V308.21H26.1015V300.549H27.6806V303.115H34.9831V300.549H36.5504V308.21H32.1008V311.262H38.1647ZM27.6806 306.93H34.9831V304.383H27.6806V306.93ZM51.4079 299.546V307.147H49.9168V303.978H48.0619V307.106H46.5826V299.821H48.0619V302.704H49.9168V299.546H51.4079ZM39.421 306.402V300.379H41.0001V305.11C42.4793 305.105 43.9058 305.011 45.5553 304.694L45.7138 305.979C43.7649 306.343 42.1565 306.408 40.3837 306.402H39.421ZM41.4345 309.038V307.77H51.4079V311.521H43.0429V312.959H51.9773V314.221H41.4638V310.335H49.8464V309.038H41.4345ZM58.2534 313H56.3163L60.6367 300.978H62.7558L67.0763 313H65.1333L64.0355 309.824H59.3512L58.2534 313ZM59.8795 308.292H63.5072L61.7403 303.173H61.6464L59.8795 308.292ZM77.7975 300.978V313H76.1186L70.0254 304.218H69.9138V313H68.0882V300.978H69.7847L75.8779 309.777H75.9895V300.978H77.7975ZM83.6342 313H79.7306V300.978H83.7516C87.2972 300.978 89.4105 303.232 89.4105 306.971C89.4105 310.728 87.2972 313 83.6342 313ZM81.5562 311.403H83.5344C86.2641 311.403 87.6083 309.818 87.6083 306.971C87.6083 304.142 86.2641 302.575 83.6401 302.575H81.5562V311.403ZM105.998 307.153V308.421H101.496V311.327H107.542V312.613H93.9291V311.327H99.9166V308.421H95.6373V300.69H105.851V301.976H97.2281V303.878H105.523V305.14H97.2281V307.153H105.998ZM119.999 300.291V301.594C119.999 303.027 119.999 304.6 119.588 306.783H121.695V308.069H108.111V306.783H117.991C118.167 305.921 118.273 305.152 118.337 304.441L109.632 304.829L109.444 303.52L118.408 303.267C118.431 302.674 118.431 302.123 118.431 301.594V301.571H109.814V300.291H119.999ZM109.784 314.104V309.431H111.358V312.812H120.286V314.104H109.784ZM136.147 301.753V303.074H133.981V304.893H136.147V306.208H133.981V308.539H132.402V299.546H133.981V301.753H136.147ZM122.881 301.723V300.455H129.661V304.606H124.478V306.42C127.06 306.425 128.892 306.326 131.058 305.962L131.222 307.241C128.921 307.646 126.955 307.734 124.102 307.729H122.91V303.402H128.117V301.723H122.881ZM124.166 311.662C124.166 309.93 126.062 308.903 129.156 308.897C132.214 308.903 134.116 309.93 134.116 311.662C134.116 313.387 132.214 314.379 129.156 314.379C126.062 314.379 124.166 313.387 124.166 311.662ZM125.716 311.662C125.704 312.624 126.984 313.182 129.156 313.17C131.316 313.182 132.572 312.624 132.572 311.662C132.572 310.693 131.316 310.135 129.156 310.135C126.984 310.135 125.704 310.693 125.716 311.662Z" fill="black"/>
<rect x="24" y="325" width="342" height="68" rx="12" fill="#F1F1F1"/>
<path d="M211.754 368.232C208.133 368.232 205.547 366.26 205.464 363.392H208.547C208.622 364.768 209.981 365.663 211.746 365.663C213.619 365.663 214.97 364.635 214.961 363.135C214.97 361.602 213.652 360.508 211.439 360.508H209.931V358.155H211.439C213.246 358.155 214.506 357.152 214.506 355.669C214.506 354.243 213.428 353.282 211.787 353.282C210.18 353.282 208.804 354.177 208.746 355.594H205.821C205.887 352.751 208.473 350.796 211.804 350.796C215.235 350.796 217.464 352.901 217.448 355.494C217.464 357.409 216.205 358.776 214.34 359.166V359.298C216.743 359.622 218.102 361.155 218.086 363.293C218.102 366.152 215.426 368.232 211.754 368.232ZM227.009 368.323C222.916 368.315 220.479 365.091 220.487 359.53C220.487 353.986 222.94 350.796 227.009 350.796C231.07 350.796 233.532 353.994 233.532 359.53C233.523 365.108 231.095 368.323 227.009 368.323ZM223.562 359.53C223.562 363.608 224.88 365.738 227.009 365.738C229.131 365.738 230.449 363.608 230.449 359.53C230.44 355.478 229.123 353.34 227.009 353.34C224.888 353.34 223.57 355.478 223.562 359.53ZM238.855 366.309L236.9 372.881H234.67L235.872 366.309H238.855ZM247.681 368.323C243.587 368.315 241.151 365.091 241.159 359.53C241.159 353.986 243.612 350.796 247.681 350.796C251.742 350.796 254.203 353.994 254.203 359.53C254.195 365.108 251.767 368.323 247.681 368.323ZM244.234 359.53C244.234 363.608 245.552 365.738 247.681 365.738C249.803 365.738 251.121 363.608 251.121 359.53C251.112 355.478 249.795 353.34 247.681 353.34C245.56 353.34 244.242 355.478 244.234 359.53ZM263.009 368.323C258.916 368.315 256.479 365.091 256.487 359.53C256.487 353.986 258.94 350.796 263.009 350.796C267.07 350.796 269.532 353.994 269.532 359.53C269.523 365.108 267.095 368.323 263.009 368.323ZM259.562 359.53C259.562 363.608 260.88 365.738 263.009 365.738C265.131 365.738 266.449 363.608 266.449 359.53C266.44 355.478 265.123 353.34 263.009 353.34C260.888 353.34 259.57 355.478 259.562 359.53ZM278.338 368.323C274.244 368.315 271.807 365.091 271.816 359.53C271.816 353.986 274.269 350.796 278.338 350.796C282.398 350.796 284.86 353.994 284.86 359.53C284.851 365.108 282.423 368.323 278.338 368.323ZM274.89 359.53C274.89 363.608 276.208 365.738 278.338 365.738C280.459 365.738 281.777 363.608 281.777 359.53C281.769 355.478 280.451 353.34 278.338 353.34C276.216 353.34 274.898 355.478 274.89 359.53Z" fill="black"/>
<path d="M302.188 368H300.439L306.613 351.028H308.412L314.586 368H312.829L311.039 362.953H303.986L302.188 368ZM304.508 361.47H310.508L307.566 353.182H307.459L304.508 361.47ZM330.305 351.028V368H328.706L318.844 354.011H318.703V368H317.037V351.028H318.653L328.532 365.041H328.673V351.028H330.305ZM339.373 368H334.334V351.028H339.655C344.527 351.028 347.411 354.202 347.411 359.472C347.403 364.809 344.494 368 339.373 368ZM336 366.508H339.282C343.591 366.508 345.787 363.856 345.779 359.472C345.779 355.138 343.632 352.519 339.555 352.519H336V366.508Z" fill="#707070"/>
<path d="M35.8535 407.902V408.641H33.8164V415.066H32.9551V403.008H33.8164V407.902H35.8535ZM25.0664 411.963V404.197H25.9141V411.225H25.9961C27.8145 411.231 29.6396 411.095 31.6836 410.664L31.793 411.416C29.6943 411.833 27.8555 411.963 25.9961 411.963H25.0664ZM40.164 403.91C42.0575 403.91 43.3837 405.038 43.3905 406.699C43.3837 408.36 42.0575 409.488 40.164 409.488C38.2704 409.488 36.9374 408.36 36.9374 406.699C36.9374 405.038 38.2704 403.91 40.164 403.91ZM36.2812 411.594C38.537 411.607 41.6337 411.594 44.3339 411.184L44.4023 411.84C41.6132 412.353 38.6122 412.359 36.4179 412.359L36.2812 411.594ZM37.7851 406.699C37.7782 407.882 38.7763 408.729 40.164 408.723C41.5448 408.729 42.5429 407.882 42.5429 406.699C42.5429 405.517 41.5448 404.676 40.164 404.676C38.7763 404.676 37.7782 405.517 37.7851 406.699ZM45.1679 415.08V403.008H46.0292V415.08H45.1679ZM60.242 403.008V405.852H62.115V406.59H60.242V409.83H59.3806V403.008H60.242ZM51.4646 408.805V403.623H52.3396V408.066H52.408C54.1921 408.066 56.0037 407.937 58.0271 407.52L58.1365 408.258C56.0584 408.675 54.2468 408.805 52.408 408.805H51.4646ZM52.6814 414.889V410.527H60.242V414.889H52.6814ZM53.5154 414.164H59.3943V411.225H53.5154V414.164ZM73.5212 409.42V410.131H62.529V409.42H73.5212ZM63.7868 405.811C63.7868 404.313 65.4206 403.432 68.0114 403.432C70.6022 403.432 72.236 404.313 72.236 405.811C72.236 407.301 70.6022 408.189 68.0114 408.189C65.4206 408.189 63.7868 407.301 63.7868 405.811ZM63.9782 414.779V411.279H64.8532V414.055H72.3044V414.779H63.9782ZM64.6755 405.811C64.6618 406.836 65.988 407.472 68.0114 407.465C70.0417 407.472 71.361 406.836 71.361 405.811C71.361 404.799 70.0417 404.149 68.0114 404.143C65.988 404.149 64.6618 404.799 64.6755 405.811ZM77.9175 414H76.8921L80.4878 404.102H81.5405L85.1362 414H84.1109L83.0718 411.061H78.9566L77.9175 414ZM79.2642 410.199H82.7642L81.0484 405.359H80.98L79.2642 410.199ZM93.8901 404.102V414H92.9604L87.2045 405.838H87.1225V414H86.1518V404.102H87.0952L92.851 412.277H92.933V404.102H93.8901ZM98.7611 414H95.8216V404.102H98.9252C101.769 404.102 103.451 405.947 103.451 409.023C103.444 412.141 101.748 414 98.7611 414ZM96.7923 413.125H98.7064C101.222 413.125 102.5 411.58 102.494 409.023C102.494 406.494 101.243 404.97 98.8705 404.977H96.7923V413.125ZM117.007 409.379V410.09H113.179V412.77H118.306V413.494H107.259V412.77H112.318V410.09H108.722V404.047H116.857V404.771H109.597V406.645H116.611V407.369H109.597V409.379H117.007ZM128.495 403.678V404.676C128.488 405.817 128.488 407.13 128.14 408.996H129.972V409.721H118.939V408.996H127.272C127.442 408.142 127.531 407.396 127.586 406.727L120.196 407.082L120.073 406.33L127.62 406.077C127.641 405.571 127.634 405.106 127.634 404.676V404.402H120.36V403.678H128.495ZM120.374 414.779V411.047H121.235V414.055H128.769V414.779H120.374ZM141.884 404.977V405.729H140.011V407.52H141.884V408.258H140.011V410.322H139.149V403.008H140.011V404.977H141.884ZM131.151 404.498V403.773H136.593V406.918H132.04V408.805H132.108C134.241 408.805 135.855 408.729 137.837 408.395L137.919 409.133C135.916 409.461 134.282 409.543 132.108 409.529H131.179V406.221H135.745V404.498H131.151ZM132.204 412.879C132.204 411.512 133.694 410.719 136.169 410.719C138.616 410.719 140.106 411.512 140.106 412.879C140.106 414.246 138.616 415.032 136.169 415.039C133.694 415.032 132.204 414.246 132.204 412.879ZM133.052 412.879C133.038 413.788 134.248 414.349 136.169 414.342C138.076 414.349 139.272 413.788 139.272 412.879C139.272 411.977 138.076 411.416 136.169 411.416C134.248 411.416 133.038 411.977 133.052 412.879ZM143.487 414.068C143.084 414.075 142.749 413.74 142.749 413.344C142.749 412.94 143.084 412.612 143.487 412.605C143.884 412.612 144.212 412.94 144.212 413.344C144.212 413.74 143.884 414.075 143.487 414.068ZM142.749 407.588C142.749 407.185 143.084 406.856 143.487 406.85C143.884 406.856 144.212 407.185 144.212 407.588C144.212 407.984 143.884 408.319 143.487 408.312C143.084 408.319 142.749 407.984 142.749 407.588ZM151.862 404.102V414H150.878V405.113H150.823L148.485 406.658V405.66L150.85 404.102H151.862ZM154.928 413.166L153.93 416.707H153.124L153.889 413.166H154.928ZM159.389 414.137C157.277 414.137 156.04 412.264 156.04 409.051C156.04 405.858 157.291 403.965 159.389 403.965C161.481 403.965 162.725 405.858 162.725 409.051C162.725 412.264 161.495 414.137 159.389 414.137ZM156.997 409.051C156.99 411.73 157.879 413.262 159.389 413.262C160.886 413.262 161.775 411.73 161.782 409.051C161.775 406.371 160.88 404.819 159.389 404.826C157.885 404.819 156.99 406.371 156.997 409.051ZM167.131 414.137C165.019 414.137 163.782 412.264 163.782 409.051C163.782 405.858 165.033 403.965 167.131 403.965C169.223 403.965 170.467 405.858 170.467 409.051C170.467 412.264 169.237 414.137 167.131 414.137ZM164.739 409.051C164.732 411.73 165.621 413.262 167.131 413.262C168.628 413.262 169.517 411.73 169.524 409.051C169.517 406.371 168.622 404.819 167.131 404.826C165.628 404.819 164.732 406.371 164.739 409.051ZM174.874 414.137C172.761 414.137 171.524 412.264 171.524 409.051C171.524 405.858 172.775 403.965 174.874 403.965C176.965 403.965 178.209 405.858 178.209 409.051C178.209 412.264 176.979 414.137 174.874 414.137ZM172.481 409.051C172.474 411.73 173.363 413.262 174.874 413.262C176.371 413.262 177.259 411.73 177.266 409.051C177.259 406.371 176.364 404.819 174.874 404.826C173.37 404.819 172.474 406.371 172.481 409.051ZM180.414 413.166L179.416 416.707H178.61L179.375 413.166H180.414ZM184.875 414.137C182.763 414.137 181.526 412.264 181.526 409.051C181.526 405.858 182.777 403.965 184.875 403.965C186.967 403.965 188.211 405.858 188.211 409.051C188.211 412.264 186.981 414.137 184.875 414.137ZM182.483 409.051C182.476 411.73 183.365 413.262 184.875 413.262C186.372 413.262 187.261 411.73 187.268 409.051C187.261 406.371 186.366 404.819 184.875 404.826C183.371 404.819 182.476 406.371 182.483 409.051ZM192.617 414.137C190.505 414.137 189.268 412.264 189.268 409.051C189.268 405.858 190.519 403.965 192.617 403.965C194.709 403.965 195.953 405.858 195.953 409.051C195.953 412.264 194.723 414.137 192.617 414.137ZM190.225 409.051C190.218 411.73 191.107 413.262 192.617 413.262C194.114 413.262 195.003 411.73 195.01 409.051C195.003 406.371 194.108 404.819 192.617 404.826C191.114 404.819 190.218 406.371 190.225 409.051ZM200.36 414.137C198.247 414.137 197.01 412.264 197.01 409.051C197.01 405.858 198.261 403.965 200.36 403.965C202.451 403.965 203.695 405.858 203.695 409.051C203.695 412.264 202.465 414.137 200.36 414.137ZM197.967 409.051C197.96 411.73 198.849 413.262 200.36 413.262C201.857 413.262 202.745 411.73 202.752 409.051C202.745 406.371 201.85 404.819 200.36 404.826C198.856 404.819 197.96 406.371 197.967 409.051ZM208.256 414H207.23L210.826 404.102H211.879L215.475 414H214.449L213.41 411.061H209.295L208.256 414ZM209.603 410.199H213.103L211.387 405.359H211.318L209.603 410.199ZM224.228 404.102V414H223.299L217.543 405.838H217.461V414H216.49V404.102H217.434L223.189 412.277H223.271V404.102H224.228ZM229.099 414H226.16V404.102H229.264C232.107 404.102 233.789 405.947 233.789 409.023C233.782 412.141 232.087 414 229.099 414ZM227.131 413.125H229.045C231.56 413.125 232.839 411.58 232.832 409.023C232.832 406.494 231.581 404.97 229.209 404.977H227.131V413.125Z" fill="#31A9FF"/>
<path d="M0 180C0 170.059 8.05888 162 18 162H372C381.941 162 390 170.059 390 180V844H0V180Z" fill="#31A9FF"/>
<path d="M41.6951 524.469V525.256H39.5145V532.14H38.5874V519.217H39.5145V524.469H41.6951ZM30.1447 528.814V520.506H31.0563V528.032H31.1443C33.0919 528.032 35.0445 527.887 37.2303 527.431L37.3546 528.234C35.1015 528.68 33.1281 528.819 31.1443 528.814H30.1447ZM46.3257 520.19C48.3509 520.19 49.7649 521.397 49.7753 523.179C49.7649 524.961 48.3509 526.167 46.3257 526.167C44.2901 526.167 42.8554 524.961 42.8657 523.179C42.8554 521.397 44.2901 520.19 46.3257 520.19ZM42.1613 528.431C44.5698 528.441 47.8951 528.426 50.7801 527.985L50.863 528.68C47.8692 529.239 44.6527 529.244 42.3012 529.244L42.1613 528.431ZM43.7722 523.179C43.7618 524.443 44.834 525.354 46.3257 525.354C47.7967 525.354 48.8637 524.443 48.8688 523.179C48.8637 521.91 47.7967 521.009 46.3257 521.003C44.834 521.009 43.7618 521.91 43.7722 523.179ZM51.6762 532.16V519.217H52.6033V532.16H51.6762ZM67.8442 519.232V522.267H69.859V523.065H67.8442V526.535H66.917V519.232H67.8442ZM58.4433 525.432V519.885H59.3756V524.645H59.4481C61.3646 524.645 63.3017 524.5 65.4668 524.059L65.5859 524.847C63.3587 525.297 61.4267 525.437 59.4481 525.432H58.4433ZM59.7434 531.948V527.281H67.8442V531.948H59.7434ZM60.6394 531.181H66.9429V528.027H60.6394V531.181ZM82.0725 526.095V526.862H70.2942V526.095H82.0725ZM71.6409 522.221C71.6409 520.62 73.3915 519.677 76.173 519.683C78.944 519.677 80.6999 520.62 80.6999 522.221C80.6999 523.826 78.944 524.774 76.173 524.774C73.3915 524.774 71.6409 523.826 71.6409 522.221ZM71.848 531.834V528.089H72.7804V531.052H80.7672V531.834H71.848ZM72.5939 522.221C72.5835 523.319 74.0079 524.002 76.173 524.002C78.3432 524.002 79.7624 523.319 79.7624 522.221C79.7624 521.138 78.3432 520.449 76.173 520.444C74.0079 520.449 72.5835 521.138 72.5939 522.221ZM86.7885 531H85.6956L89.5544 520.392H90.6783L94.5371 531H93.439L92.3203 527.846H87.9125L86.7885 531ZM88.2388 526.919H91.9888L90.15 521.739H90.0827L88.2388 526.919ZM103.912 520.392V531H102.912L96.7485 522.257H96.6605V531H95.6194V520.392H96.6294L102.803 529.151H102.891V520.392H103.912ZM109.129 531H105.98V520.392H109.305C112.351 520.392 114.153 522.376 114.153 525.67C114.148 529.006 112.33 531 109.129 531ZM107.021 530.068H109.072C111.765 530.068 113.138 528.41 113.133 525.67C113.133 522.961 111.791 521.325 109.243 521.325H107.021V530.068ZM128.69 526.043V526.815H124.593V529.679H130.084V530.461H118.248V529.679H123.671V526.815H119.823V520.335H128.535V521.112H120.755V523.127H128.266V523.894H120.755V526.043H128.69ZM140.997 519.936V521.009C140.997 522.231 140.997 523.65 140.624 525.644H142.582V526.421H130.762V525.644H139.687C139.873 524.728 139.972 523.925 140.023 523.21L132.114 523.583L131.985 522.785L140.065 522.511C140.086 521.967 140.086 521.47 140.086 521.009V520.719H132.285V519.936H140.997ZM132.306 531.834V527.83H133.228V531.052H141.298V531.834H132.306ZM155.355 521.335V522.133H153.34V524.054H155.355V524.852H153.34V527.064H152.413V519.232H153.34V521.335H155.355ZM143.851 520.817V520.04H149.683V523.407H144.794V525.427H144.871C147.161 525.432 148.886 525.349 151.014 525.002L151.103 525.789C148.953 526.136 147.202 526.224 144.871 526.214H143.887V522.661H148.777V520.817H143.851ZM144.975 529.798C144.975 528.338 146.576 527.488 149.217 527.483C151.843 527.488 153.444 528.338 153.449 529.798C153.444 531.264 151.843 532.108 149.217 532.108C146.576 532.108 144.975 531.264 144.975 529.798ZM145.876 529.798C145.866 530.772 147.166 531.373 149.217 531.363C151.263 531.373 152.553 530.772 152.553 529.798C152.553 528.835 151.263 528.229 149.217 528.229C147.166 528.229 145.866 528.835 145.876 529.798ZM157.064 530.845C156.634 530.845 156.272 530.492 156.282 530.062C156.272 529.633 156.634 529.28 157.064 529.28C157.494 529.28 157.846 529.633 157.846 530.062C157.846 530.492 157.494 530.845 157.064 530.845ZM156.287 524.303C156.277 523.873 156.64 523.521 157.069 523.521C157.499 523.521 157.852 523.873 157.852 524.303C157.852 524.733 157.499 525.085 157.069 525.085C156.64 525.085 156.277 524.733 156.287 524.303ZM166.592 520.392V531H164.976V522.008H164.914L162.381 523.661V522.122L165.017 520.392H166.592ZM170.147 529.974L168.971 534.025H167.728L168.51 529.974H170.147ZM175.096 531.171C172.647 531.171 171.201 529.177 171.207 525.701C171.207 522.247 172.662 520.247 175.096 520.247C177.536 520.247 178.991 522.252 178.991 525.701C178.991 529.177 177.552 531.171 175.096 531.171ZM172.812 525.701C172.807 528.348 173.667 529.783 175.096 529.783C176.531 529.783 177.386 528.348 177.386 525.701C177.386 523.06 176.521 521.62 175.096 521.62C173.677 521.62 172.812 523.06 172.812 525.701ZM183.904 531.171C181.454 531.171 180.009 529.177 180.014 525.701C180.014 522.247 181.47 520.247 183.904 520.247C186.344 520.247 187.799 522.252 187.799 525.701C187.799 529.177 186.359 531.171 183.904 531.171ZM181.62 525.701C181.615 528.348 182.475 529.783 183.904 529.783C185.339 529.783 186.194 528.348 186.194 525.701C186.194 523.06 185.329 521.62 183.904 521.62C182.485 521.62 181.62 523.06 181.62 525.701ZM192.712 531.171C190.262 531.171 188.817 529.177 188.822 525.701C188.822 522.247 190.278 520.247 192.712 520.247C195.152 520.247 196.607 522.252 196.607 525.701C196.607 529.177 195.167 531.171 192.712 531.171ZM190.428 525.701C190.423 528.348 191.283 529.783 192.712 529.783C194.147 529.783 195.001 528.348 195.001 525.701C195.001 523.06 194.136 521.62 192.712 521.62C191.293 521.62 190.428 523.06 190.428 525.701ZM199.343 529.974L198.167 534.025H196.924L197.706 529.974H199.343ZM204.293 531.171C201.843 531.171 200.398 529.177 200.403 525.701C200.403 522.247 201.858 520.247 204.293 520.247C206.732 520.247 208.188 522.252 208.188 525.701C208.188 529.177 206.748 531.171 204.293 531.171ZM202.008 525.701C202.003 528.348 202.863 529.783 204.293 529.783C205.727 529.783 206.582 528.348 206.582 525.701C206.582 523.06 205.717 521.62 204.293 521.62C202.873 521.62 202.008 523.06 202.008 525.701ZM213.1 531.171C210.65 531.171 209.205 529.177 209.211 525.701C209.211 522.247 210.666 520.247 213.1 520.247C215.54 520.247 216.995 522.252 216.995 525.701C216.995 529.177 215.555 531.171 213.1 531.171ZM210.816 525.701C210.811 528.348 211.671 529.783 213.1 529.783C214.535 529.783 215.39 528.348 215.39 525.701C215.39 523.06 214.525 521.62 213.1 521.62C211.681 521.62 210.816 523.06 210.816 525.701ZM221.908 531.171C219.458 531.171 218.013 529.177 218.018 525.701C218.018 522.247 219.474 520.247 221.908 520.247C224.348 520.247 225.803 522.252 225.803 525.701C225.803 529.177 224.363 531.171 221.908 531.171ZM219.624 525.701C219.619 528.348 220.479 529.783 221.908 529.783C223.343 529.783 224.198 528.348 224.198 525.701C224.198 523.06 223.333 521.62 221.908 521.62C220.489 521.62 219.624 523.06 219.624 525.701ZM231.287 531H229.577L233.389 520.392H235.259L239.071 531H237.357L236.388 528.198H232.255L231.287 531ZM232.721 526.846H235.922L234.363 522.329H234.28L232.721 526.846ZM248.531 520.392V531H247.05L241.674 523.251H241.575V531H239.964V520.392H241.461L246.838 528.156H246.936V520.392H248.531ZM253.681 531H250.237V520.392H253.785C256.913 520.392 258.778 522.381 258.778 525.681C258.778 528.996 256.913 531 253.681 531ZM251.848 529.591H253.593C256.002 529.591 257.188 528.193 257.188 525.681C257.188 523.184 256.002 521.801 253.687 521.801H251.848V529.591Z" fill="white"/>
<path d="M47.4475 259.906V270.622H44.8453V268.79H39.7403V266.793H44.8453V264.713H39.9972C38.6796 267.945 35.5718 270.041 30.8895 271.094L29.9945 268.964C34.9669 267.928 37.453 265.74 37.8177 262.914H31.1464V260.809H40.7099C40.7099 261.472 40.6602 262.102 40.5608 262.707H44.8453V259.906H47.4475ZM33.4917 273.514V271.45H47.4475V277.036H36.1271V278.785H47.9945V280.873H33.5249V275.088H44.8287V273.514H33.4917ZM68.6704 259.906V281.072H66.2008V259.906H68.6704ZM50.0737 275.072C53.1317 273.199 54.4742 269.378 54.4742 265.691V264.282H50.7947V262.177H60.4079V264.282H56.9853V265.691C56.977 269.262 58.2615 272.851 61.2947 274.591L59.7615 276.506C57.7974 275.345 56.488 273.331 55.7588 270.92C55.0129 273.53 53.6621 275.76 51.6648 276.994L50.0737 275.072ZM58.8665 269.395V267.29H61.9162V260.304H64.361V280.052H61.9162V269.395H58.8665ZM88.1714 261.215V270.025H77.9697V261.215H88.1714ZM79.2294 279.033C83.2985 278.669 85.8924 276.854 86.1327 275.171H80.0913V273.224H86.1907V271.359H88.8012V273.224H94.9255V275.171H88.8675C89.1079 276.812 91.6686 278.619 95.7211 279.033L94.8427 281.022C91.4034 280.657 88.8012 279.307 87.5084 277.541C86.2073 279.331 83.572 280.641 80.1244 281.022L79.2294 279.033ZM80.5305 267.986H85.5941V263.271H80.5305V267.986ZM91.909 271.964V259.906H94.4863V271.964H91.909ZM114.244 267.365V270.149H122.623V272.238H103.322V270.149H111.659V267.365H114.244ZM104.366 266.528C108.741 265.972 111.617 263.577 111.617 261.05V260.246H114.269V261.05C114.269 263.635 117.112 265.972 121.537 266.528L120.526 268.583C117.045 268.036 114.277 266.47 112.927 264.24C111.576 266.461 108.8 268.036 105.319 268.583L104.366 266.528ZM105.567 277.343C105.567 274.956 108.327 273.597 112.943 273.597C117.543 273.597 120.277 274.956 120.286 277.343C120.277 279.729 117.543 281.064 112.943 281.055C108.327 281.064 105.567 279.729 105.567 277.343ZM108.219 277.343C108.203 278.494 109.835 279.099 112.943 279.091C116.009 279.099 117.667 278.494 117.683 277.343C117.667 276.174 116.009 275.602 112.943 275.602C109.835 275.602 108.203 276.174 108.219 277.343ZM141.061 260.925V262.575C141.061 264.232 141.061 266.097 140.531 268.591H143.431V270.696H124.064V268.591H137.904C138.409 266.304 138.451 264.572 138.459 263.022H126.459V260.925H141.061ZM126.393 280.823V273.166H141.028V280.823H126.393ZM128.945 278.718H138.442V275.204H128.945V278.718ZM156.899 260.818C159.99 260.818 162.195 262.533 162.211 265.077C162.195 267.191 160.612 268.765 158.25 269.204V270.92C160.015 270.812 161.789 270.655 163.438 270.414L163.637 272.32C159.236 273.108 154.322 273.199 150.733 273.191L150.46 271.102C151.985 271.11 153.766 271.102 155.631 271.036V269.221C153.211 268.807 151.587 267.215 151.604 265.077C151.587 262.533 153.791 260.818 156.899 260.818ZM153.352 280.649V274.674H155.971V278.536H168.037V280.649H153.352ZM154.032 265.077C154.015 266.47 155.208 267.331 156.899 267.348C158.598 267.331 159.742 266.47 159.758 265.077C159.742 263.652 158.598 262.798 156.899 262.79C155.208 262.798 154.015 263.652 154.032 265.077ZM164.681 276.099V259.923H167.291V266.751H170.15V268.931H167.291V276.099H164.681ZM190.611 276.472V278.627H171.243V276.472H176.365V272.983H173.539V266.064H185.738V263.453H173.506V261.348H188.315V268.152H176.141V270.862H188.804V272.983H185.705V276.472H190.611ZM178.901 276.472H183.144V272.983H178.901V276.472ZM196.353 262.028L196.088 274.019H193.436L193.162 262.028H196.353ZM192.947 277.367C192.93 276.373 193.759 275.569 194.762 275.569C195.74 275.569 196.569 276.373 196.577 277.367C196.569 278.37 195.74 279.182 194.762 279.182C193.759 279.182 192.93 278.37 192.947 277.367Z" fill="white"/>
<rect x="29" y="309" width="83" height="29" rx="12" fill="white"/>
<path d="M56.6621 326.564V327.645H45.4512V326.564H50.3867V324.049H46.7363V317.746H48.0352V319.852H54.0508V317.746H55.3359V324.049H51.6719V326.564H56.6621ZM48.0352 322.996H54.0508V320.904H48.0352V322.996ZM67.6171 316.912V329.162H66.373V322.887H64.8007V328.533H63.5839V317.158H64.8007V321.82H66.373V316.912H67.6171ZM57.705 326.045V318.361H59.0038V324.903C60.1318 324.89 61.3691 324.801 62.7636 324.527L62.9003 325.662C61.2187 325.963 59.8173 326.052 58.498 326.045H57.705ZM78.7225 320.494V321.533H70.287V317.35H71.5721V320.494H78.7225ZM68.7967 324.117V323.078H80.0077V324.117H68.7967ZM70.1912 328.875V325.279H71.4901V327.809H78.8045V328.875H70.1912ZM94.6852 323.324V324.363H89.818V326.619H88.5329V324.363H83.4743V323.324H94.6852ZM84.8688 328.902V325.553H86.154V327.85H93.4411V328.902H84.8688ZM84.9509 322.244V317.295H86.236V318.785H91.9098V317.295H93.2087V322.244H84.9509ZM86.236 321.205H91.9098V319.756H86.236V321.205Z" fill="#31A9FF"/>
<path d="M137.431 327.193V328.851H124.425V327.193H129.895V324.624H125.503V323.066H127.409V319H125.442V317.409H136.348V319H134.343V323.066H136.282V324.624H131.867V327.193H137.431ZM129.398 323.066H132.376V319H129.398V323.066ZM150.132 316.232V326.702H148.154V316.232H150.132ZM138.983 318.746V317.166H145.574V321.685H140.961V323.271C143.502 323.26 145.115 323.182 146.955 322.823L147.165 324.425C145.104 324.818 143.259 324.89 140.248 324.884H138.999V320.215H143.602V318.746H138.983ZM140.574 330.193V325.829H142.568V328.586H150.513V330.193H140.574ZM156.634 319.796C156.634 322.099 157.275 324.475 159.225 325.724L158.137 327.26C156.91 326.519 156.131 325.298 155.678 323.845C155.176 325.453 154.319 326.801 153.032 327.586L151.816 326.105C153.921 324.801 154.7 322.298 154.7 319.89V317.436H156.634V319.796ZM157.723 322.641V321.017H159.562V316.431H161.43V329.785H159.562V322.641H157.723ZM162.496 330.442V316.21H164.402V330.442H162.496ZM173.39 318.088C173.385 320.177 175.23 322.403 178.451 322.95L177.573 324.608C175.092 324.116 173.252 322.718 172.335 320.895C171.402 322.707 169.556 324.11 167.092 324.608L166.236 322.95C169.396 322.387 171.252 320.155 171.263 318.088V317.066H173.39V318.088ZM165.91 328.696V327.055H178.915V328.696H165.91Z" fill="black"/>
<rect x="29" y="350" width="83" height="29" rx="12" fill="white"/>
<path d="M61.0762 357.912V360.811H62.8535V361.891H61.0762V365.062H59.7773V357.912H61.0762ZM51.9297 364.352V358.609H53.2012V360.387H56.4141V358.609H57.6992V364.352H51.9297ZM53.2012 363.326H56.4141V361.412H53.2012V363.326ZM53.2695 369.984V365.705H61.1719V366.744H54.5684V368.959H61.3906V369.984H53.2695ZM73.0429 361.494V362.533H64.6073V358.35H65.8925V361.494H73.0429ZM63.1171 365.117V364.078H74.328V365.117H63.1171ZM64.5116 369.875V366.279H65.8105V368.809H73.1249V369.875H64.5116ZM89.0056 364.324V365.363H84.1384V367.619H82.8533V365.363H77.7947V364.324H89.0056ZM79.1892 369.902V366.553H80.4744V368.85H87.7615V369.902H79.1892ZM79.2712 363.244V358.295H80.5564V359.785H86.2302V358.295H87.5291V363.244H79.2712ZM80.5564 362.205H86.2302V360.756H80.5564V362.205Z" fill="#31A9FF"/>
<path d="M131.972 358.05C131.972 361.796 129.519 364.365 125.26 365.459L124.492 363.901C127.702 363.088 129.514 361.514 129.818 359.602H125.326V358.05H131.972ZM126.851 371.265V365.751H136.326V371.265H126.851ZM128.823 369.702H134.37V367.315H128.823V369.702ZM134.326 365.171V357.232H136.326V365.171H134.326ZM150.541 357.21V371.442H148.657V364.304H147.287V370.746H145.458V357.459H147.287V362.707H148.657V357.21H150.541ZM138.651 368.215V358.862H143.961V360.464H140.651V366.547C142.027 366.525 143.248 366.448 144.618 366.199L144.767 367.823C143.033 368.16 141.519 368.21 139.646 368.215H138.651ZM163.529 358.05V359.326C163.524 360.652 163.524 362.105 163.159 364.099H165.054V365.707H159.507V371.453H157.496V365.707H152.082V364.099H161.148C161.507 362.26 161.54 360.867 161.546 359.635H153.568V358.05H163.529Z" fill="black"/>
<path d="M51.4328 459.641V495H45.0447V465.839H44.8375L36.5675 471.122V465.304L45.3382 459.641H51.4328ZM73.0699 495.673C64.5409 495.656 59.4649 488.94 59.4822 477.355C59.4822 465.805 64.5927 459.157 73.0699 459.157C81.5299 459.157 86.6576 465.822 86.6576 477.355C86.6404 488.974 81.5817 495.673 73.0699 495.673ZM65.8876 477.355C65.8876 485.849 68.6328 490.287 73.0699 490.287C77.4898 490.287 80.235 485.849 80.235 477.355C80.2177 468.912 77.4725 464.458 73.0699 464.458C68.65 464.458 65.9049 468.912 65.8876 477.355ZM97.7489 491.478L93.6743 505.169H89.03L91.5334 491.478H97.7489ZM116.136 495.673C107.607 495.656 102.531 488.94 102.549 477.355C102.549 465.805 107.659 459.157 116.136 459.157C124.596 459.157 129.724 465.822 129.724 477.355C129.707 488.974 124.648 495.673 116.136 495.673ZM108.954 477.355C108.954 485.849 111.699 490.287 116.136 490.287C120.556 490.287 123.301 485.849 123.301 477.355C123.284 468.912 120.539 464.458 116.136 464.458C111.716 464.458 108.971 468.912 108.954 477.355ZM148.07 495.673C139.541 495.656 134.465 488.94 134.482 477.355C134.482 465.805 139.593 459.157 148.07 459.157C156.53 459.157 161.658 465.822 161.658 477.355C161.64 488.974 156.582 495.673 148.07 495.673ZM140.888 477.355C140.888 485.849 143.633 490.287 148.07 490.287C152.49 490.287 155.235 485.849 155.235 477.355C155.218 468.912 152.473 464.458 148.07 464.458C143.65 464.458 140.905 468.912 140.888 477.355ZM180.004 495.673C171.475 495.656 166.399 488.94 166.416 477.355C166.416 465.805 171.526 459.157 180.004 459.157C188.463 459.157 193.591 465.822 193.591 477.355C193.574 488.974 188.515 495.673 180.004 495.673ZM172.821 477.355C172.821 485.849 175.566 490.287 180.004 490.287C184.423 490.287 187.169 485.849 187.169 477.355C187.151 468.912 184.406 464.458 180.004 464.458C175.584 464.458 172.838 468.912 172.821 477.355ZM212.483 495H208.402L215.881 473.785H220.584L228.063 495H223.992L222.231 489.748H214.244L212.483 495ZM215.27 486.682H221.195L218.315 478.115H218.15L215.27 486.682ZM248.025 473.785V495H244.638L234.589 480.508H234.413V495H230.611V473.785H234.04L244.047 488.287H244.234V473.785H248.025ZM259.148 495H251.969V473.785H259.282C265.612 473.785 269.424 477.762 269.424 484.372C269.424 491.001 265.612 495 259.148 495ZM255.771 491.695H258.961C263.395 491.695 265.643 489.251 265.643 484.372C265.643 479.503 263.395 477.089 259.075 477.089H255.771V491.695Z" fill="white"/>
<rect x="24" y="636" width="342" height="72" rx="12" fill="white"/>
<path d="M191.523 662.512V668.172H194.144V670.14H191.523V675.64H189.13V662.512H191.523ZM175.957 673.315C177.416 673.315 179.095 673.307 180.85 673.262V672.061C178.692 671.796 177.325 670.762 177.34 669.228C177.325 667.45 179.201 666.341 182.019 666.349C184.845 666.341 186.699 667.45 186.714 669.228C186.699 670.747 185.362 671.78 183.235 672.054V673.178C184.899 673.095 186.57 672.958 188.127 672.753L188.302 674.424C184.177 675.146 179.634 675.184 176.216 675.191L175.957 673.315ZM176.459 665.802V664.047H180.85V662.345H183.235V664.047H187.611V665.802H176.459ZM178.396 678.336V676.475H191.523V681.899H189.13V678.336H178.396ZM179.627 669.228C179.611 670.041 180.508 670.542 182.019 670.535C183.524 670.542 184.42 670.041 184.42 669.228C184.42 668.392 183.524 667.959 182.019 667.959C180.508 667.959 179.611 668.392 179.627 669.228ZM211.311 662.512V676.544H208.919V662.512H211.311ZM195.495 668.635C195.488 665.809 197.774 663.789 200.729 663.789C203.684 663.789 205.956 665.809 205.956 668.635C205.956 671.507 203.684 673.512 200.729 673.505C197.774 673.512 195.488 671.507 195.495 668.635ZM197.827 668.635C197.82 670.36 199.066 671.423 200.729 671.423C202.347 671.423 203.608 670.36 203.608 668.635C203.608 666.956 202.347 665.87 200.729 665.87C199.066 665.87 197.82 666.956 197.827 668.635ZM198.465 681.535V675.115H200.874V679.597H211.858V681.535H198.465Z" fill="#31A9FF"/>
</g>
<defs>
<clipPath id="clip0_59_109">
<rect width="390" height="844" fill="white"/>
</clipPath>
</defs>
</svg>
