<svg width="390" height="844" viewBox="0 0 390 844" fill="none" xmlns="http://www.w3.org/2000/svg">
<g clip-path="url(#clip0_59_72)">
<rect width="390" height="844" fill="white"/>
<path d="M32.5165 23.1565C31.6653 23.1565 30.9047 23.3377 30.2347 23.7001C29.5702 24.0571 29.0485 24.5513 28.6696 25.1829C28.2962 25.8089 28.1095 26.5256 28.1095 27.3328V27.3493C28.1095 28.0962 28.2742 28.7661 28.6037 29.3592C28.9387 29.9523 29.3972 30.4191 29.9794 30.7596C30.5615 31.1001 31.2314 31.2703 31.9893 31.2703C32.5384 31.2703 33.0162 31.1879 33.4226 31.0232C33.8345 30.8584 34.1804 30.6415 34.4605 30.3724C34.7406 30.1033 34.952 29.8123 35.0948 29.4993H35.3831V27.3081H34.8889V27.3246C34.8889 27.7694 34.7845 28.1676 34.5758 28.519C34.3671 28.8705 34.0843 29.1451 33.7274 29.3428C33.3704 29.5405 32.9668 29.6393 32.5165 29.6393C32.0662 29.6393 31.6653 29.5377 31.3138 29.3345C30.9623 29.1313 30.685 28.854 30.4818 28.5025C30.2786 28.1456 30.177 27.7365 30.177 27.2752V27.2587C30.177 26.8139 30.2841 26.413 30.4983 26.056C30.7125 25.6936 30.998 25.408 31.355 25.1993C31.712 24.9907 32.1046 24.8863 32.5329 24.8863C32.9778 24.8863 33.3759 24.9934 33.7274 25.2076C34.0843 25.4218 34.3671 25.7128 34.5758 26.0807C34.7845 26.4487 34.8889 26.8578 34.8889 27.3081L35.2595 29.2933C35.2595 29.3702 35.2595 29.4498 35.2595 29.5322C35.2595 29.6091 35.2568 29.6887 35.2513 29.7711C35.2238 30.5289 35.1085 31.2209 34.9053 31.8469C34.7076 32.4675 34.4083 32.9645 34.0074 33.3379C33.6121 33.7058 33.1013 33.8898 32.4753 33.8898C32.1293 33.8898 31.8163 33.8349 31.5362 33.7251C31.2616 33.6097 31.0255 33.4477 30.8278 33.2391C30.6356 33.0304 30.4873 32.7887 30.383 32.5142L30.35 32.4318H28.266L28.2824 32.5224C28.4142 33.1265 28.6696 33.6647 29.0485 34.1369C29.4329 34.6037 29.9162 34.9717 30.4983 35.2408C31.0859 35.5043 31.7449 35.6361 32.4753 35.6361C33.4693 35.6361 34.3232 35.3835 35.0371 34.8783C35.7565 34.3676 36.3084 33.6372 36.6928 32.6872C37.0773 31.7371 37.2695 30.5948 37.2695 29.2604V29.2439C37.2695 28.1676 37.1432 27.2477 36.8905 26.4844C36.6379 25.7156 36.2892 25.0868 35.8444 24.598C35.4051 24.1038 34.8998 23.7413 34.3287 23.5107C33.7576 23.2745 33.1535 23.1565 32.5165 23.1565ZM41.0093 33.7415C41.3882 33.7415 41.7012 33.618 41.9483 33.3709C42.1954 33.1182 42.319 32.8107 42.319 32.4483C42.319 32.0803 42.1954 31.7728 41.9483 31.5257C41.7012 31.2731 41.3882 31.1468 41.0093 31.1468C40.6358 31.1468 40.3228 31.2731 40.0702 31.5257C39.8231 31.7728 39.6995 32.0803 39.6995 32.4483C39.6995 32.8107 39.8231 33.1182 40.0702 33.3709C40.3228 33.618 40.6358 33.7415 41.0093 33.7415ZM41.0093 27.6294C41.3882 27.6294 41.7012 27.5058 41.9483 27.2587C42.1954 27.0061 42.319 26.6986 42.319 26.3361C42.319 25.9682 42.1954 25.6606 41.9483 25.4135C41.7012 25.1609 41.3882 25.0346 41.0093 25.0346C40.6358 25.0346 40.3228 25.1609 40.0702 25.4135C39.8231 25.6606 39.6995 25.9682 39.6995 26.3361C39.6995 26.6986 39.8231 27.0061 40.0702 27.2587C40.3228 27.5058 40.6358 27.6294 41.0093 27.6294ZM50.5152 35.3396H52.5416V33.0578H54.1479V31.3033H52.5416V23.453H49.5515C49.222 23.9418 48.8925 24.4442 48.563 24.9605C48.239 25.4712 47.9122 25.9901 47.5827 26.5173C47.2587 27.039 46.932 27.569 46.6025 28.1071C46.2785 28.6398 45.9572 29.1753 45.6387 29.7134C45.3257 30.2516 45.0126 30.7871 44.6996 31.3197V33.0578H50.5152V35.3396ZM46.6766 31.3527V31.2291C46.9072 30.8227 47.1461 30.4136 47.3932 30.0018C47.6404 29.5844 47.8902 29.1698 48.1429 28.7579C48.3955 28.3405 48.6508 27.9259 48.9089 27.5141C49.167 27.1022 49.4224 26.6986 49.675 26.3032C49.9331 25.9078 50.183 25.5233 50.4246 25.1499H50.5482V31.3527H46.6766ZM59.0657 35.3396H61.1827V23.453H59.0657L55.9602 25.6359V27.6294L58.9174 25.5453H59.0657V35.3396Z" fill="black"/>
<rect opacity="0.35" x="351.592" y="23.5" width="24" height="12" rx="3.8" stroke="black"/>
<path opacity="0.4" d="M377.092 27.7811V31.8566C377.896 31.5114 378.42 30.7085 378.42 29.8189C378.42 28.9293 377.896 28.1263 377.092 27.7811Z" fill="black"/>
<rect x="353.092" y="25" width="21" height="9" rx="2.5" fill="black"/>
<path fill-rule="evenodd" clip-rule="evenodd" d="M335.362 26.104C337.849 26.1041 340.241 27.0262 342.044 28.6797C342.179 28.8074 342.396 28.8058 342.53 28.6761L343.828 27.4126C343.895 27.3469 343.933 27.2578 343.932 27.1651C343.932 27.0724 343.893 26.9838 343.825 26.9188C339.094 22.5441 331.63 22.5441 326.899 26.9188C326.83 26.9837 326.791 27.0724 326.791 27.165C326.79 27.2577 326.828 27.3468 326.896 27.4126L328.193 28.6761C328.327 28.8059 328.544 28.8076 328.68 28.6797C330.482 27.0261 332.875 26.104 335.362 26.104ZM335.359 30.3243C336.716 30.3242 338.025 30.836 339.031 31.7601C339.167 31.8913 339.382 31.8884 339.514 31.7537L340.801 30.4344C340.869 30.3652 340.907 30.2713 340.906 30.1738C340.905 30.0762 340.865 29.9831 340.796 29.9153C337.732 27.0245 332.988 27.0245 329.924 29.9153C329.855 29.9831 329.815 30.0762 329.814 30.1738C329.813 30.2714 329.851 30.3653 329.919 30.4344L331.206 31.7537C331.339 31.8884 331.553 31.8913 331.689 31.7601C332.695 30.8366 334.002 30.3249 335.359 30.3243ZM337.883 33.1179C337.885 33.2232 337.848 33.3248 337.781 33.3986L335.604 35.8533C335.54 35.9255 335.453 35.9661 335.363 35.9661C335.272 35.9661 335.185 35.9255 335.121 35.8533L332.944 33.3986C332.877 33.3247 332.84 33.2231 332.842 33.1178C332.844 33.0124 332.884 32.9127 332.954 32.842C334.345 31.5282 336.38 31.5282 337.771 32.842C337.841 32.9127 337.881 33.0125 337.883 33.1179Z" fill="black"/>
<path fill-rule="evenodd" clip-rule="evenodd" d="M319.292 24.6821C319.292 24.049 318.814 23.5358 318.225 23.5358H317.158C316.569 23.5358 316.092 24.049 316.092 24.6821V34.616C316.092 35.2491 316.569 35.7622 317.158 35.7622H318.225C318.814 35.7622 319.292 35.2491 319.292 34.616V24.6821ZM311.857 25.9811H312.924C313.513 25.9811 313.991 26.5066 313.991 27.1548V34.5885C313.991 35.2367 313.513 35.7622 312.924 35.7622H311.857C311.268 35.7622 310.791 35.2367 310.791 34.5885V27.1548C310.791 26.5066 311.268 25.9811 311.857 25.9811ZM307.526 28.6302H306.459C305.87 28.6302 305.392 29.1623 305.392 29.8188V34.5736C305.392 35.23 305.87 35.7622 306.459 35.7622H307.526C308.115 35.7622 308.592 35.23 308.592 34.5736V29.8188C308.592 29.1623 308.115 28.6302 307.526 28.6302ZM302.225 31.0755H301.158C300.569 31.0755 300.092 31.6 300.092 32.2471V34.5905C300.092 35.2377 300.569 35.7622 301.158 35.7622H302.225C302.814 35.7622 303.292 35.2377 303.292 34.5905V32.2471C303.292 31.6 302.814 31.0755 302.225 31.0755Z" fill="black"/>
<path d="M40 88L32 80L40 72" stroke="#707070" stroke-width="2" stroke-linecap="round" stroke-linejoin="round"/>
<rect width="176" height="33" transform="translate(107 64)" fill="#FFD700"/>
<path d="M160.173 69.5732V79.3729H158.137V77.5269H153.245V75.9392H158.137V73.8425H153.503C152.303 76.828 149.401 78.8108 145.132 79.7983L144.417 78.1271C149.044 77.1015 151.536 74.9668 151.862 72.1333H145.435V70.4696H154.118C154.118 71.0925 154.065 71.6851 153.959 72.2472H158.137V69.5732H160.173ZM147.585 81.8115V80.1782H160.173V85.0628H149.652V86.9924H160.75V88.6409H147.623V83.5283H158.13V81.8115H147.585ZM179.21 69.5732V88.8232H177.273V69.5732H179.21ZM162.414 83.5283C165.141 81.8722 166.531 78.3702 166.531 74.9441V73.4019H163.006V71.7383H171.819V73.4019H168.499V74.9441C168.499 78.241 169.828 81.5304 172.533 83.0877L171.317 84.5919C169.471 83.4903 168.21 81.5304 167.542 79.2058C166.858 81.7203 165.551 83.8702 163.675 85.0401L162.414 83.5283ZM170.383 78.0511V76.395H173.383V69.9834H175.305V87.8508H173.383V78.0511H170.383ZM196.364 70.7963V78.7196H187.202V70.7963H196.364ZM188.471 87.1975C191.996 86.8481 194.738 85.0856 194.852 83.3612H189.261V81.8115H194.898V80.0262H196.934V81.8115H202.593V83.3612H196.972C197.086 85.0477 199.775 86.7949 203.292 87.1975L202.593 88.77C199.577 88.4054 197.086 87.1064 195.923 85.4123C194.746 87.1291 192.216 88.3978 189.185 88.77L188.471 87.1975ZM189.208 77.1091H194.351V72.422H189.208V77.1091ZM200.132 80.5808V69.5732H202.145V80.5808H200.132ZM219.474 76.3267V79.0159H227.26V80.6568H209.712V79.0159H217.468V76.3267H219.474ZM210.715 75.7721C214.407 75.2859 217.43 73.1209 217.43 70.6899V69.8771H219.497V70.6899C219.497 73.1512 222.512 75.2859 226.235 75.7721L225.422 77.3826C222.376 76.8888 219.686 75.3999 218.463 73.2804C217.233 75.4075 214.544 76.8888 211.467 77.3826L210.715 75.7721ZM211.786 85.4503C211.786 83.2928 214.285 82.0773 218.463 82.0773C222.634 82.0773 225.103 83.2928 225.118 85.4503C225.103 87.6001 222.634 88.7928 218.463 88.7928C214.285 88.7928 211.786 87.6001 211.786 85.4503ZM213.86 85.4503C213.845 86.605 215.501 87.2431 218.463 87.2279C221.403 87.2431 223.067 86.605 223.082 85.4503C223.067 84.2804 221.403 83.6575 218.463 83.6575C215.501 83.6575 213.845 84.2804 213.86 85.4503ZM243.669 70.5532V72.0117C243.669 73.5159 243.669 75.2403 243.168 77.5801H245.902V79.2438H228.286V77.5801H241.116C241.618 75.3239 241.641 73.6754 241.641 72.2093H230.489V70.5532H243.669ZM230.428 88.5801V81.6899H243.692V88.5801H230.428ZM232.426 86.924H241.671V83.2928H232.426V86.924Z" fill="black"/>
<rect x="24" y="636" width="342" height="72" rx="12" fill="#31A9FF"/>
<path d="M191.341 662.497V669.858H194.334V671.818H191.341V681.945H188.948V662.497H191.341ZM176.93 677.182V664.328H186.015V666.265H179.307V675.199C182.339 675.176 184.724 675.039 187.398 674.561L187.671 676.574C184.656 677.098 182.042 677.189 178.525 677.182H176.93ZM203.981 662.877C208.273 662.877 210.97 664.29 210.97 666.645C210.97 668.977 208.273 670.367 203.981 670.36C199.719 670.367 196.977 668.977 196.984 666.645C196.977 664.29 199.719 662.877 203.981 662.877ZM195.146 673.588V671.666H212.838V673.588H195.146ZM197.235 681.671V675.131H210.696V681.671H197.235ZM199.461 666.645C199.445 667.83 201.132 668.491 203.981 668.499C206.807 668.491 208.516 667.83 208.516 666.645C208.516 665.422 206.807 664.753 203.981 664.753C201.132 664.753 199.445 665.422 199.461 666.645ZM199.59 679.742H208.372V677.03H199.59V679.742Z" fill="white"/>
<rect x="24" y="165" width="83" height="29" rx="12" fill="#31A9FF"/>
<path d="M51.6651 183.569V184.642H40.4544V183.569H45.3854V181.055H41.7307V174.747H43.0311V176.859H49.0449V174.747H50.3356V181.055H46.6713V183.569H51.6651ZM43.0311 180.001H49.0449V177.903H43.0311V180.001ZM62.6244 173.91V186.16H61.3675V179.89H59.806V185.532H58.5878V174.162H59.806V178.812H61.3675V173.91H62.6244ZM52.7045 183.047V175.356H54.0049V181.906C55.1361 181.887 56.3688 181.8 57.7563 181.529L57.9013 182.66C56.219 182.965 54.817 183.047 53.4973 183.047H52.7045ZM73.7287 177.497V178.537H65.2881V174.355H66.574V177.497H73.7287ZM63.7943 181.118V180.079H75.0049V181.118H63.7943ZM65.1962 185.87V182.283H66.487V184.811H73.806V185.87H65.1962ZM89.6825 180.325V181.369H84.8241V183.622H83.5382V181.369H78.4719V180.325H89.6825ZM79.869 185.909V182.549H81.1549V184.845H88.4401V185.909H79.869ZM79.9512 179.242V174.302H81.2419V175.776H86.9173V174.302H88.2081V179.242H79.9512ZM81.2419 178.203H86.9173V176.758H81.2419V178.203Z" fill="white"/>
<path d="M126.89 173.287C126.89 176.79 124.315 179.287 120.215 180.37L119.718 179.409C123.155 178.497 125.32 176.657 125.58 174.282H120.459V173.287H126.89ZM121.994 186.072V180.901H131.033V186.072H121.994ZM123.21 185.077H129.829V181.884H123.21V185.077ZM129.807 180.238V172.392H131.033V180.238H129.807ZM145.259 172.381V186.271H144.088V178.978H142.055V185.541H140.917V172.691H142.055V177.961H144.088V172.381H145.259ZM133.9 182.834V174.083H139.104V175.088H135.126V181.785C137.044 181.779 138.364 181.702 139.9 181.387L140.01 182.414C138.342 182.768 136.928 182.823 134.795 182.834H133.9ZM158.203 173.287V174.503C158.203 175.818 158.203 177.254 157.805 179.254H159.883V180.271H154.137V186.293H152.91V180.271H147.22V179.254H156.557C156.988 177.26 156.988 175.796 156.988 174.503V174.304H148.811V173.287H158.203Z" fill="#FFD700"/>
<rect x="24" y="206" width="83" height="29" rx="12" fill="#31A9FF"/>
<path d="M56.0794 214.91V217.811H57.8536V218.889H56.0794V222.065H54.779V214.91H56.0794ZM46.9233 221.354V215.611H48.2044V217.385H51.4144V215.611H52.7003V221.354H46.9233ZM48.2044 220.32H51.4144V218.41H48.2044V220.32ZM48.2721 226.991V222.703H56.1664V223.738H49.5725V225.952H56.3985V226.991H48.2721ZM68.0491 218.497V219.537H59.6085V215.355H60.8944V218.497H68.0491ZM58.1147 222.118V221.079H69.3253V222.118H58.1147ZM59.5166 226.87V223.283H60.8074V225.811H68.1264V226.87H59.5166ZM84.0029 221.325V222.369H79.1445V224.622H77.8586V222.369H72.7923V221.325H84.0029ZM74.1894 226.909V223.549H75.4753V225.845H82.7605V226.909H74.1894ZM74.2716 220.242V215.302H75.5623V216.776H81.2377V215.302H82.5285V220.242H74.2716ZM75.5623 219.203H81.2377V217.758H75.5623V219.203Z" fill="white"/>
<path d="M131.431 213.381V227.271H130.26V219.978H128.227V226.541H127.088V213.691H128.227V218.961H130.26V213.381H131.431ZM120.072 223.834V215.083H125.276V216.088H121.298V222.785C123.215 222.779 124.536 222.702 126.072 222.387L126.182 223.414C124.514 223.768 123.099 223.823 120.967 223.834H120.072ZM144.375 214.287V215.503C144.375 216.818 144.375 218.254 143.977 220.254H146.055V221.271H140.309V227.293H139.082V221.271H133.392V220.254H142.729C143.16 218.26 143.16 216.796 143.16 215.503V215.304H134.983V214.287H144.375ZM158.667 213.381V227.271H157.441V213.381H158.667ZM147.496 223.624C149.562 222.685 151.142 220.343 151.142 217.901V216.796H147.872V215.801H151.131V213.635H152.347V215.801H155.573V216.796H152.347V217.901C152.347 220.232 153.971 222.486 156.06 223.37L155.374 224.331C153.772 223.619 152.413 222.11 151.767 220.276C151.137 222.221 149.794 223.818 148.192 224.575L147.496 223.624ZM168.418 214.442C168.407 218.055 166.484 220.773 161.921 222.243L161.446 221.238C163.838 220.492 165.385 219.403 166.258 218.066L161.556 218.431L161.346 217.414L166.722 217.171C166.943 216.63 167.076 216.061 167.125 215.459H162.042V214.442H168.418ZM163.545 227.05V222.762H164.772V226.044H172.948V227.05H163.545ZM171.291 223.481V213.392H172.518V223.481H171.291Z" fill="#FFD700"/>
<path d="M38.1647 311.262V312.566H24.5518V311.262H30.5394V308.21H26.1015V300.549H27.6806V303.115H34.9831V300.549H36.5504V308.21H32.1008V311.262H38.1647ZM27.6806 306.93H34.9831V304.383H27.6806V306.93ZM51.4079 299.546V307.147H49.9168V303.978H48.0619V307.106H46.5826V299.821H48.0619V302.704H49.9168V299.546H51.4079ZM39.421 306.402V300.379H41.0001V305.11C42.4793 305.105 43.9058 305.011 45.5553 304.694L45.7138 305.979C43.7649 306.343 42.1565 306.408 40.3837 306.402H39.421ZM41.4345 309.038V307.77H51.4079V311.521H43.0429V312.959H51.9773V314.221H41.4638V310.335H49.8464V309.038H41.4345ZM58.2534 313H56.3163L60.6367 300.978H62.7558L67.0763 313H65.1333L64.0355 309.824H59.3512L58.2534 313ZM59.8795 308.292H63.5072L61.7403 303.173H61.6464L59.8795 308.292ZM77.7975 300.978V313H76.1186L70.0254 304.218H69.9138V313H68.0882V300.978H69.7847L75.8779 309.777H75.9895V300.978H77.7975ZM83.6342 313H79.7306V300.978H83.7516C87.2972 300.978 89.4105 303.232 89.4105 306.971C89.4105 310.728 87.2972 313 83.6342 313ZM81.5562 311.403H83.5344C86.2641 311.403 87.6083 309.818 87.6083 306.971C87.6083 304.142 86.2641 302.575 83.6401 302.575H81.5562V311.403ZM105.998 307.153V308.421H101.496V311.327H107.542V312.613H93.9291V311.327H99.9166V308.421H95.6373V300.69H105.851V301.976H97.2281V303.878H105.523V305.14H97.2281V307.153H105.998ZM119.999 300.291V301.594C119.999 303.027 119.999 304.6 119.588 306.783H121.695V308.069H108.111V306.783H117.991C118.167 305.921 118.273 305.152 118.337 304.441L109.632 304.829L109.444 303.52L118.408 303.267C118.431 302.674 118.431 302.123 118.431 301.594V301.571H109.814V300.291H119.999ZM109.784 314.104V309.431H111.358V312.812H120.286V314.104H109.784ZM136.147 301.753V303.074H133.981V304.893H136.147V306.208H133.981V308.539H132.402V299.546H133.981V301.753H136.147ZM122.881 301.723V300.455H129.661V304.606H124.478V306.42C127.06 306.425 128.892 306.326 131.058 305.962L131.222 307.241C128.921 307.646 126.955 307.734 124.102 307.729H122.91V303.402H128.117V301.723H122.881ZM124.166 311.662C124.166 309.93 126.062 308.903 129.156 308.897C132.214 308.903 134.116 309.93 134.116 311.662C134.116 313.387 132.214 314.379 129.156 314.379C126.062 314.379 124.166 313.387 124.166 311.662ZM125.716 311.662C125.704 312.624 126.984 313.182 129.156 313.17C131.316 313.182 132.572 312.624 132.572 311.662C132.572 310.693 131.316 310.135 129.156 310.135C126.984 310.135 125.704 310.693 125.716 311.662Z" fill="black"/>
<rect x="24" y="325" width="342" height="68" rx="12" fill="#F1F1F1"/>
<path d="M60.6562 367.531H41.2969V365.398H49.6406V361.273H43.4297V350.305H46.0312V353.773H55.8516V350.305H58.4531V361.273H52.2188V365.398H60.6562V367.531ZM55.8516 359.164V355.859H46.0312V359.164H55.8516ZM80.1562 359.703H77.6719V355.344H75.3984V359.656H72.9844V349.32H75.3984V353.258H77.6719V348.922H80.1562V359.703ZM62.9531 350.07H65.5547V356.68C66.6406 356.664 67.6641 356.613 68.625 356.527C69.5859 356.441 70.5781 356.297 71.6016 356.094L71.8594 358.203C70.6797 358.43 69.5391 358.586 68.4375 358.672C67.3359 358.75 66.1211 358.789 64.793 358.789H64.3594H62.9531V350.07ZM65.8125 360.5H80.1562V366.055H68.4609V367.766H80.9062V369.828H65.8359V364.133H77.5547V362.586H65.8125V360.5ZM105.703 361.648H99.4453V365.516H107.836V367.602H88.4766V365.516H96.8203V361.648H90.8438V350.469H105.516V352.578H93.4922V354.969H105.023V357.031H93.4922V359.562H105.703V361.648ZM126.211 351.828V352.613C126.211 353.738 126.172 354.805 126.094 355.812C126.023 356.82 125.875 357.922 125.648 359.117H128.531V361.227H109.219V359.117H123.012C123.199 358.211 123.348 357.215 123.457 356.129L111.375 356.633L111.07 354.5L123.574 354.195C123.598 353.688 123.609 352.961 123.609 352.016H111.609V349.93H126.211V351.828ZM111.539 362.961H114.141V367.555H126.586V369.664H111.539V362.961ZM149.648 354.078H146.672V356.375H149.648V358.555H146.672V361.719H144.07V348.922H146.672V351.922H149.648V354.078ZM130.758 350.211H140.438V356.305H133.383V358.531C135.273 358.516 136.891 358.465 138.234 358.379C139.586 358.285 140.953 358.125 142.336 357.898L142.617 359.984C141.18 360.25 139.738 360.43 138.293 360.523C136.855 360.617 135.105 360.664 133.043 360.664H132.516H130.781V354.336H137.883V352.273H130.758V350.211ZM132.586 366.125C132.586 365.297 132.871 364.586 133.441 363.992C134.02 363.391 134.848 362.93 135.926 362.609C137.004 362.281 138.281 362.117 139.758 362.117C141.211 362.117 142.473 362.281 143.543 362.609C144.613 362.93 145.438 363.391 146.016 363.992C146.594 364.594 146.883 365.305 146.883 366.125C146.883 366.945 146.594 367.648 146.016 368.234C145.438 368.82 144.613 369.266 143.543 369.57C142.473 369.883 141.211 370.039 139.758 370.039C138.281 370.039 137.004 369.883 135.926 369.57C134.848 369.266 134.02 368.82 133.441 368.234C132.871 367.648 132.586 366.945 132.586 366.125ZM135.141 366.125C135.133 366.75 135.523 367.23 136.312 367.566C137.102 367.902 138.227 368.07 139.688 368.07C141.18 368.07 142.32 367.906 143.109 367.578C143.906 367.242 144.305 366.758 144.305 366.125C144.305 365.484 143.91 364.996 143.121 364.66C142.34 364.324 141.219 364.156 139.758 364.156C138.273 364.156 137.129 364.328 136.324 364.672C135.527 365.008 135.133 365.492 135.141 366.125Z" fill="#D0D0D0"/>
<path d="M303.188 368H301.439L307.613 351.028H309.412L315.586 368H313.829L312.039 362.953H304.986L303.188 368ZM305.508 361.47H311.508L308.566 353.182H308.459L305.508 361.47ZM331.305 351.028V368H329.706L319.844 354.011H319.703V368H318.037V351.028H319.653L329.532 365.041H329.673V351.028H331.305ZM340.373 368H335.334V351.028H340.655C345.527 351.028 348.411 354.202 348.411 359.472C348.403 364.809 345.494 368 340.373 368ZM337 366.508H340.282C344.591 366.508 346.787 363.856 346.779 359.472C346.779 355.138 344.632 352.519 340.555 352.519H337V366.508Z" fill="#707070"/>
<path d="M36.6951 408.469V409.256H34.5145V416.14H33.5874V403.217H34.5145V408.469H36.6951ZM25.1447 412.814V404.506H26.0563V412.032H26.1443C28.0919 412.032 30.0445 411.887 32.2303 411.431L32.3546 412.234C30.1015 412.68 28.1281 412.819 26.1443 412.814H25.1447ZM41.3257 404.19C43.3509 404.19 44.7649 405.397 44.7753 407.179C44.7649 408.961 43.3509 410.167 41.3257 410.167C39.2901 410.167 37.8554 408.961 37.8657 407.179C37.8554 405.397 39.2901 404.19 41.3257 404.19ZM37.1613 412.431C39.5698 412.441 42.8951 412.426 45.7801 411.985L45.863 412.68C42.8692 413.239 39.6527 413.244 37.3012 413.244L37.1613 412.431ZM38.7722 407.179C38.7618 408.443 39.834 409.354 41.3257 409.354C42.7967 409.354 43.8637 408.443 43.8688 407.179C43.8637 405.91 42.7967 405.009 41.3257 405.003C39.834 405.009 38.7618 405.91 38.7722 407.179ZM46.6762 416.16V403.217H47.6033V416.16H46.6762ZM62.8442 403.232V406.267H64.859V407.065H62.8442V410.535H61.917V403.232H62.8442ZM53.4433 409.432V403.885H54.3756V408.645H54.4481C56.3646 408.645 58.3017 408.5 60.4668 408.059L60.5859 408.847C58.3587 409.297 56.4267 409.437 54.4481 409.432H53.4433ZM54.7434 415.948V411.281H62.8442V415.948H54.7434ZM55.6394 415.181H61.9429V412.027H55.6394V415.181ZM77.0725 410.095V410.862H65.2942V410.095H77.0725ZM66.6409 406.221C66.6409 404.62 68.3915 403.677 71.173 403.683C73.944 403.677 75.6999 404.62 75.6999 406.221C75.6999 407.826 73.944 408.774 71.173 408.774C68.3915 408.774 66.6409 407.826 66.6409 406.221ZM66.848 415.834V412.089H67.7804V415.052H75.7672V415.834H66.848ZM67.5939 406.221C67.5835 407.319 69.0079 408.002 71.173 408.002C73.3432 408.002 74.7624 407.319 74.7624 406.221C74.7624 405.138 73.3432 404.449 71.173 404.444C69.0079 404.449 67.5835 405.138 67.5939 406.221ZM81.7885 415H80.6956L84.5544 404.392H85.6783L89.5371 415H88.439L87.3203 411.846H82.9125L81.7885 415ZM83.2388 410.919H86.9888L85.15 405.739H85.0827L83.2388 410.919ZM98.9118 404.392V415H97.9122L91.7485 406.257H91.6605V415H90.6194V404.392H91.6294L97.8034 413.151H97.8915V404.392H98.9118ZM104.129 415H100.98V404.392H104.305C107.351 404.392 109.153 406.376 109.153 409.67C109.148 413.006 107.33 415 104.129 415ZM102.021 414.068H104.072C106.765 414.068 108.138 412.41 108.133 409.67C108.133 406.961 106.791 405.325 104.243 405.325H102.021V414.068ZM123.69 410.043V410.815H119.593V413.679H125.084V414.461H113.248V413.679H118.671V410.815H114.823V404.335H123.535V405.112H115.755V407.127H123.266V407.894H115.755V410.043H123.69ZM135.997 403.936V405.009C135.997 406.231 135.997 407.65 135.624 409.644H137.582V410.421H125.762V409.644H134.687C134.873 408.728 134.972 407.925 135.023 407.21L127.114 407.583L126.985 406.785L135.065 406.511C135.086 405.967 135.086 405.47 135.086 405.009V404.719H127.285V403.936H135.997ZM127.306 415.834V411.83H128.228V415.052H136.298V415.834H127.306ZM150.355 405.335V406.133H148.34V408.054H150.355V408.852H148.34V411.064H147.413V403.232H148.34V405.335H150.355ZM138.851 404.817V404.04H144.683V407.407H139.794V409.427H139.871C142.161 409.432 143.886 409.349 146.014 409.002L146.103 409.789C143.953 410.136 142.202 410.224 139.871 410.214H138.887V406.661H143.777V404.817H138.851ZM139.975 413.798C139.975 412.338 141.576 411.488 144.217 411.483C146.843 411.488 148.444 412.338 148.449 413.798C148.444 415.264 146.843 416.108 144.217 416.108C141.576 416.108 139.975 415.264 139.975 413.798ZM140.876 413.798C140.866 414.772 142.166 415.373 144.217 415.363C146.263 415.373 147.553 414.772 147.553 413.798C147.553 412.835 146.263 412.229 144.217 412.229C142.166 412.229 140.866 412.835 140.876 413.798ZM152.064 414.845C151.634 414.845 151.272 414.492 151.282 414.062C151.272 413.633 151.634 413.28 152.064 413.28C152.494 413.28 152.846 413.633 152.846 414.062C152.846 414.492 152.494 414.845 152.064 414.845ZM151.287 408.303C151.277 407.873 151.64 407.521 152.069 407.521C152.499 407.521 152.852 407.873 152.852 408.303C152.852 408.733 152.499 409.085 152.069 409.085C151.64 409.085 151.277 408.733 151.287 408.303ZM161.592 404.392V415H159.976V406.008H159.914L157.381 407.661V406.122L160.017 404.392H161.592ZM165.147 413.974L163.971 418.025H162.728L163.51 413.974H165.147ZM170.096 415.171C167.647 415.171 166.201 413.177 166.207 409.701C166.207 406.247 167.662 404.247 170.096 404.247C172.536 404.247 173.991 406.252 173.991 409.701C173.991 413.177 172.552 415.171 170.096 415.171ZM167.812 409.701C167.807 412.348 168.667 413.783 170.096 413.783C171.531 413.783 172.386 412.348 172.386 409.701C172.386 407.06 171.521 405.62 170.096 405.62C168.677 405.62 167.812 407.06 167.812 409.701ZM178.904 415.171C176.454 415.171 175.009 413.177 175.014 409.701C175.014 406.247 176.47 404.247 178.904 404.247C181.344 404.247 182.799 406.252 182.799 409.701C182.799 413.177 181.359 415.171 178.904 415.171ZM176.62 409.701C176.615 412.348 177.475 413.783 178.904 413.783C180.339 413.783 181.194 412.348 181.194 409.701C181.194 407.06 180.329 405.62 178.904 405.62C177.485 405.62 176.62 407.06 176.62 409.701ZM187.712 415.171C185.262 415.171 183.817 413.177 183.822 409.701C183.822 406.247 185.278 404.247 187.712 404.247C190.152 404.247 191.607 406.252 191.607 409.701C191.607 413.177 190.167 415.171 187.712 415.171ZM185.428 409.701C185.423 412.348 186.283 413.783 187.712 413.783C189.147 413.783 190.001 412.348 190.001 409.701C190.001 407.06 189.136 405.62 187.712 405.62C186.293 405.62 185.428 407.06 185.428 409.701ZM194.343 413.974L193.167 418.025H191.924L192.706 413.974H194.343ZM199.293 415.171C196.843 415.171 195.398 413.177 195.403 409.701C195.403 406.247 196.858 404.247 199.293 404.247C201.732 404.247 203.188 406.252 203.188 409.701C203.188 413.177 201.748 415.171 199.293 415.171ZM197.008 409.701C197.003 412.348 197.863 413.783 199.293 413.783C200.727 413.783 201.582 412.348 201.582 409.701C201.582 407.06 200.717 405.62 199.293 405.62C197.873 405.62 197.008 407.06 197.008 409.701ZM208.1 415.171C205.65 415.171 204.205 413.177 204.211 409.701C204.211 406.247 205.666 404.247 208.1 404.247C210.54 404.247 211.995 406.252 211.995 409.701C211.995 413.177 210.555 415.171 208.1 415.171ZM205.816 409.701C205.811 412.348 206.671 413.783 208.1 413.783C209.535 413.783 210.39 412.348 210.39 409.701C210.39 407.06 209.525 405.62 208.1 405.62C206.681 405.62 205.816 407.06 205.816 409.701ZM216.908 415.171C214.458 415.171 213.013 413.177 213.018 409.701C213.018 406.247 214.474 404.247 216.908 404.247C219.348 404.247 220.803 406.252 220.803 409.701C220.803 413.177 219.363 415.171 216.908 415.171ZM214.624 409.701C214.619 412.348 215.479 413.783 216.908 413.783C218.343 413.783 219.198 412.348 219.198 409.701C219.198 407.06 218.333 405.62 216.908 405.62C215.489 405.62 214.624 407.06 214.624 409.701ZM226.287 415H224.577L228.389 404.392H230.259L234.071 415H232.357L231.388 412.198H227.255L226.287 415ZM227.721 410.846H230.922L229.363 406.329H229.28L227.721 410.846ZM243.531 404.392V415H242.05L236.674 407.251H236.575V415H234.964V404.392H236.461L241.838 412.156H241.936V404.392H243.531ZM248.681 415H245.237V404.392H248.785C251.913 404.392 253.778 406.381 253.778 409.681C253.778 412.996 251.913 415 248.681 415ZM246.848 413.591H248.593C251.002 413.591 252.188 412.193 252.188 409.681C252.188 407.184 251.002 405.801 248.687 405.801H246.848V413.591Z" fill="#31A9FF"/>
<path d="M0 462C0 452.059 8.05888 444 18 444H372C381.941 444 390 452.059 390 462V844H0V462Z" fill="#F1F1F1"/>
<rect x="24" y="720" width="342" height="72" rx="12" fill="#31A9FF"/>
<path d="M191.523 746.512V752.172H194.144V754.14H191.523V759.64H189.13V746.512H191.523ZM175.957 757.315C177.416 757.315 179.095 757.307 180.85 757.262V756.061C178.692 755.796 177.325 754.762 177.34 753.228C177.325 751.45 179.201 750.341 182.019 750.349C184.845 750.341 186.699 751.45 186.714 753.228C186.699 754.747 185.362 755.78 183.235 756.054V757.178C184.899 757.095 186.57 756.958 188.127 756.753L188.302 758.424C184.177 759.146 179.634 759.184 176.216 759.191L175.957 757.315ZM176.459 749.802V748.047H180.85V746.345H183.235V748.047H187.611V749.802H176.459ZM178.396 762.336V760.475H191.523V765.899H189.13V762.336H178.396ZM179.627 753.228C179.611 754.041 180.508 754.542 182.019 754.535C183.524 754.542 184.42 754.041 184.42 753.228C184.42 752.392 183.524 751.959 182.019 751.959C180.508 751.959 179.611 752.392 179.627 753.228ZM211.311 746.512V760.544H208.919V746.512H211.311ZM195.495 752.635C195.488 749.809 197.774 747.789 200.729 747.789C203.684 747.789 205.956 749.809 205.956 752.635C205.956 755.507 203.684 757.512 200.729 757.505C197.774 757.512 195.488 755.507 195.495 752.635ZM197.827 752.635C197.82 754.36 199.066 755.423 200.729 755.423C202.347 755.423 203.608 754.36 203.608 752.635C203.608 750.956 202.347 749.87 200.729 749.87C199.066 749.87 197.82 750.956 197.827 752.635ZM198.465 765.535V759.115H200.874V763.597H211.858V765.535H198.465Z" fill="white"/>
<path d="M91.9392 488.028V505H89.3536V490.613H89.2541L85.2017 493.257V490.796L89.4199 488.028H91.9392Z" fill="black"/>
<path d="M82.6354 558.685V556.605L90.1271 545.028H93.326V556.506H95.6298V558.685H93.326V562H90.8646V558.685H82.6354ZM85.337 556.506H90.8812V548.094H90.6989L85.337 556.373V556.506Z" fill="black"/>
<path d="M84.5801 619L92.1547 604.365V604.24H83.4033V602.028H94.8315V604.323L87.2735 619H84.5801Z" fill="black"/>
<path d="M82.4006 676.273C78.4807 676.273 76.1685 673.083 76.1768 667.522C76.1768 661.994 78.5055 658.796 82.4006 658.796C86.3039 658.796 88.6326 662.003 88.6326 667.522C88.6326 673.083 86.3287 676.273 82.4006 676.273ZM78.7459 667.522C78.7376 671.757 80.1133 674.052 82.4006 674.052C84.6961 674.052 86.0635 671.757 86.0635 667.522C86.0635 663.296 84.6796 660.992 82.4006 660.992C80.1298 660.992 78.7459 663.296 78.7459 667.522ZM96.4931 676.273C92.5732 676.273 90.261 673.083 90.2693 667.522C90.2693 661.994 92.598 658.796 96.4931 658.796C100.396 658.796 102.725 662.003 102.725 667.522C102.725 673.083 100.421 676.273 96.4931 676.273ZM92.8384 667.522C92.8301 671.757 94.2058 674.052 96.4931 674.052C98.7886 674.052 100.156 671.757 100.156 667.522C100.156 663.296 98.7721 660.992 96.4931 660.992C94.2223 660.992 92.8384 663.296 92.8384 667.522Z" fill="black"/>
<path d="M189.5 505L189.492 503.127L195.376 497.185C197.24 495.254 198.169 494.185 198.177 492.693C198.169 491.019 196.809 489.959 195.028 489.959C193.146 489.959 191.945 491.144 191.945 492.959H189.492C189.483 489.851 191.845 487.796 195.077 487.796C198.351 487.796 200.613 489.867 200.63 492.619C200.613 494.517 199.718 496.033 196.536 499.157L193.088 502.663V502.787H200.903V505H189.5Z" fill="black"/>
<path d="M195.276 562.232C192.052 562.232 189.641 560.276 189.533 557.566H192.044C192.169 559.017 193.552 560.069 195.276 560.069C197.331 560.069 198.807 558.586 198.807 556.564C198.807 554.5 197.282 553 195.16 552.983C193.785 552.975 192.749 553.431 192.16 554.475H189.732L190.843 545.028H200.456V547.24H192.981L192.401 551.981H192.566C193.279 551.318 194.464 550.854 195.757 550.854C198.956 550.854 201.318 553.215 201.309 556.506C201.318 559.837 198.798 562.232 195.276 562.232Z" fill="black"/>
<path d="M195.425 619.232C191.746 619.232 189.169 617.235 189.185 614.475C189.169 612.304 190.735 610.522 192.724 610.199V610.108C190.992 609.727 189.823 608.169 189.823 606.32C189.823 603.71 192.185 601.796 195.425 601.796C198.633 601.796 200.994 603.71 201.003 606.32C200.994 608.177 199.809 609.727 198.11 610.108V610.199C200.083 610.522 201.649 612.304 201.666 614.475C201.649 617.235 199.064 619.232 195.425 619.232ZM191.812 614.301C191.787 615.975 193.188 617.127 195.425 617.127C197.63 617.127 199.039 615.983 199.039 614.301C199.039 612.561 197.514 611.285 195.425 611.285C193.32 611.285 191.787 612.561 191.812 614.301ZM192.343 606.544C192.343 608.144 193.619 609.238 195.425 609.238C197.199 609.238 198.492 608.144 198.492 606.544C198.492 604.97 197.24 603.901 195.425 603.901C193.569 603.901 192.343 604.97 192.343 606.544Z" fill="black"/>
<path d="M195.401 676.273C191.481 676.273 189.169 673.083 189.177 667.522C189.177 661.994 191.506 658.796 195.401 658.796C199.304 658.796 201.633 662.003 201.633 667.522C201.633 673.083 199.329 676.273 195.401 676.273ZM191.746 667.522C191.738 671.757 193.113 674.052 195.401 674.052C197.696 674.052 199.064 671.757 199.064 667.522C199.064 663.296 197.68 660.992 195.401 660.992C193.13 660.992 191.746 663.296 191.746 667.522Z" fill="black"/>
<path d="M301.517 505.232C298.011 505.232 295.508 503.343 295.417 500.566H298.028C298.119 502.058 299.602 503.011 301.492 503.011C303.547 503.011 305.039 501.892 305.03 500.251C305.039 498.569 303.646 497.367 301.21 497.367H299.768V495.262H301.21C303.149 495.262 304.5 494.185 304.5 492.561C304.5 491.003 303.34 489.959 301.55 489.959C299.843 489.959 298.326 490.903 298.26 492.436H295.773C295.856 489.677 298.401 487.796 301.575 487.796C304.906 487.796 307.011 489.909 306.994 492.428C307.011 494.343 305.818 495.735 303.994 496.174V496.307C306.298 496.63 307.649 498.188 307.633 500.343C307.649 503.169 305.039 505.232 301.517 505.232Z" fill="black"/>
<path d="M301.633 563.232C298.5 563.207 295.218 561.351 295.227 555.077C295.227 549.169 297.787 545.796 301.848 545.796C304.981 545.796 307.152 547.743 307.55 550.436H305.006C304.657 549.052 303.564 548.05 301.848 548.05C299.229 548.05 297.704 550.337 297.704 554.174H297.895C298.807 552.724 300.406 551.878 302.254 551.878C305.279 551.878 307.715 554.199 307.715 557.448C307.715 560.729 305.287 563.257 301.633 563.232ZM298.019 557.522C298.019 559.395 299.528 561.069 301.624 561.069C303.671 561.069 305.204 559.478 305.213 557.489C305.204 555.55 303.721 553.967 301.674 553.967C299.61 553.967 298.036 555.624 298.019 557.522Z" fill="black"/>
<path d="M301.343 603.796C304.45 603.82 307.724 605.693 307.732 611.909C307.732 617.859 305.171 621.232 301.102 621.232C297.978 621.232 295.79 619.301 295.392 616.55H297.936C298.293 617.975 299.387 618.978 301.102 618.978C303.713 618.978 305.254 616.691 305.271 612.812H305.064C304.144 614.254 302.552 615.116 300.721 615.116C297.68 615.116 295.243 612.787 295.243 609.547C295.243 606.307 297.646 603.771 301.343 603.796ZM297.754 609.506C297.762 611.47 299.229 613.019 301.293 613.019C303.331 613.019 304.923 611.345 304.923 609.472C304.923 607.633 303.414 605.959 301.343 605.959C299.287 605.959 297.738 607.55 297.754 609.506Z" fill="black"/>
<path d="M267.58 660.483L278.661 649.483C280.909 647.252 283.948 646 287.115 646H316.511C323.139 646 328.511 651.373 328.511 658V680C328.511 686.627 323.139 692 316.511 692H287.115C283.948 692 280.909 690.748 278.661 688.517L267.58 677.517C262.852 672.823 262.852 665.177 267.58 660.483Z" fill="#D9D9D9"/>
<path d="M294 677L302 669M302 669L310 661M302 669L294 661M302 669L310 677" stroke="black" stroke-width="2" stroke-linecap="round" stroke-linejoin="round"/>
</g>
<defs>
<clipPath id="clip0_59_72">
<rect width="390" height="844" fill="white"/>
</clipPath>
</defs>
</svg>
