<svg width="18" height="18" viewBox="0 0 18 18" fill="none" xmlns="http://www.w3.org/2000/svg">
<g id="&#236;&#182;&#169;&#236;&#160;&#132; &#236;&#149;&#132;&#236;&#157;&#180;&#236;&#189;&#152;">
<g id="Group 12">
<path id="Vector" d="M14.4442 8.38097L13.5443 5.23118C13.5052 5.09434 13.3801 5 13.2378 5H11.0876L11.3401 8.03013C11.3484 8.12929 11.4023 8.21886 11.4878 8.26982C11.6946 8.39308 12.0998 8.62153 12.4158 8.71875C12.9554 8.88477 13.7443 8.82489 14.1936 8.76964C14.3804 8.74669 14.496 8.56198 14.4442 8.38097Z" stroke="#FF7A00"/>
<path id="Vector_2" d="M10.2908 8.71875C10.5923 8.62598 10.975 8.41375 11.1891 8.28741C11.291 8.22727 11.3471 8.11367 11.3373 7.99574L11.0877 5H7.36892L7.11927 7.99574C7.10944 8.11367 7.16557 8.22727 7.26748 8.28741C7.48158 8.41375 7.86431 8.62598 8.16579 8.71875C8.95895 8.96281 9.49763 8.96281 10.2908 8.71875Z" stroke="#FF7A00"/>
<path id="Vector_3" d="M4.91232 5.23118L4.01237 8.38097C3.96066 8.56198 4.0762 8.74669 4.26304 8.76964C4.7123 8.82489 5.50124 8.88477 6.04087 8.71875C6.35684 8.62153 6.76204 8.39308 6.96884 8.26982C7.05432 8.21886 7.10822 8.12929 7.11648 8.03013L7.36899 5H5.2188C5.07648 5 4.95141 5.09434 4.91232 5.23118Z" stroke="#FF7A00"/>
<path id="Vector_4" d="M4.84375 8.65625V13.0284C4.84375 13.565 5.27747 14 5.8125 14H12.5938C13.1288 14 13.5625 13.565 13.5625 13.0284V8.65625" stroke="#FF7A00"/>
</g>
</g>
</svg>
