<svg width="36" height="36" viewBox="0 0 36 36" fill="none" xmlns="http://www.w3.org/2000/svg">
<g id="scan">
<g id="scan_2">
<path id="Vector" d="M12.975 9.13502V12.015C12.975 12.5452 12.5452 12.975 12.015 12.975H9.13505C8.60486 12.975 8.17505 12.5452 8.17505 12.015V9.13502C8.17505 8.60483 8.60486 8.17502 9.13505 8.17502H12.015C12.5452 8.17502 12.975 8.60483 12.975 9.13502Z" stroke="white" stroke-width="2" stroke-linecap="round" stroke-linejoin="round"/>
<path id="Vector_2" d="M8.17505 17.775H12.975" stroke="white" stroke-width="2" stroke-linecap="round" stroke-linejoin="round"/>
<path id="Vector_3" d="M22.5751 17.775V22.575" stroke="white" stroke-width="2" stroke-linecap="round" stroke-linejoin="round"/>
<path id="Vector_4" d="M17.775 27.375H22.575" stroke="white" stroke-width="2" stroke-linecap="round" stroke-linejoin="round"/>
<path id="Vector_5" d="M17.775 17.791L17.7895 17.775" stroke="white" stroke-width="2" stroke-linecap="round" stroke-linejoin="round"/>
<path id="Vector_6" d="M27.375 17.791L27.3894 17.775" stroke="white" stroke-width="2" stroke-linecap="round" stroke-linejoin="round"/>
<path id="Vector_7" d="M17.775 22.591L17.7895 22.575" stroke="white" stroke-width="2" stroke-linecap="round" stroke-linejoin="round"/>
<path id="Vector_8" d="M27.375 22.591L27.3894 22.575" stroke="white" stroke-width="2" stroke-linecap="round" stroke-linejoin="round"/>
<path id="Vector_9" d="M27.375 27.391L27.3894 27.375" stroke="white" stroke-width="2" stroke-linecap="round" stroke-linejoin="round"/>
<path id="Vector_10" d="M17.775 12.991L17.7895 12.975" stroke="white" stroke-width="2" stroke-linecap="round" stroke-linejoin="round"/>
<path id="Vector_11" d="M17.775 8.19107L17.7895 8.17502" stroke="white" stroke-width="2" stroke-linecap="round" stroke-linejoin="round"/>
<path id="Vector_12" d="M12.975 23.535V26.415C12.975 26.9453 12.5452 27.375 12.015 27.375H9.13505C8.60486 27.375 8.17505 26.9453 8.17505 26.415V23.535C8.17505 23.0048 8.60486 22.575 9.13505 22.575H12.015C12.5452 22.575 12.975 23.0048 12.975 23.535Z" stroke="white" stroke-width="2" stroke-linecap="round" stroke-linejoin="round"/>
<path id="Vector_13" d="M27.3751 9.13502V12.015C27.3751 12.5452 26.9453 12.975 26.4151 12.975H23.5351C23.0048 12.975 22.5751 12.5452 22.5751 12.015V9.13502C22.5751 8.60483 23.0048 8.17502 23.5351 8.17502H26.4151C26.9453 8.17502 27.3751 8.60483 27.3751 9.13502Z" stroke="white" stroke-width="2" stroke-linecap="round" stroke-linejoin="round"/>
<path id="Vector_14" d="M27.375 3.375H32.175V8.175" stroke="white" stroke-width="2" stroke-linecap="round" stroke-linejoin="round"/>
<path id="Vector_15" d="M27.375 32.175H32.175V27.375" stroke="white" stroke-width="2" stroke-linecap="round" stroke-linejoin="round"/>
<path id="Vector_16" d="M8.175 3.375H3.375V8.175" stroke="white" stroke-width="2" stroke-linecap="round" stroke-linejoin="round"/>
<path id="Vector_17" d="M8.175 32.175H3.375V27.375" stroke="white" stroke-width="2" stroke-linecap="round" stroke-linejoin="round"/>
</g>
</g>
</svg>
