<svg width="36" height="36" viewBox="0 0 36 36" fill="none"
  xmlns="http://www.w3.org/2000/svg">
  <rect width="36" height="36" rx="18" fill="#FF7A00"/>
  <rect width="36" height="36" rx="18" fill="#FF7A00"/>
  <path d="M21.9543 10H21.4075C21.0365 10 20.7241 10.1748 20.5092 10.4466C20.5092 10.4466 20.5092 10.466 20.4897 10.4854C20.4311 10.5631 20.3726 10.6602 20.3335 10.7573C20.3335 10.7767 20.314 10.7961 20.2944 10.8155L16.545 21.6505L12.7957 10.8155C12.7957 10.8155 12.7761 10.7767 12.7566 10.7573C12.7371 10.6796 12.6785 10.6214 12.6394 10.5631C12.6004 10.5049 12.5613 10.4466 12.5223 10.4078C12.4832 10.3689 12.4246 10.3301 12.366 10.2913C12.3075 10.2524 12.2489 10.2136 12.1903 10.1942C12.1708 10.1942 12.1512 10.1748 12.1317 10.1553C12.0926 10.1553 12.0341 10.1553 11.995 10.1553C11.9169 10.1553 11.8583 10.1359 11.7802 10.1359C11.7216 10.1359 11.6435 10.1359 11.5849 10.1553C11.5263 10.1553 11.4873 10.1553 11.4287 10.1748C11.4092 10.1748 11.3896 10.1942 11.3701 10.2136C11.3115 10.233 11.2529 10.2718 11.1944 10.3107C11.1358 10.3495 11.0772 10.3883 11.0381 10.4272C10.9991 10.466 10.96 10.5243 10.921 10.5825C10.8819 10.6408 10.8429 10.699 10.8038 10.7767C10.8038 10.7961 10.7843 10.8155 10.7647 10.835L6.05847 24.4854C5.86319 25.0485 6.15611 25.6505 6.72243 25.8447C6.8396 25.8835 6.95677 25.9029 7.07393 25.9029C7.52308 25.9029 7.93317 25.6311 8.08939 25.1845L11.7997 14.4466L15.5101 25.1845C15.6077 25.4951 15.8616 25.6699 16.135 25.7864C16.174 25.7864 16.2131 25.8447 16.2521 25.8447C16.3107 25.8641 16.3888 25.8641 16.4474 25.8835C16.4669 25.8835 16.506 25.9029 16.5255 25.9029C16.5255 25.9029 16.545 25.9029 16.5646 25.9029C16.5646 25.9029 16.5841 25.9029 16.6036 25.9029C16.6232 25.9029 16.6622 25.8835 16.6817 25.8835C16.7403 25.8835 16.8184 25.8835 16.877 25.8447C16.9161 25.8447 16.9551 25.8058 16.9942 25.7864C17.2676 25.6699 17.5215 25.4951 17.6191 25.1845L22.052 12.3301C25.1569 12.3689 27.6761 14.8932 27.6761 18C27.6761 21.1068 25.1179 23.6699 21.9739 23.6699H21.9999C21.3555 23.6699 20.8282 24.1942 20.8282 24.835C20.8282 25.4757 21.3555 26 21.9999 26H21.9739C26.4067 26 30.0194 22.4078 30.0194 18C30.0194 13.5922 26.3872 10 21.9543 10Z" fill="white" stroke="white" stroke-width="0.6"/>
</svg>
