<svg width="390" height="844" viewBox="0 0 390 844" fill="none" xmlns="http://www.w3.org/2000/svg">
<rect width="390" height="844" fill="white"/>
<rect x="24.75" y="444.75" width="340.5" height="66.5" rx="11.25" fill="white" stroke="#D0D0D0" stroke-width="1.5"/>
<path d="M55.0195 469.219V486.621H53.4766V469.219H55.0195ZM41.3477 476.621C41.3574 472.93 43.1934 470.576 45.7812 470.566C48.3594 470.576 50.2246 472.93 50.2148 476.621C50.2246 480.322 48.3594 482.666 45.7812 482.656C43.1934 482.666 41.3574 480.322 41.3477 476.621ZM42.832 476.621C42.832 479.443 44.043 481.299 45.7812 481.289C47.5293 481.299 48.7305 479.443 48.7305 476.621C48.7305 473.799 47.5293 471.943 45.7812 471.934C44.043 471.943 42.832 473.799 42.832 476.621ZM73.8672 478.184V479.453H57.9688V478.184H73.8672ZM59.9805 470.879V469.648H71.8164V473.75H61.5625V475.488H72.1875V476.68H60.0391V472.598H70.2734V470.879H59.9805ZM60.1367 486.348V481.035H71.8164V486.348H60.1367ZM61.6406 485.098H70.3125V482.285H61.6406V485.098Z" fill="#D0D0D0"/>
<rect x="24.75" y="520.75" width="340.5" height="66.5" rx="11.25" fill="white" stroke="#D0D0D0" stroke-width="1.5"/>
<path d="M55.0977 545.238V557.973H53.5547V551.312H49.9805V550.043H53.5547V545.238H55.0977ZM40.7812 554.496C43.3398 553.598 45.1953 551.303 45.1953 548.812V547.914H41.2695V546.645H50.625V547.914H46.7383V548.812C46.7383 551.059 48.4766 553.236 51.0156 554.105L50.2148 555.336C48.2617 554.623 46.748 553.168 45.9961 551.371C45.2441 553.383 43.6426 554.975 41.582 555.746L40.7812 554.496ZM43.9453 562.211V556.82H45.4883V560.922H55.5859V562.211H43.9453ZM71.4648 545.219V552.621H74.2383V553.91H71.4648V562.582H69.9219V545.219H71.4648ZM57.7734 557.953C59.1895 557.953 60.8398 557.943 62.5586 557.895V555.98C60.5371 555.746 59.2188 554.555 59.2383 552.836C59.2188 550.873 60.8789 549.604 63.3398 549.613C65.7617 549.604 67.4512 550.873 67.4609 552.836C67.4512 554.564 66.1133 555.746 64.1016 555.98V557.836C65.7129 557.758 67.3535 557.621 68.8672 557.406L68.9648 558.578C65.1758 559.223 61.0742 559.262 58.0273 559.262L57.7734 557.953ZM58.0859 548.598V547.348H62.5586V545.258H64.1016V547.348H68.5547V548.598H58.0859ZM60.6641 552.836C60.6738 554.037 61.7285 554.828 63.3398 554.809C64.9219 554.828 65.9863 554.037 65.9961 552.836C65.9863 551.625 64.9219 550.805 63.3398 550.805C61.7285 550.805 60.6738 551.625 60.6641 552.836ZM89.668 545.238V558.09H88.125V551.41H84.0234V555.121H76.1523V546.391H77.6758V549.477H82.5195V546.391H84.0234V550.121H88.125V545.238H89.668ZM77.6758 553.852H82.5195V550.688H77.6758V553.852ZM78.4375 562.211V556.82H79.9805V560.922H90.0586V562.211H78.4375ZM107.559 547.797V549.066H93.3398V547.797H99.707V545.512H101.211V547.797H107.559ZM92.5586 560.551V559.281H99.707V556.84C96.6113 556.674 94.7461 555.473 94.7656 553.52C94.7461 551.459 96.9238 550.238 100.469 550.258C103.965 550.238 106.182 551.459 106.172 553.52C106.182 555.473 104.277 556.674 101.211 556.84V559.281H108.457V560.551H92.5586ZM96.3086 553.52C96.2891 554.838 97.8809 555.6 100.469 555.609C103.027 555.6 104.619 554.838 104.609 553.52C104.619 552.23 103.027 551.469 100.469 551.469C97.8809 551.469 96.2891 552.23 96.3086 553.52Z" fill="#D0D0D0"/>
<path d="M127.056 239.019V265.704H123.524V252.32H120.955V264.398H117.526V239.485H120.955V249.326H123.524V239.019H127.056ZM104.764 259.654V242.116H114.719V245.12H108.514V256.526C111.093 256.484 113.382 256.339 115.951 255.873L116.231 258.919C112.978 259.55 110.14 259.644 106.628 259.654H104.764ZM150.81 240.593V242.986C150.799 245.472 150.799 248.197 150.116 251.936H153.669V254.951H143.268V265.724H139.497V254.951H129.346V251.936H146.345C147.018 248.487 147.08 245.876 147.091 243.566H132.132V240.593H150.81ZM175.827 239.06V245.265H179.432V248.342H175.827V255.023H172.077V239.06H175.827ZM155.595 243.577V240.635H167.86V248.57H159.366V250.921C163.758 250.901 166.752 250.735 170.139 250.144L170.533 253.117C166.721 253.843 163.292 253.988 157.874 253.977H155.637V245.783H164.214V243.577H155.595ZM157.895 260.68C157.895 257.479 161.386 255.552 167.021 255.541C172.574 255.552 176.075 257.479 176.075 260.68C176.075 263.839 172.574 265.673 167.021 265.662C161.386 265.673 157.895 263.839 157.895 260.68ZM161.583 260.68C161.562 262.14 163.468 262.886 167.021 262.876C170.543 262.886 172.387 262.14 172.387 260.68C172.387 259.198 170.543 258.442 167.021 258.442C163.468 258.442 161.562 259.198 161.583 260.68ZM207.136 239.433V246.467H211.135V248.083H207.136V255.003H205.282V239.433H207.136ZM187.102 243.877V242.323H193.897V239.205H195.731V242.323H202.516V243.877H187.102ZM188.635 249.927C188.614 247.14 191.069 245.338 194.809 245.327C198.497 245.338 200.952 247.14 200.962 249.927C200.952 252.734 198.497 254.516 194.809 254.516C191.069 254.516 188.614 252.734 188.635 249.927ZM190.386 249.927C190.365 251.812 192.136 253.045 194.809 253.055C197.43 253.045 199.201 251.812 199.222 249.927C199.201 248.073 197.43 246.809 194.809 246.798C192.136 246.809 190.365 248.073 190.386 249.927ZM190.986 264.916V256.577H207.136V264.916H190.986ZM192.789 263.363H205.292V258.09H192.789V263.363ZM218.769 242.613C218.748 247.71 217.951 253.925 214.025 258.908L212.543 257.997C215.972 253.925 216.977 248.818 217.153 244.177H212.958V242.613H218.769ZM218.334 259.83C222.136 255.2 222.757 248.829 222.851 244.177H219.619V242.613H224.487C224.477 244.644 224.425 247.13 224.052 249.74H227.916V240.169H229.688V263.912H227.916V251.315H223.793C223.182 254.557 222.012 257.893 219.805 260.742L218.334 259.83ZM232.65 265.289V239.433H234.443V265.289H232.65ZM257.553 239.433V250.258H262.029V251.823H257.553V265.289H255.72V239.433H257.553ZM237.519 245.255V243.68H244.418V239.713H246.262V243.68H252.964V245.255H237.519ZM239.135 253.48C239.114 250.03 241.745 247.617 245.381 247.606C249.007 247.617 251.607 250.03 251.628 253.48C251.607 256.95 249.007 259.333 245.381 259.333C241.745 259.333 239.114 256.95 239.135 253.48ZM240.896 253.48C240.875 255.935 242.781 257.758 245.381 257.738C247.961 257.758 249.846 255.935 249.867 253.48C249.846 251.025 247.961 249.191 245.381 249.181C242.781 249.191 240.875 251.025 240.896 253.48ZM283.855 247.513V249.046H266.286V240.386H268.109V247.513H283.855ZM262.95 254.34V252.807H286.621V254.34H262.95ZM266.141 264.626V257.137H267.964V263.062H284.01V264.626H266.141ZM129.682 284.369C129.682 289 135.297 292.916 139.368 293.703L138.467 295.257C134.831 294.366 130.376 291.538 128.75 287.57C127.113 291.528 122.68 294.345 119.023 295.257L118.153 293.703C122.203 292.895 127.766 289.041 127.776 284.369V282.329H129.682V284.369ZM117.023 302.664V301.089H140.694V302.664H117.023ZM155.259 283.095V299.608H143.501V283.095H155.259ZM145.283 298.075H153.415V284.597H145.283V298.075ZM160.386 306.289V280.433H162.241V290.948H166.716V292.553H162.241V306.289H160.386ZM188.563 294.594V296.148H170.828V282.785H188.252V284.349H172.693V288.544H187.713V290.088H172.693V294.594H188.563ZM167.679 302.798V301.213H191.35V302.798H167.679ZM213.134 280.464V289.166H217.133V290.751H213.134V299.856H211.28V280.464H213.134ZM193.1 285.312V283.769H199.896V280.464H201.729V283.769H208.514V285.312H193.1ZM194.633 291.673C194.612 288.762 197.088 286.897 200.807 286.897C204.464 286.897 206.95 288.762 206.96 291.673C206.95 294.552 204.464 296.396 200.807 296.396C197.088 296.396 194.612 294.552 194.633 291.673ZM196.384 291.673C196.363 293.61 198.134 294.915 200.807 294.894C203.428 294.915 205.199 293.61 205.22 291.673C205.199 289.704 203.428 288.378 200.807 288.378C198.134 288.378 196.363 289.704 196.384 291.673ZM197.13 305.668V298.261H198.953V304.104H214.398V305.668H197.13ZM232.531 285.737C232.531 288.627 234.707 291.579 238.001 292.791L237.017 294.231C234.458 293.237 232.562 291.269 231.661 288.938C230.718 291.476 228.76 293.776 226.171 294.915L225.145 293.475C228.481 292.015 230.76 288.627 230.76 285.737V282.07H232.531V285.737ZM229.827 301.669C229.807 298.779 233.059 297.111 238.415 297.101C243.729 297.111 247.013 298.779 247.013 301.669C247.013 304.539 243.729 306.206 238.415 306.206C233.059 306.206 229.807 304.539 229.827 301.669ZM231.64 301.669C231.63 303.565 234.261 304.746 238.415 304.725C242.528 304.746 245.169 303.565 245.18 301.669C245.169 299.753 242.528 298.582 238.415 298.582C234.261 298.582 231.63 299.753 231.64 301.669ZM239.482 295.64V280.961H241.243V287.612H245.107V280.464H246.858V296.469H245.107V289.166H241.243V295.64H239.482ZM270.342 280.433V287.229H274.382V288.824H270.342V295.713H268.498V280.433H270.342ZM250.255 293.527C252.379 293.527 254.896 293.517 257.517 293.444V291.673C254.399 291.486 252.431 290.264 252.451 288.254C252.431 286.131 254.772 284.887 258.408 284.887C262.023 284.887 264.364 286.131 264.385 288.254C264.364 290.253 262.427 291.465 259.361 291.673V293.372C261.868 293.258 264.416 293.061 266.768 292.729L266.923 294.003C261.319 294.946 255.052 294.988 250.494 294.977L250.255 293.527ZM250.908 283.924V282.536H257.517V280.174H259.361V282.536H265.939V283.924H250.908ZM253.715 298.323V296.956H270.342V301.939H255.611V304.559H271.367V305.958H253.788V300.644H268.518V298.323H253.715ZM254.202 288.254C254.192 289.549 255.839 290.409 258.408 290.398C260.967 290.409 262.624 289.549 262.624 288.254C262.624 287.001 260.967 286.193 258.408 286.182C255.839 286.193 254.192 287.001 254.202 288.254Z" fill="#31A9FF"/>
<rect x="24" y="720" width="342" height="72" rx="12" fill="#31A9FF"/>
<path d="M173.284 746.512V760.544H170.891V746.512H173.284ZM157.468 752.635C157.46 749.809 159.747 747.789 162.702 747.789C165.657 747.789 167.928 749.809 167.928 752.635C167.928 755.507 165.657 757.512 162.702 757.505C159.747 757.512 157.46 755.507 157.468 752.635ZM159.8 752.635C159.792 754.36 161.038 755.423 162.702 755.423C164.32 755.423 165.581 754.36 165.581 752.635C165.581 750.956 164.32 749.87 162.702 749.87C161.038 749.87 159.792 750.956 159.8 752.635ZM160.438 765.535V759.115H162.846V763.597H173.831V765.535H160.438ZM193.825 755.537V757.474H176.132V755.537H193.825ZM176.983 752.795C180.591 752.438 182.946 750.987 183.311 749.361H177.75V747.424H192.237V749.361H186.631C186.988 750.964 189.305 752.438 192.997 752.795L192.153 754.664C188.629 754.307 186.015 752.909 184.959 750.941C183.911 752.901 181.328 754.307 177.796 754.664L176.983 752.795ZM178.191 762.329C178.191 760.065 180.736 758.758 184.952 758.758C189.153 758.758 191.675 760.065 191.682 762.329C191.675 764.608 189.153 765.892 184.952 765.884C180.736 765.892 178.191 764.608 178.191 762.329ZM180.622 762.329C180.606 763.453 182.133 764.015 184.952 764.008C187.74 764.015 189.282 763.453 189.297 762.329C189.282 761.197 187.74 760.627 184.952 760.619C182.133 760.627 180.606 761.197 180.622 762.329ZM210.468 746.497V751.01H213.18V752.97H210.468V757.824H208.068V746.497H210.468ZM195.807 756.791V747.622H198.169V750.265H202.697V747.622H205.082V756.791H195.807ZM197.941 765.641V758.766H210.582V760.665H200.327V763.742H210.947V765.641H197.941ZM198.169 754.899H202.697V752.126H198.169V754.899ZM230.371 746.497V765.899H227.963V746.497H230.371ZM214.289 760.559C219.371 758.143 221.726 754.869 222.151 750.448H215.276V748.556H224.582C224.574 754.337 222.333 759.244 215.542 762.473L214.289 760.559Z" fill="white"/>
</svg>
