<svg width="390" height="844" viewBox="0 0 390 844" fill="none" xmlns="http://www.w3.org/2000/svg">
<g clip-path="url(#clip0_36_930)">
<rect width="390" height="844" fill="white"/>
<path d="M0 0H390V374H18C8.05887 374 0 365.941 0 356V0Z" fill="#31A9FF"/>
<path d="M40.0691 69.8149V91.163H37.2431V80.4558H35.1878V90.1188H32.4448V70.1878H35.1878V78.0608H37.2431V69.8149H40.0691ZM22.2348 86.3232V72.2928H30.1989V74.6961H25.2348V83.8204C27.2983 83.7873 29.1298 83.6713 31.1851 83.2983L31.4088 85.7348C28.8066 86.2403 26.5359 86.3149 23.7265 86.3232H22.2348ZM59.0716 71.0746V72.989C59.0633 74.9779 59.0633 77.1575 58.5163 80.1492H61.3589V82.5608H53.0384V91.1796H50.0219V82.5608H41.9003V80.1492H55.4998C56.0384 77.3895 56.0882 75.3011 56.0964 73.453H44.1296V71.0746H59.0716ZM79.0852 69.8481V74.8122H81.9691V77.2735H79.0852V82.6188H76.0852V69.8481H79.0852ZM62.9001 73.4613V71.1077H72.7122V77.4558H65.9166V79.337C69.4305 79.3204 71.8255 79.1878 74.5354 78.7155L74.8503 81.0939C71.8006 81.674 69.0575 81.7901 64.7233 81.7818H62.9332V75.2265H69.7951V73.4613H62.9001ZM64.7398 87.1436C64.7398 84.5829 67.5327 83.0414 72.041 83.0331C76.4829 83.0414 79.284 84.5829 79.284 87.1436C79.284 89.6713 76.4829 91.1381 72.041 91.1298C67.5327 91.1381 64.7398 89.6713 64.7398 87.1436ZM67.6901 87.1436C67.6735 88.3122 69.1984 88.9088 72.041 88.9006C74.8586 88.9088 76.3338 88.3122 76.3338 87.1436C76.3338 85.9586 74.8586 85.3536 72.041 85.3536C69.1984 85.3536 67.6735 85.9586 67.6901 87.1436Z" fill="white"/>
<path d="M32.5165 23.1565C31.6653 23.1565 30.9047 23.3377 30.2348 23.7001C29.5703 24.0571 29.0486 24.5513 28.6697 25.1829C28.2962 25.8089 28.1095 26.5256 28.1095 27.3328V27.3493C28.1095 28.0962 28.2743 28.7661 28.6038 29.3592C28.9387 29.9523 29.3973 30.4191 29.9794 30.7596C30.5615 31.1001 31.2315 31.2703 31.9893 31.2703C32.5385 31.2703 33.0163 31.1879 33.4226 31.0232C33.8345 30.8584 34.1805 30.6415 34.4606 30.3724C34.7406 30.1033 34.9521 29.8123 35.0948 29.4993H35.3831V27.3081H34.8889V27.3246C34.8889 27.7694 34.7846 28.1676 34.5759 28.519C34.3672 28.8705 34.0844 29.1451 33.7274 29.3428C33.3705 29.5405 32.9668 29.6393 32.5165 29.6393C32.0662 29.6393 31.6653 29.5377 31.3139 29.3345C30.9624 29.1313 30.6851 28.854 30.4819 28.5025C30.2787 28.1456 30.1771 27.7365 30.1771 27.2752V27.2587C30.1771 26.8139 30.2842 26.413 30.4984 26.056C30.7125 25.6936 30.9981 25.408 31.3551 25.1993C31.712 24.9907 32.1047 24.8863 32.533 24.8863C32.9778 24.8863 33.376 24.9934 33.7274 25.2076C34.0844 25.4218 34.3672 25.7128 34.5759 26.0807C34.7846 26.4487 34.8889 26.8578 34.8889 27.3081L35.2596 29.2933C35.2596 29.3702 35.2596 29.4498 35.2596 29.5322C35.2596 29.6091 35.2568 29.6887 35.2513 29.7711C35.2239 30.5289 35.1086 31.2209 34.9054 31.8469C34.7077 32.4675 34.4084 32.9645 34.0075 33.3379C33.6121 33.7058 33.1014 33.8898 32.4753 33.8898C32.1294 33.8898 31.8163 33.8349 31.5363 33.7251C31.2617 33.6097 31.0256 33.4477 30.8279 33.2391C30.6356 33.0304 30.4874 32.7887 30.383 32.5142L30.3501 32.4318H28.266L28.2825 32.5224C28.4143 33.1265 28.6697 33.6647 29.0486 34.1369C29.433 34.6037 29.9162 34.9717 30.4984 35.2408C31.086 35.5043 31.745 35.6361 32.4753 35.6361C33.4693 35.6361 34.3233 35.3835 35.0372 34.8783C35.7566 34.3676 36.3085 33.6372 36.6929 32.6872C37.0773 31.7371 37.2695 30.5948 37.2695 29.2604V29.2439C37.2695 28.1676 37.1432 27.2477 36.8906 26.4844C36.638 25.7156 36.2893 25.0868 35.8444 24.598C35.4051 24.1038 34.8999 23.7413 34.3288 23.5107C33.7576 23.2745 33.1536 23.1565 32.5165 23.1565ZM41.0093 33.7415C41.3882 33.7415 41.7012 33.618 41.9484 33.3709C42.1955 33.1182 42.3191 32.8107 42.3191 32.4483C42.3191 32.0803 42.1955 31.7728 41.9484 31.5257C41.7012 31.2731 41.3882 31.1468 41.0093 31.1468C40.6359 31.1468 40.3229 31.2731 40.0702 31.5257C39.8231 31.7728 39.6996 32.0803 39.6996 32.4483C39.6996 32.8107 39.8231 33.1182 40.0702 33.3709C40.3229 33.618 40.6359 33.7415 41.0093 33.7415ZM41.0093 27.6294C41.3882 27.6294 41.7012 27.5058 41.9484 27.2587C42.1955 27.0061 42.3191 26.6986 42.3191 26.3361C42.3191 25.9682 42.1955 25.6606 41.9484 25.4135C41.7012 25.1609 41.3882 25.0346 41.0093 25.0346C40.6359 25.0346 40.3229 25.1609 40.0702 25.4135C39.8231 25.6606 39.6996 25.9682 39.6996 26.3361C39.6996 26.6986 39.8231 27.0061 40.0702 27.2587C40.3229 27.5058 40.6359 27.6294 41.0093 27.6294ZM50.5153 35.3396H52.5417V33.0578H54.148V31.3033H52.5417V23.453H49.5515C49.222 23.9418 48.8925 24.4442 48.563 24.9605C48.239 25.4712 47.9123 25.9901 47.5828 26.5173C47.2588 27.039 46.932 27.569 46.6025 28.1071C46.2785 28.6398 45.9572 29.1753 45.6387 29.7134C45.3257 30.2516 45.0127 30.7871 44.6997 31.3197V33.0578H50.5153V35.3396ZM46.6766 31.3527V31.2291C46.9073 30.8227 47.1462 30.4136 47.3933 30.0018C47.6404 29.5844 47.8903 29.1698 48.1429 28.7579C48.3955 28.3405 48.6509 27.9259 48.909 27.5141C49.1671 27.1022 49.4225 26.6986 49.6751 26.3032C49.9332 25.9078 50.183 25.5233 50.4247 25.1499H50.5482V31.3527H46.6766ZM59.0657 35.3396H61.1827V23.453H59.0657L55.9602 25.6359V27.6294L58.9174 25.5453H59.0657V35.3396Z" fill="black"/>
<rect opacity="0.35" x="351.592" y="23.5" width="24" height="12" rx="3.8" stroke="black"/>
<path opacity="0.4" d="M377.092 27.7811V31.8566C377.896 31.5114 378.42 30.7085 378.42 29.8189C378.42 28.9293 377.896 28.1263 377.092 27.7811Z" fill="black"/>
<rect x="353.092" y="25" width="21" height="9" rx="2.5" fill="black"/>
<path fill-rule="evenodd" clip-rule="evenodd" d="M335.362 26.104C337.849 26.1041 340.241 27.0262 342.044 28.6797C342.179 28.8074 342.396 28.8058 342.53 28.6761L343.828 27.4126C343.895 27.3469 343.933 27.2578 343.932 27.1651C343.932 27.0724 343.893 26.9838 343.825 26.9188C339.094 22.5441 331.63 22.5441 326.899 26.9188C326.83 26.9837 326.791 27.0724 326.791 27.165C326.79 27.2577 326.828 27.3468 326.896 27.4126L328.193 28.6761C328.327 28.8059 328.544 28.8076 328.68 28.6797C330.482 27.0261 332.875 26.104 335.362 26.104ZM335.359 30.3243C336.716 30.3242 338.025 30.836 339.031 31.7601C339.167 31.8913 339.382 31.8884 339.514 31.7537L340.801 30.4344C340.869 30.3652 340.907 30.2713 340.906 30.1738C340.905 30.0762 340.865 29.9831 340.796 29.9153C337.732 27.0245 332.988 27.0245 329.924 29.9153C329.855 29.9831 329.815 30.0762 329.814 30.1738C329.813 30.2714 329.851 30.3653 329.919 30.4344L331.206 31.7537C331.339 31.8884 331.553 31.8913 331.689 31.7601C332.695 30.8366 334.002 30.3249 335.359 30.3243ZM337.883 33.1179C337.885 33.2232 337.848 33.3248 337.781 33.3986L335.604 35.8533C335.54 35.9255 335.453 35.9661 335.363 35.9661C335.272 35.9661 335.185 35.9255 335.121 35.8533L332.944 33.3986C332.877 33.3247 332.84 33.2231 332.842 33.1178C332.844 33.0124 332.884 32.9127 332.954 32.842C334.345 31.5282 336.38 31.5282 337.771 32.842C337.841 32.9127 337.881 33.0125 337.883 33.1179Z" fill="black"/>
<path fill-rule="evenodd" clip-rule="evenodd" d="M319.292 24.6821C319.292 24.049 318.814 23.5358 318.225 23.5358H317.158C316.569 23.5358 316.092 24.049 316.092 24.6821V34.616C316.092 35.2491 316.569 35.7622 317.158 35.7622H318.225C318.814 35.7622 319.292 35.2491 319.292 34.616V24.6821ZM311.857 25.9811H312.924C313.513 25.9811 313.991 26.5066 313.991 27.1548V34.5885C313.991 35.2367 313.513 35.7622 312.924 35.7622H311.857C311.268 35.7622 310.791 35.2367 310.791 34.5885V27.1548C310.791 26.5066 311.268 25.9811 311.857 25.9811ZM307.526 28.6302H306.459C305.87 28.6302 305.392 29.1623 305.392 29.8188V34.5736C305.392 35.23 305.87 35.7622 306.459 35.7622H307.526C308.115 35.7622 308.592 35.23 308.592 34.5736V29.8188C308.592 29.1623 308.115 28.6302 307.526 28.6302ZM302.225 31.0755H301.158C300.569 31.0755 300.092 31.6 300.092 32.2471V34.5905C300.092 35.2377 300.569 35.7622 301.158 35.7622H302.225C302.814 35.7622 303.292 35.2377 303.292 34.5905V32.2471C303.292 31.6 302.814 31.0755 302.225 31.0755Z" fill="black"/>
<path d="M36.2983 549.271V556.414H34.5635V555.193H31.1602V553.862H34.5635V552.475H31.3315C30.453 554.63 28.3812 556.028 25.2597 556.729L24.663 555.309C27.9779 554.619 29.6354 553.16 29.8785 551.276H25.4309V549.873H31.8066C31.8066 550.315 31.7735 550.735 31.7072 551.138H34.5635V549.271H36.2983ZM26.9945 558.343V556.967H36.2983V560.691H28.7514V561.856H36.663V563.249H27.0166V559.392H34.5525V558.343H26.9945ZM49.9669 549.271V563.381H48.3205V549.271H49.9669ZM37.5691 559.381C39.6078 558.133 40.5028 555.586 40.5028 553.127V552.188H38.0498V550.785H44.4586V552.188H42.1769V553.127C42.1713 555.508 43.0277 557.901 45.0498 559.061L44.0277 560.337C42.7183 559.564 41.8454 558.221 41.3592 556.613C40.8619 558.354 39.9614 559.84 38.6299 560.663L37.5691 559.381ZM43.431 555.597V554.193H45.4641V549.536H47.094V562.702H45.4641V555.597H43.431ZM62.0076 550.144V556.017H55.2065V550.144H62.0076ZM56.0463 562.022C58.759 561.779 60.4883 560.569 60.6485 559.448H56.6209V558.149H60.6872V556.906H62.4275V558.149H66.5104V559.448H62.4717C62.6319 560.541 64.3391 561.746 67.0407 562.022L66.4551 563.348C64.1623 563.105 62.4275 562.204 61.5656 561.028C60.6982 562.221 58.9413 563.094 56.643 563.348L56.0463 562.022ZM56.9137 554.657H60.2894V551.514H56.9137V554.657ZM64.4993 557.309V549.271H66.2175V557.309H64.4993ZM78.4295 554.243V556.099H84.0151V557.492H71.1477V556.099H76.7057V554.243H78.4295ZM71.8439 553.685C74.761 553.315 76.6781 551.718 76.6781 550.033V549.497H78.4461V550.033C78.4461 551.757 80.3411 553.315 83.2914 553.685L82.6174 555.055C80.2969 554.691 78.4516 553.646 77.5511 552.16C76.6505 553.641 74.7997 554.691 72.4792 555.055L71.8439 553.685ZM72.645 560.895C72.645 559.304 74.4848 558.398 77.5621 558.398C80.6284 558.398 82.4516 559.304 82.4571 560.895C82.4516 562.486 80.6284 563.376 77.5621 563.37C74.4848 563.376 72.645 562.486 72.645 560.895ZM74.4129 560.895C74.4019 561.663 75.4903 562.066 77.5621 562.061C79.6063 562.066 80.7113 561.663 80.7223 560.895C80.7113 560.116 79.6063 559.735 77.5621 559.735C75.4903 559.735 74.4019 560.116 74.4129 560.895ZM95.8274 549.95V551.05C95.8274 552.155 95.8274 553.398 95.4738 555.061H97.4075V556.464H84.4959V555.061H93.7224C94.0594 553.536 94.087 552.381 94.0925 551.348H86.0925V549.95H95.8274ZM86.0483 563.215V558.11H95.8053V563.215H86.0483ZM87.75 561.812H94.0815V559.47H87.75V561.812Z" fill="black"/>
<rect x="24" y="582" width="342" height="86" rx="12" fill="#31A9FF"/>
<path d="M101.636 617.12V619.68C101.636 620.151 101.254 620.533 100.783 620.533H98.223C97.7517 620.533 97.3696 620.151 97.3696 619.68V617.12C97.3696 616.649 97.7517 616.267 98.223 616.267H100.783C101.254 616.267 101.636 616.649 101.636 617.12Z" stroke="white" stroke-width="2" stroke-linecap="round" stroke-linejoin="round"/>
<path d="M97.3696 624.8H101.636" stroke="white" stroke-width="2" stroke-linecap="round" stroke-linejoin="round"/>
<path d="M110.17 624.8V629.067" stroke="white" stroke-width="2" stroke-linecap="round" stroke-linejoin="round"/>
<path d="M105.903 633.333H110.17" stroke="white" stroke-width="2" stroke-linecap="round" stroke-linejoin="round"/>
<path d="M105.903 624.815L105.916 624.8" stroke="white" stroke-width="2" stroke-linecap="round" stroke-linejoin="round"/>
<path d="M114.436 624.815L114.449 624.8" stroke="white" stroke-width="2" stroke-linecap="round" stroke-linejoin="round"/>
<path d="M105.903 629.081L105.916 629.067" stroke="white" stroke-width="2" stroke-linecap="round" stroke-linejoin="round"/>
<path d="M114.436 629.081L114.449 629.067" stroke="white" stroke-width="2" stroke-linecap="round" stroke-linejoin="round"/>
<path d="M114.436 633.348L114.449 633.333" stroke="white" stroke-width="2" stroke-linecap="round" stroke-linejoin="round"/>
<path d="M105.903 620.548L105.916 620.533" stroke="white" stroke-width="2" stroke-linecap="round" stroke-linejoin="round"/>
<path d="M105.903 616.282L105.916 616.267" stroke="white" stroke-width="2" stroke-linecap="round" stroke-linejoin="round"/>
<path d="M101.636 629.92V632.48C101.636 632.951 101.254 633.333 100.783 633.333H98.223C97.7517 633.333 97.3696 632.951 97.3696 632.48V629.92C97.3696 629.449 97.7517 629.067 98.223 629.067H100.783C101.254 629.067 101.636 629.449 101.636 629.92Z" stroke="white" stroke-width="2" stroke-linecap="round" stroke-linejoin="round"/>
<path d="M114.436 617.12V619.68C114.436 620.151 114.054 620.533 113.583 620.533H111.023C110.552 620.533 110.17 620.151 110.17 619.68V617.12C110.17 616.649 110.552 616.267 111.023 616.267H113.583C114.054 616.267 114.436 616.649 114.436 617.12Z" stroke="white" stroke-width="2" stroke-linecap="round" stroke-linejoin="round"/>
<path d="M114.436 612H118.703V616.267" stroke="white" stroke-width="2" stroke-linecap="round" stroke-linejoin="round"/>
<path d="M114.436 637.6H118.703V633.333" stroke="white" stroke-width="2" stroke-linecap="round" stroke-linejoin="round"/>
<path d="M97.3696 612H93.1029V616.267" stroke="white" stroke-width="2" stroke-linecap="round" stroke-linejoin="round"/>
<path d="M97.3696 637.6H93.1029V633.333" stroke="white" stroke-width="2" stroke-linecap="round" stroke-linejoin="round"/>
<path d="M137.39 627.781H139.935L141.272 629.513C142.153 628.594 142.677 627.143 142.677 625.221C142.677 621.666 140.892 619.744 138.355 619.744C135.81 619.744 134.025 621.666 134.025 625.221C134.025 628.776 135.81 630.698 138.355 630.698C138.757 630.698 139.145 630.653 139.509 630.554L137.39 627.781ZM131.214 625.221C131.214 620.192 134.26 617.229 138.355 617.229C142.426 617.229 145.496 620.192 145.496 625.221C145.496 628.039 144.531 630.212 142.966 631.572L145.116 634.345H142.388L141.105 632.704C140.261 633.038 139.342 633.213 138.355 633.213C134.26 633.213 131.214 630.235 131.214 625.221ZM148.009 633V617.442H153.828C157.406 617.442 159.313 619.448 159.313 622.418C159.313 624.53 158.348 626.095 156.51 626.831L159.883 633H156.753L153.699 627.295H150.797V633H148.009ZM150.797 624.97H153.418C155.514 624.97 156.456 624.074 156.456 622.418C156.456 620.762 155.514 619.782 153.403 619.782H150.797V624.97ZM177.419 622.691C177.1 620.823 175.611 619.744 173.719 619.744C171.167 619.744 169.366 621.704 169.366 625.221C169.366 628.799 171.182 630.698 173.704 630.698C175.565 630.698 177.054 629.665 177.419 627.842L180.252 627.857C179.819 630.827 177.358 633.213 173.674 633.213C169.564 633.213 166.556 630.235 166.556 625.221C166.556 620.192 169.602 617.229 173.674 617.229C177.107 617.229 179.766 619.227 180.252 622.691H177.419ZM196.542 625.221C196.542 630.25 193.473 633.213 189.402 633.213C185.307 633.213 182.261 630.235 182.261 625.221C182.261 620.192 185.307 617.229 189.402 617.229C193.473 617.229 196.542 620.192 196.542 625.221ZM185.071 625.221C185.071 628.776 186.857 630.698 189.402 630.698C191.939 630.698 193.724 628.776 193.724 625.221C193.724 621.666 191.939 619.744 189.402 619.744C186.857 619.744 185.071 621.666 185.071 625.221ZM204.299 633H199.034V617.442H204.398C209.039 617.442 211.835 620.359 211.835 625.206C211.835 630.068 209.039 633 204.299 633ZM201.822 630.577H204.162C207.413 630.577 209.062 628.784 209.062 625.206C209.062 621.635 207.413 619.865 204.246 619.865H201.822V630.577ZM214.331 633V617.442H224.435V619.797H217.119V624.036H223.903V626.383H217.119V630.645H224.488V633H214.331ZM240.804 621.719C240.667 620.382 239.551 619.607 237.864 619.607C236.094 619.607 235.038 620.465 235.038 621.643C235.023 622.942 236.406 623.489 237.689 623.793L239.148 624.157C241.473 624.704 243.714 625.927 243.714 628.632C243.714 631.367 241.549 633.235 237.819 633.235C234.203 633.235 231.908 631.503 231.787 628.419H234.537C234.658 630.045 236.033 630.843 237.796 630.843C239.642 630.843 240.91 629.946 240.918 628.609C240.91 627.401 239.786 626.877 238.115 626.444L236.345 625.988C233.785 625.335 232.197 624.044 232.205 621.81C232.189 619.06 234.636 617.229 237.902 617.229C241.207 617.229 243.448 619.09 243.501 621.719H240.804ZM256.524 622.691C256.205 620.823 254.716 619.744 252.825 619.744C250.272 619.744 248.472 621.704 248.472 625.221C248.472 628.799 250.287 630.698 252.809 630.698C254.671 630.698 256.16 629.665 256.524 627.842L259.358 627.857C258.925 630.827 256.464 633.213 252.779 633.213C248.669 633.213 245.661 630.235 245.661 625.221C245.661 620.192 248.707 617.229 252.779 617.229C256.213 617.229 258.872 619.227 259.358 622.691H256.524ZM263.535 633H260.542L266.027 617.442H269.476L274.961 633H271.975L270.684 629.148H264.827L263.535 633ZM265.579 626.9H269.924L267.812 620.617H267.691L265.579 626.9ZM289.599 617.442V633H287.115L279.746 622.372H279.617V633H276.829V617.442H279.344L286.682 628.077H286.819V617.442H289.599Z" fill="white"/>
<circle cx="45" cy="478" r="4" fill="#31A9FF"/>
<circle cx="65" cy="478" r="4" fill="#D9D9D9"/>
<circle cx="85" cy="478" r="4" fill="#D9D9D9"/>
<g filter="url(#filter0_d_36_930)">
<path d="M0 742C0 732.059 8.05888 724 18 724H372C381.941 724 390 732.059 390 742V844H0V742Z" fill="white"/>
</g>
<path d="M63.5 761L81.5 750L99.5 761" stroke="#31A9FF" stroke-width="2.5" stroke-linecap="round" stroke-linejoin="round"/>
<path d="M95.4998 768V780.8C95.4998 781.463 94.9626 782 94.2998 782H68.6998C68.037 782 67.4998 781.463 67.4998 780.8V768" stroke="#31A9FF" stroke-width="2.5" stroke-linecap="round" stroke-linejoin="round"/>
<path d="M77.4999 774H85.4999" stroke="#31A9FF" stroke-width="2.5" stroke-linecap="round" stroke-linejoin="round"/>
<path d="M61.0169 805.469H62.6575V800.516H64.3137V813.703H62.6575V806.875H61.0169V810.75H55.47V801.797H61.0169V805.469ZM59.3919 809.375V803.172H57.095V809.375H59.3919ZM65.5481 800.266H67.22V814.391H65.5481V800.266ZM80.1462 810.484H78.3962V800.281H80.1462V810.484ZM68.6306 804.734C68.6306 804.062 68.7973 803.458 69.1306 802.922C69.4692 802.385 69.9275 801.966 70.5056 801.664C71.089 801.357 71.7348 801.203 72.4431 801.203C73.1515 801.203 73.7947 801.357 74.3728 801.664C74.9561 801.966 75.4119 802.385 75.74 802.922C76.0733 803.458 76.24 804.062 76.24 804.734C76.24 805.417 76.0733 806.029 75.74 806.57C75.4119 807.107 74.9561 807.526 74.3728 807.828C73.7947 808.13 73.1515 808.281 72.4431 808.281C71.7348 808.281 71.089 808.13 70.5056 807.828C69.9275 807.526 69.4692 807.107 69.1306 806.57C68.7973 806.029 68.6306 805.417 68.6306 804.734ZM70.3337 804.734C70.3337 805.141 70.4223 805.497 70.5994 805.805C70.7817 806.112 71.0317 806.349 71.3494 806.516C71.6723 806.682 72.0369 806.766 72.4431 806.766C72.839 806.766 73.1957 806.682 73.5134 806.516C73.8311 806.349 74.0811 806.112 74.2634 805.805C74.4457 805.497 74.5369 805.141 74.5369 804.734C74.5369 804.339 74.4457 803.987 74.2634 803.68C74.0811 803.372 73.8285 803.135 73.5056 802.969C73.1879 802.802 72.8337 802.719 72.4431 802.719C72.0421 802.719 71.6801 802.802 71.3572 802.969C71.0343 803.135 70.7817 803.372 70.5994 803.68C70.4223 803.987 70.3337 804.339 70.3337 804.734ZM70.8025 809.453H72.5525V812.703H80.5369V814.109H70.8025V809.453ZM92.9006 806.094H94.885V807.547H92.9006V814.391H91.1506V800.266H92.9006V806.094ZM81.5569 810.469C83.0985 810.469 84.3017 810.458 85.1663 810.438V809.117C84.6558 809.029 84.2079 808.867 83.8225 808.633C83.4423 808.398 83.148 808.104 82.9397 807.75C82.7366 807.396 82.635 807 82.635 806.562C82.635 806.036 82.7782 805.573 83.0647 805.172C83.3511 804.771 83.7522 804.461 84.2678 804.242C84.7886 804.018 85.385 803.906 86.0569 803.906C86.7235 803.906 87.3147 804.018 87.8303 804.242C88.3511 804.461 88.7574 804.771 89.0491 805.172C89.3407 805.573 89.4892 806.036 89.4944 806.562C89.4892 807 89.3798 807.398 89.1663 807.758C88.9527 808.112 88.6506 808.406 88.26 808.641C87.8746 808.875 87.4267 809.034 86.9163 809.117V810.375C88.2652 810.302 89.4267 810.198 90.4006 810.062L90.51 811.328C89.1715 811.573 87.8043 811.732 86.4084 811.805C85.0126 811.872 83.4788 811.906 81.8069 811.906L81.5569 810.469ZM81.8225 801.891H85.1663V800.328H86.9163V801.891H90.2444V803.266H81.8225V801.891ZM84.2756 806.562C84.2704 806.958 84.4267 807.271 84.7444 807.5C85.0673 807.729 85.497 807.844 86.0334 807.844C86.5803 807.844 87.0152 807.732 87.3381 807.508C87.661 807.284 87.8225 806.969 87.8225 806.562C87.8225 806.156 87.661 805.836 87.3381 805.602C87.0152 805.362 86.5881 805.24 86.0569 805.234C85.5152 805.24 85.0803 805.362 84.7522 805.602C84.4293 805.836 84.2704 806.156 84.2756 806.562ZM102.327 802.578H105.171V800.281H106.905V810.562H105.171V807H102.327V808.219H95.6862V801.453H102.327V802.578ZM100.608 806.859V802.828H97.4206V806.859H100.608ZM97.5925 809.609H99.3581V812.703H107.217V814.109H97.5925V809.609ZM105.171 805.609V804H102.327V805.609H105.171Z" fill="#707070"/>
<path d="M201.75 784C203.158 784 204.3 782.858 204.3 781.45C204.3 780.042 203.158 778.9 201.75 778.9C200.342 778.9 199.2 780.042 199.2 781.45C199.2 782.858 200.342 784 201.75 784Z" stroke="#31A9FF" stroke-width="2.5" stroke-linecap="round" stroke-linejoin="round"/>
<path d="M184.75 784C186.158 784 187.3 782.858 187.3 781.45C187.3 780.042 186.158 778.9 184.75 778.9C183.342 778.9 182.2 780.042 182.2 781.45C182.2 782.858 183.342 784 184.75 784Z" stroke="#31A9FF" stroke-width="2.5" stroke-linecap="round" stroke-linejoin="round"/>
<path d="M177.1 753.4H206L202.6 772.1H180.5L177.1 753.4ZM177.1 753.4C176.817 752.267 175.4 750 172 750" stroke="#31A9FF" stroke-width="2.5" stroke-linecap="round" stroke-linejoin="round"/>
<path d="M202.6 772.1H180.5H177.492C174.459 772.1 172.85 773.428 172.85 775.5C172.85 777.572 174.459 778.9 177.492 778.9H201.75" stroke="#31A9FF" stroke-width="2.5" stroke-linecap="round" stroke-linejoin="round"/>
<path d="M174.753 803.656C174.748 804.505 174.881 805.333 175.152 806.141C175.428 806.948 175.824 807.672 176.339 808.312C176.86 808.948 177.477 809.438 178.191 809.781L177.128 811.172C176.378 810.792 175.727 810.25 175.175 809.547C174.628 808.844 174.201 808.031 173.894 807.109C173.576 808.094 173.128 808.964 172.55 809.719C171.977 810.469 171.295 811.042 170.503 811.438L169.441 810.047C170.175 809.698 170.811 809.19 171.347 808.523C171.889 807.852 172.3 807.094 172.582 806.25C172.868 805.401 173.014 804.536 173.019 803.656V801.406H174.753V803.656ZM179.035 800.266H180.769V805.797H182.941V807.281H180.769V814.391H179.035V800.266ZM195.93 808.453H183.055V807.062H186.055V805.273C185.513 805.044 185.099 804.755 184.812 804.406C184.526 804.052 184.383 803.646 184.383 803.188C184.383 802.63 184.589 802.151 185 801.75C185.417 801.344 186.008 801.034 186.773 800.82C187.539 800.607 188.44 800.5 189.477 800.5C190.513 800.5 191.411 800.607 192.172 800.82C192.938 801.034 193.529 801.344 193.945 801.75C194.362 802.151 194.57 802.63 194.57 803.188C194.565 803.646 194.417 804.052 194.125 804.406C193.839 804.76 193.424 805.049 192.883 805.273V807.062H195.93V808.453ZM184.555 811.828C184.555 811.292 184.75 810.836 185.141 810.461C185.531 810.081 186.094 809.794 186.828 809.602C187.568 809.404 188.451 809.307 189.477 809.312C190.487 809.307 191.357 809.404 192.086 809.602C192.82 809.794 193.383 810.081 193.773 810.461C194.169 810.836 194.367 811.292 194.367 811.828C194.367 812.37 194.172 812.828 193.781 813.203C193.391 813.583 192.828 813.87 192.094 814.062C191.365 814.26 190.492 814.359 189.477 814.359C188.445 814.359 187.562 814.26 186.828 814.062C186.094 813.87 185.531 813.583 185.141 813.203C184.75 812.828 184.555 812.37 184.555 811.828ZM186.195 803.188C186.19 803.609 186.466 803.935 187.023 804.164C187.586 804.388 188.385 804.5 189.422 804.5C190.495 804.5 191.32 804.388 191.898 804.164C192.482 803.94 192.773 803.615 192.773 803.188C192.773 802.76 192.487 802.43 191.914 802.195C191.346 801.961 190.549 801.844 189.523 801.844C188.456 801.844 187.633 801.961 187.055 802.195C186.477 802.424 186.19 802.755 186.195 803.188ZM186.32 811.828C186.315 812.224 186.578 812.526 187.109 812.734C187.641 812.943 188.411 813.047 189.422 813.047C190.458 813.047 191.25 812.945 191.797 812.742C192.349 812.534 192.628 812.229 192.633 811.828C192.628 811.438 192.354 811.141 191.812 810.938C191.271 810.734 190.492 810.63 189.477 810.625C188.445 810.63 187.659 810.734 187.117 810.938C186.581 811.141 186.315 811.438 186.32 811.828ZM191.148 807.062V805.719C190.622 805.792 190.065 805.828 189.477 805.828C188.888 805.828 188.331 805.792 187.805 805.719V807.062H191.148ZM208.247 814.406H206.512V807.188H203.778V805.781H206.512V800.266H208.247V814.406ZM196.372 810.375C197.085 810.052 197.702 809.591 198.223 808.992C198.744 808.393 199.14 807.724 199.411 806.984C199.687 806.245 199.825 805.5 199.825 804.75V804.016H196.793V802.625H199.84V800.562H201.575V802.625H204.528V804.016H201.559V804.75C201.554 805.469 201.689 806.182 201.965 806.891C202.247 807.599 202.65 808.24 203.176 808.812C203.708 809.385 204.335 809.833 205.059 810.156L204.122 811.484C203.335 811.151 202.65 810.654 202.067 809.992C201.484 809.326 201.03 808.56 200.708 807.695C200.39 808.617 199.939 809.43 199.356 810.133C198.778 810.836 198.096 811.365 197.309 811.719L196.372 810.375Z" fill="#707070"/>
<path d="M298.723 771.235H302.959M302.959 771.235H307.194M302.959 771.235V767M302.959 771.235V775.471" stroke="#31A9FF" stroke-width="2.5" stroke-linecap="round" stroke-linejoin="round"/>
<path d="M320.956 759.834L317.75 751.604C317.611 751.247 317.166 751 316.659 751H309L309.899 758.917C309.929 759.176 310.121 759.41 310.425 759.544C311.162 759.866 312.605 760.463 313.731 760.717C315.653 761.15 318.463 760.994 320.063 760.85C320.729 760.79 321.14 760.307 320.956 759.834Z" stroke="#31A9FF" stroke-width="2.5"/>
<path d="M306.525 760.531C307.525 760.293 308.794 759.749 309.505 759.425C309.843 759.271 310.029 758.98 309.996 758.678L309.168 751H296.832L296.004 758.678C295.971 758.98 296.157 759.271 296.495 759.425C297.206 759.749 298.475 760.293 299.475 760.531C302.107 761.156 303.894 761.156 306.525 760.531Z" stroke="#31A9FF" stroke-width="2.5"/>
<path d="M288.25 751.604L285.044 759.834C284.86 760.307 285.271 760.79 285.937 760.85C287.537 760.994 290.347 761.15 292.269 760.717C293.395 760.463 294.838 759.866 295.575 759.544C295.879 759.41 296.071 759.176 296.101 758.917L297 751H289.341C288.834 751 288.389 751.247 288.25 751.604Z" stroke="#31A9FF" stroke-width="2.5"/>
<path d="M288.043 761.5V779.444C288.043 781.408 289.635 783 291.599 783H314.487C316.451 783 318.043 781.408 318.043 779.444V761.5" stroke="#31A9FF" stroke-width="2.5"/>
<path d="M279.263 805.781H281.356V807.234H279.263V814.359H277.528V800.266H279.263V805.781ZM268.122 810.5C269.846 809.641 271.174 808.607 272.106 807.398C273.039 806.185 273.591 804.776 273.763 803.172H268.888V801.734H275.528C275.518 806.37 273.377 809.74 269.106 811.844L268.122 810.5ZM293.626 808.797H291.97V805.219H290.564V808.344H288.939V800.547H290.564V803.781H291.97V800.281H293.626V808.797ZM282.095 801.5H287.658V807.688H282.095V801.5ZM286.048 806.375V802.828H283.736V806.375H286.048ZM284.017 811.703C284.017 811.161 284.212 810.693 284.603 810.297C284.993 809.901 285.553 809.599 286.283 809.391C287.017 809.177 287.876 809.073 288.861 809.078C289.84 809.073 290.694 809.177 291.423 809.391C292.152 809.599 292.715 809.901 293.111 810.297C293.506 810.693 293.704 811.161 293.704 811.703C293.704 812.255 293.506 812.732 293.111 813.133C292.715 813.534 292.152 813.841 291.423 814.055C290.694 814.268 289.84 814.375 288.861 814.375C287.871 814.375 287.012 814.268 286.283 814.055C285.553 813.841 284.993 813.534 284.603 813.133C284.212 812.732 284.017 812.255 284.017 811.703ZM285.751 811.703C285.746 812.135 286.014 812.466 286.556 812.695C287.098 812.919 287.866 813.031 288.861 813.031C289.84 813.031 290.598 812.919 291.134 812.695C291.676 812.466 291.949 812.135 291.954 811.703C291.949 811.286 291.676 810.969 291.134 810.75C290.592 810.526 289.835 810.411 288.861 810.406C287.871 810.411 287.103 810.526 286.556 810.75C286.014 810.969 285.746 811.286 285.751 811.703ZM306.724 808.469H304.99V805.047H302.553V803.625H304.99V800.266H306.724V808.469ZM294.865 807.062C295.594 806.823 296.217 806.471 296.732 806.008C297.253 805.544 297.646 805.016 297.912 804.422C298.183 803.823 298.318 803.208 298.318 802.578V802.469H295.381V801.062H303.006V802.469H300.084V802.594C300.084 803.172 300.211 803.734 300.467 804.281C300.722 804.828 301.099 805.323 301.599 805.766C302.099 806.203 302.704 806.542 303.412 806.781L302.537 808.156C301.766 807.891 301.099 807.505 300.537 807C299.98 806.49 299.542 805.891 299.224 805.203C298.901 805.964 298.446 806.622 297.857 807.18C297.274 807.737 296.573 808.151 295.756 808.422L294.865 807.062ZM297.334 809.078H306.724V814.219H297.334V809.078ZM305.021 812.812V810.453H299.068V812.812H305.021ZM323.327 810.594H321.577V800.281H323.327V810.594ZM311.577 807.266C312.316 807.005 312.947 806.628 313.468 806.133C313.988 805.633 314.379 805.065 314.639 804.43C314.905 803.789 315.035 803.125 315.03 802.438V801.062H316.827V802.438C316.822 803.104 316.947 803.74 317.202 804.344C317.462 804.948 317.848 805.484 318.358 805.953C318.869 806.417 319.488 806.771 320.218 807.016L319.327 808.391C318.535 808.115 317.853 807.708 317.28 807.172C316.707 806.63 316.262 805.992 315.944 805.258C315.626 806.049 315.173 806.737 314.585 807.32C313.996 807.904 313.296 808.344 312.483 808.641L311.577 807.266ZM313.983 809.609H315.733V812.703H323.718V814.109H313.983V809.609ZM329.987 803.281C329.982 803.802 330.112 804.307 330.378 804.797C330.649 805.281 331.042 805.714 331.558 806.094C332.073 806.474 332.691 806.76 333.409 806.953L332.597 808.297C331.8 808.078 331.107 807.745 330.519 807.297C329.935 806.844 329.48 806.305 329.152 805.68C328.834 806.388 328.381 807 327.792 807.516C327.204 808.031 326.498 808.411 325.675 808.656L324.862 807.312C325.581 807.094 326.196 806.779 326.706 806.367C327.217 805.951 327.602 805.477 327.862 804.945C328.123 804.414 328.253 803.859 328.253 803.281V803.203H325.3V801.828H328.253V800.203H330.003V801.828H332.941V803.203H329.987V803.281ZM327.159 811.719C327.154 811.167 327.344 810.695 327.73 810.305C328.115 809.909 328.667 809.609 329.386 809.406C330.11 809.198 330.967 809.094 331.956 809.094C332.951 809.094 333.808 809.198 334.527 809.406C335.251 809.609 335.808 809.909 336.198 810.305C336.589 810.695 336.784 811.167 336.784 811.719C336.784 812.271 336.589 812.747 336.198 813.148C335.808 813.549 335.251 813.854 334.527 814.062C333.803 814.271 332.946 814.375 331.956 814.375C330.967 814.375 330.11 814.268 329.386 814.055C328.667 813.846 328.115 813.542 327.73 813.141C327.344 812.745 327.154 812.271 327.159 811.719ZM328.878 811.719C328.873 812.135 329.139 812.458 329.675 812.688C330.217 812.917 330.977 813.031 331.956 813.031C332.951 813.031 333.714 812.919 334.245 812.695C334.782 812.466 335.05 812.141 335.05 811.719C335.05 811.297 334.784 810.977 334.253 810.758C333.727 810.539 332.961 810.427 331.956 810.422C330.967 810.427 330.204 810.542 329.667 810.766C329.136 810.984 328.873 811.302 328.878 811.719ZM332.519 804.141H335.003V800.266H336.737V808.812H335.003V805.547H332.519V804.141Z" fill="#707070"/>
<g filter="url(#filter1_d_36_930)">
<rect x="20" y="230" width="326" height="208" rx="12" fill="#272739"/>
</g>
<g filter="url(#filter2_d_36_930)">
<path d="M20 131C20 124.373 25.3726 119 32 119H334C340.627 119 346 124.373 346 131V287H32C25.3726 287 20 281.627 20 275V131Z" fill="white"/>
</g>
<rect x="270" y="209" width="54" height="54" rx="12" fill="#31A9FF"/>
<path d="M291.975 227.135V230.015C291.975 230.545 291.545 230.975 291.015 230.975H288.135C287.605 230.975 287.175 230.545 287.175 230.015V227.135C287.175 226.605 287.605 226.175 288.135 226.175H291.015C291.545 226.175 291.975 226.605 291.975 227.135Z" stroke="white" stroke-width="2" stroke-linecap="round" stroke-linejoin="round"/>
<path d="M287.175 235.775H291.975" stroke="white" stroke-width="2" stroke-linecap="round" stroke-linejoin="round"/>
<path d="M301.575 235.775V240.575" stroke="white" stroke-width="2" stroke-linecap="round" stroke-linejoin="round"/>
<path d="M296.775 245.375H301.575" stroke="white" stroke-width="2" stroke-linecap="round" stroke-linejoin="round"/>
<path d="M296.775 235.791L296.789 235.775" stroke="white" stroke-width="2" stroke-linecap="round" stroke-linejoin="round"/>
<path d="M306.375 235.791L306.389 235.775" stroke="white" stroke-width="2" stroke-linecap="round" stroke-linejoin="round"/>
<path d="M296.775 240.591L296.789 240.575" stroke="white" stroke-width="2" stroke-linecap="round" stroke-linejoin="round"/>
<path d="M306.375 240.591L306.389 240.575" stroke="white" stroke-width="2" stroke-linecap="round" stroke-linejoin="round"/>
<path d="M306.375 245.391L306.389 245.375" stroke="white" stroke-width="2" stroke-linecap="round" stroke-linejoin="round"/>
<path d="M296.775 230.991L296.789 230.975" stroke="white" stroke-width="2" stroke-linecap="round" stroke-linejoin="round"/>
<path d="M296.775 226.191L296.789 226.175" stroke="white" stroke-width="2" stroke-linecap="round" stroke-linejoin="round"/>
<path d="M291.975 241.535V244.415C291.975 244.945 291.545 245.375 291.015 245.375H288.135C287.605 245.375 287.175 244.945 287.175 244.415V241.535C287.175 241.005 287.605 240.575 288.135 240.575H291.015C291.545 240.575 291.975 241.005 291.975 241.535Z" stroke="white" stroke-width="2" stroke-linecap="round" stroke-linejoin="round"/>
<path d="M306.375 227.135V230.015C306.375 230.545 305.945 230.975 305.415 230.975H302.535C302.005 230.975 301.575 230.545 301.575 230.015V227.135C301.575 226.605 302.005 226.175 302.535 226.175H305.415C305.945 226.175 306.375 226.605 306.375 227.135Z" stroke="white" stroke-width="2" stroke-linecap="round" stroke-linejoin="round"/>
<path d="M306.375 221.375H311.175V226.175" stroke="white" stroke-width="2" stroke-linecap="round" stroke-linejoin="round"/>
<path d="M306.375 250.175H311.175V245.375" stroke="white" stroke-width="2" stroke-linecap="round" stroke-linejoin="round"/>
<path d="M287.175 221.375H282.375V226.175" stroke="white" stroke-width="2" stroke-linecap="round" stroke-linejoin="round"/>
<path d="M287.175 250.175H282.375V245.375" stroke="white" stroke-width="2" stroke-linecap="round" stroke-linejoin="round"/>
<path d="M54.9848 143.475V158.503H53.124V143.475H54.9848ZM43.4323 154.881V144.831H50.6644V146.346H45.2814V153.308C48.0463 153.296 49.7838 153.225 51.7856 152.867L51.9617 154.388C49.8132 154.793 47.876 154.875 44.7003 154.881H43.4323ZM62.3461 147.731C62.3461 150.196 63.7901 152.785 66.2028 153.795L65.199 155.251C63.4262 154.482 62.123 152.908 61.4362 151.001C60.7494 153.061 59.4345 154.793 57.6734 155.626L56.6109 154.171C58.9825 153.085 60.4559 150.29 60.4676 147.731V146.469H57.1627V144.954H65.6216V146.469H62.3461V147.731ZM67.3063 158.468V143.475H69.1672V158.468H67.3063ZM78.5008 144.326V145.8H73.429V146.944H78.0606V148.342H73.429V149.604C75.8123 149.598 77.3268 149.557 79.1231 149.275L79.2581 150.737C77.2622 151.048 75.5775 151.071 72.7422 151.077H71.5975V144.326H78.5008ZM73.5347 153.496V152.063H83.4259V155.844H75.4014V156.912H83.9072V158.344H73.5523V154.499H81.5885V153.496H73.5347ZM79.0056 148.218V146.751H81.5885V143.475H83.4259V151.47H81.5885V148.218H79.0056ZM101.062 143.487V154.452H99.2129V143.487H101.062ZM88.582 150.913C91.0182 150.05 92.2626 147.931 92.2626 145.782V144.315H94.1704V145.782C94.1587 147.872 95.3856 149.844 97.7688 150.643L96.8237 152.104C95.1097 151.506 93.8945 150.308 93.2253 148.782C92.5561 150.42 91.3175 151.734 89.5565 152.368L88.582 150.913ZM91.1356 158.186V153.402H92.9964V156.689H101.485V158.186H91.1356ZM116.454 151.247V152.715H110.66V155.298H108.834V152.715H102.735V151.247H116.454ZM104.396 158.186V154.053H106.228V156.689H114.939V158.186H104.396ZM104.52 150.056V143.951H106.345V145.641H112.826V143.951H114.663V150.056H104.52ZM106.345 148.594H112.826V147.021H106.345V148.594ZM130.607 150.461V151.958H116.935V150.461H130.607ZM117.593 148.342C120.381 148.066 122.201 146.944 122.482 145.688H118.185V144.191H129.38V145.688H125.048C125.324 146.927 127.114 148.066 129.967 148.342L129.315 149.786C126.591 149.51 124.572 148.43 123.756 146.909C122.946 148.424 120.95 149.51 118.221 149.786L117.593 148.342ZM118.526 155.709C118.526 153.959 120.492 152.95 123.75 152.95C126.997 152.95 128.945 153.959 128.951 155.709C128.945 157.47 126.997 158.462 123.75 158.456C120.492 158.462 118.526 157.47 118.526 155.709ZM120.404 155.709C120.393 156.577 121.572 157.012 123.75 157.006C125.905 157.012 127.096 156.577 127.108 155.709C127.096 154.834 125.905 154.394 123.75 154.388C121.572 154.394 120.393 154.834 120.404 155.709Z" fill="black"/>
<rect x="198.5" y="140.5" width="65" height="21" rx="10.5" stroke="#31A9FF"/>
<path d="M213.559 148.941C213.559 150.289 212.466 151.382 211.118 151.382C209.769 151.382 208.677 150.289 208.677 148.941C208.677 147.593 209.769 146.5 211.118 146.5C212.466 146.5 213.559 147.593 213.559 148.941Z" stroke="#31A9FF" stroke-linecap="round" stroke-linejoin="round"/>
<path d="M215.235 156C215.235 153.726 213.392 151.882 211.118 151.882C208.844 151.882 207 153.726 207 156" stroke="#31A9FF" stroke-linecap="round" stroke-linejoin="round"/>
<path d="M230.235 145.657V157.122H228.875V151.237H227.64V156.593H226.325V145.963H227.64V150.093H228.875V145.657H230.235ZM220.292 153.747C222.734 152.346 223.771 150.532 223.973 148.239H220.821V147.094H225.351C225.342 150.2 224.363 152.867 221.109 154.73L220.292 153.747ZM241.169 145.666V153.958H239.755V145.666H241.169ZM231.823 149.285C231.819 147.615 233.17 146.421 234.916 146.421C236.662 146.421 238.005 147.615 238.005 149.285C238.005 150.981 236.662 152.166 234.916 152.162C233.17 152.166 231.819 150.981 231.823 149.285ZM233.202 149.285C233.197 150.304 233.933 150.932 234.916 150.932C235.872 150.932 236.618 150.304 236.618 149.285C236.618 148.292 235.872 147.651 234.916 147.651C233.933 147.651 233.197 148.292 233.202 149.285ZM233.579 156.907V153.114H235.002V155.762H241.493V156.907H233.579ZM253.307 151.174V152.306H242.852V151.174H245.285V149.715C244.423 149.347 243.934 148.773 243.939 148.023C243.934 146.654 245.537 145.846 248.073 145.842C250.6 145.846 252.203 146.654 252.203 148.023C252.203 148.777 251.709 149.356 250.834 149.724V151.174H253.307ZM244.069 155.044C244.069 153.724 245.564 152.992 248.064 152.997C250.537 152.992 252.037 153.724 252.041 155.044C252.037 156.382 250.537 157.109 248.064 157.104C245.564 157.109 244.069 156.382 244.069 155.044ZM245.402 148.023C245.393 148.728 246.376 149.1 248.073 149.1C249.761 149.1 250.753 148.728 250.753 148.023C250.753 147.323 249.761 146.932 248.073 146.932C246.376 146.932 245.393 147.323 245.402 148.023ZM245.505 155.044C245.496 155.695 246.399 156.045 248.064 156.036C249.711 156.045 250.623 155.695 250.632 155.044C250.623 154.406 249.711 154.074 248.064 154.065C246.399 154.074 245.496 154.406 245.505 155.044ZM246.708 151.174H249.429V150.084C249.016 150.137 248.562 150.169 248.073 150.169C247.579 150.169 247.126 150.137 246.708 150.084V151.174Z" fill="#31A9FF"/>
<rect x="270.5" y="140.5" width="53" height="21" rx="10.5" stroke="#31A9FF"/>
<path d="M286.503 146.609C286.503 148.05 288.124 149.513 290.566 149.828L290.009 150.968C288.061 150.681 286.512 149.724 285.767 148.427C285.013 149.724 283.469 150.681 281.539 150.968L280.977 149.828C283.406 149.513 285.022 148.059 285.022 146.609V146.021H286.503V146.609ZM280.529 153.127V151.964H290.983V153.127H286.427V157.122H285.031V153.127H280.529ZM295.966 147.296C295.957 148.867 296.872 150.29 298.663 150.86L297.905 151.964C296.657 151.52 295.777 150.685 295.288 149.594C294.785 150.847 293.829 151.83 292.442 152.315L291.688 151.179C293.586 150.555 294.538 149.02 294.547 147.359V146.277H295.966V147.296ZM293.586 154.918C293.582 153.522 295.068 152.71 297.492 152.71C299.92 152.71 301.406 153.522 301.406 154.918C301.406 156.319 299.92 157.118 297.492 157.113C295.068 157.118 293.582 156.319 293.586 154.918ZM294.991 154.918C294.982 155.618 295.894 156.009 297.492 156.004C299.094 156.009 300.001 155.618 300.006 154.918C300.001 154.195 299.094 153.809 297.492 153.809C295.894 153.809 294.982 154.195 294.991 154.918ZM297.68 149.033V147.875H299.965V145.657H301.375V152.4H299.965V149.033H297.68ZM312.175 146.353V147.377C312.175 148.45 312.175 149.626 311.869 151.246H313.454V152.395H308.898V157.14H307.475V152.395H302.999V151.246H310.442C310.756 149.684 310.77 148.517 310.77 147.489H304.238V146.353H312.175Z" fill="#31A9FF"/>
<path d="M54.0111 219.381V233.293H52.7845V219.381H54.0111ZM43.0829 225.293C43.0829 222.343 44.5525 220.464 46.6298 220.453C48.6851 220.464 50.1768 222.343 50.1768 225.293C50.1768 228.254 48.6851 230.133 46.6298 230.133C44.5525 230.133 43.0829 228.254 43.0829 225.293ZM44.2652 225.293C44.2652 227.558 45.2376 229.039 46.6298 229.039C48.0221 229.039 48.9834 227.558 48.9834 225.293C48.9834 223.039 48.0221 221.558 46.6298 221.547C45.2376 221.558 44.2652 223.039 44.2652 225.293ZM68.6078 226.552V227.558H55.8896V226.552H68.6078ZM57.5028 220.707V219.724H66.9724V222.994H58.7625V224.387H67.2708V225.348H57.547V222.077H65.7459V220.707H57.5028ZM57.6244 233.083V228.829H66.9724V233.083H57.6244ZM58.8288 232.077H65.768V229.823H58.8288V232.077Z" fill="#707070"/>
<path d="M44.3646 246.967V248.967H48.4088V246.967H49.6243V253.011H43.1602V246.967H44.3646ZM44.3646 252.017H48.4088V249.928H44.3646V252.017ZM44.5635 255.199V254.215H53.4254V257.575H45.8011V259.11H53.9337V260.116H44.5967V256.646H52.2099V255.199H44.5635ZM52.1989 253.564V246.381H53.4254V249.398H55.5138V250.414H53.4254V253.564H52.1989ZM58.7846 254.326V256.171H65.7349V254.326H66.9503V260.083H57.5691V254.326H58.7846ZM55.9117 253.077V252.061H65.3758C65.7459 250.331 65.7459 249.094 65.7459 248.039H57.5249V247.022H66.9614V248.039C66.9614 249.094 66.9614 250.331 66.5746 252.061H68.6299V253.077H55.9117ZM58.7846 259.077H65.7349V257.144H58.7846V259.077ZM73.1935 246.89C75.2708 246.901 76.7846 248.16 76.7957 249.972C76.7846 251.785 75.2708 253.033 73.1935 253.033C71.094 253.033 69.5802 251.785 69.5802 249.972C69.5802 248.16 71.094 246.901 73.1935 246.89ZM70.7846 249.972C70.7736 251.188 71.8012 252.028 73.1935 252.028C74.5747 252.028 75.6023 251.188 75.6023 249.972C75.6023 248.768 74.5747 247.917 73.1935 247.928C71.8012 247.917 70.7736 248.768 70.7846 249.972ZM71.6907 255.177V254.182H80.7294V257.53H72.9283V259.088H81.2266V260.083H71.7349V256.602H79.5139V255.177H71.6907ZM79.5029 253.508V246.381H80.7294V253.508H79.5029Z" fill="#707070"/>
<path d="M106.89 220.287C106.89 223.79 104.315 226.287 100.215 227.37L99.7182 226.409C103.155 225.497 105.32 223.657 105.58 221.282H100.459V220.287H106.89ZM101.994 233.072V227.901H111.033V233.072H101.994ZM103.21 232.077H109.829V228.884H103.21V232.077ZM109.807 227.238V219.392H111.033V227.238H109.807ZM124.779 219.381V233.271H123.608V225.978H121.575V232.541H120.437V219.691H121.575V224.961H123.608V219.381H124.779ZM113.42 229.834V221.083H118.624V222.088H114.646V228.785C116.564 228.779 117.884 228.702 119.42 228.387L119.53 229.414C117.862 229.768 116.448 229.823 114.315 229.834H113.42ZM137.243 220.287V221.503C137.243 222.818 137.243 224.254 136.845 226.254H138.923V227.271H133.177V233.293H131.95V227.271H126.26V226.254H135.597C136.028 224.26 136.028 222.796 136.028 221.503V221.304H127.851V220.287H137.243Z" fill="#707070"/>
<path d="M100.061 259L100.05 257.972L103.906 253.906C105.243 252.481 105.884 251.718 105.895 250.68C105.884 249.508 104.912 248.757 103.641 248.757C102.293 248.757 101.442 249.608 101.442 250.878H100.105C100.094 248.878 101.641 247.53 103.685 247.53C105.74 247.53 107.199 248.912 107.21 250.68C107.199 251.939 106.613 252.923 104.602 254.989L102.017 257.663V257.751H107.409V259H100.061ZM112.883 259.155C110.629 259.155 109.016 257.95 108.938 256.16H110.364C110.441 257.232 111.513 257.906 112.861 257.906C114.353 257.906 115.435 257.099 115.435 255.917C115.435 254.691 114.452 253.818 112.684 253.818H111.767V252.58H112.684C114.065 252.58 115.027 251.807 115.027 250.635C115.027 249.508 114.198 248.757 112.905 248.757C111.701 248.757 110.596 249.42 110.54 250.525H109.181C109.248 248.735 110.916 247.53 112.927 247.53C115.082 247.53 116.397 248.945 116.386 250.569C116.397 251.851 115.645 252.79 114.463 253.122V253.21C115.933 253.431 116.828 254.481 116.817 255.928C116.828 257.785 115.137 259.155 112.883 259.155ZM118.979 259.088C118.427 259.088 117.963 258.635 117.974 258.083C117.963 257.53 118.427 257.077 118.979 257.077C119.532 257.077 119.985 257.53 119.985 258.083C119.985 258.635 119.532 259.088 118.979 259.088ZM129.11 247.685V259H127.695V249.155H127.629L124.877 250.978V249.564L127.695 247.685H129.11ZM135.645 247.685V259H134.231V249.155H134.164L131.413 250.978V249.564L134.231 247.685H135.645ZM138.497 259.088C137.944 259.088 137.48 258.635 137.491 258.083C137.48 257.53 137.944 257.077 138.497 257.077C139.049 257.077 139.502 257.53 139.502 258.083C139.502 258.635 139.049 259.088 138.497 259.088ZM148.329 259.155C145.82 259.155 144.373 257.044 144.373 253.343C144.373 249.674 145.842 247.53 148.329 247.53C150.815 247.53 152.284 249.674 152.284 253.343C152.284 257.044 150.837 259.155 148.329 259.155ZM145.743 253.343C145.743 256.271 146.693 257.906 148.329 257.906C149.964 257.906 150.914 256.271 150.914 253.343C150.914 250.414 149.953 248.757 148.329 248.757C146.704 248.757 145.743 250.414 145.743 253.343ZM157.446 247.53C159.391 247.552 161.557 248.724 161.557 252.89C161.557 256.912 159.91 259.155 157.258 259.155C155.269 259.155 153.866 257.939 153.579 256.138H154.971C155.225 257.155 155.999 257.906 157.258 257.906C159.104 257.906 160.231 256.315 160.242 253.564H160.087C159.435 254.503 158.397 255.066 157.192 255.066C155.17 255.066 153.49 253.508 153.49 251.32C153.49 249.221 155.037 247.508 157.446 247.53ZM154.861 251.309C154.861 252.713 155.921 253.829 157.402 253.829C158.872 253.829 160.021 252.613 160.021 251.287C160.021 249.983 158.938 248.768 157.446 248.768C155.966 248.768 154.85 249.917 154.861 251.309Z" fill="#707070"/>
<path d="M56.4758 327.263V328.778H54.251V336.444H52.4019V321.475H54.251V327.263H56.4758ZM43.0214 332.734V322.925H44.8588V331.208C46.8605 331.184 48.9855 331.002 51.2514 330.539L51.451 332.088C48.9151 332.599 46.52 332.74 44.2835 332.734H43.0214ZM61.5477 322.508C63.9251 322.508 65.6627 324.005 65.6686 326.136C65.6627 328.273 63.9251 329.764 61.5477 329.764C59.1879 329.764 57.421 328.273 57.4269 326.136C57.421 324.005 59.1879 322.508 61.5477 322.508ZM56.7518 331.836C59.4579 331.842 63.1972 331.812 66.4434 331.349L66.5843 332.687C63.2266 333.333 59.6282 333.356 56.9749 333.356L56.7518 331.836ZM59.2583 326.136C59.2466 327.392 60.2328 328.161 61.5477 328.161C62.8744 328.161 63.8664 327.392 63.8664 326.136C63.8664 324.892 62.8802 324.111 61.5477 324.111C60.2328 324.111 59.2466 324.892 59.2583 326.136ZM67.3357 336.503V321.475H69.1789V336.503H67.3357ZM86.5861 329.03V330.509H82.1541V333.233H88.1065V334.724H74.3879V333.233H80.2992V330.509H76.0609V322.579H86.4511V324.07H77.9335V325.778H86.1106V327.234H77.9335V329.03H86.5861ZM100.61 322.197V323.553C100.61 325.009 100.61 326.565 100.205 328.707H102.26V330.204H88.5703V328.707H98.3324C98.4909 327.932 98.5907 327.234 98.6552 326.588L90.0907 326.94L89.8793 325.432L98.7433 325.214C98.7668 324.674 98.7668 324.17 98.7668 323.682H90.2668V322.197H100.61ZM90.2139 336.186V331.437H92.0572V334.689H100.868V336.186H90.2139Z" fill="white"/>
<circle cx="59" cy="396" r="18" fill="#31A9FF"/>
<path d="M97.2956 387.528V404.5H94.2293V390.503H94.1298L90.1602 393.039V390.246L94.3702 387.528H97.2956ZM107.681 404.823C103.587 404.815 101.151 401.591 101.159 396.03C101.159 390.486 103.612 387.296 107.681 387.296C111.742 387.296 114.203 390.494 114.203 396.03C114.195 401.608 111.767 404.823 107.681 404.823ZM104.234 396.03C104.234 400.108 105.552 402.238 107.681 402.238C109.803 402.238 111.121 400.108 111.121 396.03C111.112 391.978 109.795 389.84 107.681 389.84C105.56 389.84 104.242 391.978 104.234 396.03ZM123.009 404.823C118.916 404.815 116.479 401.591 116.487 396.03C116.487 390.486 118.94 387.296 123.009 387.296C127.07 387.296 129.532 390.494 129.532 396.03C129.523 401.608 127.095 404.823 123.009 404.823ZM119.562 396.03C119.562 400.108 120.88 402.238 123.009 402.238C125.131 402.238 126.449 400.108 126.449 396.03C126.44 391.978 125.123 389.84 123.009 389.84C120.888 389.84 119.57 391.978 119.562 396.03ZM134.855 402.809L132.9 409.381H130.67L131.872 402.809H134.855ZM143.681 404.823C139.587 404.815 137.151 401.591 137.159 396.03C137.159 390.486 139.612 387.296 143.681 387.296C147.742 387.296 150.203 390.494 150.203 396.03C150.195 401.608 147.767 404.823 143.681 404.823ZM140.234 396.03C140.234 400.108 141.552 402.238 143.681 402.238C145.803 402.238 147.121 400.108 147.121 396.03C147.112 391.978 145.795 389.84 143.681 389.84C141.56 389.84 140.242 391.978 140.234 396.03ZM159.009 404.823C154.916 404.815 152.479 401.591 152.487 396.03C152.487 390.486 154.94 387.296 159.009 387.296C163.07 387.296 165.532 390.494 165.532 396.03C165.523 401.608 163.095 404.823 159.009 404.823ZM155.562 396.03C155.562 400.108 156.88 402.238 159.009 402.238C161.131 402.238 162.449 400.108 162.449 396.03C162.44 391.978 161.123 389.84 159.009 389.84C156.888 389.84 155.57 391.978 155.562 396.03ZM174.338 404.823C170.244 404.815 167.807 401.591 167.816 396.03C167.816 390.486 170.269 387.296 174.338 387.296C178.398 387.296 180.86 390.494 180.86 396.03C180.851 401.608 178.423 404.823 174.338 404.823ZM170.89 396.03C170.89 400.108 172.208 402.238 174.338 402.238C176.459 402.238 177.777 400.108 177.777 396.03C177.769 391.978 176.451 389.84 174.338 389.84C172.216 389.84 170.898 391.978 170.89 396.03Z" fill="white"/>
<path d="M192.635 404.5H190.414L196.63 387.528H198.851L205.066 404.5H202.845L201.155 399.727H194.326L192.635 404.5ZM194.981 397.87H200.5L197.807 390.262H197.674L194.981 397.87ZM220.84 387.528V404.5H218.818L209.636 391.29H209.47V404.5H207.365V387.528H209.404L218.603 400.771H218.768V387.528H220.84ZM229.862 404.5H224.592V387.528H230.078C235.034 387.528 237.951 390.71 237.951 395.981C237.951 401.285 235.034 404.5 229.862 404.5ZM226.697 402.627H229.73C233.89 402.627 235.896 400.108 235.896 395.981C235.896 391.887 233.89 389.401 229.945 389.401H226.697V402.627Z" fill="white"/>
<rect x="158.5" y="318.5" width="79" height="21" rx="10.5" stroke="white"/>
<path d="M168 326H177" stroke="white" stroke-linecap="round" stroke-linejoin="round"/>
<path d="M170 324L168 326L170 328" stroke="white" stroke-linecap="round" stroke-linejoin="round"/>
<path d="M179 332H170" stroke="white" stroke-linecap="round" stroke-linejoin="round"/>
<path d="M177 330L179 332L177 334" stroke="white" stroke-linecap="round" stroke-linejoin="round"/>
<path d="M192.265 323.747V327.698H193.953V328.541H192.265V332.573H191.269V323.747H192.265ZM183.404 330.454C184.302 330.454 185.361 330.445 186.465 330.404V329.551C185.15 329.421 184.302 328.797 184.311 327.841C184.302 326.755 185.361 326.099 186.95 326.108C188.548 326.099 189.59 326.755 189.599 327.841C189.59 328.793 188.768 329.412 187.462 329.547V330.359C188.517 330.301 189.585 330.202 190.568 330.05L190.649 330.768C188.234 331.217 185.496 331.253 183.521 331.271L183.404 330.454ZM183.691 325.615V324.86H186.465V323.711H187.462V324.86H190.227V325.615H183.691ZM185.101 334.781V331.98H186.097V333.955H192.678V334.781H185.101ZM185.262 327.841C185.253 328.461 185.909 328.856 186.95 328.856C187.992 328.856 188.647 328.461 188.647 327.841C188.647 327.204 187.992 326.809 186.95 326.809C185.909 326.809 185.253 327.204 185.262 327.841ZM204.048 323.756V332.034H203.052V327.698H200.726V326.881H203.052V323.756H204.048ZM194.738 329.771C196.408 329.188 197.611 327.698 197.611 326.081V325.498H195.061V324.672H201.139V325.498H198.617V326.081C198.617 327.536 199.748 328.954 201.4 329.52L200.879 330.319C199.604 329.861 198.621 328.914 198.132 327.747C197.642 329.049 196.601 330.086 195.259 330.588L194.738 329.771ZM196.803 334.781V331.289H197.8V333.955H204.362V334.781H196.803ZM214.664 323.747V328.398H216.549V329.233H214.664V335.032H213.677V323.747H214.664ZM205.866 326.387V325.561H208.766V323.882H209.762V325.561H212.581V326.387H205.866ZM206.512 329.915C206.503 328.389 207.67 327.32 209.277 327.32C210.875 327.32 212.034 328.389 212.043 329.915C212.034 331.441 210.875 332.501 209.277 332.501C207.67 332.501 206.503 331.441 206.512 329.915ZM207.464 329.915C207.455 330.939 208.227 331.666 209.277 331.657C210.319 331.666 211.082 330.939 211.091 329.915C211.082 328.892 210.319 328.155 209.277 328.155C208.227 328.155 207.455 328.892 207.464 329.915ZM226.492 323.747V335.032H225.495V323.747H226.492ZM217.308 332.097C220.36 330.651 221.918 328.479 222.138 325.785H217.828V324.977H223.152C223.143 328.218 221.635 331.091 217.846 332.914L217.308 332.097Z" fill="white"/>
<rect x="244.5" y="318.5" width="79" height="21" rx="10.5" stroke="white"/>
<path d="M256 329H260M260 329H264M260 329V325M260 329V333" stroke="white" stroke-linecap="round" stroke-linejoin="round"/>
<path d="M279.747 329.323V330.131H275.087V331.28C277.233 331.365 278.472 332.011 278.481 333.138C278.472 334.35 277.044 335.006 274.593 335.006C272.142 335.006 270.697 334.35 270.697 333.138C270.697 332.007 271.954 331.36 274.108 331.28V330.131H269.458V329.323H279.747ZM270.059 327.949C272.156 327.747 273.938 326.912 274.05 325.66H270.517V324.852H274.108V323.72H275.087V324.852H278.696V325.66H275.145C275.249 326.912 277.035 327.747 279.136 327.949L278.831 328.721C276.954 328.528 275.28 327.855 274.598 326.714C273.911 327.855 272.237 328.528 270.374 328.721L270.059 327.949ZM271.711 333.138C271.702 333.847 272.771 334.242 274.593 334.233C276.407 334.242 277.475 333.847 277.484 333.138C277.475 332.429 276.407 332.025 274.593 332.025C272.771 332.025 271.702 332.429 271.711 333.138ZM290.048 323.756V332.034H289.052V327.698H286.726V326.881H289.052V323.756H290.048ZM280.738 329.771C282.408 329.188 283.611 327.698 283.611 326.081V325.498H281.061V324.672H287.139V325.498H284.617V326.081C284.617 327.536 285.748 328.954 287.4 329.52L286.879 330.319C285.604 329.861 284.621 328.914 284.132 327.747C283.642 329.049 282.601 330.086 281.259 330.588L280.738 329.771ZM282.803 334.781V331.289H283.8V333.955H290.362V334.781H282.803ZM300.664 323.747V328.398H302.549V329.233H300.664V335.032H299.677V323.747H300.664ZM291.866 326.387V325.561H294.766V323.882H295.762V325.561H298.581V326.387H291.866ZM292.512 329.915C292.503 328.389 293.67 327.32 295.277 327.32C296.875 327.32 298.034 328.389 298.043 329.915C298.034 331.441 296.875 332.501 295.277 332.501C293.67 332.501 292.503 331.441 292.512 329.915ZM293.464 329.915C293.455 330.939 294.227 331.666 295.277 331.657C296.319 331.666 297.082 330.939 297.091 329.915C297.082 328.892 296.319 328.155 295.277 328.155C294.227 328.155 293.455 328.892 293.464 329.915ZM312.492 323.747V335.032H311.495V323.747H312.492ZM303.308 332.097C306.36 330.651 307.918 328.479 308.138 325.785H303.828V324.977H309.152C309.143 328.218 307.635 331.091 303.846 332.914L303.308 332.097Z" fill="white"/>
<g opacity="0.8">
<g filter="url(#filter3_d_36_930)">
<rect x="362" y="230" width="326" height="208" rx="12" fill="#272739"/>
</g>
<g filter="url(#filter4_d_36_930)">
<path d="M362 131C362 124.373 367.373 119 374 119H676C682.627 119 688 124.373 688 131V287H374C367.373 287 362 281.627 362 275V131Z" fill="white"/>
</g>
<path d="M396.985 143.475V158.503H395.124V143.475H396.985ZM385.432 154.881V144.831H392.664V146.346H387.281V153.308C390.046 153.296 391.784 153.225 393.786 152.867L393.962 154.388C391.813 154.793 389.876 154.875 386.7 154.881H385.432ZM404.346 147.731C404.346 150.196 405.79 152.785 408.203 153.795L407.199 155.251C405.426 154.482 404.123 152.908 403.436 151.001C402.749 153.061 401.434 154.793 399.673 155.626L398.611 154.171C400.982 153.085 402.456 150.29 402.468 147.731V146.469H399.163V144.954H407.622V146.469H404.346V147.731ZM409.306 158.468V143.475H411.167V158.468H409.306ZM420.501 144.326V145.8H415.429V146.944H420.061V148.342H415.429V149.604C417.812 149.598 419.327 149.557 421.123 149.275L421.258 150.737C419.262 151.048 417.577 151.071 414.742 151.077H413.597V144.326H420.501ZM415.535 153.496V152.063H425.426V155.844H417.401V156.912H425.907V158.344H415.552V154.499H423.589V153.496H415.535ZM421.006 148.218V146.751H423.589V143.475H425.426V151.47H423.589V148.218H421.006ZM443.062 143.487V154.452H441.213V143.487H443.062ZM430.582 150.913C433.018 150.05 434.263 147.931 434.263 145.782V144.315H436.17V145.782C436.159 147.872 437.386 149.844 439.769 150.643L438.824 152.104C437.11 151.506 435.895 150.308 435.225 148.782C434.556 150.42 433.318 151.734 431.556 152.368L430.582 150.913ZM433.136 158.186V153.402H434.996V156.689H443.485V158.186H433.136ZM458.454 151.247V152.715H452.66V155.298H450.834V152.715H444.735V151.247H458.454ZM446.396 158.186V154.053H448.228V156.689H456.939V158.186H446.396ZM446.52 150.056V143.951H448.345V145.641H454.826V143.951H456.663V150.056H446.52ZM448.345 148.594H454.826V147.021H448.345V148.594ZM472.607 150.461V151.958H458.935V150.461H472.607ZM459.593 148.342C462.381 148.066 464.201 146.944 464.482 145.688H460.185V144.191H471.38V145.688H467.048C467.324 146.927 469.114 148.066 471.967 148.342L471.315 149.786C468.591 149.51 466.572 148.43 465.756 146.909C464.946 148.424 462.95 149.51 460.221 149.786L459.593 148.342ZM460.526 155.709C460.526 153.959 462.492 152.95 465.75 152.95C468.997 152.95 470.945 153.959 470.951 155.709C470.945 157.47 468.997 158.462 465.75 158.456C462.492 158.462 460.526 157.47 460.526 155.709ZM462.404 155.709C462.393 156.577 463.572 157.012 465.75 157.006C467.905 157.012 469.096 156.577 469.108 155.709C469.096 154.834 467.905 154.394 465.75 154.388C463.572 154.394 462.393 154.834 462.404 155.709Z" fill="black"/>
<path d="M396.011 219.381V233.293H394.785V219.381H396.011ZM385.083 225.293C385.083 222.343 386.552 220.464 388.63 220.453C390.685 220.464 392.177 222.343 392.177 225.293C392.177 228.254 390.685 230.133 388.63 230.133C386.552 230.133 385.083 228.254 385.083 225.293ZM386.265 225.293C386.265 227.558 387.238 229.039 388.63 229.039C390.022 229.039 390.983 227.558 390.983 225.293C390.983 223.039 390.022 221.558 388.63 221.547C387.238 221.558 386.265 223.039 386.265 225.293ZM410.608 226.552V227.558H397.89V226.552H410.608ZM399.503 220.707V219.724H408.972V222.994H400.762V224.387H409.271V225.348H399.547V222.077H407.746V220.707H399.503ZM399.624 233.083V228.829H408.972V233.083H399.624ZM400.829 232.077H407.768V229.823H400.829V232.077Z" fill="#707070"/>
<path d="M386.365 246.967V248.967H390.409V246.967H391.624V253.011H385.16V246.967H386.365ZM386.365 252.017H390.409V249.928H386.365V252.017ZM386.564 255.199V254.215H395.425V257.575H387.801V259.11H395.934V260.116H386.597V256.646H394.21V255.199H386.564ZM394.199 253.564V246.381H395.425V249.398H397.514V250.414H395.425V253.564H394.199ZM400.785 254.326V256.171H407.735V254.326H408.95V260.083H399.569V254.326H400.785ZM397.912 253.077V252.061H407.376C407.746 250.331 407.746 249.094 407.746 248.039H399.525V247.022H408.961V248.039C408.961 249.094 408.961 250.331 408.575 252.061H410.63V253.077H397.912ZM400.785 259.077H407.735V257.144H400.785V259.077ZM415.193 246.89C417.271 246.901 418.785 248.16 418.796 249.972C418.785 251.785 417.271 253.033 415.193 253.033C413.094 253.033 411.58 251.785 411.58 249.972C411.58 248.16 413.094 246.901 415.193 246.89ZM412.785 249.972C412.774 251.188 413.801 252.028 415.193 252.028C416.575 252.028 417.602 251.188 417.602 249.972C417.602 248.768 416.575 247.917 415.193 247.928C413.801 247.917 412.774 248.768 412.785 249.972ZM413.691 255.177V254.182H422.729V257.53H414.928V259.088H423.227V260.083H413.735V256.602H421.514V255.177H413.691ZM421.503 253.508V246.381H422.729V253.508H421.503Z" fill="#707070"/>
<path d="M398.476 327.263V328.778H396.251V336.444H394.402V321.475H396.251V327.263H398.476ZM385.021 332.734V322.925H386.859V331.208C388.86 331.184 390.985 331.002 393.251 330.539L393.451 332.088C390.915 332.599 388.52 332.74 386.283 332.734H385.021ZM403.548 322.508C405.925 322.508 407.663 324.005 407.669 326.136C407.663 328.273 405.925 329.764 403.548 329.764C401.188 329.764 399.421 328.273 399.427 326.136C399.421 324.005 401.188 322.508 403.548 322.508ZM398.752 331.836C401.458 331.842 405.197 331.812 408.443 331.349L408.584 332.687C405.227 333.333 401.628 333.356 398.975 333.356L398.752 331.836ZM401.258 326.136C401.247 327.392 402.233 328.161 403.548 328.161C404.874 328.161 405.866 327.392 405.866 326.136C405.866 324.892 404.88 324.111 403.548 324.111C402.233 324.111 401.247 324.892 401.258 326.136ZM409.336 336.503V321.475H411.179V336.503H409.336ZM428.586 329.03V330.509H424.154V333.233H430.106V334.724H416.388V333.233H422.299V330.509H418.061V322.579H428.451V324.07H419.933V325.778H428.111V327.234H419.933V329.03H428.586ZM442.61 322.197V323.553C442.61 325.009 442.61 326.565 442.205 328.707H444.26V330.204H430.57V328.707H440.332C440.491 327.932 440.591 327.234 440.655 326.588L432.091 326.94L431.879 325.432L440.743 325.214C440.767 324.674 440.767 324.17 440.767 323.682H432.267V322.197H442.61ZM432.214 336.186V331.437H434.057V334.689H442.868V336.186H432.214Z" fill="white"/>
<circle cx="401" cy="396" r="18" fill="#31A9FF"/>
</g>
</g>
<defs>
<filter id="filter0_d_36_930" x="-30" y="680" width="450" height="180" filterUnits="userSpaceOnUse" color-interpolation-filters="sRGB">
<feFlood flood-opacity="0" result="BackgroundImageFix"/>
<feColorMatrix in="SourceAlpha" type="matrix" values="0 0 0 0 0 0 0 0 0 0 0 0 0 0 0 0 0 0 127 0" result="hardAlpha"/>
<feOffset dy="-14"/>
<feGaussianBlur stdDeviation="15"/>
<feComposite in2="hardAlpha" operator="out"/>
<feColorMatrix type="matrix" values="0 0 0 0 0 0 0 0 0 0 0 0 0 0 0 0 0 0 0.1 0"/>
<feBlend mode="normal" in2="BackgroundImageFix" result="effect1_dropShadow_36_930"/>
<feBlend mode="normal" in="SourceGraphic" in2="effect1_dropShadow_36_930" result="shape"/>
</filter>
<filter id="filter1_d_36_930" x="9.8" y="230" width="346.4" height="242.2" filterUnits="userSpaceOnUse" color-interpolation-filters="sRGB">
<feFlood flood-opacity="0" result="BackgroundImageFix"/>
<feColorMatrix in="SourceAlpha" type="matrix" values="0 0 0 0 0 0 0 0 0 0 0 0 0 0 0 0 0 0 127 0" result="hardAlpha"/>
<feMorphology radius="13" operator="erode" in="SourceAlpha" result="effect1_dropShadow_36_930"/>
<feOffset dy="24"/>
<feGaussianBlur stdDeviation="11.6"/>
<feComposite in2="hardAlpha" operator="out"/>
<feColorMatrix type="matrix" values="0 0 0 0 0.0533592 0 0 0 0 0.0781034 0 0 0 0 0.300798 0 0 0 0.32 0"/>
<feBlend mode="normal" in2="BackgroundImageFix" result="effect1_dropShadow_36_930"/>
<feBlend mode="normal" in="SourceGraphic" in2="effect1_dropShadow_36_930" result="shape"/>
</filter>
<filter id="filter2_d_36_930" x="13" y="119" width="340" height="199" filterUnits="userSpaceOnUse" color-interpolation-filters="sRGB">
<feFlood flood-opacity="0" result="BackgroundImageFix"/>
<feColorMatrix in="SourceAlpha" type="matrix" values="0 0 0 0 0 0 0 0 0 0 0 0 0 0 0 0 0 0 127 0" result="hardAlpha"/>
<feMorphology radius="13" operator="erode" in="SourceAlpha" result="effect1_dropShadow_36_930"/>
<feOffset dy="24"/>
<feGaussianBlur stdDeviation="10"/>
<feComposite in2="hardAlpha" operator="out"/>
<feColorMatrix type="matrix" values="0 0 0 0 0.0533592 0 0 0 0 0.0781034 0 0 0 0 0.300798 0 0 0 0.32 0"/>
<feBlend mode="normal" in2="BackgroundImageFix" result="effect1_dropShadow_36_930"/>
<feBlend mode="normal" in="SourceGraphic" in2="effect1_dropShadow_36_930" result="shape"/>
</filter>
<filter id="filter3_d_36_930" x="351.8" y="230" width="346.4" height="242.2" filterUnits="userSpaceOnUse" color-interpolation-filters="sRGB">
<feFlood flood-opacity="0" result="BackgroundImageFix"/>
<feColorMatrix in="SourceAlpha" type="matrix" values="0 0 0 0 0 0 0 0 0 0 0 0 0 0 0 0 0 0 127 0" result="hardAlpha"/>
<feMorphology radius="13" operator="erode" in="SourceAlpha" result="effect1_dropShadow_36_930"/>
<feOffset dy="24"/>
<feGaussianBlur stdDeviation="11.6"/>
<feComposite in2="hardAlpha" operator="out"/>
<feColorMatrix type="matrix" values="0 0 0 0 0.0533592 0 0 0 0 0.0781034 0 0 0 0 0.300798 0 0 0 0.32 0"/>
<feBlend mode="normal" in2="BackgroundImageFix" result="effect1_dropShadow_36_930"/>
<feBlend mode="normal" in="SourceGraphic" in2="effect1_dropShadow_36_930" result="shape"/>
</filter>
<filter id="filter4_d_36_930" x="355" y="119" width="340" height="199" filterUnits="userSpaceOnUse" color-interpolation-filters="sRGB">
<feFlood flood-opacity="0" result="BackgroundImageFix"/>
<feColorMatrix in="SourceAlpha" type="matrix" values="0 0 0 0 0 0 0 0 0 0 0 0 0 0 0 0 0 0 127 0" result="hardAlpha"/>
<feMorphology radius="13" operator="erode" in="SourceAlpha" result="effect1_dropShadow_36_930"/>
<feOffset dy="24"/>
<feGaussianBlur stdDeviation="10"/>
<feComposite in2="hardAlpha" operator="out"/>
<feColorMatrix type="matrix" values="0 0 0 0 0.0533592 0 0 0 0 0.0781034 0 0 0 0 0.300798 0 0 0 0.32 0"/>
<feBlend mode="normal" in2="BackgroundImageFix" result="effect1_dropShadow_36_930"/>
<feBlend mode="normal" in="SourceGraphic" in2="effect1_dropShadow_36_930" result="shape"/>
</filter>
<clipPath id="clip0_36_930">
<rect width="390" height="844" fill="white"/>
</clipPath>
</defs>
</svg>
